<?xml version="1.0" encoding="UTF-8" standalone="no"?>
<svg
   id="Capa_1"
   x="0px"
   y="0px"
   viewBox="0 0 974.40001 152.60001"
   xml:space="preserve"
   version="1.1"
   sodipodi:docname="euneiz - copia.svg"
   inkscape:version="1.3 (0e150ed6c4, 2023-07-21)"
   width="974.40002"
   height="152.60001"
   xmlns:inkscape="http://www.inkscape.org/namespaces/inkscape"
   xmlns:sodipodi="http://sodipodi.sourceforge.net/DTD/sodipodi-0.dtd"
   xmlns="http://www.w3.org/2000/svg"
   xmlns:svg="http://www.w3.org/2000/svg"><defs
     id="defs32" /><sodipodi:namedview
     id="namedview32"
     pagecolor="#ffffff"
     bordercolor="#999999"
     borderopacity="1"
     inkscape:showpageshadow="0"
     inkscape:pageopacity="0"
     inkscape:pagecheckerboard="0"
     inkscape:deskcolor="#d1d1d1"
     inkscape:zoom="0.84472866"
     inkscape:cx="527.38829"
     inkscape:cy="135.54648"
     inkscape:window-width="1842"
     inkscape:window-height="1051"
     inkscape:window-x="69"
     inkscape:window-y="-9"
     inkscape:window-maximized="1"
     inkscape:current-layer="Capa_1" /><style
     type="text/css"
     id="style1">	.st0{fill:#FFFFFF;}</style><g
     id="g32"
     style="fill:#1b2242;fill-opacity:1;stroke:none;stroke-opacity:1"
     transform="translate(-0.4,-25.6)">	<g
   id="g28"
   style="fill:#1b2242;fill-opacity:1;stroke:none;stroke-opacity:1">		<path
   class="st0"
   d="m 53.6,101.8 c -13.2,0 -19,-7.3 -19,-17.5 v -33 h 6.2 v 33.1 c 0,8 4.2,11.9 12.8,11.9 8.6,0 12.8,-3.9 12.8,-11.9 V 51.3 h 6.2 v 33.1 c 0,10.1 -5.7,17.4 -19,17.4 z"
   id="path1"
   style="fill:#1b2242;fill-opacity:1;stroke:none;stroke-opacity:1" />		<path
   class="st0"
   d="m 109.5,76.2 v 24.7 H 104 V 77.6 c 0,-4.6 -2.2,-8.2 -7.7,-8.2 -6.2,0 -10.4,4 -10.4,9.4 v 22.1 H 80.4 V 65.5 h 5.5 v 4.2 H 86 c 1.9,-2.5 5.6,-5.2 11.6,-5.2 6.5,0.1 11.9,3.6 11.9,11.7 z"
   id="path2"
   style="fill:#1b2242;fill-opacity:1;stroke:none;stroke-opacity:1" />		<path
   class="st0"
   d="m 116.9,55.3 c 0,-2.2 1.9,-3.3 3.5,-3.3 1.5,0 3.5,1.2 3.5,3.3 0,2.2 -1.9,3.3 -3.5,3.3 -1.7,0.1 -3.5,-1.1 -3.5,-3.3 z m 6.2,10.2 v 35.4 h -5.5 V 65.5 Z"
   id="path3"
   style="fill:#1b2242;fill-opacity:1;stroke:none;stroke-opacity:1" />		<path
   class="st0"
   d="m 133.8,65.5 9.8,29.8 h 0.1 l 9.8,-29.8 h 6 l -12.7,35.4 h -6.3 L 127.8,65.5 Z"
   id="path4"
   style="fill:#1b2242;fill-opacity:1;stroke:none;stroke-opacity:1" />		<path
   class="st0"
   d="m 188.1,90 h 5.5 c -1.8,6.6 -6.9,11.9 -15.7,11.9 -10.8,0 -17.3,-7.6 -17.3,-18.6 0,-11.8 6.7,-18.6 17,-18.6 11.1,0 16.5,7.6 16.5,20.1 h -27.9 c 0,6.4 3.8,12.3 11.5,12.3 7.1,-0.1 9.8,-4.7 10.4,-7.1 z M 166.2,79.8 h 22.4 c 0,-5.7 -4.3,-10.4 -11,-10.4 -6.7,0 -11.3,4.7 -11.4,10.4 z"
   id="path5"
   style="fill:#1b2242;fill-opacity:1;stroke:none;stroke-opacity:1" />		<path
   class="st0"
   d="m 218.4,64.8 v 5.5 h -0.1 c -7.7,-1.2 -13,4.2 -13,11.7 v 18.9 h -5.5 V 65.5 h 5.5 v 7 h 0.1 c 1.9,-4.6 4.7,-8 9.8,-8 1.3,0 2.2,0.1 3.2,0.3 z"
   id="path6"
   style="fill:#1b2242;fill-opacity:1;stroke:none;stroke-opacity:1" />		<path
   class="st0"
   d="m 251.3,91.2 c 0,6.5 -5.9,10.7 -13.9,10.7 -10.8,0 -15.8,-5.1 -16.2,-12.8 h 5.5 c 0.3,4 1.7,7.9 10.6,7.9 6,0 8.4,-3.1 8.4,-5.5 0,-5.1 -4.6,-5.4 -9.7,-6.7 -5.4,-1.3 -13.4,-1.9 -13.4,-10.3 0,-5.5 4.9,-10.1 13.2,-10.1 8.8,0 13.5,5 14.1,11.1 h -5.5 c -0.6,-2.7 -1.9,-6.2 -8.5,-6.2 -5,0 -7.7,2 -7.7,4.8 0,4.2 4.8,4.5 9.7,5.7 6.2,1.6 13.3,2.6 13.4,11.4 z"
   id="path7"
   style="fill:#1b2242;fill-opacity:1;stroke:none;stroke-opacity:1" />		<path
   class="st0"
   d="m 256.7,55.3 c 0,-2.2 1.9,-3.3 3.5,-3.3 1.6,0 3.5,1.2 3.5,3.3 0,2.2 -1.9,3.3 -3.5,3.3 -1.7,0.1 -3.5,-1.1 -3.5,-3.3 z m 6.2,10.2 v 35.4 h -5.5 V 65.5 Z"
   id="path8"
   style="fill:#1b2242;fill-opacity:1;stroke:none;stroke-opacity:1" />		<path
   class="st0"
   d="m 301.9,51.3 v 49.6 h -5.5 v -4.4 h -0.1 c -2.1,2.7 -5.4,5.3 -11.1,5.3 -8.9,0 -15.9,-7 -15.9,-18.6 0,-11.6 7.1,-18.6 15.9,-18.6 5.7,0 9,2.5 11.1,5.5 h 0.1 V 51.3 Z m -5.5,31.9 c 0,-8.3 -4.1,-13.8 -10.7,-13.8 -7.3,0 -11,6.9 -11,13.8 0,6.9 3.7,13.8 11,13.8 6.6,0 10.7,-5.5 10.7,-13.8 z"
   id="path9"
   style="fill:#1b2242;fill-opacity:1;stroke:none;stroke-opacity:1" />		<path
   class="st0"
   d="m 324,69.4 c -6.7,0 -8.9,1.9 -9.3,7.1 h -5.5 c 0.3,-6.8 4.6,-11.9 14.8,-11.9 6.7,0 12.8,2.6 12.8,11.2 V 93 c 0,2.8 0.5,4.3 4,3.9 v 3.9 c -1.5,0.5 -2.2,0.5 -3.3,0.5 -3.3,0 -5.3,-0.9 -6.3,-4.8 h -0.1 c -2.2,3.3 -6.2,5.4 -12,5.4 -7.1,0 -11.6,-4.1 -11.6,-10.1 0,-8 6,-10.1 15.1,-11.9 6,-1.1 8.7,-1.9 8.7,-5.4 -0.1,-2.8 -1.6,-5.1 -7.3,-5.1 z m 7.2,17.8 v -5.9 c -1,1 -4.4,2 -8.2,2.8 -6.9,1.5 -10.1,3.2 -10.1,7.4 0,3.5 2.1,5.5 6.7,5.5 6.6,0 11.6,-3 11.6,-9.8 z"
   id="path10"
   style="fill:#1b2242;fill-opacity:1;stroke:none;stroke-opacity:1" />		<path
   class="st0"
   d="m 375.6,51.3 v 49.6 h -5.5 V 96.5 H 370 c -2.1,2.7 -5.4,5.3 -11.1,5.3 -8.9,0 -15.9,-7 -15.9,-18.6 0,-11.6 7.1,-18.6 15.9,-18.6 5.7,0 9,2.5 11.1,5.5 h 0.1 V 51.3 Z m -5.5,31.9 c 0,-8.3 -4.1,-13.8 -10.7,-13.8 -7.3,0 -11,6.9 -11,13.8 0,6.9 3.7,13.8 11,13.8 6.6,0 10.7,-5.5 10.7,-13.8 z"
   id="path11"
   style="fill:#1b2242;fill-opacity:1;stroke:none;stroke-opacity:1" />		<path
   class="st0"
   d="m 427.8,51.3 v 49.6 h -5.5 v -4.4 h -0.1 c -2.1,2.7 -5.4,5.3 -11.1,5.3 -8.9,0 -15.9,-7 -15.9,-18.6 0,-11.6 7.1,-18.6 15.9,-18.6 5.7,0 9,2.5 11.1,5.5 h 0.1 V 51.3 Z m -5.5,31.9 c 0,-8.3 -4.1,-13.8 -10.7,-13.8 -7.3,0 -11,6.9 -11,13.8 0,6.9 3.7,13.8 11,13.8 6.6,0 10.7,-5.5 10.7,-13.8 z"
   id="path12"
   style="fill:#1b2242;fill-opacity:1;stroke:none;stroke-opacity:1" />		<path
   class="st0"
   d="m 460.8,90 h 5.5 c -1.8,6.6 -6.9,11.9 -15.7,11.9 -10.8,0 -17.3,-7.6 -17.3,-18.6 0,-11.8 6.7,-18.6 17,-18.6 11.1,0 16.5,7.6 16.5,20.1 H 439 c 0,6.4 3.8,12.3 11.5,12.3 7.1,-0.1 9.7,-4.7 10.3,-7.1 z M 439,79.8 h 22.4 c 0,-5.7 -4.3,-10.4 -11,-10.4 -6.6,0 -11.4,4.7 -11.4,10.4 z"
   id="path13"
   style="fill:#1b2242;fill-opacity:1;stroke:none;stroke-opacity:1" />		<path
   class="st0"
   d="m 13.6,125.5 9.4,34.7 h 0.1 l 9.4,-34.7 H 45.7 L 29.6,175.1 H 16.5 L 0.4,125.5 Z"
   id="path14"
   style="fill:#1b2242;fill-opacity:1;stroke:none;stroke-opacity:1" />		<path
   class="st0"
   d="m 48.4,130.4 c 0,-3.2 2.4,-4.9 5.5,-4.9 3.1,0 5.5,1.7 5.5,4.9 0,3.2 -2.4,4.9 -5.5,4.9 -3.1,0 -5.5,-1.6 -5.5,-4.9 z m 11.1,9.2 v 35.5 H 48.4 v -35.5 z"
   id="path15"
   style="fill:#1b2242;fill-opacity:1;stroke:none;stroke-opacity:1" />		<path
   class="st0"
   d="m 79,147.9 v 14.7 c 0,4 1.5,4 6.2,4 v 8.3 c -2,0.4 -3.7,0.8 -6.9,0.8 -8.1,0 -10.4,-4.3 -10.4,-12.3 V 147.9 H 63 v -8.3 h 4.9 v -9.9 H 79 v 9.9 h 6.2 v 8.3 z"
   id="path16"
   style="fill:#1b2242;fill-opacity:1;stroke:none;stroke-opacity:1" />		<path
   class="st0"
   d="m 106.3,176.2 c -11.9,0 -19,-7.8 -19,-18.9 0,-11 7.1,-18.9 19,-18.9 11.9,0 18.9,7.8 18.9,18.9 0,11 -7.2,18.9 -18.9,18.9 z m 0,-8.3 c 4.8,0 7.8,-3.7 7.8,-10.5 0,-6.9 -3,-10.5 -7.8,-10.5 -4.8,0 -7.9,3.7 -7.9,10.5 0,6.8 2.9,10.5 7.9,10.5 z"
   id="path17"
   style="fill:#1b2242;fill-opacity:1;stroke:none;stroke-opacity:1" />		<path
   class="st0"
   d="m 152,139.2 v 9.7 h -0.1 c -5.7,-1 -11.7,2.1 -11.7,9.6 V 175 H 129 v -35.5 h 11.1 v 5.8 h 0.1 c 1.7,-4 4.8,-6.5 8.7,-6.5 1,0.1 1.8,0.1 3.1,0.4 z"
   id="path18"
   style="fill:#1b2242;fill-opacity:1;stroke:none;stroke-opacity:1" />		<path
   class="st0"
   d="m 155.6,130.4 c 0,-3.2 2.4,-4.9 5.5,-4.9 3.1,0 5.5,1.7 5.5,4.9 0,3.2 -2.4,4.9 -5.5,4.9 -3.1,0 -5.5,-1.6 -5.5,-4.9 z m 11.1,9.2 v 35.5 h -11.1 v -35.5 z"
   id="path19"
   style="fill:#1b2242;fill-opacity:1;stroke:none;stroke-opacity:1" />		<path
   class="st0"
   d="m 188.5,146.1 c -4,0 -6,1.5 -6.3,4.9 h -10.4 c 0.3,-6.8 5.2,-12.6 16.8,-12.6 10,0 15.5,3.9 15.5,15 v 16.3 c 0,1.9 0.7,2.6 2.1,2.6 v 2.6 c -2.2,0.8 -4.2,1.1 -6.5,1.1 -5,0 -6.4,-2.4 -6.4,-4.8 h -0.1 c -2.3,2.6 -6.5,4.8 -11.2,4.8 -7.5,0 -11.6,-4.2 -11.6,-10.2 0,-7.1 5.2,-10.3 13.5,-12 4.6,-0.9 9.1,-1.6 9.1,-4.6 0,-1.9 -1.5,-3.1 -4.5,-3.1 z m 4.5,16 v -4.3 c -1.4,0.5 -3.1,1 -5.7,1.6 -4.4,1 -5.8,2.8 -5.8,5 0,2.9 1.7,4.2 4.4,4.2 4.8,0 7.1,-3.1 7.1,-6.5 z"
   id="path20"
   style="fill:#1b2242;fill-opacity:1;stroke:none;stroke-opacity:1" />		<path
   class="st0"
   d="m 228.8,152.8 v 9.5 h -18.9 v -9.5 z"
   id="path21"
   style="fill:#1b2242;fill-opacity:1;stroke:none;stroke-opacity:1" />		<path
   class="st0"
   d="m 256.2,134.6 c -8.2,0 -11.3,6.4 -11.3,15.7 0,9.3 3.1,15.7 11.8,15.7 5.8,0 9.8,-3.5 9.9,-8.3 h -9.4 v -9 h 22.3 v 26.4 h -8.9 l -1.2,-6.3 h -0.1 c -2.4,4.5 -7,7.4 -14.3,7.4 -14.1,0 -22.5,-11 -22.5,-25.9 0,-14.9 8.4,-25.9 24,-25.9 13.6,0 21.1,8 22.3,17.5 h -12.5 c -1,-3.4 -3.3,-7.3 -10.1,-7.3 z"
   id="path22"
   style="fill:#1b2242;fill-opacity:1;stroke:none;stroke-opacity:1" />		<path
   class="st0"
   d="m 301.2,146.1 c -4,0 -6,1.5 -6.3,4.9 h -10.4 c 0.3,-6.8 5.2,-12.6 16.8,-12.6 10,0 15.5,3.9 15.5,15 v 16.3 c 0,1.9 0.7,2.6 2.1,2.6 v 2.6 c -2.2,0.8 -4.2,1.1 -6.5,1.1 -5,0 -6.4,-2.4 -6.4,-4.8 h -0.1 c -2.3,2.6 -6.5,4.8 -11.2,4.8 -7.5,0 -11.6,-4.2 -11.6,-10.2 0,-7.1 5.2,-10.3 13.5,-12 4.6,-0.9 9.1,-1.6 9.1,-4.6 0,-1.9 -1.5,-3.1 -4.5,-3.1 z m 4.5,16 v -4.3 c -1.4,0.5 -3.1,1 -5.7,1.6 -4.4,1 -5.8,2.8 -5.8,5 0,2.9 1.7,4.2 4.4,4.2 4.8,0 7.1,-3.1 7.1,-6.5 z"
   id="path23"
   style="fill:#1b2242;fill-opacity:1;stroke:none;stroke-opacity:1" />		<path
   class="st0"
   d="m 354.3,164.6 c 0,7.5 -5.7,11.6 -15.5,11.6 -12.7,0 -17.5,-5.7 -17.9,-12.9 h 10.4 c 0.3,3.5 2.7,5.3 7.1,5.3 3.1,0 4.8,-1 4.8,-3 0,-3 -3.3,-3.5 -8.9,-4.7 -6,-1.3 -12.7,-3.5 -12.7,-11 0,-6.5 5.5,-11.4 15.5,-11.4 11.4,0 15.8,5.8 16.1,12 h -10.4 c -0.3,-2.8 -1.9,-4.4 -5.5,-4.4 -3.1,0 -4.7,1.1 -4.7,2.8 0,2.5 2.2,2.6 7.7,3.7 7.1,1.6 14,4 14,12 z"
   id="path24"
   style="fill:#1b2242;fill-opacity:1;stroke:none;stroke-opacity:1" />		<path
   class="st0"
   d="m 371.1,147.9 v 14.7 c 0,4 1.5,4 6.2,4 v 8.3 c -2,0.4 -3.7,0.8 -6.9,0.8 -8.1,0 -10.4,-4.3 -10.4,-12.3 v -15.5 h -5 v -8.3 h 4.9 v -9.9 H 371 v 9.9 h 6.2 v 8.3 z"
   id="path25"
   style="fill:#1b2242;fill-opacity:1;stroke:none;stroke-opacity:1" />		<path
   class="st0"
   d="m 404.4,164.3 h 11 c -1.9,7.1 -7.5,11.9 -17.1,11.9 -11.8,0 -18.9,-7.8 -18.9,-18.9 0,-11.1 7,-18.9 18.3,-18.9 12.1,0 18.3,8.9 18.3,21.8 h -25.5 c 0,5 3.7,7.6 7.6,7.6 3.9,0 5.6,-1.7 6.3,-3.5 z m -13.9,-10.8 h 14.4 c 0,-4.9 -3,-7.4 -7.2,-7.4 -4.2,0 -7.2,2.5 -7.2,7.4 z"
   id="path26"
   style="fill:#1b2242;fill-opacity:1;stroke:none;stroke-opacity:1" />		<path
   class="st0"
   d="m 419.8,130.4 c 0,-3.2 2.4,-4.9 5.5,-4.9 3.1,0 5.5,1.7 5.5,4.9 0,3.2 -2.4,4.9 -5.5,4.9 -3.1,0 -5.5,-1.6 -5.5,-4.9 z m 11.1,9.2 v 35.5 h -11.1 v -35.5 z"
   id="path27"
   style="fill:#1b2242;fill-opacity:1;stroke:none;stroke-opacity:1" />		<path
   class="st0"
   d="m 452.5,148 v -0.1 h -15.9 v -8.3 h 29.7 v 8 L 449,166.7 v 0.1 h 18 v 8.3 h -31.8 v -8 z"
   id="path28"
   style="fill:#1b2242;fill-opacity:1;stroke:none;stroke-opacity:1" />	</g>	<polygon
   class="st0"
   points="848.2,124.8 861.9,176.4 884.2,176.4 870,123 879.5,25.7 857.8,25.7 "
   id="polygon28"
   style="fill:#1b2242;fill-opacity:1;stroke:none;stroke-opacity:1" />	<g
   id="g31"
   style="fill:#1b2242;fill-opacity:1;stroke:none;stroke-opacity:1">		<polygon
   class="st0"
   points="554,90.9 527.4,90.9 527.4,46 559.9,46 558.6,25.7 505.2,25.7 505.2,176.4 558.1,176.4 560,156.3 527.4,156.3 527.4,110.5 554,110.5 "
   id="polygon29"
   style="fill:#1b2242;fill-opacity:1;stroke:none;stroke-opacity:1" />		<path
   class="st0"
   d="m 632.5,134 c 0,3 -0.2,5.9 -0.5,8.9 -0.3,2.8 -1,5.4 -2.1,7.7 -1,2.2 -2.5,3.9 -4.4,5.2 -1.9,1.3 -4.5,1.9 -7.8,1.9 -3.7,0 -6.6,-0.5 -8.7,-1.6 -2.1,-1.1 -3.7,-2.5 -4.8,-4.4 -1.2,-2 -1.9,-4.3 -2.3,-7 -0.4,-2.9 -0.6,-6 -0.6,-9.4 V 25.7 h -21.7 v 109.8 c 0,28.4 12.2,42.7 36.3,42.7 24.1,0 37.6,-13.2 37.6,-39.2 V 25.7 h -20.9 z"
   id="path29"
   style="fill:#1b2242;fill-opacity:1;stroke:none;stroke-opacity:1" />		<path
   class="st0"
   d="m 734.5,36.5 c 0,4.2 0,9.3 0.1,15.3 l 0.6,63.5 c 0,2.9 0.1,5.7 0.1,8.4 L 696.6,25.6 H 677.4 V 176.3 H 697 V 79.9 l 40,96.4 h 18.2 V 25.7 h -20.7 z"
   id="path30"
   style="fill:#1b2242;fill-opacity:1;stroke:none;stroke-opacity:1" />		<polygon
   class="st0"
   points="827.9,90.9 801.3,90.9 801.3,46 833.8,46 832.5,25.7 779.1,25.7 779.1,176.4 832,176.4 833.9,156.3 801.3,156.3 801.3,110.5 827.9,110.5 "
   id="polygon30"
   style="fill:#1b2242;fill-opacity:1;stroke:none;stroke-opacity:1" />		<polygon
   class="st0"
   points="901.9,45.3 945.6,45.3 894.1,176.4 968,176.4 970.4,157.3 923.9,157.3 974.8,25.7 903.7,25.7 "
   id="polygon31"
   style="fill:#1b2242;fill-opacity:1;stroke:none;stroke-opacity:1" />	</g></g></svg>
