<?xml version="1.0" encoding="UTF-8" standalone="no"?>
<!-- Generator: Adobe Illustrator 15.0.0, SVG Export Plug-In . SVG Version: 6.00 Build 0)  -->

<svg
   version="1.1"
   id="Capa_1"
   x="0px"
   y="0px"
   width="727.75201"
   height="248.80678"
   viewBox="0 0 727.75205 248.80678"
   enable-background="new 0 0 1048.82 1247.24"
   xml:space="preserve"
   sodipodi:docname="SugaarLogo.svg"
   inkscape:version="1.1 (c68e22c387, 2021-05-23)"
   xmlns:inkscape="http://www.inkscape.org/namespaces/inkscape"
   xmlns:sodipodi="http://sodipodi.sourceforge.net/DTD/sodipodi-0.dtd"
   xmlns="http://www.w3.org/2000/svg"
   xmlns:svg="http://www.w3.org/2000/svg"><defs
   id="defs33" /><sodipodi:namedview
   id="namedview31"
   pagecolor="#ffffff"
   bordercolor="#999999"
   borderopacity="1"
   inkscape:pageshadow="0"
   inkscape:pageopacity="0"
   inkscape:pagecheckerboard="0"
   showgrid="false"
   inkscape:zoom="0.69112601"
   inkscape:cx="293.00011"
   inkscape:cy="152.64944"
   inkscape:window-width="1842"
   inkscape:window-height="1051"
   inkscape:window-x="69"
   inkscape:window-y="-9"
   inkscape:window-maximized="1"
   inkscape:current-layer="Capa_1" />
<g
   id="g28"
   transform="translate(-160,-499.24022)">
	<path
   d="m 436.587,702.526 c -13.94,-3.397 -21.895,-10.903 -23.859,-22.52 -0.36,0.182 -0.582,0.361 -0.67,0.537 -0.092,0.181 -0.314,0.36 -0.67,0.536 -1.969,1.252 -4.202,2.773 -6.702,4.558 -2.505,1.787 -5.542,3.933 -9.115,6.434 -1.608,1.248 -3.351,2.722 -5.227,4.423 -1.877,1.696 -4.067,3.795 -6.568,6.3 -11.259,-10.367 -20.642,-15.549 -28.148,-15.549 -3.577,0 -6.526,0.897 -8.846,2.682 1.608,-9.114 5.537,-15.28 11.795,-18.497 v -57.368 c -0.896,-2.32 -2.773,-4.289 -5.63,-5.897 l 0.269,0.268 c -0.897,-0.356 -1.969,-0.624 -3.217,-0.805 -1.253,-0.176 -2.325,-0.444 -3.217,-0.804 -0.36,-0.176 -0.716,-0.268 -1.073,-0.268 h -2.412 V 604.68 L 369.3,577.872 c 12.151,6.258 18.229,14.388 18.229,24.395 v 65.678 c 1.072,0.896 3.841,1.969 8.31,3.217 -0.18,0 -0.536,-0.088 -1.072,-0.268 l -0.536,-0.269 0.268,0.269 c 1.608,1.072 2.991,2.01 4.155,2.814 1.16,0.805 2.099,1.475 2.815,2.01 l 0.536,-0.535 0.536,-0.269 c 0.356,-0.176 0.578,-0.355 0.67,-0.536 0.088,-0.176 0.31,-0.355 0.671,-0.535 v 0.268 c 0.712,-0.356 1.428,-0.893 2.144,-1.609 0.712,-0.712 1.784,-1.607 3.217,-2.68 0.536,0 1.072,-0.268 1.608,-0.805 l 1.609,-0.805 -0.536,-56.562 h -0.268 l -0.536,-0.269 -0.805,-0.268 c -0.36,-0.356 -0.762,-0.758 -1.206,-1.206 -0.448,-0.444 -1.03,-1.114 -1.743,-2.011 l -5.361,2.681 -5.093,-7.506 c 5.717,-1.784 15.368,-9.47 28.952,-23.054 9.114,9.65 15.636,14.476 19.569,14.476 1.608,0 2.949,-0.176 4.021,-0.536 l 0.536,-0.537 0.268,-0.268 h 0.536 l 0.269,-0.268 h 0.536 l 0.268,-0.268 h 1.876 c 0,10.723 -4.469,17.425 -13.403,20.106 v 52.542 c 0,9.114 4.289,13.672 12.867,13.672 h 0.536 l 0.536,-0.269 c 1.429,0 3.485,-0.536 6.166,-1.607 l 1.072,1.876 z m 136.718,-10.722 c 0,-2.857 -1.521,-6.343 -4.559,-10.455 h 0.268 l -0.268,-0.536 -1.34,-1.073 h 0.268 l -0.268,-0.536 c -4.289,-5.537 -6.434,-10.811 -6.434,-15.815 v -54.956 c 3.572,-2.321 6.434,-5.228 8.578,-8.713 2.144,-3.485 3.393,-7.64 3.754,-12.465 -1.434,0.896 -3.176,1.834 -5.229,2.815 -2.055,0.984 -3.799,1.834 -5.227,2.546 h -0.805 c -8.402,0 -15.729,-5.269 -21.982,-15.816 -3.217,1.969 -6.076,3.577 -8.578,4.825 -2.504,1.253 -4.289,2.146 -5.361,2.681 -13.939,6.614 -26.987,9.919 -39.139,9.919 h -1.341 l -0.804,-0.268 c -4.113,0 -7.418,-0.893 -9.919,-2.681 v 2.949 c 0.356,0.536 0.981,1.968 1.877,4.289 0.176,0.536 0.31,0.984 0.402,1.34 0.088,0.36 0.222,0.717 0.402,1.073 0.176,0.716 0.356,1.252 0.536,1.608 v 69.432 c -0.896,0.359 -1.876,1.071 -2.948,2.145 -1.073,1.072 -2.325,2.593 -3.754,4.557 -2.86,3.934 -4.289,7.33 -4.289,10.188 1.609,0 2.589,-0.088 2.949,-0.269 4.289,-1.248 7.238,-1.877 8.847,-1.877 0.176,-0.176 0.712,-0.268 1.608,-0.268 8.398,0 16.797,5.45 25.199,16.353 7.682,-9.475 17.065,-17.064 28.149,-22.787 0.891,5.007 3.217,9.027 6.969,12.064 3.93,3.929 5.896,6.97 5.896,9.114 0,3.393 -3.217,8.042 -9.648,13.939 -5.543,-3.933 -13.497,-5.897 -23.86,-5.897 -8.578,0 -16.621,2.145 -24.127,6.434 -8.402,4.646 -14.208,11.703 -17.424,21.178 8.042,-4.824 15.28,-7.237 21.714,-7.237 7.326,0 12.955,1.516 16.888,4.557 0.892,0.537 1.475,0.846 1.743,0.939 0.269,0.088 0.578,0.31 0.938,0.67 h -0.268 c 0.892,0.892 1.784,1.649 2.681,2.277 0.892,0.625 1.696,1.207 2.412,1.743 h -0.268 c 0.892,0.712 1.475,1.248 1.743,1.608 0.268,0.355 1.026,0.805 2.278,1.341 2.501,-2.505 4.96,-4.918 7.372,-7.238 2.414,-2.324 4.6,-4.382 6.568,-6.166 1.072,-1.252 2.949,-2.814 5.629,-4.69 2.682,-1.877 6.166,-4.336 10.455,-7.372 0.357,-0.361 0.713,-0.629 1.072,-0.806 8.398,-6.076 13.76,-10.635 16.084,-13.671 3.039,-3.755 4.561,-7.42 4.561,-10.992 z m -41.016,-22.25 c -1.432,0.896 -2.996,1.922 -4.691,3.082 -1.701,1.164 -2.907,1.923 -3.619,2.278 l 0.268,-0.268 -1.072,0.536 -0.268,0.268 c -3.753,-3.753 -8.135,-6.073 -13.136,-6.97 -1.252,0 -2.413,-0.176 -3.485,-0.536 v -65.678 c 1.248,0 2.233,-0.176 2.949,-0.536 0.712,-0.356 1.428,-0.712 2.145,-1.073 1.608,0 3.484,-0.536 5.629,-1.608 v 0.268 h 0.268 v -0.268 c 0.712,0.896 1.294,1.743 1.743,2.547 0.444,0.804 0.846,1.386 1.206,1.742 3.753,5.186 8.042,7.774 12.868,7.774 v 58.172 c -0.182,0.182 -0.449,0.27 -0.805,0.27 z m 45.035,11.526 c -0.361,0.536 -0.629,0.804 -0.805,0.804 0,-0.176 0.176,-0.535 0.535,-1.071 z m 99.186,-1.608 9.92,1.341 -23.859,27.075 -20.373,-19.033 -17.961,19.033 c -16.445,-16.084 -32.08,-25.02 -46.912,-26.808 l 0.803,-1.341 c 0.537,-0.536 1.072,-1.16 1.609,-1.876 l 2.949,-4.289 v -70.772 c -2.682,-3.573 -4.021,-6.342 -4.021,-8.31 v -0.536 c 14.832,-4.646 29.219,-11.079 43.16,-19.302 14.65,5.186 29.488,10.187 44.5,15.012 v 79.888 c 1.964,5.896 5.361,9.205 10.185,9.918 z m -41.551,-75.33 c -14.656,-6.433 -22.518,-9.65 -23.59,-9.65 v 0.268 l 1.072,0.804 v 68.091 c 8.754,4.289 16.26,8.846 22.518,13.672 z m 48.521,76.938 c -0.361,0.536 -0.629,0.804 -0.805,0.804 0,-0.176 0.176,-0.535 0.535,-1.071 z m 99.186,-1.608 9.92,1.341 -23.859,27.075 -20.373,-19.033 -17.961,19.033 c -16.445,-16.084 -32.08,-25.02 -46.912,-26.808 l 0.803,-1.341 c 0.537,-0.536 1.072,-1.16 1.609,-1.876 l 2.947,-4.289 v -70.772 c -2.68,-3.573 -4.02,-6.342 -4.02,-8.31 v -0.536 c 14.832,-4.646 29.219,-11.079 43.16,-19.302 14.65,5.186 29.486,10.187 44.5,15.012 v 79.888 c 1.965,5.896 5.362,9.205 10.186,9.918 z m -41.551,-75.33 c -14.656,-6.433 -22.518,-9.65 -23.59,-9.65 v 0.268 l 1.072,0.804 v 68.091 c 8.754,4.289 16.26,8.846 22.518,13.672 z m 48.252,-8.31 c 5.898,0.36 10.363,4.918 13.404,13.672 v 69.699 h -10.455 l 0.268,1.609 c 9.471,5.541 16.354,11.259 20.643,17.156 1.428,1.965 2.5,3.753 3.217,5.361 0.176,0.536 0.355,1.072 0.537,1.608 l 0.268,0.268 v 0.537 c 0.535,0 2.412,-2.413 5.629,-7.238 4.289,-6.258 12.332,-12.867 24.127,-19.838 h -11.527 v -73.452 c 0,-2.145 1.516,-3.217 4.557,-3.217 1.248,0 2.682,0.18 4.289,0.536 7.682,2.145 14.477,3.217 20.375,3.217 1.072,0 2.23,-0.088 3.484,-0.268 5.361,-0.536 9.738,-2.145 13.135,-4.826 3.754,-2.856 5.898,-6.165 6.434,-9.918 -7.686,-2.145 -16.084,-7.414 -25.199,-15.817 l -3.752,2.681 c -8.758,5.898 -15.373,9.651 -19.838,11.259 -1.432,0.536 -2.504,0.804 -3.217,0.804 h -0.803 c -1.789,-2.855 -8.225,-7.594 -19.303,-14.207 z"
   id="path2" />
	<path
   d="m 626.146,748.047 c 5.789,0 9.811,-2.358 12.598,-5.897 l -5.629,-4.664 c -2.09,2.037 -4.021,2.949 -6.434,2.949 -3.164,0 -5.469,-1.609 -6.273,-4.772 h 19.408 c 0.055,-0.696 0.055,-1.448 0.055,-2.091 0,-8.525 -4.611,-15.87 -14.637,-15.87 -8.578,0 -14.639,6.702 -14.639,15.173 v 0.107 c 10e-4,9.007 6.436,15.065 15.551,15.065 z m -5.898,-17.586 c 0.535,-3.163 2.359,-5.254 5.039,-5.254 2.789,0 4.664,2.038 5.041,5.254 z m 35.707,17.532 c 4.342,0 6.863,-2.091 8.846,-4.503 v 3.86 h 10.188 v -39.14 h -10.188 v 13.673 c -1.93,-2.198 -4.504,-4.183 -8.898,-4.183 -6.863,0 -12.762,5.737 -12.762,15.173 v 0.107 c 0,9.277 5.951,15.013 12.814,15.013 z m 3.109,-8.523 c -3.271,0 -5.951,-2.735 -5.951,-6.596 v -0.106 c 0,-3.86 2.68,-6.541 5.951,-6.541 3.27,0 5.896,2.733 5.896,6.541 v 0.106 c 10e-4,3.86 -2.626,6.596 -5.896,6.596 z m 21.393,-23.752 h 10.615 v -7.507 h -10.615 z m 0.213,31.633 h 10.188 V 718.346 H 680.67 Z m 27.398,0.589 c 2.84,0 5.254,-0.645 7.076,-1.662 v -7.989 c -1.232,0.59 -2.52,0.965 -3.859,0.965 -1.877,0 -2.789,-0.857 -2.789,-2.895 v -9.812 h 6.756 v -8.202 h -6.756 v -7.347 H 698.31 v 7.347 h -3.432 v 8.202 h 3.432 v 11.796 c 0.001,6.916 3.645,9.597 9.758,9.597 z m 25.573,0.107 c 9.33,0 16.086,-6.916 16.086,-15.173 v -0.106 c 0,-8.257 -6.701,-15.066 -15.979,-15.066 -9.328,0 -16.084,6.916 -16.084,15.173 v 0.107 c 0,8.256 6.703,15.065 15.977,15.065 z m 0.107,-8.632 c -3.592,0 -6.164,-3.002 -6.164,-6.541 v -0.106 c 0,-3.485 2.359,-6.435 6.057,-6.435 3.594,0 6.166,3.003 6.166,6.541 v 0.107 c 0,3.485 -2.358,6.434 -6.059,6.434 z m 20.266,7.936 h 10.188 v -9.007 c 0,-6.702 3.002,-9.759 8.311,-9.759 h 0.857 v -10.723 c -4.824,-0.214 -7.506,2.359 -9.168,6.326 v -5.843 h -10.188 z m 22.947,-31.633 h 10.617 v -7.507 h -10.617 z m 0.215,31.633 h 10.188 v -29.005 h -10.188 z m 24.179,0.642 c 3.807,0 6.541,-1.447 8.525,-3.645 v 3.002 h 10.078 v -16.674 c 0,-4.075 -0.91,-7.077 -3.109,-9.223 -2.305,-2.305 -5.844,-3.538 -11.045,-3.538 -4.984,0 -8.471,0.911 -11.74,2.251 l 2.09,7.186 c 2.574,-1.02 4.934,-1.609 7.99,-1.609 3.912,0 5.789,1.716 5.789,4.718 v 0.483 c -1.662,-0.59 -4.289,-1.126 -6.969,-1.126 -6.811,0 -11.367,3.11 -11.367,9.115 v 0.106 c 10e-4,5.791 4.237,8.954 9.758,8.954 z m 3.647,-6.38 c -2.092,0 -3.592,-1.179 -3.592,-3.163 v -0.106 c 0,-2.146 1.715,-3.593 4.664,-3.593 1.5,0 2.949,0.321 3.967,0.75 v 1.342 c 0,2.894 -2.09,4.77 -5.039,4.77 z m 20.373,5.738 h 10.188 v -39.14 h -10.188 z"
   id="path4" />
	<path
   d="m 335.95,624.894 c 0,-15.368 -9.742,-25.644 -29.22,-30.828 -5.541,-1.785 -10.547,-2.681 -15.012,-2.681 -2,-0.045 -3.868,-0.096 -5.613,-0.152 l -34.714,-0.096 c 0,0 -0.019,-0.018 -0.021,-0.02 h -10.318 c -3.397,0 -7.598,-0.536 -12.599,-1.609 -12.332,-2.5 -18.59,-7.949 -18.766,-16.352 0.713,-8.754 6.878,-14.476 18.498,-17.157 0.892,-0.176 7.237,-1.072 7.237,-1.072 6.971,0 13.806,2.011 20.508,6.031 2.512,1.507 17.249,11.662 23.164,17.217 1.721,-10.258 3.504,-26.226 -2.576,-23.968 -6.192,2.3 -11.652,2.28 -16.211,-2.786 -2.699,-2.999 -3.263,-7.406 -3.278,-10.514 -0.16,0.002 -0.295,0.002 -0.46,0.005 l -36.529,-20.394 9.425,20.534 -34.96,-10.163 12.913,19.72 -25.126,-2.379 15.021,18.094 c -3.888,6.385 -5.854,13.659 -5.854,21.844 0,5.362 0.98,10.187 2.949,14.476 3.732,7.983 13.198,13.072 28.334,15.304 5.087,0.271 26.174,1.336 37.969,1.079 0.065,-0.013 0.113,-0.017 0.18,-0.03 h 1.27 c 1.63,-0.047 3.084,-0.043 4.385,0 h 11.769 c 14.652,0 24.483,3.577 29.488,10.722 3.037,4.471 4.558,8.136 4.558,10.991 0,6.795 -3.129,14.837 -9.383,24.127 -1.072,1.789 -2.995,4.336 -5.763,7.641 -2.773,3.309 -6.392,7.732 -10.857,13.27 -0.029,-0.01 -0.053,-0.018 -0.081,-0.026 l -0.032,0.05 c 0,0 -31.67,-8.169 -48.216,-7.198 -5.51,0.378 -10.938,1.146 -16.277,2.35 -5.186,1.433 -10.233,3.129 -15.147,5.094 -4.917,1.969 -9.608,4.47 -14.073,7.506 -10.723,6.613 -18.053,15.101 -21.982,25.467 11.259,-7.15 23.591,-11.887 36.995,-14.207 5.897,-1.073 9.202,-1.609 9.918,-1.609 8.043,0 17.065,1.252 27.076,3.754 10.007,2.5 21.086,6.165 33.241,10.99 l 1.072,-1.876 c 0.537,-1.073 0.981,-1.969 1.341,-2.681 0.176,-0.36 0.268,-0.716 0.268,-1.073 0,-0.179 0.176,-0.716 0.536,-1.607 3.393,-4.289 6.476,-8.177 9.248,-11.661 2.769,-3.485 5.048,-6.301 6.837,-8.445 1.964,-2.68 3.887,-5.181 5.763,-7.506 1.876,-2.32 3.707,-4.464 5.496,-6.435 1.964,-1.964 3.661,-3.841 5.093,-5.629 1.428,-1.784 2.769,-3.393 4.021,-4.825 4.109,-5.182 7.46,-9.918 10.053,-14.207 2.589,-4.29 4.599,-8.486 6.031,-12.601 1.607,-4.469 2.411,-9.294 2.411,-14.479 z"
   id="path6" />
	<path
   d="m 301.152,551.749 c -5.513,-1.747 -17.15,2.933 -17.15,2.933 -0.247,6.664 5.939,11.808 10.303,13.369 4.365,1.561 19.163,0.4 19.765,-2.714 0.601,-3.115 -7.404,-11.841 -12.918,-13.588 z m 8.774,11.998 c 0,0 -18.688,6.619 -21.251,-6.87 0,0 5.859,-2.458 11.277,-0.586 5.417,1.873 9.974,7.456 9.974,7.456 z"
   id="path8" />
	<path
   d="m 338.119,561.44 c -5.801,0.764 -10.468,-4.804 -13.667,-7.756 -3.199,-2.951 -13.094,-9.798 -18.982,-11.833 -5.889,-2.035 -21.359,10e-4 -21.359,10e-4 0,0 0.735,1.309 0.989,3.242 0.255,1.934 -0.93,5.744 -0.93,5.744 0,0 2.254,-4.232 14.736,-3.346 14.163,1.006 19.156,17.432 19.156,17.432 0,0 -4.833,5.976 -13.768,8.557 -8.934,2.581 -18.218,-6.032 -18.218,-6.032 0,0 -4.506,8.462 -0.668,14.139 3.839,5.677 10.745,4.768 14.722,5.088 3.976,0.319 12.257,3.445 17.847,7.486 5.591,4.042 8.542,0.843 8.542,0.843 l 5.241,-7.154 -12.3,0.495 c 0,0 -4.231,-2.253 -8.644,-5.887 -4.413,-3.635 -0.655,-4.973 -0.655,-4.973 0,0 2.414,-0.88 5.75,-3.286 3.337,-2.407 1.33,-2.704 7.815,-4.682 6.484,-1.979 11.072,7.254 11.072,7.254 0,0 1.367,-2.428 4.703,-4.835 3.337,-2.406 4.232,12.933 4.232,12.933 0,0 10.7,-12.65 11.579,-20.916 0.878,-8.266 -11.393,-3.278 -17.193,-2.514 z m 11.878,7.823 c 0,0 -2.513,0.555 -4.44,-0.427 -1.928,-0.983 -2.019,-4.231 -2.019,-4.231 0,0 3.242,-0.989 4.941,0.811 1.698,1.8 1.518,3.847 1.518,3.847 z"
   id="path10" />
	<polygon
   points="316.493,578.62 329.968,580.218 320.395,574.959 "
   id="polygon12" />
	<path
   d="m 299.682,565.771 c -2.716,0.357 -5.207,-1.554 -5.565,-4.271 -0.357,-2.716 1.554,-5.207 4.27,-5.564 2.716,-0.357 5.207,1.555 5.565,4.27 0.357,2.715 -1.555,5.206 -4.27,5.565 z"
   id="path14" />
	<path
   d="m 318.951,504.216 c 0,0 -22.731,1.531 -24.201,13.416 -2.029,11.059 10.763,20.278 10.763,20.278 0,0 -7.383,-2.287 -14.984,-1.961 -7.601,0.326 -9.111,-0.037 -9.111,-0.037 0,0 -2.085,-3.885 -0.596,-4.531 1.489,-0.645 4.914,-1.096 6.013,-2.14 1.099,-1.044 0.276,-2.173 -2.035,-2.655 -2.312,-0.483 -6.412,-1.741 -4.613,-3.44 1.8,-1.698 5.834,-0.093 5.834,-0.093 0,0 3.239,0.697 2.963,-1.402 -0.277,-2.1 -3.228,-3.172 -3.228,-3.172 0,0 -4.333,-3.027 -2.667,-4.033 1.666,-1.007 4.065,0.139 4.065,0.139 0,0 3.481,1.678 3.801,-0.163 0.319,-1.841 -2.033,-4.341 -2.033,-4.341 0,0 -3.234,-4.071 -1.356,-4.319 1.879,-0.247 4.691,0.619 4.947,1.71 0.256,1.09 1.602,1.925 3.297,1.14 1.696,-0.786 1.105,-4.418 1.105,-4.418 0,0 -0.62,-3.852 1.384,-4.004 2.003,-0.151 3.216,1.375 3.789,2.312 0.573,0.936 0.858,2.247 2.082,1.299 1.224,-0.948 -0.288,-3.896 0.98,-4.513 1.267,-0.616 13.801,4.928 13.801,4.928 z"
   id="path16" />
	<path
   d="m 268.024,542.621 c 0,0 -1.378,-7.465 6.941,-6.197 7.915,1.206 4.423,10.546 2.801,11.884 -1.623,1.338 -13.131,8.698 -16.302,-2.575 -3.17,-11.274 1.171,-17.578 1.171,-17.578 0,0 1.294,-2.981 0.421,-5.339 -0.872,-2.358 -1.062,-3.795 -1.062,-3.795 l 1.533,-0.314 13.045,11.997 -1.195,1.169 c 0,0 -12.547,-1.383 -12.25,5.997 -0.112,1.701 -0.589,4.911 4.897,4.751 z"
   id="path18" />
	<polygon
   points="160,738.861 186.85,724.169 173.678,719.61 162.533,712.012 "
   id="polygon20" />
	<path
   d="m 274.99,577.003 h 0.008 c -8.679,-5.947 -15.539,-10.072 -21.277,-12.827 v 4.866 c 8.315,2.249 16.203,5.596 21.269,7.961 z m -24.055,-8.655 v -5.44 c -6.95,-2.979 -12.203,-3.753 -17.225,-3.286 v 7.11 c 1.833,-0.107 3.746,-0.145 5.762,-0.073 3.691,0.133 7.59,0.776 11.463,1.689 z m -20.011,-1.38 v -6.967 c -1.748,0.317 -3.499,0.751 -5.319,1.298 -7.745,2.323 -10.649,7.67 -11.744,11.48 3.516,-2.62 9.332,-4.962 17.063,-5.811 z"
   id="path22" />
	<path
   d="m 282.597,624.37 c -0.078,-0.01 -0.165,-0.012 -0.243,-0.021 l 0.355,10.162 c 5.296,0.974 9.781,2.278 12.87,4.044 3.988,1.89 7.748,8.286 8.072,13.599 7.014,-15.659 -5.377,-25.76 -21.054,-27.784 z m -2.949,9.63 -0.346,-9.925 c -6.624,-0.552 -14.047,-0.416 -22.542,-0.278 v 8.252 c 8.018,0.32 15.993,0.899 22.888,1.951 z m -25.927,-2.06 v -8.098 c -7.59,0.1 -15.955,0.099 -25.33,-0.523 v 8.28 c 7.274,0.044 16.227,0.047 25.33,0.341 z m -28.369,-0.363 v -8.49 c -2.555,-0.202 -5.155,-0.436 -7.852,-0.744 -3.501,-0.399 -6.572,-1.041 -9.295,-1.847 l -3.987,8.748 c 3.356,0.939 6.878,1.608 10.305,1.965 2.311,0.24 6.102,0.325 10.829,0.368 z m -24.064,-3.232 4.033,-8.849 C 188.452,613.132 187.863,599.8 187.863,599.8 c 0,0 -0.037,0.028 -0.088,0.069 -1.255,3.94 -3.172,11.564 -1.369,17.155 1.608,4.984 7.608,8.84 14.882,11.321 z"
   id="path24" />
	<path
   d="M 279.114,629.942"
   id="path26" />
</g>
</svg>
