<?xml version="1.0" encoding="UTF-8" standalone="no"?>
<svg
   id="Capa_1"
   x="0px"
   y="0px"
   viewBox="0 0 975.2 203.9"
   style="enable-background:new 0 0 975.2 203.9;"
   xml:space="preserve"
   version="1.1"
   sodipodi:docname="universidadeuneiz.svg"
   inkscape:version="1.3 (0e150ed6c4, 2023-07-21)"
   xmlns:inkscape="http://www.inkscape.org/namespaces/inkscape"
   xmlns:sodipodi="http://sodipodi.sourceforge.net/DTD/sodipodi-0.dtd"
   xmlns="http://www.w3.org/2000/svg"
   xmlns:svg="http://www.w3.org/2000/svg"><defs
     id="defs32" /><sodipodi:namedview
     id="namedview32"
     pagecolor="#ffffff"
     bordercolor="#999999"
     borderopacity="1"
     inkscape:showpageshadow="0"
     inkscape:pageopacity="0"
     inkscape:pagecheckerboard="0"
     inkscape:deskcolor="#d1d1d1"
     inkscape:zoom="0.84472866"
     inkscape:cx="516.73398"
     inkscape:cy="216.04571"
     inkscape:window-width="1842"
     inkscape:window-height="1051"
     inkscape:window-x="69"
     inkscape:window-y="-9"
     inkscape:window-maximized="1"
     inkscape:current-layer="Capa_1" /><style
     type="text/css"
     id="style1">	.st0{fill:#FFFFFF;}</style><g
     id="g32"
     style="stroke:none;stroke-opacity:1;fill:#1b2242;fill-opacity:1">	<g
   id="g28"
   style="stroke:none;stroke-opacity:1;fill:#1b2242;fill-opacity:1">		<path
   class="st0"
   d="M53.6,101.8c-13.2,0-19-7.3-19-17.5V51.3h6.2v33.1c0,8,4.2,11.9,12.8,11.9s12.8-3.9,12.8-11.9V51.3h6.2v33.1   C72.6,94.5,66.9,101.8,53.6,101.8z"
   id="path1"
   style="stroke:none;stroke-opacity:1;fill:#1b2242;fill-opacity:1" />		<path
   class="st0"
   d="M109.5,76.2v24.7h-5.5V77.6c0-4.6-2.2-8.2-7.7-8.2c-6.2,0-10.4,4-10.4,9.4v22.1h-5.5V65.5h5.5v4.2H86   c1.9-2.5,5.6-5.2,11.6-5.2C104.1,64.6,109.5,68.1,109.5,76.2L109.5,76.2z"
   id="path2"
   style="stroke:none;stroke-opacity:1;fill:#1b2242;fill-opacity:1" />		<path
   class="st0"
   d="M116.9,55.3c0-2.2,1.9-3.3,3.5-3.3c1.5,0,3.5,1.2,3.5,3.3c0,2.2-1.9,3.3-3.5,3.3   C118.7,58.7,116.9,57.5,116.9,55.3z M123.1,65.5v35.4h-5.5V65.5H123.1z"
   id="path3"
   style="stroke:none;stroke-opacity:1;fill:#1b2242;fill-opacity:1" />		<path
   class="st0"
   d="M133.8,65.5l9.8,29.8h0.1l9.8-29.8h6l-12.7,35.4h-6.3l-12.7-35.4H133.8L133.8,65.5z"
   id="path4"
   style="stroke:none;stroke-opacity:1;fill:#1b2242;fill-opacity:1" />		<path
   class="st0"
   d="M188.1,90h5.5c-1.8,6.6-6.9,11.9-15.7,11.9c-10.8,0-17.3-7.6-17.3-18.6c0-11.8,6.7-18.6,17-18.6   c11.1,0,16.5,7.6,16.5,20.1h-27.9c0,6.4,3.8,12.3,11.5,12.3C184.8,97,187.5,92.4,188.1,90L188.1,90z M166.2,79.8h22.4   c0-5.7-4.3-10.4-11-10.4S166.3,74.1,166.2,79.8L166.2,79.8z"
   id="path5"
   style="stroke:none;stroke-opacity:1;fill:#1b2242;fill-opacity:1" />		<path
   class="st0"
   d="M218.4,64.8v5.5h-0.1c-7.7-1.2-13,4.2-13,11.7v18.9h-5.5V65.5h5.5v7h0.1c1.9-4.6,4.7-8,9.8-8   C216.5,64.5,217.4,64.6,218.4,64.8L218.4,64.8z"
   id="path6"
   style="stroke:none;stroke-opacity:1;fill:#1b2242;fill-opacity:1" />		<path
   class="st0"
   d="M251.3,91.2c0,6.5-5.9,10.7-13.9,10.7c-10.8,0-15.8-5.1-16.2-12.8h5.5c0.3,4,1.7,7.9,10.6,7.9   c6,0,8.4-3.1,8.4-5.5c0-5.1-4.6-5.4-9.7-6.7c-5.4-1.3-13.4-1.9-13.4-10.3c0-5.5,4.9-10.1,13.2-10.1c8.8,0,13.5,5,14.1,11.1h-5.5   c-0.6-2.7-1.9-6.2-8.5-6.2c-5,0-7.7,2-7.7,4.8c0,4.2,4.8,4.5,9.7,5.7C244.1,81.4,251.2,82.4,251.3,91.2L251.3,91.2z"
   id="path7"
   style="stroke:none;stroke-opacity:1;fill:#1b2242;fill-opacity:1" />		<path
   class="st0"
   d="M256.7,55.3c0-2.2,1.9-3.3,3.5-3.3s3.5,1.2,3.5,3.3c0,2.2-1.9,3.3-3.5,3.3C258.5,58.7,256.7,57.5,256.7,55.3z    M262.9,65.5v35.4h-5.5V65.5H262.9z"
   id="path8"
   style="stroke:none;stroke-opacity:1;fill:#1b2242;fill-opacity:1" />		<path
   class="st0"
   d="M301.9,51.3v49.6h-5.5v-4.4h-0.1c-2.1,2.7-5.4,5.3-11.1,5.3c-8.9,0-15.9-7-15.9-18.6s7.1-18.6,15.9-18.6   c5.7,0,9,2.5,11.1,5.5h0.1V51.3H301.9z M296.4,83.2c0-8.3-4.1-13.8-10.7-13.8c-7.3,0-11,6.9-11,13.8c0,6.9,3.7,13.8,11,13.8   C292.3,97,296.4,91.5,296.4,83.2z"
   id="path9"
   style="stroke:none;stroke-opacity:1;fill:#1b2242;fill-opacity:1" />		<path
   class="st0"
   d="M324,69.4c-6.7,0-8.9,1.9-9.3,7.1h-5.5c0.3-6.8,4.6-11.9,14.8-11.9c6.7,0,12.8,2.6,12.8,11.2v17.2   c0,2.8,0.5,4.3,4,3.9v3.9c-1.5,0.5-2.2,0.5-3.3,0.5c-3.3,0-5.3-0.9-6.3-4.8h-0.1c-2.2,3.3-6.2,5.4-12,5.4   c-7.1,0-11.6-4.1-11.6-10.1c0-8,6-10.1,15.1-11.9c6-1.1,8.7-1.9,8.7-5.4C331.2,71.7,329.7,69.4,324,69.4L324,69.4z M331.2,87.2   v-5.9c-1,1-4.4,2-8.2,2.8c-6.9,1.5-10.1,3.2-10.1,7.4c0,3.5,2.1,5.5,6.7,5.5C326.2,97,331.2,94,331.2,87.2L331.2,87.2z"
   id="path10"
   style="stroke:none;stroke-opacity:1;fill:#1b2242;fill-opacity:1" />		<path
   class="st0"
   d="M375.6,51.3v49.6h-5.5v-4.4H370c-2.1,2.7-5.4,5.3-11.1,5.3c-8.9,0-15.9-7-15.9-18.6s7.1-18.6,15.9-18.6   c5.7,0,9,2.5,11.1,5.5h0.1V51.3H375.6z M370.1,83.2c0-8.3-4.1-13.8-10.7-13.8c-7.3,0-11,6.9-11,13.8c0,6.9,3.7,13.8,11,13.8   C366,97,370.1,91.5,370.1,83.2z"
   id="path11"
   style="stroke:none;stroke-opacity:1;fill:#1b2242;fill-opacity:1" />		<path
   class="st0"
   d="M427.8,51.3v49.6h-5.5v-4.4h-0.1c-2.1,2.7-5.4,5.3-11.1,5.3c-8.9,0-15.9-7-15.9-18.6s7.1-18.6,15.9-18.6   c5.7,0,9,2.5,11.1,5.5h0.1V51.3H427.8z M422.3,83.2c0-8.3-4.1-13.8-10.7-13.8c-7.3,0-11,6.9-11,13.8c0,6.9,3.7,13.8,11,13.8   C418.2,97,422.3,91.5,422.3,83.2z"
   id="path12"
   style="stroke:none;stroke-opacity:1;fill:#1b2242;fill-opacity:1" />		<path
   class="st0"
   d="M460.8,90h5.5c-1.8,6.6-6.9,11.9-15.7,11.9c-10.8,0-17.3-7.6-17.3-18.6c0-11.8,6.7-18.6,17-18.6   c11.1,0,16.5,7.6,16.5,20.1H439c0,6.4,3.8,12.3,11.5,12.3C457.6,97,460.2,92.4,460.8,90L460.8,90z M439,79.8h22.4   c0-5.7-4.3-10.4-11-10.4C443.8,69.4,439,74.1,439,79.8L439,79.8z"
   id="path13"
   style="stroke:none;stroke-opacity:1;fill:#1b2242;fill-opacity:1" />		<path
   class="st0"
   d="M13.6,125.5l9.4,34.7h0.1l9.4-34.7h13.2l-16.1,49.6H16.5L0.4,125.5L13.6,125.5L13.6,125.5z"
   id="path14"
   style="stroke:none;stroke-opacity:1;fill:#1b2242;fill-opacity:1" />		<path
   class="st0"
   d="M48.4,130.4c0-3.2,2.4-4.9,5.5-4.9c3.1,0,5.5,1.7,5.5,4.9s-2.4,4.9-5.5,4.9C50.8,135.3,48.4,133.7,48.4,130.4   z M59.5,139.6v35.5H48.4v-35.5H59.5z"
   id="path15"
   style="stroke:none;stroke-opacity:1;fill:#1b2242;fill-opacity:1" />		<path
   class="st0"
   d="M79,147.9v14.7c0,4,1.5,4,6.2,4v8.3c-2,0.4-3.7,0.8-6.9,0.8c-8.1,0-10.4-4.3-10.4-12.3v-15.5h-4.9v-8.3h4.9   v-9.9H79v9.9h6.2v8.3L79,147.9L79,147.9z"
   id="path16"
   style="stroke:none;stroke-opacity:1;fill:#1b2242;fill-opacity:1" />		<path
   class="st0"
   d="M106.3,176.2c-11.9,0-19-7.8-19-18.9c0-11,7.1-18.9,19-18.9s18.9,7.8,18.9,18.9   C125.2,168.3,118,176.2,106.3,176.2z M106.3,167.9c4.8,0,7.8-3.7,7.8-10.5c0-6.9-3-10.5-7.8-10.5s-7.9,3.7-7.9,10.5   C98.4,164.2,101.3,167.9,106.3,167.9z"
   id="path17"
   style="stroke:none;stroke-opacity:1;fill:#1b2242;fill-opacity:1" />		<path
   class="st0"
   d="M152,139.2v9.7h-0.1c-5.7-1-11.7,2.1-11.7,9.6v16.5H129v-35.5h11.1v5.8h0.1c1.7-4,4.8-6.5,8.7-6.5   C149.9,138.9,150.7,138.9,152,139.2L152,139.2z"
   id="path18"
   style="stroke:none;stroke-opacity:1;fill:#1b2242;fill-opacity:1" />		<path
   class="st0"
   d="M155.6,130.4c0-3.2,2.4-4.9,5.5-4.9s5.5,1.7,5.5,4.9s-2.4,4.9-5.5,4.9S155.6,133.7,155.6,130.4z M166.7,139.6   v35.5h-11.1v-35.5H166.7z"
   id="path19"
   style="stroke:none;stroke-opacity:1;fill:#1b2242;fill-opacity:1" />		<path
   class="st0"
   d="M188.5,146.1c-4,0-6,1.5-6.3,4.9h-10.4c0.3-6.8,5.2-12.6,16.8-12.6c10,0,15.5,3.9,15.5,15v16.3   c0,1.9,0.7,2.6,2.1,2.6v2.6c-2.2,0.8-4.2,1.1-6.5,1.1c-5,0-6.4-2.4-6.4-4.8h-0.1c-2.3,2.6-6.5,4.8-11.2,4.8   c-7.5,0-11.6-4.2-11.6-10.2c0-7.1,5.2-10.3,13.5-12c4.6-0.9,9.1-1.6,9.1-4.6C193,147.3,191.5,146.1,188.5,146.1L188.5,146.1z    M193,162.1v-4.3c-1.4,0.5-3.1,1-5.7,1.6c-4.4,1-5.8,2.8-5.8,5c0,2.9,1.7,4.2,4.4,4.2C190.7,168.6,193,165.5,193,162.1L193,162.1z   "
   id="path20"
   style="stroke:none;stroke-opacity:1;fill:#1b2242;fill-opacity:1" />		<path
   class="st0"
   d="M228.8,152.8v9.5h-18.9v-9.5H228.8z"
   id="path21"
   style="stroke:none;stroke-opacity:1;fill:#1b2242;fill-opacity:1" />		<path
   class="st0"
   d="M256.2,134.6c-8.2,0-11.3,6.4-11.3,15.7S248,166,256.7,166c5.8,0,9.8-3.5,9.9-8.3h-9.4v-9h22.3v26.4h-8.9   l-1.2-6.3h-0.1c-2.4,4.5-7,7.4-14.3,7.4c-14.1,0-22.5-11-22.5-25.9s8.4-25.9,24-25.9c13.6,0,21.1,8,22.3,17.5h-12.5   C265.3,138.5,263,134.6,256.2,134.6L256.2,134.6z"
   id="path22"
   style="stroke:none;stroke-opacity:1;fill:#1b2242;fill-opacity:1" />		<path
   class="st0"
   d="M301.2,146.1c-4,0-6,1.5-6.3,4.9h-10.4c0.3-6.8,5.2-12.6,16.8-12.6c10,0,15.5,3.9,15.5,15v16.3   c0,1.9,0.7,2.6,2.1,2.6v2.6c-2.2,0.8-4.2,1.1-6.5,1.1c-5,0-6.4-2.4-6.4-4.8h-0.1c-2.3,2.6-6.5,4.8-11.2,4.8   c-7.5,0-11.6-4.2-11.6-10.2c0-7.1,5.2-10.3,13.5-12c4.6-0.9,9.1-1.6,9.1-4.6C305.7,147.3,304.2,146.1,301.2,146.1L301.2,146.1z    M305.7,162.1v-4.3c-1.4,0.5-3.1,1-5.7,1.6c-4.4,1-5.8,2.8-5.8,5c0,2.9,1.7,4.2,4.4,4.2C303.4,168.6,305.7,165.5,305.7,162.1   L305.7,162.1z"
   id="path23"
   style="stroke:none;stroke-opacity:1;fill:#1b2242;fill-opacity:1" />		<path
   class="st0"
   d="M354.3,164.6c0,7.5-5.7,11.6-15.5,11.6c-12.7,0-17.5-5.7-17.9-12.9h10.4c0.3,3.5,2.7,5.3,7.1,5.3   c3.1,0,4.8-1,4.8-3c0-3-3.3-3.5-8.9-4.7c-6-1.3-12.7-3.5-12.7-11c0-6.5,5.5-11.4,15.5-11.4c11.4,0,15.8,5.8,16.1,12h-10.4   c-0.3-2.8-1.9-4.4-5.5-4.4c-3.1,0-4.7,1.1-4.7,2.8c0,2.5,2.2,2.6,7.7,3.7C347.4,154.2,354.3,156.6,354.3,164.6L354.3,164.6z"
   id="path24"
   style="stroke:none;stroke-opacity:1;fill:#1b2242;fill-opacity:1" />		<path
   class="st0"
   d="M371.1,147.9v14.7c0,4,1.5,4,6.2,4v8.3c-2,0.4-3.7,0.8-6.9,0.8c-8.1,0-10.4-4.3-10.4-12.3v-15.5H355v-8.3h4.9   v-9.9h11.1v9.9h6.2v8.3L371.1,147.9L371.1,147.9z"
   id="path25"
   style="stroke:none;stroke-opacity:1;fill:#1b2242;fill-opacity:1" />		<path
   class="st0"
   d="M404.4,164.3h11c-1.9,7.1-7.5,11.9-17.1,11.9c-11.8,0-18.9-7.8-18.9-18.9s7-18.9,18.3-18.9   c12.1,0,18.3,8.9,18.3,21.8h-25.5c0,5,3.7,7.6,7.6,7.6S403.7,166.1,404.4,164.3L404.4,164.3z M390.5,153.5h14.4   c0-4.9-3-7.4-7.2-7.4C393.5,146.1,390.5,148.6,390.5,153.5z"
   id="path26"
   style="stroke:none;stroke-opacity:1;fill:#1b2242;fill-opacity:1" />		<path
   class="st0"
   d="M419.8,130.4c0-3.2,2.4-4.9,5.5-4.9c3.1,0,5.5,1.7,5.5,4.9s-2.4,4.9-5.5,4.9   C422.2,135.3,419.8,133.7,419.8,130.4z M430.9,139.6v35.5h-11.1v-35.5H430.9z"
   id="path27"
   style="stroke:none;stroke-opacity:1;fill:#1b2242;fill-opacity:1" />		<path
   class="st0"
   d="M452.5,148v-0.1h-15.9v-8.3h29.7v8l-17.3,19.1v0.1h18v8.3h-31.8v-8L452.5,148L452.5,148z"
   id="path28"
   style="stroke:none;stroke-opacity:1;fill:#1b2242;fill-opacity:1" />	</g>	<polygon
   class="st0"
   points="879.5,25.7 857.8,25.7 848.2,124.8 861.9,176.4 884.2,176.4 870,123  "
   id="polygon28"
   style="stroke:none;stroke-opacity:1;fill:#1b2242;fill-opacity:1" />	<g
   id="g31"
   style="stroke:none;stroke-opacity:1;fill:#1b2242;fill-opacity:1">		<polygon
   class="st0"
   points="527.4,110.5 554,110.5 554,90.9 527.4,90.9 527.4,46 559.9,46 558.6,25.7 505.2,25.7 505.2,176.4    558.1,176.4 560,156.3 527.4,156.3   "
   id="polygon29"
   style="stroke:none;stroke-opacity:1;fill:#1b2242;fill-opacity:1" />		<path
   class="st0"
   d="M632.5,134c0,3-0.2,5.9-0.5,8.9c-0.3,2.8-1,5.4-2.1,7.7c-1,2.2-2.5,3.9-4.4,5.2c-1.9,1.3-4.5,1.9-7.8,1.9   c-3.7,0-6.6-0.5-8.7-1.6c-2.1-1.1-3.7-2.5-4.8-4.4c-1.2-2-1.9-4.3-2.3-7c-0.4-2.9-0.6-6-0.6-9.4V25.7h-21.7v109.8   c0,28.4,12.2,42.7,36.3,42.7s37.6-13.2,37.6-39.2V25.7h-20.9L632.5,134L632.5,134z"
   id="path29"
   style="stroke:none;stroke-opacity:1;fill:#1b2242;fill-opacity:1" />		<path
   class="st0"
   d="M734.5,36.5c0,4.2,0,9.3,0.1,15.3l0.6,63.5c0,2.9,0.1,5.7,0.1,8.4l-38.7-98.1h-19.2v150.7H697V79.9l40,96.4   h18.2V25.7h-20.7L734.5,36.5L734.5,36.5z"
   id="path30"
   style="stroke:none;stroke-opacity:1;fill:#1b2242;fill-opacity:1" />		<polygon
   class="st0"
   points="801.3,110.5 827.9,110.5 827.9,90.9 801.3,90.9 801.3,46 833.8,46 832.5,25.7 779.1,25.7    779.1,176.4 832,176.4 833.9,156.3 801.3,156.3   "
   id="polygon30"
   style="stroke:none;stroke-opacity:1;fill:#1b2242;fill-opacity:1" />		<polygon
   class="st0"
   points="974.8,25.7 903.7,25.7 901.9,45.3 945.6,45.3 894.1,176.4 968,176.4 970.4,157.3 923.9,157.3   "
   id="polygon31"
   style="stroke:none;stroke-opacity:1;fill:#1b2242;fill-opacity:1" />	</g></g></svg>
