<?xml version="1.0" encoding="UTF-8" standalone="no"?>
<!-- Created with Inkscape (http://www.inkscape.org/) -->
<svg xmlns:dc="http://purl.org/dc/elements/1.1/" xmlns:cc="http://creativecommons.org/ns#" xmlns:rdf="http://www.w3.org/1999/02/22-rdf-syntax-ns#" xmlns:svg="http://www.w3.org/2000/svg" xmlns="http://www.w3.org/2000/svg" xmlns:sodipodi="http://sodipodi.sourceforge.net/DTD/sodipodi-0.dtd" xmlns:inkscape="http://www.inkscape.org/namespaces/inkscape" width="246" height="56" viewBox="0 0 65.087499 14.816667" version="1.1" id="svg5344" inkscape:version="0.92.1 r" sodipodi:docname="fundacion-vital-logo-pie.svg">
  <defs id="defs5338">
    <clipPath clipPathUnits="userSpaceOnUse" id="clipPath116">
      <path d="m 348.877,232.741 c 3.484,-7.265 -1.3,-19.668 -5.02,-26.696 v 0 l -5.612,-10.631 -0.472,33.488 h 0.296 c 1.358,0 2.066,1.18 2.066,2.303 v 0 c 0,0.591 -0.236,1.181 -0.826,1.536 v 0 c -2.54,-1.418 -7.56,1.181 -12.462,1.181 v 0 c -6.969,0 -9.804,-4.253 -9.804,-7.973 v 0 c 0,-2.953 1.771,-5.611 4.784,-5.611 v 0 c 0.827,0 1.654,0.177 2.539,0.59 v 0 c -0.708,0.827 -1.181,2.126 -1.181,3.426 v 0 c 0,2.717 1.891,5.67 7.029,5.788 v 0 l 1.003,-42.288 c 0.709,-0.472 2.185,-0.767 3.249,-0.767 v 0 c 2.185,0 3.484,1.122 4.901,3.662 v 0 l 6.911,12.225 c 4.429,7.914 10.985,19.312 10.985,27.995 v 0 c 0,1.358 -0.885,3.543 -3.898,3.543 v 0 c -1.89,0 -3.367,-0.708 -4.488,-1.771 m 64.669,-36.618 c -0.026,-0.23 -0.035,-0.44 -0.051,-0.657 v 0 c -1.507,-1.301 -3.73,-2.474 -5.677,-2.474 v 0 c -1.535,0 -2.481,1.063 -1.772,4.371 v 0 l 4.134,19.55 c -0.709,0.472 -1.712,0.767 -2.776,0.767 v 0 c -1.476,0 -3.012,-0.532 -4.016,-1.712 v 0 c -1.476,1.298 -3.425,1.948 -6.083,1.948 v 0 c -8.21,0 -14.883,-10.276 -14.883,-20.612 v 0 c 0,-0.574 0.033,-1.206 0.103,-1.859 v 0 c -1.506,-1.292 -3.718,-2.453 -5.655,-2.453 v 0 c -1.535,0 -2.48,1.063 -1.772,4.371 v 0 l 3.485,16.596 h 2.598 c 1.832,0 2.777,1.536 2.482,3.426 v 0 h -4.312 l 1.654,7.796 c -0.709,0.472 -1.713,0.768 -2.776,0.768 v 0 c -2.126,0 -4.371,-1.005 -4.961,-3.721 v 0 l -1.063,-4.843 h -1.182 c -1.83,0 -2.775,-1.536 -2.48,-3.426 v 0 h 2.953 l -3.78,-17.836 c -0.057,-0.273 -0.098,-0.528 -0.143,-0.786 v 0 c -1.502,-1.248 -3.644,-2.345 -5.526,-2.345 v 0 c -1.536,0 -2.481,1.063 -1.772,4.371 v 0 l 3.603,17.068 c 0.473,2.245 -0.709,3.249 -2.835,3.249 v 0 c -2.48,0 -4.607,-1.24 -6.615,-2.835 v 0 c -1.181,-0.945 -0.768,-2.776 0,-3.249 v 0 c 0.532,0.473 0.886,0.709 1.181,0.709 v 0 c 0.532,0 0.769,-0.531 0.591,-1.476 v 0 l -3.425,-16.419 c -1.123,-5.375 2.303,-7.028 5.256,-7.028 v 0 c 3.359,0 6.709,1.964 9.346,4.469 v 0 c 0.314,-3.243 2.29,-4.469 4.946,-4.469 v 0 c 3.746,0 7.951,2.442 10.746,5.358 v 0 c 0.869,-2.818 2.786,-5.358 6.735,-5.358 v 0 c 3.366,0 6.497,2.48 8.978,5.965 v 0 c -0.059,-4.666 2.716,-5.965 5.493,-5.965 v 0 c 2.867,0 6.584,2.2 9.324,4.918 v 0 c 0.651,-3.818 3.245,-4.918 5.558,-4.918 v 0 c 3.308,0 8.15,2.775 8.15,6.91 v 0 c 0,1.004 -0.649,1.595 -1.772,1.595 v 0 c -0.885,-2.127 -2.244,-2.835 -3.307,-2.835 v 0 c -1.181,0 -1.654,1.181 -1.3,4.311 v 0 c 0.06,0.709 0.177,1.417 0.237,2.127 v 0 c 7.678,11.634 11.516,21.143 11.516,25.749 v 0 c 0,3.072 -1.948,4.785 -4.725,4.785 v 0 c -7.736,0 -11.989,-12.463 -14.41,-33.901 m 14.824,30.003 c 0.65,0 1.004,-0.295 1.004,-1.3 v 0 c 0,-2.008 -2.185,-10.513 -7.441,-20.14 v 0 c 1.949,12.462 4.488,21.44 6.437,21.44 m -38.625,-28.409 c 0,6.438 2.54,15.769 9.686,15.769 v 0 c 0.886,0 1.772,-0.118 2.776,-0.472 v 0 L 398.9,197.186 c -1.595,-2.186 -4.075,-3.721 -5.965,-3.721 v 0 c -1.831,0 -3.19,1.299 -3.19,4.252 m -31.596,27.582 c -0.354,-2.303 1.359,-4.135 3.662,-4.135 v 0 c 2.303,0 4.252,1.832 4.607,4.135 v 0 c 0.236,2.303 -1.477,4.134 -3.78,4.134 v 0 c -2.304,0 -4.253,-1.831 -4.489,-4.134" id="path114" inkscape:connector-curvature="0"/>
    </clipPath>
    <clipPath clipPathUnits="userSpaceOnUse" id="clipPath96">
      <path d="M 0,0 H 841.89 V 595.276 H 0 Z" id="path94" inkscape:connector-curvature="0"/>
    </clipPath>
  </defs>
  <sodipodi:namedview id="base" pagecolor="#ffffff" bordercolor="#666666" borderopacity="1.0" inkscape:pageopacity="0.0" inkscape:pageshadow="2" inkscape:zoom="3.4582864" inkscape:cx="153.30413" inkscape:cy="1.1769991" inkscape:document-units="mm" inkscape:current-layer="layer1" showgrid="false" units="px" inkscape:window-width="1920" inkscape:window-height="1051" inkscape:window-x="0" inkscape:window-y="0" inkscape:window-maximized="1"/>
  <metadata id="metadata5341">
    <rdf:RDF>
      <cc:Work rdf:about="">
        <dc:format>image/svg+xml</dc:format>
        <dc:type rdf:resource="http://purl.org/dc/dcmitype/StillImage"/>
        <dc:title/>
      </cc:Work>
    </rdf:RDF>
  </metadata>
  <g inkscape:label="Capa 1" inkscape:groupmode="layer" id="layer1" transform="translate(0,-282.18332)">
    <g id="g5991" transform="translate(-50.197145,148.87266)">
      <g id="g90" transform="matrix(0.31241654,0,0,-0.31241654,-48.769254,206.57634)">
        <g clip-path="url(#clipPath96)" id="g92">
          <g transform="translate(449.8042,193.9333)" id="g98">
            <path inkscape:connector-curvature="0" id="path100" style="fill:#231f20;fill-opacity:1;fill-rule:nonzero;stroke:none" d="M 0,0 V 0.793 H -4.651 V 5.019 H 0.206 V 5.812 H -5.561 V -4.974 h 0.91 V 0 Z M 10.125,-1.517 V 5.812 H 9.229 v -7.329 c 0,-1.811 -0.765,-2.797 -2.782,-2.797 -2.061,0 -2.738,0.957 -2.738,2.797 V 5.812 H 2.813 v -7.329 c 0,-2.65 1.278,-3.605 3.619,-3.605 2.267,0 3.693,0.985 3.693,3.605 M 20.898,-4.974 V 5.812 h -0.837 v -8.551 c 0,-0.324 0.015,-0.721 0.044,-1.06 h -0.073 c -0.133,0.324 -0.295,0.692 -0.501,1.06 L 14.658,5.812 H 13.6 V -4.974 h 0.838 v 8.565 c 0,0.412 -0.015,0.765 -0.059,1.118 h 0.073 c 0.118,-0.338 0.28,-0.721 0.516,-1.118 l 4.873,-8.565 z M 31.98,0.603 c 0,4.121 -2,5.209 -4.65,5.209 H 24.432 V -4.974 h 2.913 c 2.9,0 4.635,1.617 4.635,5.577 m -0.954,0 c 0,-3.739 -1.384,-4.799 -3.666,-4.799 h -2.017 v 9.229 h 2.061 c 2.091,0 3.622,-0.795 3.622,-4.43 M 41.842,-4.974 38.324,5.812 H 37.162 L 33.63,-4.974 h 0.927 l 1.118,3.458 h 4.092 L 40.9,-4.974 Z m -2.281,4.207 h -3.665 l 1.634,5.02 c 0.103,0.309 0.147,0.648 0.147,0.824 h 0.088 c 0.015,-0.176 0.074,-0.5 0.177,-0.824 z m 10.478,-4.207 -0.088,0.792 h -5.813 l 5.828,9.024 v 0.97 h -6.358 l 0.147,-0.793 h 5.313 l -5.813,-9.024 v -0.969 z m 3.62,10.786 H 52.748 V -4.974 h 0.911 z m 11.2,-5.401 c 0,4.034 -1.647,5.548 -4.135,5.548 -2.444,0 -4.135,-1.5 -4.135,-5.563 0,-4.003 1.632,-5.518 4.135,-5.518 2.503,0 4.135,1.559 4.135,5.533 m -0.955,0 c 0,-3.871 -1.369,-4.725 -3.18,-4.725 -1.826,0 -3.18,0.927 -3.18,4.725 0,3.68 1.222,4.74 3.18,4.74 1.973,0 3.18,-1.06 3.18,-4.74 M 74.72,-4.974 71.202,5.812 H 70.04 L 66.508,-4.974 h 0.927 l 1.118,3.458 h 4.092 l 1.133,-3.458 z m -2.281,4.207 h -3.665 l 1.634,5.02 c 0.103,0.309 0.147,0.648 0.147,0.824 h 0.088 c 0.015,-0.176 0.074,-0.5 0.177,-0.824 z"/>
          </g>
          <g transform="translate(449.8042,210.4634)" id="g102">
            <path inkscape:connector-curvature="0" id="path104" style="fill:#231f20;fill-opacity:1;fill-rule:nonzero;stroke:none" d="M 0,0 V 0.793 H -4.651 V 5.019 H 0.206 V 5.812 H -5.561 V -4.974 h 0.91 V 0 Z M 10.125,-1.517 V 5.812 H 9.229 v -7.329 c 0,-1.811 -0.765,-2.797 -2.782,-2.797 -2.061,0 -2.738,0.957 -2.738,2.797 V 5.812 H 2.813 v -7.329 c 0,-2.65 1.278,-3.605 3.619,-3.605 2.267,0 3.693,0.985 3.693,3.605 M 20.898,-4.974 V 5.812 h -0.837 v -8.551 c 0,-0.324 0.015,-0.721 0.044,-1.06 h -0.073 c -0.133,0.324 -0.295,0.692 -0.501,1.06 L 14.658,5.812 H 13.6 V -4.974 h 0.838 v 8.565 c 0,0.412 -0.015,0.765 -0.059,1.118 h 0.073 c 0.118,-0.338 0.28,-0.721 0.516,-1.118 l 4.873,-8.565 z M 31.98,0.603 c 0,4.121 -2,5.209 -4.65,5.209 H 24.432 V -4.974 h 2.913 c 2.9,0 4.635,1.617 4.635,5.577 m -0.954,0 c 0,-3.739 -1.384,-4.799 -3.666,-4.799 h -2.017 v 9.229 h 2.061 c 2.091,0 3.622,-0.795 3.622,-4.43 M 41.842,-4.974 38.324,5.812 H 37.162 L 33.63,-4.974 h 0.927 l 1.118,3.458 h 4.092 L 40.9,-4.974 Z m -2.281,4.207 h -3.665 l 1.634,5.02 c 0.103,0.309 0.147,0.648 0.147,0.824 h 0.088 c 0.015,-0.176 0.074,-0.5 0.177,-0.824 z M 50.421,-4.52 50.2,-3.666 c -1.236,-0.516 -1.898,-0.633 -2.413,-0.633 -1.958,0 -3.341,0.75 -3.341,4.74 0,3.827 1.31,4.695 3.208,4.695 0.633,0 1.413,-0.176 2.311,-0.5 l 0.221,0.867 c -1.134,0.324 -1.781,0.456 -2.561,0.456 -2.693,0 -4.134,-1.632 -4.134,-5.518 0,-3.99 1.352,-5.563 4.266,-5.563 0.663,0 1.413,0.103 2.664,0.602 M 53.615,5.812 H 52.704 V -4.974 h 0.911 z M 64.814,0.411 c 0,4.034 -1.646,5.548 -4.134,5.548 -2.444,0 -4.135,-1.5 -4.135,-5.563 0,-4.003 1.632,-5.518 4.135,-5.518 2.502,0 4.134,1.559 4.134,5.533 m -0.954,0 c 0,-3.871 -1.37,-4.725 -3.18,-4.725 -1.826,0 -3.18,0.927 -3.18,4.725 0,3.68 1.222,4.74 3.18,4.74 1.972,0 3.18,-1.06 3.18,-4.74 m -2.842,5.917 1.561,1.721 H 61.607 L 60.267,6.431 V 6.328 Z M 75.043,-4.974 V 5.812 h -0.837 v -8.551 c 0,-0.324 0.014,-0.721 0.044,-1.06 h -0.074 c -0.132,0.324 -0.294,0.692 -0.5,1.06 L 68.803,5.812 H 67.745 V -4.974 h 0.837 v 8.565 c 0,0.412 -0.015,0.765 -0.059,1.118 h 0.073 c 0.118,-0.338 0.28,-0.721 0.516,-1.118 l 4.873,-8.565 z"/>
          </g>
          <g transform="translate(432.6816,225.2398)" id="g106">
            <path inkscape:connector-curvature="0" id="path108" style="fill:#14b3db;fill-opacity:1;fill-rule:nonzero;stroke:none" d="m 0,0 c 0,3.071 -1.949,4.784 -4.725,4.784 -7.737,0 -11.989,-12.462 -14.411,-33.901 -0.025,-0.23 -0.034,-0.439 -0.05,-0.658 -1.507,-1.3 -3.731,-2.472 -5.678,-2.472 -1.535,0 -2.48,1.063 -1.772,4.37 l 4.135,19.549 c -0.709,0.473 -1.713,0.768 -2.776,0.768 -1.477,0 -3.012,-0.531 -4.016,-1.713 -1.477,1.3 -3.426,1.949 -6.084,1.949 -8.209,0 -14.883,-10.276 -14.883,-20.612 0,-0.574 0.034,-1.206 0.104,-1.859 -1.507,-1.292 -3.718,-2.452 -5.655,-2.452 -1.536,0 -2.481,1.063 -1.772,4.37 l 3.485,16.596 h 2.598 c 1.831,0 2.776,1.536 2.481,3.426 h -4.312 l 1.654,7.796 c -0.709,0.472 -1.713,0.768 -2.776,0.768 -2.126,0 -4.37,-1.004 -4.961,-3.721 l -1.063,-4.843 h -1.181 c -1.831,0 -2.776,-1.536 -2.481,-3.426 h 2.953 l -3.78,-17.836 c -0.057,-0.273 -0.098,-0.528 -0.142,-0.786 -1.502,-1.247 -3.644,-2.344 -5.527,-2.344 -1.535,0 -2.48,1.063 -1.771,4.37 l 3.602,17.069 c 0.473,2.244 -0.708,3.248 -2.835,3.248 -2.48,0 -4.606,-1.24 -6.614,-2.835 -1.182,-0.945 -0.768,-2.776 0,-3.248 0.531,0.472 0.886,0.709 1.181,0.709 0.531,0 0.768,-0.532 0.59,-1.477 l -3.425,-16.419 c -1.122,-5.374 2.303,-7.028 5.256,-7.028 3.359,0 6.71,1.964 9.346,4.47 0.315,-3.243 2.291,-4.47 4.946,-4.47 3.747,0 7.952,2.442 10.746,5.358 0.87,-2.818 2.787,-5.358 6.736,-5.358 3.366,0 6.496,2.481 8.977,5.965 -0.059,-4.666 2.717,-5.965 5.493,-5.965 2.867,0 6.585,2.201 9.325,4.919 0.651,-3.819 3.244,-4.919 5.557,-4.919 3.308,0 8.15,2.776 8.15,6.91 0,1.004 -0.649,1.595 -1.771,1.595 -0.886,-2.126 -2.245,-2.835 -3.308,-2.835 -1.181,0 -1.653,1.181 -1.299,4.311 0.059,0.709 0.177,1.418 0.236,2.126 C -3.839,-14.116 0,-4.607 0,0 m -30.475,-12.226 -3.307,-15.828 c -1.595,-2.185 -4.075,-3.721 -5.965,-3.721 -1.831,0 -3.189,1.3 -3.189,4.253 0,6.437 2.539,15.769 9.686,15.769 0.886,0 1.771,-0.118 2.775,-0.473 m 27.168,11.813 c 0,-2.009 -2.186,-10.513 -7.442,-20.14 1.949,12.462 4.489,21.439 6.438,21.439 0.649,0 1.004,-0.295 1.004,-1.299 m -62.957,0.472 c 0.236,2.303 -1.477,4.134 -3.78,4.134 -2.303,0 -4.252,-1.831 -4.489,-4.134 -0.354,-2.303 1.359,-4.134 3.662,-4.134 2.304,0 4.253,1.831 4.607,4.134 m -20.14,-22.325 c 4.43,7.914 10.986,19.313 10.986,27.995 0,1.358 -0.886,3.544 -3.898,3.544 -1.89,0 -3.367,-0.709 -4.489,-1.772 3.485,-7.265 -1.299,-19.668 -5.02,-26.696 l -5.611,-10.631 -0.472,33.488 h 0.295 c 1.358,0 2.067,1.181 2.067,2.303 0,0.591 -0.236,1.181 -0.827,1.536 -2.54,-1.418 -7.56,1.181 -12.462,1.181 -6.969,0 -9.804,-4.252 -9.804,-7.973 0,-2.953 1.772,-5.611 4.784,-5.611 0.827,0 1.654,0.177 2.54,0.591 -0.709,0.826 -1.181,2.126 -1.181,3.425 0,2.717 1.889,5.67 7.028,5.788 l 1.004,-42.287 c 0.709,-0.473 2.185,-0.768 3.248,-0.768 2.185,0 3.485,1.122 4.902,3.662 z"/>
          </g>
        </g>
      </g>
      <g id="g110" transform="matrix(0.31241654,0,0,-0.31241654,-48.769254,206.57634)">
        <g clip-path="url(#clipPath116)" id="g112">
          <g transform="translate(312.5197,222.5214)" id="g118">
            <path inkscape:connector-curvature="0" id="path120" style="fill:#0e88d3;fill-opacity:1;fill-rule:nonzero;stroke:none" d="m 0,0 c 6.426,-9.688 17.425,-16.078 29.921,-16.078 15.421,0 28.566,9.729 33.642,23.382 L 60.018,8.241 48.019,14.026 1.952,13.194 Z"/>
          </g>
          <g transform="translate(428.0735,185.4036)" id="g122">
            <path inkscape:connector-curvature="0" id="path124" style="fill:#f9a70d;fill-opacity:1;fill-rule:nonzero;stroke:none" d="m 0,0 c 0.417,1.55 0.643,3.178 0.643,4.859 0,0.697 -0.041,1.385 -0.116,2.062 -2.158,-0.692 -4.457,-1.069 -6.845,-1.069 -9.852,0 -18.212,6.364 -21.209,15.203 -3.676,-2.073 -6.539,-5.352 -8.016,-9.432 -0.718,-1.981 -1.109,-4.534 -1.109,-6.764 0,-2.128 0.362,-4.171 1.018,-6.076 2.281,0.986 4.525,2.009 4.525,2.009 0,0 4.928,-1.905 5.356,-1.905 0.429,0 9.214,1.905 9.214,1.905 z"/>
          </g>
          <g transform="translate(421.7554,191.255)" id="g126">
            <path inkscape:connector-curvature="0" id="path128" style="fill:#f47216;fill-opacity:1;fill-rule:nonzero;stroke:none" d="m 0,0 c 2.388,0 4.687,0.378 6.846,1.07 -1.027,9.328 -8.931,16.585 -18.532,16.585 -3.48,0 -6.735,-0.88 -9.522,-2.452 C -18.212,6.364 -9.852,0 0,0"/>
          </g>
          <g transform="translate(400.2577,219.9263)" id="g130">
            <path inkscape:connector-curvature="0" id="path132" style="fill:#ed1247;fill-opacity:1;fill-rule:nonzero;stroke:none" d="m 0,0 c -0.581,-1.992 -0.898,-4.096 -0.898,-6.276 0,-2.517 0.422,-4.934 1.187,-7.192 2.788,1.572 6.043,2.452 9.523,2.452 9.599,0 17.501,-7.255 18.53,-16.58 0.359,0.115 0.715,0.237 1.065,0.369 L 26.918,-15.09 36.189,9.551 26.061,14.586 19.097,9.337 12.991,-0.52 Z m 28.343,-27.601 c 0,0.002 0,0.003 -0.001,0.005 -0.064,-0.02 -0.129,-0.04 -0.194,-0.06 0.064,0.02 0.131,0.034 0.195,0.055"/>
          </g>
          <g transform="translate(401.7946,223.7687)" id="g134">
            <path inkscape:connector-curvature="0" id="path136" style="fill:#87ce26;fill-opacity:1;fill-rule:nonzero;stroke:none" d="m 0,0 c -3.134,7.297 -11.395,11.946 -19.984,11.946 -8.131,0 -12.537,-4.974 -14.255,-12.024 11.686,-3.564 20.838,-12.925 24.104,-24.738 3.579,2.057 6.6,5.121 8.537,8.698 -0.531,1.912 -0.837,3.919 -0.837,6 0,3.645 0.89,7.076 2.435,10.118"/>
          </g>
          <g transform="translate(392.2682,196.3816)" id="g138">
            <path inkscape:connector-curvature="0" id="path140" style="fill:#1ca747;fill-opacity:1;fill-rule:nonzero;stroke:none" d="m 0,0 c -2.542,12.828 -11.915,23.196 -24.175,27.147 -0.781,-5.168 -2.14,-13.235 -2.975,-18.129 6.507,-1.369 11.764,-6.119 13.859,-12.326 z"/>
          </g>
          <g transform="translate(366.99,204.9013)" id="g142">
            <path inkscape:connector-curvature="0" id="path144" style="fill:#87ce26;fill-opacity:1;fill-rule:nonzero;stroke:none" d="m 0,0 -1.872,-8.997 h -3.615 l 2.322,9.718 c -0.844,0.116 -1.705,0.181 -2.581,0.181 -3.429,0 -6.64,-0.926 -9.404,-2.536 -0.348,-1.806 -0.729,-3.791 -0.729,-4.318 0,-0.969 -1.071,-5.876 -1.071,-5.876 l 1.178,-5.987 4.393,-2.899 h 4.928 c 0.964,0 4.579,1.044 4.579,1.044 l 2.438,1.855 c 0,0 4.125,-0.57 5.41,-0.677 1.286,-0.107 5.661,0.677 5.661,0.677 0,0 0.645,-0.181 1.327,-0.288 0.002,0.096 0.007,0.192 0.007,0.288 C 12.971,-9.483 7.525,-2.425 0,0"/>
          </g>
          <g transform="translate(340.917,199.8159)" id="g146">
            <path inkscape:connector-curvature="0" id="path148" style="fill:#59caf5;fill-opacity:1;fill-rule:nonzero;stroke:none" d="m 0,0 c -4.247,0 -8.243,-1.069 -11.738,-2.95 l -0.352,-13.456 h 8.785 L 5.737,-0.674 C 3.895,-0.238 1.976,0 0,0"/>
          </g>
          <g transform="translate(363.7265,184.7585)" id="g150">
            <path inkscape:connector-curvature="0" id="path152" style="fill:#c4e112;fill-opacity:1;fill-rule:nonzero;stroke:none" d="m 0,0 c -2.495,5.832 -7.159,10.513 -12.98,13.029 -0.252,-2.51 -0.707,-6.532 -0.707,-6.532 0,0 0.026,-4.169 0.87,-4.169 0.844,0 4.058,-2.9 4.058,-2.9 h 7.071 c 0,0 0.815,0.305 1.688,0.572"/>
          </g>
          <g transform="translate(391.4217,190.2626)" id="g154">
            <path inkscape:connector-curvature="0" id="path156" style="fill:#5fc2d7;fill-opacity:1;fill-rule:nonzero;stroke:none" d="M 0,0 C 0,1.961 0.303,4.172 0.865,6.025 0.689,6.925 0.473,7.811 0.231,8.686 -2.761,6.969 -6.14,5.952 -9.611,5.952 c -1.681,0 -3.202,0.209 -4.573,0.6 1.728,-2.835 2.724,-6.165 2.724,-9.728 0,-1.143 -0.108,-2.26 -0.305,-3.346 3.329,-0.362 8.04,-0.897 12.043,-1.355 0.114,1.654 0.099,3.354 -0.071,5.098 C 0.072,-1.873 0,-0.945 0,0"/>
          </g>
        </g>
      </g>
    </g>
  </g>
</svg>