<?xml version="1.0" standalone="no"?>
<!DOCTYPE svg PUBLIC "-//W3C//DTD SVG 20010904//EN"
 "http://www.w3.org/TR/2001/REC-SVG-20010904/DTD/svg10.dtd">
<svg version="1.0" xmlns="http://www.w3.org/2000/svg"
 width="4445.000000pt" height="4422.000000pt" viewBox="0 0 4445.000000 4422.000000"
 preserveAspectRatio="xMidYMid meet">

<g transform="translate(0.000000,4422.000000) scale(0.100000,-0.100000)"
fill="#000000" stroke="none">
<path d="M22319 44206 c-25 -7 -64 -25 -86 -42 -35 -25 -3693 -3657 -19007
-18869 -3316 -3294 -3166 -3140 -3166 -3236 0 -20 -11 -61 -25 -91 -31 -66
-33 -145 -5 -206 11 -25 62 -86 122 -147 57 -57 4909 -4834 10783 -10616 5874
-5781 10779 -10609 10900 -10729 135 -133 235 -224 260 -235 58 -27 136 -31
190 -11 44 17 97 68 126 122 12 22 29 33 75 48 59 18 64 23 975 934 504 505
4770 4785 9480 9512 4709 4727 9101 9135 9758 9795 658 660 1259 1270 1336
1355 77 84 200 218 273 296 72 78 132 148 132 155 0 6 -24 39 -54 73 -30 34
-780 785 -1667 1671 -888 885 -2395 2389 -3349 3341 -1897 1893 -15384 15338
-16228 16178 -311 309 -534 539 -549 566 -69 119 -164 167 -274 136z m12059
-12556 c5193 -5178 9442 -9419 9442 -9424 0 -6 -157 -168 -348 -361 -272 -273
-18319 -18387 -20711 -20788 -294 -295 -538 -536 -542 -535 -4 2 -706 692
-1561 1533 -854 842 -5739 5651 -10856 10688 -5116 5038 -9302 9162 -9302
9166 0 4 4199 4179 9332 9277 5133 5098 10049 9982 10925 10852 l1593 1584
1294 -1289 c711 -708 5542 -5525 10734 -10703z"/>
<path d="M22144 42824 c-18 -8 -72 -61 -122 -117 -172 -194 -2850 -2862 -3982
-3967 -610 -595 -2034 -2005 -3148 -3115 -519 -517 -946 -941 -950 -943 -12
-4 -11794 -11811 -12177 -12202 -259 -264 -334 -335 -354 -336 -69 -2 -83 -6
-117 -36 -63 -55 -79 -121 -46 -188 18 -37 459 -476 1557 -1550 373 -366 1665
-1646 2870 -2846 1204 -1199 2406 -2392 2670 -2650 769 -752 1861 -1831 2980
-2944 572 -569 1166 -1159 1320 -1310 439 -429 2629 -2595 3480 -3440 423
-421 887 -880 1030 -1021 486 -477 2377 -2341 3108 -3064 1048 -1036 1530
-1507 1624 -1589 l83 -71 0 -55 c0 -65 24 -110 72 -140 39 -24 117 -27 156 -6
31 17 566 553 1317 1321 892 912 1158 1178 6890 6906 3097 3094 6125 6127
6729 6740 605 613 2106 2122 3336 3354 1230 1232 2265 2270 2300 2308 61 64
65 67 110 67 113 0 184 121 133 227 -9 19 -44 58 -77 86 -84 69 -1755 1725
-3257 3227 -1976 1975 -3783 3775 -5289 5270 -1839 1824 -1881 1865 -3210
3170 -630 618 -1467 1443 -1860 1834 -1466 1458 -2024 2011 -3150 3121 -635
627 -1605 1588 -2155 2135 -895 890 -1384 1369 -1589 1558 l-68 63 7 44 c8 59
-21 127 -67 155 -40 24 -110 26 -154 4z m138 -401 c207 -220 828 -843 4133
-4143 3653 -3649 4253 -4251 4225 -4235 -8 5 -71 48 -140 95 -659 455 -1503
914 -2300 1250 -523 221 -1146 437 -1743 605 -32 9 -60 21 -62 28 -2 7 -9 86
-15 176 -17 262 -63 455 -136 577 -164 274 -573 405 -750 242 -58 -53 -87
-104 -124 -213 -45 -133 -61 -225 -67 -387 -4 -104 -10 -148 -18 -148 -6 0
-72 11 -146 25 -1327 245 -2745 305 -4079 175 -1591 -156 -3073 -527 -4530
-1135 -979 -407 -2017 -987 -2895 -1615 -173 -124 -599 -445 -735 -554 -42
-33 -80 -47 -80 -28 0 4 172 178 383 387 210 209 1037 1030 1837 1825 800 794
2504 2493 3785 3776 1931 1933 3373 3364 3390 3364 2 0 32 -30 67 -67z m3419
-5750 c48 -55 155 -284 179 -384 11 -46 36 -223 55 -394 20 -170 46 -398 60
-505 13 -107 31 -278 40 -380 34 -420 55 -723 51 -728 -3 -2 -74 34 -158 81
-151 84 -352 186 -477 241 l-63 28 6 47 c3 25 10 108 16 184 5 76 27 242 49
370 120 703 181 1137 188 1340 3 75 9 137 13 137 4 0 23 -17 41 -37z m-2306
-513 c454 -28 854 -68 1285 -130 281 -41 597 -93 604 -101 3 -3 1 -115 -5
-249 -5 -135 -9 -408 -7 -608 1 -224 -2 -366 -8 -372 -7 -7 -65 11 -165 48
-374 142 -1049 349 -1393 428 -509 117 -1151 176 -1684 154 -327 -14 -526 -40
-601 -77 -95 -48 -140 -143 -114 -243 8 -30 5 -41 -21 -84 -60 -95 -31 -218
67 -284 23 -16 157 -88 297 -160 274 -140 653 -351 815 -453 161 -102 482
-427 676 -684 85 -113 371 -531 442 -645 174 -283 363 -844 431 -1280 73 -469
79 -839 26 -1403 -11 -114 -20 -215 -20 -223 0 -27 -19 -11 -78 67 -106 143
-366 443 -507 588 -77 79 -214 209 -305 290 -90 80 -237 213 -325 295 -308
287 -745 651 -927 772 -206 137 -596 340 -849 442 -284 115 -904 312 -1254
398 -82 20 -152 39 -154 40 -2 2 15 44 38 93 52 113 92 234 125 381 33 149 41
206 67 500 24 275 22 539 -6 665 -31 141 -102 252 -236 369 -115 101 -238 142
-397 134 -149 -7 -271 -93 -352 -249 -22 -42 -46 -103 -55 -135 -23 -87 -45
-340 -50 -584 -3 -118 -10 -305 -16 -415 -10 -200 -46 -554 -58 -567 -3 -3
-40 0 -81 8 -119 23 -560 82 -741 99 -575 54 -2241 60 -2589 9 -275 -40 -509
-132 -555 -218 -27 -49 -12 -102 35 -132 19 -13 56 -41 81 -65 25 -23 138
-101 250 -173 329 -211 648 -430 734 -504 90 -78 168 -182 367 -492 261 -407
312 -524 424 -975 154 -618 180 -979 154 -2105 -9 -387 -30 -800 -50 -994 -5
-50 -10 -100 -10 -111 0 -11 -21 16 -51 64 -55 89 -233 329 -417 561 -222 281
-1229 1249 -1687 1621 -287 234 -275 222 -275 285 0 29 15 113 34 186 19 73
39 158 45 188 5 30 22 109 36 175 14 66 32 158 39 205 8 47 37 218 65 380 64
381 81 532 81 732 -1 240 -40 392 -133 508 -60 75 -272 263 -376 335 -125 85
-169 94 -224 45 -72 -63 -101 -164 -146 -500 -11 -85 -27 -225 -35 -310 -19
-189 -41 -373 -61 -500 -8 -52 -22 -148 -30 -213 -9 -65 -29 -196 -46 -290
-16 -95 -39 -242 -51 -327 -12 -85 -22 -156 -23 -157 -1 -1 -32 10 -71 26
-136 55 -502 171 -649 205 -221 51 -349 68 -506 65 l-135 -2 -43 31 c-50 36
-92 46 -161 40 -95 -9 -160 -88 -160 -195 0 -52 8 -75 74 -213 79 -164 233
-564 291 -757 78 -255 136 -655 192 -1318 24 -279 23 -858 -1 -1125 -46 -511
-132 -974 -266 -1425 -21 -71 -82 -281 -135 -465 -160 -556 -224 -738 -405
-1165 -131 -311 -255 -640 -390 -1039 -143 -423 -230 -626 -484 -1135 -225
-449 -255 -496 -604 -966 -275 -370 -319 -426 -463 -587 -124 -140 -228 -276
-304 -399 -32 -52 -79 -118 -106 -147 -87 -95 -141 -274 -142 -467 -1 -178 34
-250 147 -305 110 -53 204 -64 541 -65 165 0 334 4 376 8 l76 8 6 -143 c3 -79
15 -210 28 -293 19 -123 23 -190 23 -370 1 -268 -11 -341 -99 -650 -35 -121
-85 -305 -110 -409 -42 -167 -46 -194 -36 -227 14 -46 59 -86 109 -95 45 -8
262 -112 279 -134 20 -26 158 -298 228 -450 37 -80 112 -230 167 -333 55 -103
99 -189 97 -191 -164 -120 -466 -387 -568 -502 -85 -95 -156 -215 -189 -320
-17 -54 -35 -114 -38 -131 -4 -18 -9 -33 -13 -33 -24 0 -492 895 -679 1300
-538 1161 -906 2305 -1146 3560 -224 1172 -301 2207 -245 3285 119 2303 750
4398 1957 6500 619 1079 1422 2143 2292 3039 180 185 501 459 940 800 693 540
1777 1200 2626 1600 1447 681 2802 1109 4299 1356 593 98 1153 155 1855 190
224 11 1273 4 1495 -10z m3275 -567 c1106 -328 2271 -852 3245 -1458 681 -423
1237 -846 1826 -1386 80 -74 201 -183 269 -244 269 -241 680 -679 1066 -1135
559 -661 585 -694 736 -925 658 -1007 1194 -2059 1637 -3212 503 -1311 849
-2848 951 -4223 51 -692 52 -1434 4 -2080 -94 -1269 -395 -2647 -840 -3836
-398 -1067 -884 -2026 -1505 -2974 -148 -225 -187 -259 -455 -394 -304 -153
-720 -268 -1144 -315 -535 -59 -1315 -61 -1895 -3 l-70 7 85 49 c241 139 398
253 621 452 310 277 575 510 703 618 217 183 670 650 805 830 37 50 96 130
132 177 35 48 145 187 245 310 190 237 249 319 332 464 85 151 118 239 206
550 78 275 82 293 111 485 14 96 32 213 40 260 29 185 40 360 38 620 -2 317
-13 453 -59 705 -41 224 -71 342 -160 622 -81 255 -105 307 -235 503 -56 85
-144 223 -197 305 -117 186 -236 353 -362 510 -83 103 -273 375 -308 441 -22
41 53 238 220 579 160 328 186 374 280 498 92 120 177 206 232 234 88 44 199
18 284 -69 51 -51 120 -187 129 -251 5 -44 4 -49 -30 -81 -37 -35 -59 -41
-272 -82 -162 -31 -229 -73 -280 -173 -56 -111 -3 -315 116 -445 54 -60 216
-174 319 -226 114 -57 154 -65 305 -64 312 2 525 79 712 257 164 156 252 356
303 685 60 390 -13 685 -275 1106 -84 134 -183 250 -265 311 -76 56 -215 123
-334 160 -133 42 -371 90 -528 106 l-117 12 -6 56 c-8 68 -27 146 -64 266 -35
112 -65 183 -231 560 -261 591 -298 684 -505 1245 -151 409 -243 635 -446
1097 -94 213 -237 543 -319 733 -81 190 -178 410 -214 490 -237 514 -895 1713
-1226 2231 -378 592 -1120 1416 -1860 2065 -201 175 -455 371 -935 720 -121
88 -278 203 -350 256 -129 94 -478 329 -689 463 l-108 70 6 180 c4 99 16 277
27 395 13 144 22 339 26 592 l6 378 26 -7 c14 -3 123 -35 241 -70z m-3885
-683 c436 -35 818 -104 1235 -226 264 -77 872 -280 1048 -350 538 -215 1034
-488 1737 -957 167 -112 777 -548 1033 -739 410 -306 729 -601 1188 -1095 338
-365 442 -488 676 -798 261 -348 506 -765 1013 -1730 347 -660 415 -800 665
-1380 46 -104 181 -415 302 -690 270 -613 319 -731 441 -1056 257 -683 376
-966 629 -1494 155 -321 240 -514 233 -526 -4 -5 -17 -9 -31 -9 -43 0 -173
-30 -268 -62 -231 -77 -379 -170 -616 -387 -254 -232 -309 -303 -527 -681 -72
-124 -161 -274 -199 -335 -38 -60 -125 -222 -194 -358 l-126 -249 -460 -1
-459 -2 -405 -52 c-223 -29 -490 -66 -595 -82 -280 -44 -511 -76 -870 -121
-698 -88 -1109 -154 -1601 -256 -682 -141 -1097 -267 -1584 -479 -270 -118
-614 -264 -857 -364 -93 -38 -224 -95 -293 -126 -69 -32 -190 -86 -270 -120
-80 -35 -215 -97 -300 -138 -85 -41 -231 -104 -325 -140 -93 -36 -233 -92
-310 -125 -77 -33 -207 -88 -290 -122 -158 -65 -373 -169 -540 -262 -234 -129
-489 -260 -615 -313 -74 -32 -202 -88 -285 -125 -171 -77 -333 -131 -485 -161
-132 -26 -379 -37 -447 -20 -73 18 -373 134 -373 144 0 5 19 34 43 65 24 31
108 154 187 272 303 453 633 900 815 1105 383 429 630 775 758 1061 48 106
473 965 584 1179 37 72 121 245 188 385 113 239 161 327 362 670 44 74 121
214 173 310 51 96 171 316 266 488 96 171 203 369 238 440 139 278 319 776
526 1454 76 250 256 921 295 1103 102 468 313 1908 377 2565 30 316 33 971 5
1200 -57 463 -163 885 -324 1295 -98 247 -173 381 -448 800 -260 396 -364 524
-660 821 -142 142 -226 218 -290 261 -127 85 -582 347 -755 433 -80 40 -140
75 -134 77 62 22 659 24 919 3z m-3441 -425 c42 -62 109 -226 138 -335 28
-105 46 -598 31 -820 -10 -135 -69 -589 -78 -599 -2 -1 -109 18 -237 43 -128
25 -250 48 -270 52 -27 4 -38 11 -38 23 0 59 27 268 60 466 37 220 49 310 85
615 27 222 74 422 117 492 26 42 115 117 140 118 9 0 32 -24 52 -55z m-1689
-1825 c315 -20 580 -58 1060 -151 1116 -216 1960 -494 2608 -858 184 -103 324
-190 410 -255 129 -97 593 -513 942 -846 61 -58 187 -176 280 -262 163 -149
422 -419 574 -595 38 -46 132 -165 207 -265 75 -101 152 -199 172 -220 l34
-36 -41 -324 c-42 -324 -143 -980 -182 -1178 -94 -476 -342 -1353 -566 -2000
-153 -443 -195 -535 -488 -1064 -100 -182 -225 -410 -278 -506 -52 -96 -152
-269 -222 -385 -69 -115 -187 -329 -260 -475 -74 -146 -188 -363 -254 -482
-131 -238 -417 -791 -495 -958 -176 -379 -210 -437 -453 -780 -48 -69 -95
-136 -103 -149 l-16 -23 -136 31 c-81 18 -189 35 -265 40 -447 33 -487 34
-887 28 -363 -6 -795 -26 -941 -43 -27 -3 -156 -23 -285 -44 -461 -75 -687
-110 -855 -130 -303 -37 -429 -63 -850 -175 -286 -77 -370 -104 -535 -177 -69
-31 -217 -90 -330 -131 -113 -42 -337 -134 -497 -206 -161 -72 -339 -145 -395
-163 l-103 -32 -362 -4 c-200 -2 -363 0 -363 3 0 4 22 32 49 63 26 31 81 107
122 167 99 149 140 196 388 440 118 116 264 267 325 336 61 69 193 213 293
320 328 351 413 462 595 779 159 276 380 696 483 920 119 258 299 734 409
1083 84 267 109 361 161 607 26 122 67 295 91 383 169 609 323 1437 408 2187
45 398 66 739 86 1435 14 471 13 666 -5 950 -26 419 -67 651 -190 1070 -128
435 -203 597 -452 975 -199 303 -320 474 -385 545 -90 98 -244 217 -515 398
-133 88 -239 165 -236 170 8 13 2031 2 2248 -13z m-3580 -614 c30 -30 98 -164
119 -236 42 -140 40 -344 -9 -728 -46 -365 -75 -695 -85 -952 -8 -231 -13
-290 -26 -290 -3 0 -44 26 -92 58 -48 33 -154 99 -237 147 -82 49 -152 90
-154 91 -2 2 3 34 12 71 81 349 103 443 129 538 52 194 85 353 143 690 55 320
94 520 117 598 9 29 16 37 35 37 13 0 35 -11 48 -24z m-3017 -648 c-917 -1131
-1719 -2442 -2235 -3653 -564 -1323 -911 -2581 -1082 -3925 -88 -687 -117
-1200 -108 -1935 9 -753 43 -1235 133 -1895 177 -1303 578 -2673 1180 -4031
127 -285 436 -909 589 -1189 331 -604 733 -1235 1145 -1800 l84 -115 -155 147
c-85 81 -671 668 -1304 1305 -632 637 -1309 1318 -1505 1513 -881 881 -2265
2255 -2905 2884 -385 378 -1102 1094 -1593 1590 -491 495 -1086 1094 -1323
1330 l-430 428 173 167 c334 320 897 871 1512 1481 342 338 849 838 1126 1110
278 272 847 833 1265 1245 418 413 1014 1000 1325 1305 311 305 1177 1160
1925 1900 1747 1728 2205 2180 2212 2180 3 0 -10 -19 -29 -42z m24032 -1790
c1691 -1687 3666 -3648 4460 -4429 653 -643 3130 -3112 3130 -3121 0 -3 -51
-54 -112 -114 -62 -60 -1035 -1029 -2163 -2154 -1127 -1126 -2554 -2543 -3170
-3151 -615 -607 -1668 -1651 -2339 -2319 -671 -668 -1216 -1208 -1211 -1200 5
8 53 74 106 145 835 1125 1555 2460 2012 3730 386 1074 636 2103 766 3153 231
1859 128 3681 -305 5426 -462 1856 -1248 3551 -2408 5186 -60 85 -121 170
-134 188 -13 17 -21 32 -16 32 5 0 627 -618 1384 -1372z m-22500 536 c163 -24
302 -62 523 -145 174 -66 284 -120 469 -232 337 -204 557 -380 1237 -996 217
-196 454 -412 526 -481 72 -69 231 -217 354 -330 159 -147 297 -288 486 -496
308 -339 419 -449 463 -459 27 -6 31 -10 27 -33 -3 -15 -14 -99 -26 -187 -63
-492 -195 -1176 -324 -1680 -35 -137 -80 -335 -100 -440 -46 -240 -89 -412
-170 -679 -107 -352 -235 -705 -350 -962 -70 -156 -446 -912 -526 -1057 -110
-198 -282 -436 -473 -652 -39 -44 -89 -104 -111 -133 l-40 -53 -75 6 c-41 3
-131 10 -200 15 -262 20 -639 2 -943 -46 -324 -50 -896 -156 -1087 -200 -253
-60 -698 -205 -955 -312 -99 -41 -297 -114 -440 -162 -404 -135 -759 -287
-970 -415 -60 -37 -114 -70 -120 -73 -5 -3 46 53 115 124 124 129 465 553 631
785 149 209 215 324 422 739 257 514 359 750 487 1125 128 374 275 763 415
1095 136 322 235 594 320 880 37 124 116 387 175 585 119 396 159 551 219 850
108 538 148 985 138 1550 -12 681 -95 1440 -198 1810 -28 98 -170 510 -220
638 l-20 50 118 -7 c65 -3 165 -13 223 -22z m20807 -6669 c255 -38 428 -85
552 -150 124 -66 164 -111 316 -361 156 -257 201 -487 156 -789 -46 -307 -114
-415 -342 -550 -121 -72 -199 -89 -368 -82 -221 9 -364 76 -425 199 -56 113
-15 244 86 281 11 4 35 -5 62 -24 168 -113 303 -107 436 17 140 130 157 330
46 546 -134 263 -288 398 -508 442 -97 20 -139 20 -236 0 -150 -31 -266 -105
-421 -271 -131 -139 -199 -233 -308 -428 -52 -93 -122 -217 -154 -274 -113
-202 -213 -463 -319 -831 -89 -312 -179 -574 -254 -744 -73 -162 -75 -167
-214 -401 -178 -299 -219 -354 -468 -625 -179 -196 -304 -315 -648 -621 -132
-117 -634 -494 -831 -624 -388 -257 -563 -357 -929 -532 -477 -227 -749 -323
-1183 -418 -568 -123 -1784 -257 -2688 -296 -527 -23 -2296 12 -2930 57 -704
50 -1497 173 -2115 329 -332 84 -1069 318 -1190 378 -148 74 -370 205 -445
263 -175 134 -377 248 -530 299 -113 38 -371 175 -588 312 -67 43 -211 122
-320 175 -165 83 -225 107 -370 149 -94 27 -221 57 -282 65 -60 9 -137 22
-170 29 -274 64 -1099 146 -1655 165 -157 6 -429 17 -605 25 -858 41 -1199 37
-1955 -20 -261 -20 -500 -33 -825 -45 -298 -11 -431 -21 -700 -51 -149 -17
-214 -20 -380 -15 -189 6 -387 28 -417 47 -21 13 -14 172 12 278 20 83 26 94
69 134 44 41 56 46 182 78 128 31 144 33 364 37 343 6 2850 -17 3150 -28 143
-6 676 -12 1185 -14 509 -2 1008 -9 1110 -15 558 -33 957 -86 1618 -212 992
-189 1449 -316 2217 -616 368 -144 830 -330 1125 -453 790 -330 1354 -523
1872 -640 695 -156 1159 -193 2170 -171 531 11 650 15 1078 41 376 23 1022
100 1395 165 302 53 543 109 829 191 376 108 681 231 970 390 174 96 535 323
648 407 271 201 622 538 814 782 180 228 402 516 470 612 190 265 432 715 602
1118 44 105 117 278 162 385 110 260 212 465 351 700 64 107 161 276 217 375
144 253 200 325 383 489 85 76 179 155 209 176 141 96 323 159 530 184 63 8
283 -3 387 -19z m-2477 -1932 c0 -17 -175 -400 -271 -593 -174 -348 -300 -558
-473 -785 -485 -636 -550 -714 -753 -900 -193 -178 -332 -288 -503 -400 -514
-339 -860 -497 -1455 -664 -175 -49 -477 -122 -483 -116 -2 2 1 77 7 167 6 89
15 307 21 483 6 176 16 415 21 530 6 116 13 372 16 570 4 308 2 396 -16 605
-25 296 -35 536 -23 543 24 16 761 126 1352 203 151 20 480 69 730 110 250 41
532 86 625 99 94 13 303 45 466 70 393 60 739 97 739 78z m-4151 -833 c9 -157
9 -270 2 -375 -10 -164 10 -1421 29 -1795 11 -217 28 -431 36 -466 5 -20 -3
-23 -133 -48 -114 -22 -663 -106 -691 -106 -12 0 -13 558 -2 735 18 273 39
764 52 1209 11 411 11 449 -7 595 -10 86 -20 192 -22 236 l-5 81 199 47 c164
39 524 116 529 113 1 -1 7 -102 13 -226z m5643 142 c21 -31 69 -95 108 -142
213 -258 330 -408 403 -515 44 -66 116 -168 159 -227 126 -172 143 -204 158
-305 16 -118 9 -359 -14 -430 -11 -36 -43 -86 -97 -154 -106 -133 -172 -198
-359 -351 -85 -71 -234 -194 -331 -275 -97 -82 -319 -258 -495 -392 -394 -302
-458 -352 -714 -566 -443 -370 -567 -454 -1105 -755 -170 -95 -377 -212 -460
-258 -468 -264 -997 -454 -2030 -726 -611 -161 -1135 -238 -2115 -311 -658
-48 -1394 -48 -2130 1 -667 43 -1458 124 -1914 195 -635 98 -1457 307 -2356
599 -217 70 -483 156 -590 190 -223 71 -312 104 -495 185 -220 97 -608 286
-655 320 -25 18 -64 42 -87 55 -24 13 -43 27 -43 30 0 4 50 74 111 156 131
176 190 262 249 364 24 41 62 95 84 120 23 25 49 56 58 69 22 31 30 29 268
-79 494 -223 997 -421 1371 -540 675 -213 1670 -382 2654 -450 533 -37 1694
-65 2360 -57 583 7 731 17 1695 113 1097 108 1754 238 2320 459 153 59 531
222 695 300 208 98 625 340 870 506 516 349 1428 1192 1727 1597 93 125 284
447 368 617 118 241 172 369 233 557 29 87 54 158 57 158 3 0 22 -26 42 -58z
m-18062 -9 c0 -4 -65 -70 -144 -148 l-144 -141 -5 47 c-6 53 -42 130 -82 177
l-26 31 43 5 c286 36 358 42 358 29z m-487 -145 c46 -136 46 -132 48 -293 l2
-141 -62 -119 c-34 -66 -90 -159 -124 -207 l-62 -88 -230 0 c-126 0 -236 4
-244 9 -12 8 -9 28 22 123 74 225 127 507 127 670 l0 97 33 6 c57 11 350 43
403 44 l51 1 36 -102z m-713 -126 c-17 -75 -33 -146 -35 -157 -2 -11 -16 -137
-30 -280 -15 -143 -28 -262 -31 -264 -2 -2 -457 -5 -1011 -7 -1106 -4 -1873
-21 -2203 -49 l-65 -5 175 71 c96 39 249 92 340 119 91 26 233 69 315 95 83
25 234 66 337 91 102 24 251 64 330 89 458 145 782 233 1098 300 309 66 804
153 808 143 2 -4 -10 -70 -28 -146z m12565 -170 c0 -484 34 -1361 71 -1847 5
-69 4 -78 -8 -65 -8 8 -53 60 -100 115 -235 274 -418 417 -750 585 -101 51
-270 140 -376 197 -317 170 -424 208 -837 298 -115 26 -213 50 -218 54 -15 15
512 257 1108 509 404 171 641 271 698 294 86 35 381 137 397 137 13 1 15 -36
15 -277z m-6159 156 c3 -5 -1 -17 -9 -26 -8 -9 -18 -27 -22 -40 -4 -13 -20
-39 -37 -57 -16 -19 -51 -71 -78 -115 -52 -87 -70 -152 -104 -369 -31 -197
-129 -441 -209 -518 -23 -22 -91 -77 -151 -122 -109 -82 -136 -92 -178 -70
-18 10 -15 14 41 50 148 97 249 245 272 399 14 89 6 268 -17 378 -17 87 -85
264 -150 394 -24 48 -44 90 -44 92 0 13 678 17 686 4z m655 -14 c6 -7 11 -48
12 -91 2 -61 -2 -84 -15 -103 -10 -14 -49 -68 -88 -120 -144 -196 -338 -538
-455 -803 -55 -123 -90 -161 -191 -208 -61 -28 -235 -65 -261 -55 -7 3 -18 18
-23 32 -10 24 -4 37 45 114 30 49 66 113 80 144 25 56 81 259 130 466 75 321
121 429 258 593 l40 48 228 -2 c177 -1 231 -4 240 -15z m-1528 -54 c67 -194
138 -573 141 -750 1 -103 -2 -121 -25 -176 -28 -67 -99 -178 -151 -237 l-33
-37 -65 20 c-407 130 -1293 311 -2048 420 -249 36 -653 75 -942 90 -113 6
-230 14 -260 18 l-55 7 185 72 c183 71 556 202 740 261 212 68 725 163 1060
197 85 9 238 29 340 45 178 28 581 84 820 114 63 8 151 13 194 13 l80 -2 19
-55z m4697 -955 c132 -31 199 -52 480 -148 316 -108 352 -123 555 -239 83 -46
215 -120 295 -163 332 -179 464 -277 725 -540 200 -200 241 -252 276 -344 25
-67 55 -199 47 -207 -23 -23 -809 -72 -1323 -84 -897 -19 -1560 38 -2222 194
-365 85 -712 195 -1218 385 -143 54 -281 104 -307 111 -54 14 -75 32 -56 47
18 14 206 96 313 137 50 18 155 59 235 91 80 31 181 70 225 85 44 16 157 63
250 105 94 43 242 107 330 145 88 37 223 95 300 130 77 34 201 86 275 115 74
29 194 77 266 108 113 48 176 69 269 91 39 10 211 -2 285 -19z m-3904 -460
c-9 -14 -23 -36 -32 -50 l-16 -24 -56 21 c-71 26 -85 38 -46 39 24 0 53 7 163
38 2 1 -4 -10 -13 -24z m14033 -210 c34 -184 71 -500 71 -600 0 -78 -45 -239
-91 -325 -21 -40 -51 -77 -81 -101 -27 -21 -99 -85 -161 -142 -325 -303 -320
-299 -702 -579 -93 -68 -249 -178 -345 -244 -96 -66 -215 -150 -265 -185 -106
-77 -395 -271 -490 -329 -70 -43 -337 -189 -599 -327 -392 -207 -935 -451
-1190 -534 -274 -90 -953 -249 -1334 -313 -81 -14 -248 -39 -372 -56 -124 -17
-342 -51 -485 -75 -143 -24 -414 -67 -601 -95 -188 -27 -462 -72 -610 -100
-353 -65 -1193 -234 -1314 -265 -433 -109 -704 -150 -1240 -186 -201 -13
-1112 -6 -1405 11 -515 30 -772 63 -1720 219 -396 66 -864 143 -1040 171 -538
87 -790 136 -1198 234 -569 137 -762 179 -1137 245 -483 87 -549 94 -807 95
-123 1 -222 3 -220 6 49 96 104 221 137 315 63 180 128 295 258 462 64 82 158
207 210 278 96 132 220 286 309 385 l50 54 55 -39 c31 -22 127 -94 215 -160
176 -134 260 -187 473 -298 251 -131 342 -168 900 -364 616 -217 907 -312
1280 -417 846 -238 1611 -373 2795 -490 548 -55 837 -72 1441 -87 612 -14
1015 2 1824 77 457 41 685 76 1107 169 558 122 1741 479 2100 634 216 92 562
268 1178 598 374 201 530 312 1035 733 129 108 314 258 410 335 358 284 691
563 900 755 58 53 146 130 195 172 110 92 239 226 287 299 20 30 57 98 84 151
27 54 51 94 55 90 4 -4 21 -83 38 -177z m-20629 41 c107 -3 348 -14 535 -25
187 -11 455 -25 595 -31 140 -6 305 -15 365 -20 323 -27 590 -52 594 -56 2 -2
-20 -14 -50 -26 -270 -109 -736 -397 -1524 -941 -843 -581 -991 -708 -1481
-1267 -220 -250 -504 -528 -719 -704 -93 -76 -177 -145 -186 -153 -14 -12 -19
-5 -44 64 -48 136 -380 787 -465 913 -39 58 -95 96 -175 119 -55 17 -115 43
-114 50 0 3 13 40 28 81 26 71 29 75 57 73 96 -5 324 42 533 109 251 80 649
295 864 466 51 40 209 193 352 340 256 265 355 384 415 502 46 91 107 297 120
405 7 55 14 103 16 106 2 4 23 5 46 3 24 -2 131 -6 238 -8z m-594 -25 c-89
-171 -296 -464 -448 -631 -251 -278 -779 -683 -1166 -896 -113 -61 -313 -156
-319 -151 -1 2 22 73 51 158 87 251 115 427 116 730 0 208 -51 642 -87 735 -4
12 27 14 208 14 118 0 295 4 394 10 99 5 347 19 550 30 204 11 395 22 425 23
30 2 108 4 173 5 l118 2 -15 -29z m3721 -317 c91 -19 159 -48 255 -109 76 -49
158 -121 158 -140 0 -6 -33 -30 -72 -52 -121 -68 -607 -302 -706 -339 -179
-67 -548 -154 -1037 -244 -385 -71 -783 -162 -1078 -247 -49 -13 -91 -23 -93
-20 -14 14 913 626 1200 791 302 174 581 277 916 336 229 40 349 47 457 24z
m1476 -594 c53 -17 97 -34 97 -38 0 -17 -41 -65 -164 -192 -73 -74 -152 -160
-178 -190 -113 -136 -947 -1265 -1026 -1390 -30 -47 -128 -233 -219 -414 -154
-309 -346 -641 -444 -771 -64 -85 -222 -204 -315 -236 -97 -34 -270 -18 -379
36 -48 23 -91 64 -309 296 -48 51 -82 76 -147 108 -108 53 -202 77 -237 61
-20 -9 -27 -8 -33 2 -26 41 -1 65 196 180 261 154 465 309 825 627 91 81 232
205 315 276 151 131 511 475 684 653 51 53 146 158 210 232 171 200 525 563
616 632 44 34 100 81 126 105 32 30 58 46 90 53 75 16 185 5 292 -30z m-878
-42 c-22 -24 -112 -117 -201 -208 -88 -91 -200 -212 -249 -270 -49 -58 -118
-136 -154 -175 -120 -129 -561 -554 -729 -703 -92 -81 -281 -253 -420 -382
-139 -129 -312 -288 -385 -354 -258 -231 -348 -319 -389 -376 l-41 -58 -56 46
c-183 150 -402 252 -621 292 -234 42 -728 23 -1038 -40 -123 -25 -252 -88
-362 -177 -105 -86 -169 -163 -222 -271 -37 -73 -42 -93 -46 -167 -5 -102 6
-143 80 -281 111 -207 258 -292 503 -294 169 0 407 104 542 237 50 50 65 72
78 118 11 35 21 55 29 52 6 -3 36 -10 66 -16 30 -6 60 -15 66 -19 18 -11 34
-48 34 -77 0 -54 -92 -197 -178 -277 -111 -104 -364 -247 -551 -312 -371 -129
-840 -87 -1024 92 -54 52 -83 104 -150 268 -63 153 -127 278 -176 344 -22 30
-41 59 -41 65 0 14 78 121 146 202 29 34 85 104 124 157 59 78 97 115 213 207
97 76 208 180 347 322 462 474 596 603 740 716 244 192 380 273 615 368 261
105 918 268 1522 377 643 117 915 178 1119 251 160 57 348 156 459 240 129 98
140 104 254 125 143 27 142 27 96 -22z m16775 -719 c-35 -137 -109 -368 -146
-461 -87 -217 -231 -433 -522 -783 -270 -324 -478 -493 -867 -702 -511 -275
-507 -273 -794 -389 -479 -194 -1485 -450 -2130 -544 -113 -16 -206 -28 -208
-26 -2 2 8 27 22 57 17 36 25 72 25 107 0 46 -4 58 -29 83 -24 23 -38 29 -73
29 -36 0 -67 -14 -202 -95 -88 -52 -227 -146 -310 -209 -197 -149 -227 -167
-473 -290 -807 -402 -1476 -626 -2088 -698 -151 -18 -1227 -18 -1495 0 -400
26 -494 39 -935 126 -176 35 -372 74 -435 85 -310 59 -850 204 -1088 293 -251
93 -363 154 -479 262 -52 48 -63 64 -63 90 0 17 -9 46 -20 64 -11 17 -15 32
-9 32 6 0 124 -18 262 -40 561 -88 915 -120 1592 -141 530 -17 764 -8 1255 47
252 28 411 57 769 144 135 33 368 84 516 115 149 30 356 73 460 95 337 71 646
128 1007 185 194 31 454 73 578 95 124 22 326 53 450 70 654 89 1262 206 1662
320 280 79 563 186 970 366 322 142 899 438 1173 602 206 124 694 451 1050
705 313 224 385 279 499 385 43 40 80 71 83 69 2 -3 -1 -25 -7 -48z m-20020
-1653 c104 -23 229 -88 322 -168 149 -127 223 -229 248 -342 19 -86 -31 -221
-135 -362 -132 -178 -227 -269 -609 -581 -182 -149 -242 -191 -436 -307 -370
-221 -544 -305 -794 -385 -134 -43 -408 -105 -513 -117 -112 -12 -265 51 -413
172 -128 104 -496 476 -547 554 -103 155 -149 276 -137 360 11 74 63 164 162
278 67 78 96 94 117 66 40 -50 73 -119 135 -279 86 -222 130 -297 244 -411
105 -105 192 -160 331 -210 148 -53 239 -65 510 -71 279 -6 405 7 617 61 386
100 766 336 928 575 52 78 103 187 121 261 7 30 13 93 12 140 -2 177 -86 313
-273 440 -162 109 -268 148 -435 157 -166 9 -254 -19 -387 -125 -116 -93 -164
-190 -122 -250 25 -36 75 -30 140 20 45 34 65 42 110 46 72 6 110 -11 125 -55
6 -19 8 -44 5 -56 -10 -39 -64 -93 -118 -118 -29 -13 -87 -41 -128 -62 -96
-49 -190 -59 -300 -32 -131 32 -190 99 -190 216 0 90 23 149 83 215 169 186
417 279 952 359 186 27 285 30 375 11z m2958 -361 c320 -54 915 -176 1167
-240 72 -18 339 -88 595 -154 616 -161 659 -170 1875 -366 193 -31 473 -79
624 -106 151 -27 275 -49 277 -49 5 0 -37 -74 -59 -103 -13 -18 -40 -64 -60
-103 -40 -80 -58 -94 -215 -173 -175 -88 -473 -198 -662 -246 -176 -44 -240
-50 -540 -49 -341 0 -377 6 -890 140 -197 51 -492 118 -750 169 -454 91 -452
91 -810 197 -129 38 -323 91 -430 117 -394 98 -595 202 -721 374 l-59 80 62
65 c71 77 170 209 282 375 54 81 84 116 93 112 8 -3 108 -21 221 -40z m-1878
-426 c58 -20 76 -33 166 -123 185 -185 449 -536 661 -879 129 -209 200 -310
381 -542 60 -77 106 -141 103 -143 -11 -4 -281 77 -361 109 -94 38 -270 138
-420 240 -123 82 -354 293 -508 463 -101 111 -209 270 -251 370 -40 97 -64
231 -56 321 7 74 23 181 31 204 7 21 172 8 254 -20z m16830 -337 c-157 -158
-328 -332 -380 -387 -132 -138 -548 -511 -665 -596 -6 -4 -75 1 -155 11 -495
64 -765 137 -1084 296 -118 59 -177 98 -270 178 -66 57 -151 165 -139 177 4 4
44 3 88 -1 270 -29 762 6 1195 85 211 39 705 162 950 237 157 48 493 178 650
251 41 20 79 36 85 36 5 1 -119 -128 -275 -287z m-15781 -162 c1 -58 8 -141
17 -185 8 -44 17 -134 20 -200 l5 -120 -31 50 c-17 28 -69 115 -115 194 -47
79 -123 198 -169 265 l-83 121 91 0 c82 0 99 3 171 35 l80 35 7 -45 c3 -25 7
-92 7 -150z m431 -160 c157 -89 261 -126 686 -239 451 -121 498 -132 955 -226
174 -35 395 -87 490 -115 96 -28 268 -78 384 -111 227 -66 427 -111 588 -131
126 -16 661 -17 731 -1 63 14 52 3 -74 -73 -384 -232 -857 -370 -1910 -556
l-235 -42 -275 -1 c-488 0 -604 32 -1044 294 -94 56 -173 101 -176 101 -4 0
-17 19 -30 43 -13 23 -83 130 -155 237 l-132 195 -6 95 c-3 52 -14 131 -26
175 -17 66 -21 123 -25 313 l-6 232 88 -71 c48 -38 125 -92 172 -119z m-2017
75 c83 -218 278 -472 598 -778 169 -163 243 -220 433 -338 158 -97 272 -156
385 -200 94 -37 483 -153 597 -178 65 -14 103 -31 171 -73 48 -31 108 -67 131
-80 32 -19 40 -28 30 -34 -22 -14 -492 -7 -673 10 -384 36 -716 91 -888 147
-118 38 -315 134 -392 191 -139 103 -264 242 -352 392 -93 157 -118 272 -87
399 14 62 15 83 6 114 -17 56 -61 94 -114 100 -58 6 -97 -18 -145 -86 -21 -30
-153 -165 -293 -301 -332 -321 -400 -367 -930 -638 -349 -179 -418 -209 -570
-251 -63 -18 -126 -35 -139 -39 -30 -9 -35 -22 -17 -47 12 -17 25 -20 78 -18
252 7 836 215 1215 433 194 111 245 146 367 254 111 98 252 216 259 216 3 0 9
-15 12 -32 25 -117 119 -316 202 -428 82 -111 254 -276 362 -348 238 -159 497
-251 921 -326 701 -124 1214 -126 1691 -6 l115 29 150 -19 c380 -50 1041 -83
1669 -84 386 -1 483 2 605 17 287 35 509 93 749 193 195 82 493 271 631 401
l80 75 162 -146 c182 -162 260 -223 430 -337 371 -249 629 -376 1020 -501 93
-29 168 -56 168 -60 0 -25 -382 -298 -560 -400 -303 -173 -591 -276 -935 -333
-211 -34 -349 -43 -933 -60 -805 -23 -1065 -4 -1397 102 -261 84 -426 162
-717 341 -461 282 -641 421 -720 554 -47 79 -97 127 -136 130 -79 4 -119 -15
-162 -76 -33 -49 -122 -107 -300 -196 -238 -119 -500 -197 -1095 -324 -256
-55 -889 -169 -1052 -190 -281 -36 -712 -45 -1179 -25 -401 18 -454 18 -468
-4 -23 -37 49 -69 224 -101 150 -28 525 -75 723 -93 264 -23 675 -23 867 1
685 83 1444 229 1810 347 167 55 413 182 546 283 9 7 31 -9 76 -55 195 -201
726 -559 1081 -729 292 -140 602 -236 875 -269 264 -33 750 -37 1367 -10 592
25 966 97 1317 255 301 135 505 258 768 463 l103 80 56 -50 c68 -62 385 -223
577 -293 254 -94 569 -171 861 -210 361 -50 936 -37 1388 30 613 90 1594 353
2095 561 418 174 884 434 1130 632 41 34 77 61 80 61 3 0 18 -20 33 -45 46
-72 160 -188 240 -243 184 -127 435 -217 707 -254 147 -20 537 -17 695 5 440
62 898 199 1400 417 233 102 577 284 735 390 156 105 423 367 733 720 138 157
230 253 212 220 -35 -62 -453 -583 -674 -840 -273 -317 -269 -313 -483 -441
-307 -182 -484 -261 -899 -397 -313 -103 -526 -158 -779 -201 -322 -55 -447
-64 -815 -58 -358 6 -462 14 -912 78 -339 48 -509 66 -691 75 -151 7 -203 -1
-249 -40 -41 -34 -620 -322 -892 -442 -257 -115 -381 -162 -666 -253 -397
-126 -630 -186 -910 -234 -18 -3 -44 2 -67 14 -20 10 -54 19 -75 19 -36 0 -52
-8 -115 -53 -19 -13 -73 -22 -209 -37 -350 -37 -534 -44 -795 -32 -496 25
-824 68 -1324 177 -265 58 -416 103 -543 162 -121 56 -130 55 -293 -27 -385
-195 -1057 -383 -1843 -515 -510 -86 -983 -75 -1535 36 -419 84 -797 195
-1386 409 -124 45 -322 111 -440 146 -118 36 -255 81 -305 101 -210 81 -222
84 -263 74 -21 -6 -51 -25 -67 -42 -61 -65 -233 -162 -412 -232 -138 -55 -302
-101 -573 -161 -319 -71 -333 -73 -550 -90 -441 -35 -856 -29 -1025 14 -56 14
-82 17 -89 9 -28 -27 85 -77 245 -108 204 -39 765 -91 984 -91 279 0 807 82
1060 165 152 50 336 142 415 208 l66 54 89 -34 c50 -19 162 -56 250 -83 215
-66 331 -106 585 -207 513 -202 805 -306 1070 -378 74 -21 141 -41 148 -45 21
-11 -58 -64 -268 -180 -259 -143 -359 -192 -657 -319 -510 -218 -879 -318
-1293 -351 -157 -13 -180 -17 -180 -36 0 -24 37 -34 157 -46 136 -13 324 -1
519 32 163 28 534 121 674 169 440 150 579 206 905 366 166 81 203 104 294
180 98 82 105 86 130 75 181 -85 533 -226 751 -301 200 -70 832 -226 1200
-298 371 -72 762 -112 1115 -114 470 -2 653 27 1460 228 790 197 958 252 1315
434 233 117 352 186 523 298 70 46 133 86 141 89 8 3 43 -14 78 -39 68 -46
128 -73 378 -170 247 -95 381 -135 590 -177 342 -69 538 -90 820 -90 303 0
514 32 980 151 484 123 1079 313 1325 423 99 44 359 204 475 293 l109 82 48
-21 c57 -25 262 -84 329 -94 l47 -7 -24 -19 c-26 -21 -598 -306 -804 -400
-194 -89 -396 -172 -620 -253 -505 -184 -884 -277 -1385 -339 -422 -52 -493
-58 -836 -63 -733 -12 -980 35 -1618 307 -52 22 -109 40 -126 40 -35 0 -79
-20 -100 -45 -31 -38 -496 -298 -652 -364 -403 -173 -1355 -441 -1851 -521
-931 -151 -1911 -51 -3037 310 -157 50 -364 123 -460 162 -267 108 -276 111
-316 98 -22 -8 -45 -27 -64 -54 -64 -94 -118 -132 -501 -352 -148 -85 -534
-241 -778 -315 -75 -22 -140 -45 -145 -50 -16 -15 5 -28 63 -39 110 -21 377
29 601 112 143 53 341 147 412 196 24 16 95 57 158 92 129 70 187 110 245 169
21 23 45 41 53 41 7 0 73 -22 145 -49 73 -27 272 -92 442 -145 171 -52 324
-100 340 -106 127 -48 768 -207 992 -245 279 -47 665 -88 898 -95 11 0 -8 -12
-187 -113 -64 -36 -187 -112 -273 -167 -178 -115 -445 -259 -609 -330 -138
-59 -357 -130 -402 -130 -79 0 -623 102 -1094 206 -902 199 -1888 516 -2809
904 -629 265 -1299 599 -1811 903 -959 570 -1460 919 -2200 1536 -545 454
-604 517 -1002 1056 -151 204 -460 641 -480 679 -13 23 -13 23 104 -64 105
-80 242 -151 338 -176 121 -32 443 -17 758 36 288 49 523 137 905 340 250 134
344 196 567 379 223 183 340 289 400 364 25 30 48 52 51 48 3 -3 17 -38 32
-76z m14447 -375 c91 -118 276 -264 441 -350 98 -51 315 -138 431 -174 295
-90 605 -143 1078 -186 401 -36 480 -40 834 -50 395 -11 674 -1 896 29 80 11
222 29 315 40 94 11 194 25 224 31 30 5 56 9 58 7 5 -6 -192 -64 -307 -91
-129 -30 -399 -80 -580 -106 -247 -36 -445 -42 -1265 -37 -824 4 -891 8 -1182
57 -142 25 -332 87 -456 149 -278 142 -435 227 -461 250 -16 14 -37 45 -48 68
-39 88 -98 133 -173 133 -52 0 -93 -20 -155 -77 -30 -27 -100 -85 -155 -129
-55 -43 -150 -124 -210 -179 -139 -126 -220 -191 -365 -290 -63 -43 -164 -114
-223 -158 -248 -181 -578 -356 -944 -501 -509 -201 -1123 -273 -2097 -247
-580 15 -770 30 -1109 86 -428 71 -865 233 -1214 451 -286 179 -419 280 -585
444 -90 90 -108 112 -121 156 -30 102 -72 153 -142 174 -85 25 -185 -35 -213
-127 -32 -107 -347 -334 -633 -456 -203 -87 -444 -152 -669 -181 -158 -21
-403 -38 -475 -34 l-60 3 175 49 c186 51 458 148 603 215 249 115 560 329 798
551 107 100 374 313 416 333 19 9 34 0 120 -69 54 -43 141 -115 193 -159 117
-101 591 -467 720 -557 139 -96 638 -402 765 -469 359 -189 739 -297 1150
-328 176 -14 584 -14 735 -1 293 25 587 78 905 161 433 114 811 267 1170 474
161 93 935 623 1209 827 70 53 189 129 262 170 74 40 165 94 202 119 37 26 72
47 77 48 6 0 35 -31 65 -69z m-6590 -405 c303 -112 686 -210 1220 -315 454
-88 605 -113 890 -145 347 -38 565 -54 940 -65 654 -21 984 8 1455 129 101 26
182 44 179 40 -8 -13 -167 -100 -339 -187 -423 -211 -894 -354 -1410 -426
-519 -73 -974 -52 -1414 65 -142 38 -416 144 -536 208 -131 70 -728 434 -810
493 -78 57 -305 238 -305 244 0 6 1 6 130 -41z m6406 -284 c26 -22 102 -68
168 -102 67 -34 149 -80 183 -101 83 -50 207 -112 316 -158 l88 -37 -88 -83
c-223 -212 -372 -313 -851 -579 -111 -62 -384 -187 -537 -246 -472 -183 -1370
-423 -1906 -509 -320 -52 -432 -61 -789 -61 -342 0 -453 8 -690 46 -350 56
-738 179 -1021 325 -90 47 -169 107 -157 119 4 5 61 0 125 -9 310 -43 629 -63
1158 -72 782 -14 1368 52 1854 208 326 104 810 334 1081 513 348 230 525 364
716 540 149 138 277 245 294 245 4 0 29 -18 56 -39z m4513 -265 c-19 -16 -288
-177 -379 -226 -408 -220 -741 -363 -1067 -459 -497 -144 -920 -206 -1244
-182 -393 30 -639 125 -815 313 -81 87 -91 114 -70 175 35 97 39 121 27 154
l-11 32 38 -7 c171 -31 397 -57 566 -67 232 -14 1442 -6 1695 11 351 23 892
128 1151 223 89 33 119 42 109 33z m-624 -1188 c-159 -169 -543 -524 -608
-563 -27 -15 -99 -41 -160 -57 -102 -27 -121 -29 -222 -24 -60 3 -166 12 -235
20 -69 8 -186 20 -260 25 -156 13 -188 20 -289 69 -124 60 -190 47 -263 -48
-47 -62 -129 -127 -283 -223 -197 -123 -310 -178 -545 -265 -422 -157 -1111
-332 -1525 -388 -411 -54 -1151 26 -1584 171 -91 31 -169 60 -174 64 -4 4 30
15 75 25 228 49 884 258 1107 353 177 75 417 191 576 276 83 44 233 121 335
170 l185 89 180 -5 c156 -5 219 -12 475 -56 637 -108 1144 -137 1530 -86 378
50 916 176 1129 265 75 31 462 202 561 248 36 17 67 28 69 26 2 -2 -31 -41
-74 -86z m-19040 -980 c548 -397 883 -617 1305 -860 498 -286 804 -450 1190
-633 1089 -520 1963 -833 3135 -1126 956 -238 2031 -393 3120 -450 471 -25
1337 -12 1875 27 575 41 1277 137 1865 255 997 199 2190 619 3205 1125 482
241 793 420 1325 760 154 99 323 206 375 239 146 90 271 177 430 300 80 61
159 120 175 130 17 10 -1358 -1369 -3055 -3066 -2682 -2681 -3651 -3644 -4575
-4549 -115 -113 -462 -453 -770 -757 l-561 -551 -59 71 c-63 75 -3430 3452
-7055 7077 -1186 1185 -2165 2166 -2175 2180 l-20 24 35 -25 c19 -14 125 -91
235 -171z m9437 -54 c259 -94 766 -207 1206 -268 326 -46 509 -59 830 -60 254
-1 299 -3 285 -14 -29 -22 -346 -179 -439 -218 -186 -77 -461 -158 -925 -273
-734 -181 -898 -210 -1264 -218 -470 -11 -891 37 -1622 182 -422 84 -604 128
-783 188 l-125 42 85 2 c274 8 475 31 780 93 762 152 1459 357 1785 523 50 25
95 46 102 46 6 1 45 -11 85 -25z m8380 -93 c-33 -27 -147 -114 -253 -192 -172
-127 -253 -182 -459 -312 -76 -48 -560 -325 -754 -431 -869 -477 -1868 -885
-2778 -1135 -395 -109 -1049 -262 -1473 -345 -592 -116 -1339 -202 -2050 -237
-277 -13 -1251 -7 -1520 10 -344 22 -948 79 -1039 97 -25 5 -9 13 100 49 221
73 344 130 724 335 282 152 465 292 499 383 9 23 14 24 153 30 544 25 899 93
1718 327 511 147 810 264 1058 414 50 30 159 91 243 136 127 68 158 81 185 77
18 -3 124 -44 236 -92 289 -123 364 -146 613 -190 206 -36 317 -45 650 -52
307 -6 541 4 805 33 729 80 1140 166 1685 351 257 88 397 145 680 281 132 63
316 150 408 193 92 43 198 95 235 115 129 73 377 204 385 204 4 0 -19 -22 -51
-49z"/>
<path d="M22190 40524 c-19 -3 -73 -12 -119 -20 -457 -83 -805 -393 -922 -823
-32 -115 -37 -317 -11 -441 46 -223 136 -392 297 -556 184 -188 426 -315 689
-360 116 -20 390 -14 481 11 269 73 438 157 602 297 421 361 493 952 172 1408
-74 105 -193 220 -336 328 -138 102 -175 115 -252 88 -41 -14 -47 -13 -95 6
-89 35 -216 58 -346 62 -69 2 -141 2 -160 0z m433 -234 c51 -12 60 -17 77 -49
26 -52 58 -78 125 -101 115 -40 250 -150 334 -273 103 -151 157 -371 132 -537
-44 -287 -219 -525 -484 -655 -153 -75 -220 -89 -442 -89 -174 0 -198 3 -287
26 -330 89 -570 306 -670 604 -20 61 -23 88 -23 229 1 149 3 166 28 240 106
303 401 545 745 610 92 17 375 14 465 -5z"/>
<path d="M18053 28580 c-87 -20 -145 -108 -151 -230 -5 -91 9 -173 59 -353 84
-297 152 -462 418 -1007 109 -223 229 -475 267 -560 211 -476 573 -1119 967
-1720 398 -608 619 -889 907 -1154 283 -261 421 -365 583 -441 141 -65 204
-77 264 -48 73 34 81 122 18 183 l-35 34 0 92 c0 212 59 754 116 1069 65 360
147 605 489 1470 68 171 160 416 206 545 110 316 121 339 332 749 172 331 234
459 252 521 4 14 21 44 37 68 91 132 96 274 13 328 -36 24 -110 14 -160 -20
-168 -112 -171 -114 -620 -329 -281 -134 -270 -130 -517 -206 -524 -161 -885
-187 -1169 -85 -66 23 -251 105 -583 256 -167 76 -837 413 -962 483 -144 82
-328 173 -430 214 -55 22 -88 41 -102 61 -26 34 -94 76 -137 82 -16 3 -45 2
-62 -2z m437 -535 c170 -140 452 -329 830 -555 212 -126 649 -351 806 -413
362 -145 812 -140 1364 14 266 75 470 148 639 230 90 43 165 79 168 79 2 0
-13 -26 -33 -57 -177 -274 -226 -386 -395 -893 -64 -195 -138 -411 -164 -480
-66 -175 -233 -646 -294 -825 -110 -326 -159 -594 -186 -1010 -18 -283 -19
-481 -4 -628 6 -59 9 -114 7 -124 -2 -12 -22 -1 -83 48 -87 70 -368 349 -503
499 -176 196 -398 499 -642 875 -229 352 -291 457 -595 1010 -103 189 -228
446 -310 640 -124 295 -152 358 -328 730 -96 204 -198 426 -227 495 -48 113
-150 408 -150 432 0 13 14 3 100 -67z"/>
<path d="M5333 23385 c-113 -21 -235 -61 -402 -133 -238 -102 -411 -213 -562
-364 -235 -234 -358 -520 -390 -907 -23 -278 34 -493 193 -737 67 -101 222
-258 316 -319 213 -136 587 -265 771 -265 89 0 205 24 242 51 31 22 39 62 19
99 -9 18 -163 160 -284 264 -121 103 -222 274 -271 457 -35 132 -75 380 -75
467 0 74 20 191 47 272 58 177 234 461 351 569 88 80 227 185 365 275 151 99
175 123 163 170 -9 36 -40 53 -147 80 -122 30 -244 38 -336 21z m-213 -418 c0
-7 -40 -49 -88 -94 -167 -154 -311 -373 -369 -562 -53 -175 -79 -407 -62 -557
20 -181 96 -392 199 -547 67 -101 74 -127 35 -127 -39 0 -85 23 -175 86 -123
86 -189 152 -243 242 -110 187 -150 321 -150 507 0 215 34 368 118 535 101
198 232 322 466 436 79 39 155 76 169 82 36 15 100 15 100 -1z"/>
<path d="M38750 23299 c-92 -18 -120 -33 -120 -65 0 -7 23 -32 52 -56 99 -82
250 -233 310 -312 129 -169 219 -375 268 -616 19 -89 21 -127 17 -250 -9 -253
-76 -451 -230 -686 -82 -125 -160 -210 -322 -349 -107 -92 -126 -113 -123
-134 9 -74 204 -85 433 -26 133 35 248 88 439 204 295 178 465 346 619 612 56
96 110 289 126 454 33 323 -102 655 -375 921 -72 71 -112 101 -181 137 -191
98 -556 188 -753 186 -36 0 -108 -9 -160 -20z m703 -315 c93 -16 114 -26 238
-114 145 -103 219 -205 294 -403 57 -153 70 -300 39 -440 -25 -109 -88 -260
-157 -372 -128 -211 -414 -440 -529 -423 -35 5 -27 63 22 152 54 99 118 292
130 391 5 44 14 123 20 175 20 160 -12 388 -87 615 -14 44 -59 147 -100 228
-41 82 -73 156 -71 165 3 18 57 40 98 39 14 0 60 -6 103 -13z"/>
<path d="M22055 6154 c-471 -72 -856 -403 -1008 -869 -42 -128 -57 -233 -57
-395 0 -221 34 -373 125 -565 132 -277 415 -523 727 -633 163 -58 270 -72 542
-72 241 0 242 0 295 26 60 30 100 82 108 142 5 37 9 41 40 47 187 35 438 268
568 525 272 542 88 1224 -428 1584 -36 26 -117 71 -180 101 -227 109 -482 147
-732 109z m326 -309 c286 -50 536 -216 683 -455 95 -154 136 -294 143 -485 4
-117 1 -157 -17 -245 -46 -225 -125 -365 -315 -559 l-132 -134 -54 26 c-75 38
-130 36 -211 -7 -136 -72 -311 -75 -513 -10 -149 49 -255 114 -378 233 -264
255 -370 649 -265 990 53 176 171 346 310 451 229 173 490 241 749 195z"/>
<path d="M27169 43827 c-245 -85 -525 -293 -905 -672 -110 -110 -232 -240
-270 -290 -37 -49 -97 -124 -133 -165 -177 -205 -271 -358 -279 -456 -6 -73
10 -112 78 -190 33 -37 60 -71 60 -75 0 -15 397 -420 655 -667 417 -400 489
-456 595 -469 67 -8 93 10 107 73 9 38 8 56 -2 80 -13 32 -222 242 -332 333
-34 29 -104 104 -155 168 -51 63 -121 151 -156 194 -89 111 -238 368 -253 437
-24 104 21 221 99 261 48 25 182 59 260 67 64 7 129 -4 217 -37 45 -17 79 -41
144 -103 134 -127 220 -197 286 -228 69 -32 82 -34 113 -12 16 11 22 25 22 54
0 70 -41 139 -166 282 -147 167 -258 349 -284 462 -19 85 0 119 110 201 124
93 155 105 271 105 175 0 317 -58 428 -174 180 -190 523 -526 564 -553 87 -57
205 -67 254 -21 80 75 36 226 -116 392 -42 46 -134 148 -206 227 -375 413
-690 729 -770 771 -82 43 -125 44 -236 5z"/>
<path d="M15420 42680 c-68 -17 -265 -101 -331 -140 -37 -22 -91 -62 -121 -88
-59 -54 -227 -187 -418 -330 -236 -178 -391 -320 -460 -422 -55 -81 -107 -226
-116 -322 -14 -163 78 -362 304 -653 203 -262 301 -359 657 -654 306 -254 404
-341 600 -531 178 -174 260 -246 335 -297 25 -17 54 -41 65 -53 26 -30 228
-162 290 -189 71 -31 116 -36 157 -17 46 22 63 57 61 122 -4 113 -113 258
-524 694 -80 85 -200 216 -267 290 -67 74 -201 214 -298 310 -97 96 -240 244
-316 328 -77 83 -143 152 -147 152 -4 0 -46 39 -94 88 -109 109 -216 253 -268
358 -36 71 -42 94 -52 194 -13 135 -5 185 49 295 28 58 53 91 103 137 82 75
103 85 188 98 196 28 370 -12 555 -129 150 -94 225 -223 289 -497 30 -131 32
-151 33 -334 1 -107 -3 -222 -8 -256 -7 -52 -5 -71 13 -127 30 -89 58 -127
116 -159 93 -51 151 -57 450 -51 376 9 639 8 855 -3 102 -5 304 -7 450 -3 225
4 291 9 440 33 96 16 198 35 226 42 112 30 149 117 82 189 -28 29 -53 40 -158
70 -149 44 -331 85 -380 85 -19 0 -87 9 -150 20 -63 11 -209 24 -325 30 -142
7 -250 18 -335 35 -69 13 -165 29 -215 35 -192 25 -429 85 -491 125 l-22 14
24 108 c34 160 38 260 19 493 -41 516 -122 699 -359 815 -129 63 -249 96 -371
100 -55 3 -116 0 -135 -5z"/>
<path d="M29274 41644 c-21 -14 -50 -36 -64 -49 -14 -12 -82 -64 -153 -114
-79 -58 -166 -132 -230 -197 -96 -100 -283 -267 -421 -379 -33 -27 -85 -74
-114 -105 -29 -30 -132 -125 -230 -210 -193 -170 -329 -315 -369 -397 -39 -80
-31 -143 28 -219 55 -72 367 -398 474 -495 44 -40 152 -143 240 -229 239 -234
362 -324 450 -331 64 -5 87 2 116 30 24 24 29 38 29 78 0 59 -24 106 -109 217
-34 45 -95 131 -135 191 -40 61 -112 159 -160 219 -90 111 -178 270 -192 344
-4 20 -2 57 5 82 12 45 108 213 186 325 23 33 70 103 105 155 80 119 237 325
350 455 135 157 154 183 222 305 105 189 128 272 87 324 -27 34 -64 34 -115 0z"/>
<path d="M13095 40118 c-144 -19 -584 -160 -728 -234 -82 -42 -230 -149 -309
-223 -94 -87 -151 -178 -282 -441 -85 -171 -121 -254 -147 -345 l-34 -120 0
-340 0 -340 53 -155 c95 -277 219 -498 364 -648 72 -75 231 -201 363 -288 116
-76 394 -209 551 -263 138 -47 360 -82 559 -88 152 -5 178 -3 240 15 100 29
345 116 382 135 17 9 57 26 89 38 138 52 344 178 466 286 78 69 271 302 314
378 29 50 87 251 119 411 46 223 30 573 -34 790 -60 201 -94 266 -307 589
-210 318 -351 461 -619 628 -150 93 -253 143 -384 187 l-94 32 -251 2 c-138 1
-278 -1 -311 -6z m-107 -409 c229 -51 308 -77 456 -144 170 -79 276 -139 375
-212 90 -68 523 -498 608 -605 66 -83 165 -238 194 -303 25 -56 66 -268 85
-441 l17 -144 -32 -117 c-25 -92 -42 -132 -76 -183 -59 -85 -192 -239 -232
-266 -51 -34 -310 -149 -424 -188 l-107 -36 -173 6 c-205 7 -314 23 -432 63
-107 36 -159 66 -317 181 -279 203 -361 271 -526 435 -262 261 -378 412 -484
630 -78 162 -87 252 -45 479 31 165 69 274 137 386 113 188 180 262 318 356
159 107 231 129 438 133 61 1 121 -7 220 -30z"/>
<path d="M31269 40016 c-59 -16 -184 -93 -257 -160 -31 -28 -111 -96 -177
-151 -187 -155 -292 -261 -519 -526 -116 -135 -275 -315 -354 -401 -298 -324
-388 -482 -328 -573 24 -37 71 -54 168 -61 72 -6 100 -2 208 24 275 66 431 78
487 36 18 -14 45 -61 81 -145 126 -291 315 -776 343 -882 6 -23 27 -80 48
-127 21 -47 54 -123 75 -170 66 -153 135 -221 207 -205 40 9 85 49 112 99 22
40 22 47 19 414 -1 205 -6 412 -12 460 -6 48 -17 150 -25 227 -8 77 -23 179
-33 226 l-18 87 281 6 c459 11 874 26 970 37 186 20 285 75 285 158 0 49 -22
86 -63 108 -136 70 -486 164 -806 217 -117 20 -286 54 -375 76 -148 37 -447
120 -454 125 -7 6 32 165 60 243 32 91 93 220 134 281 56 85 122 297 138 441
13 124 -58 173 -195 136z"/>
<path d="M10322 37608 c-23 -23 -13 -65 31 -125 66 -89 308 -342 471 -492 80
-74 146 -137 146 -141 0 -4 44 -55 98 -113 53 -58 129 -142 167 -188 39 -46
91 -106 116 -134 163 -179 204 -318 113 -380 -27 -19 -49 -20 -319 -21 -186 0
-412 -9 -630 -24 -321 -21 -380 -22 -1032 -16 -686 6 -693 6 -713 -14 -15 -15
-20 -33 -20 -76 l0 -55 193 -202 c105 -111 253 -260 327 -331 74 -72 293 -288
486 -481 565 -565 878 -856 1023 -952 73 -49 135 -56 174 -19 20 18 27 35 27
61 0 51 -20 82 -93 147 -35 31 -109 114 -163 185 -55 70 -144 175 -199 233
-133 139 -353 415 -425 533 -78 130 -151 336 -135 386 3 10 29 41 58 68 47 45
61 52 147 74 113 28 129 28 675 11 220 -7 544 -17 720 -22 176 -5 460 -14 630
-19 414 -14 381 -15 405 11 26 28 25 68 -2 111 -13 18 -96 94 -186 168 -90 74
-184 157 -210 184 -173 188 -792 819 -889 907 -147 134 -606 501 -794 636
-138 99 -172 115 -197 90z"/>
<path d="M33725 36900 c-49 -5 -153 -14 -230 -20 -77 -6 -185 -20 -240 -30
-55 -11 -170 -31 -256 -45 -325 -51 -701 -169 -957 -299 -59 -30 -150 -71
-202 -91 -133 -50 -176 -78 -201 -127 -38 -74 -12 -151 63 -190 51 -27 158
-40 253 -33 109 8 322 -9 420 -34 185 -48 410 -195 673 -441 160 -150 186
-185 276 -370 109 -224 118 -312 56 -585 -25 -110 -31 -153 -26 -203 11 -123
77 -192 169 -177 87 15 153 114 292 439 46 108 60 154 189 596 79 270 73 244
135 610 137 797 152 906 130 946 -27 52 -57 59 -264 60 -104 1 -230 -2 -280
-6z m145 -340 c11 -11 20 -24 20 -29 0 -38 -48 -248 -80 -351 -22 -69 -63
-204 -92 -300 -61 -203 -123 -335 -156 -335 -15 0 -77 53 -183 155 -332 319
-499 486 -505 502 -28 86 263 219 686 313 85 19 178 41 205 49 68 20 82 19
105 -4z"/>
<path d="M35482 35266 c-95 -36 -135 -67 -277 -210 -134 -135 -202 -216 -521
-616 -103 -129 -252 -307 -332 -394 -170 -188 -205 -243 -196 -301 9 -55 19
-72 56 -91 67 -35 210 13 328 111 30 25 93 67 140 93 123 69 162 101 381 311
147 142 226 209 304 261 238 157 381 222 517 236 57 6 77 3 130 -16 54 -20 78
-38 164 -124 89 -89 107 -113 148 -197 50 -103 81 -223 70 -273 -18 -85 -77
-150 -179 -197 -117 -55 -127 -56 -661 -9 -166 15 -169 15 -212 -24 l-37 -34
-4 -104 c-2 -78 2 -126 18 -198 11 -52 29 -144 40 -205 11 -60 38 -186 61
-280 22 -93 52 -226 66 -295 83 -412 130 -552 215 -638 73 -74 113 -69 163 21
60 110 63 154 56 872 l-3 340 49 3 c27 2 96 -2 154 -9 127 -15 331 -15 422 0
167 28 241 66 376 196 118 112 125 129 130 298 4 125 2 144 -18 200 -34 94
-98 201 -168 283 -95 112 -404 425 -656 664 -305 290 -384 338 -571 346 -77 4
-99 1 -153 -20z"/>
<path d="M7697 35029 c-25 -15 -47 -69 -47 -116 0 -22 13 -66 30 -102 37 -77
179 -223 415 -426 83 -71 218 -201 302 -290 83 -88 213 -216 287 -284 75 -67
196 -189 271 -270 74 -82 199 -206 277 -276 79 -71 195 -179 258 -240 171
-166 255 -242 322 -291 52 -38 67 -44 110 -44 45 0 54 4 89 39 61 60 56 76
-59 213 -137 163 -355 385 -562 574 -75 67 -190 185 -255 261 -66 76 -148 167
-181 203 -34 36 -107 119 -163 184 -193 226 -481 538 -583 633 -89 82 -212
169 -265 188 -26 9 -67 25 -91 36 -46 21 -126 25 -155 8z"/>
<path d="M37739 33229 c-16 -16 -20 -28 -15 -53 7 -33 25 -61 176 -260 113
-150 196 -283 211 -340 25 -90 -19 -223 -158 -483 -79 -148 -186 -285 -378
-483 -77 -80 -167 -176 -200 -215 -33 -38 -105 -118 -160 -176 -128 -133 -238
-270 -270 -333 -31 -62 -32 -114 -3 -151 19 -24 26 -27 69 -23 78 8 171 62
429 253 67 50 215 159 328 243 114 84 223 165 242 180 83 66 439 291 549 346
98 50 186 69 286 63 132 -8 170 -25 311 -140 215 -175 316 -236 370 -223 34 9
31 44 -8 124 -37 73 -157 201 -583 621 -424 418 -545 533 -685 652 -74 64
-203 184 -286 267 -162 163 -181 175 -225 131z"/>
<path d="M5794 33126 c-8 -20 25 -89 77 -162 63 -88 407 -480 588 -668 84 -89
208 -226 274 -306 253 -302 721 -798 863 -915 155 -128 313 -263 391 -336 89
-84 136 -109 204 -109 47 0 55 3 88 39 20 21 55 65 78 97 23 33 90 113 148
179 59 66 169 197 245 290 76 94 165 202 199 240 119 135 205 279 265 439 35
92 34 118 -8 163 -30 33 -39 37 -93 41 -55 4 -64 1 -142 -42 -70 -39 -277
-186 -456 -324 -27 -21 -156 -118 -285 -215 -129 -96 -262 -200 -296 -231
l-61 -55 -159 162 c-87 89 -271 280 -408 425 -347 366 -527 538 -706 677 -181
139 -608 489 -695 569 -60 55 -100 70 -111 42z"/>
<path d="M4133 31680 c-78 -32 -53 -146 115 -530 103 -235 120 -278 182 -451
35 -96 80 -212 102 -259 22 -47 69 -158 104 -248 35 -90 95 -236 133 -325 37
-89 90 -217 116 -284 26 -67 71 -168 101 -225 29 -57 106 -206 170 -333 166
-328 310 -585 350 -622 60 -58 135 -36 175 51 23 50 24 85 4 156 -72 263 -96
456 -86 700 l8 166 52 114 52 115 207 211 c237 242 305 293 460 344 76 26 119
33 202 37 137 7 196 -8 380 -93 275 -127 348 -154 418 -154 57 0 67 3 93 29
51 52 37 125 -39 193 -104 94 -276 189 -622 343 -102 46 -282 128 -400 183
-118 55 -278 129 -355 164 -142 66 -410 171 -700 273 -87 31 -236 87 -330 125
-93 37 -228 89 -300 115 -182 66 -420 158 -485 189 -59 28 -73 30 -107 16z
m812 -568 c39 -16 99 -44 134 -62 72 -36 500 -230 508 -230 3 0 33 -13 67 -29
33 -16 82 -39 109 -51 84 -39 154 -150 164 -260 7 -72 -6 -111 -66 -202 -65
-99 -351 -389 -411 -416 -66 -31 -169 -55 -208 -49 -46 8 -112 64 -161 139
-89 132 -361 715 -432 927 -31 90 -29 133 7 203 37 72 156 85 289 30z"/>
<path d="M40130 30634 c-113 -29 -183 -74 -550 -351 -54 -40 -544 -526 -639
-633 -171 -193 -249 -317 -270 -426 -23 -122 23 -214 204 -404 311 -330 400
-425 474 -508 123 -138 464 -475 534 -528 92 -69 132 -87 177 -79 21 4 46 15
55 25 21 24 22 88 0 133 -10 21 -116 134 -250 264 -277 272 -335 339 -473 548
-139 211 -166 268 -170 366 -4 67 0 85 23 138 39 86 121 150 211 165 90 15
242 -49 412 -173 129 -94 318 -238 377 -287 78 -64 188 -134 211 -134 30 0 54
31 54 70 0 30 -14 48 -122 155 -68 66 -162 155 -210 198 -155 138 -284 357
-310 522 -20 127 13 177 180 275 72 42 73 42 150 38 94 -6 181 -40 304 -120
96 -62 508 -368 660 -489 55 -44 117 -88 138 -99 53 -27 104 -26 130 2 45 48
24 92 -147 304 -297 370 -691 796 -846 916 -74 57 -174 110 -227 121 -14 3
-50 -1 -80 -9z"/>
<path d="M3025 30196 c-31 -13 -55 -51 -55 -87 0 -23 35 -117 85 -229 112
-251 193 -457 255 -645 51 -155 200 -578 284 -803 l75 -202 2 -133 c3 -130 2
-133 -28 -192 -64 -125 -246 -250 -401 -275 -50 -9 -65 -5 -330 84 -364 123
-509 178 -792 301 -393 171 -791 310 -966 336 -60 9 -76 9 -102 -5 -36 -18
-50 -56 -34 -89 5 -12 27 -42 48 -66 30 -35 69 -58 208 -126 94 -46 226 -106
293 -134 67 -28 211 -94 320 -146 369 -179 615 -283 943 -397 137 -47 306
-120 605 -258 305 -141 560 -254 625 -276 149 -51 337 1 392 109 30 60 26 131
-16 252 -61 181 -175 465 -225 563 -12 23 -48 111 -80 195 -60 157 -248 611
-391 942 -45 105 -142 314 -215 465 -73 151 -189 391 -257 533 -68 141 -133
263 -144 271 -31 21 -67 26 -99 12z"/>
<path d="M42765 28000 c-27 -6 -95 -21 -150 -34 -55 -14 -219 -51 -365 -82
-146 -31 -326 -72 -400 -91 -266 -69 -387 -102 -495 -136 -60 -19 -130 -40
-155 -47 -25 -7 -96 -32 -158 -56 -62 -25 -180 -60 -262 -79 -162 -37 -209
-56 -257 -107 -37 -39 -53 -76 -53 -124 0 -71 48 -125 155 -176 63 -30 78 -33
155 -32 47 1 157 14 245 29 322 55 357 45 566 -164 75 -75 181 -190 237 -256
117 -138 197 -228 369 -418 67 -74 132 -153 144 -177 20 -39 21 -47 10 -104
-63 -327 -72 -389 -66 -457 3 -39 12 -84 21 -101 18 -35 76 -62 113 -53 74 19
184 162 250 326 56 139 195 667 282 1064 28 132 58 256 65 275 7 19 27 91 44
160 17 69 63 220 102 335 56 165 71 223 72 270 1 150 -111 234 -319 241 -55 2
-122 -1 -150 -6z m22 -415 l36 -36 -6 -92 c-10 -149 -63 -374 -156 -657 -16
-47 -41 -123 -56 -170 -54 -168 -98 -230 -162 -230 -33 0 -45 7 -84 48 -83 87
-175 196 -276 327 -55 72 -129 162 -165 200 -65 71 -179 209 -211 255 -9 13
-17 39 -17 56 0 26 8 38 40 62 49 35 291 125 410 151 112 25 240 56 375 91 61
16 138 29 174 29 59 1 65 -1 98 -34z"/>
<path d="M2665 18058 c-291 -54 -487 -109 -760 -215 -436 -170 -498 -195 -635
-253 -80 -34 -194 -82 -255 -107 -60 -24 -141 -58 -180 -75 -38 -17 -129 -56
-200 -88 -162 -71 -329 -162 -401 -218 -61 -47 -110 -117 -120 -168 -8 -45 21
-102 66 -126 47 -26 117 -20 381 31 236 45 327 54 460 43 147 -13 193 -43 350
-232 58 -69 88 -117 115 -180 l36 -85 -6 -190 c-7 -207 -14 -271 -45 -414 -26
-119 -27 -265 -3 -336 31 -92 141 -139 214 -91 77 50 317 513 499 962 64 160
168 403 229 540 159 352 256 575 265 604 4 14 22 50 41 80 58 96 144 340 144
410 0 92 -71 131 -195 108z m-389 -472 c14 -11 19 -26 19 -63 0 -51 -23 -116
-128 -353 -33 -74 -74 -170 -92 -213 -43 -99 -74 -154 -141 -244 -58 -78 -103
-103 -161 -89 -38 10 -109 85 -221 236 -144 192 -195 308 -162 369 21 40 209
140 465 248 283 119 374 143 421 109z"/>
<path d="M40744 17575 c-177 -32 -289 -84 -461 -214 -233 -176 -468 -398 -614
-578 -35 -43 -91 -108 -125 -145 -34 -36 -79 -97 -100 -134 -34 -61 -38 -77
-42 -155 -3 -52 0 -101 8 -123 33 -101 409 -522 646 -725 244 -207 469 -409
647 -578 54 -51 153 -137 220 -190 158 -125 348 -285 467 -393 103 -93 328
-264 425 -322 69 -41 163 -72 191 -62 10 4 29 16 41 26 17 16 20 25 13 48 -25
87 -122 211 -308 392 -138 135 -473 482 -593 614 -253 281 -305 339 -332 377
-16 23 -46 60 -66 83 -20 22 -58 69 -86 103 -110 138 -183 228 -255 310 -87
100 -197 241 -227 291 -12 19 -38 82 -58 140 -31 88 -37 118 -37 183 2 212
115 377 338 494 120 62 193 83 294 83 103 0 194 -22 294 -68 99 -47 159 -99
223 -195 56 -84 83 -156 113 -301 l23 -109 -23 -276 c-36 -421 -28 -549 36
-605 67 -59 184 -86 509 -115 430 -40 523 -44 895 -38 346 5 372 6 490 31 196
42 301 102 269 154 -7 11 -40 38 -73 60 -113 77 -303 142 -568 197 -205 43
-930 152 -1073 163 l-100 7 1 40 c0 22 9 92 19 155 27 159 27 557 1 705 -22
121 -59 252 -88 308 -29 59 -179 209 -265 267 -39 26 -102 58 -139 70 -111 37
-391 51 -530 25z"/>
<path d="M3697 16810 c-149 -19 -277 -72 -392 -164 -171 -136 -214 -226 -236
-491 -19 -234 -10 -301 96 -675 71 -250 97 -422 76 -507 -21 -85 -88 -209
-141 -262 -61 -61 -175 -119 -255 -130 -74 -10 -212 4 -279 29 -28 11 -73 38
-100 60 -107 88 -174 16 -112 -123 60 -137 231 -259 450 -322 150 -43 287 -30
486 48 97 37 111 46 181 116 82 82 124 156 174 305 54 161 55 470 3 851 -11
83 -22 233 -25 335 -4 159 -2 198 15 280 32 152 57 207 123 274 l59 59 57 -5
c81 -8 207 -59 294 -120 115 -81 248 -219 298 -310 l42 -77 -15 -45 c-35 -101
48 -216 156 -216 34 0 52 6 72 25 82 76 70 228 -36 439 -89 177 -174 284 -333
420 -124 107 -180 136 -325 175 -128 34 -231 44 -333 31z"/>
<path d="M5096 15100 c-225 -44 -358 -102 -580 -250 -299 -200 -575 -574 -730
-987 -68 -183 -81 -330 -51 -586 21 -184 80 -332 193 -483 64 -86 255 -269
363 -349 180 -133 386 -194 684 -202 157 -4 163 -4 295 30 214 55 469 170 649
294 125 86 289 253 393 398 69 96 155 276 191 400 96 327 101 543 18 807 -86
278 -163 402 -368 598 -203 194 -322 263 -553 322 -173 44 -309 47 -504 8z
m619 -327 c102 -37 224 -116 347 -226 156 -139 210 -224 260 -407 45 -164 3
-432 -101 -639 -93 -185 -171 -290 -333 -447 -223 -217 -399 -337 -596 -405
-113 -39 -276 -61 -422 -57 -162 5 -254 32 -387 112 -101 62 -247 195 -300
273 -38 58 -90 196 -113 305 -28 125 6 346 74 493 109 232 539 689 774 822
169 96 390 185 507 204 90 14 203 4 290 -28z"/>
<path d="M38635 15100 c-128 -12 -239 -38 -405 -97 -407 -145 -615 -304 -851
-648 -124 -181 -251 -413 -299 -543 -49 -135 -64 -236 -64 -432 1 -156 3 -185
27 -272 69 -260 192 -483 392 -715 33 -38 84 -99 113 -135 67 -82 207 -200
360 -301 136 -91 390 -220 512 -261 47 -15 99 -34 115 -42 99 -46 349 -85 540
-85 286 1 467 43 630 148 366 236 661 591 759 913 90 295 128 629 92 800 -34
159 -146 424 -266 630 -112 192 -331 475 -443 572 -212 186 -479 341 -717 416
-144 46 -337 66 -495 52z m104 -355 c260 -46 460 -136 658 -296 173 -140 402
-360 461 -442 210 -291 357 -588 397 -802 26 -135 16 -382 -19 -482 -60 -176
-173 -336 -341 -484 -62 -55 -136 -117 -165 -139 -81 -61 -213 -124 -345 -167
-113 -36 -127 -38 -245 -38 -144 0 -179 9 -335 85 -157 76 -271 149 -452 287
-290 221 -547 484 -719 738 -22 33 -57 85 -77 115 -96 141 -168 331 -182 476
-9 86 9 265 34 336 42 123 174 356 259 458 129 156 277 273 385 305 54 16 237
52 297 58 95 10 312 6 389 -8z"/>
<path d="M7315 13045 c-156 -26 -257 -55 -360 -105 -92 -45 -134 -74 -353
-247 -73 -57 -268 -255 -357 -363 -88 -106 -174 -252 -225 -380 -28 -70 -66
-232 -80 -341 -26 -195 44 -519 143 -669 94 -141 207 -236 293 -246 69 -8 86
7 92 82 3 49 -3 78 -36 174 -22 63 -52 144 -66 180 -75 178 -73 500 4 698 61
159 267 423 434 557 50 40 120 98 155 128 106 91 212 146 436 227 80 29 102
33 195 34 89 0 115 -4 172 -26 138 -52 236 -117 349 -228 100 -99 109 -112
168 -232 35 -70 71 -139 82 -152 23 -29 70 -42 98 -26 57 30 72 158 31 264
-36 94 -168 281 -257 367 -122 117 -357 248 -518 289 -107 28 -282 34 -400 15z"/>
<path d="M35870 12593 c-31 -39 -22 -69 57 -187 58 -87 134 -169 564 -601 273
-275 511 -516 528 -536 57 -67 64 -112 25 -158 -44 -53 -131 -68 -469 -81
-240 -10 -312 -14 -705 -40 -160 -11 -344 -12 -1225 -7 -282 2 -291 1 -337
-21 -86 -40 -87 -82 -7 -206 80 -125 158 -215 389 -446 118 -118 296 -300 394
-403 157 -165 352 -346 551 -512 33 -27 141 -129 240 -225 99 -97 209 -198
245 -225 36 -27 80 -61 98 -77 73 -63 163 -93 226 -77 113 30 136 149 53 271
-29 42 -412 446 -833 878 -177 182 -192 207 -182 311 6 61 29 94 94 134 l49
30 446 6 c245 3 450 9 455 12 12 7 650 -47 824 -69 98 -13 205 -18 391 -19
l257 0 48 34 c70 49 117 91 131 115 23 40 16 118 -17 184 -26 51 -61 89 -211
229 -99 92 -264 242 -367 333 -103 91 -250 226 -327 300 -162 156 -287 267
-580 513 -115 98 -271 229 -345 293 -74 63 -188 151 -253 194 -135 91 -170
100 -207 53z"/>
<path d="M9090 11660 c-189 -69 -494 -368 -918 -899 -236 -296 -318 -392 -473
-561 -169 -183 -347 -405 -335 -418 13 -13 172 90 273 176 37 32 115 94 173
137 129 98 367 296 515 430 60 55 142 127 180 159 77 64 370 344 584 556 164
163 211 234 211 320 0 49 -4 60 -30 85 -39 37 -104 43 -180 15z"/>
<path d="M10535 10383 c-108 -16 -329 -84 -484 -150 -58 -25 -130 -54 -160
-65 -62 -23 -231 -100 -541 -248 -113 -54 -266 -127 -340 -162 -75 -36 -203
-103 -285 -150 -83 -47 -184 -102 -225 -123 -213 -106 -348 -205 -351 -258 -4
-65 16 -81 93 -73 59 6 72 10 296 95 135 51 232 71 342 71 116 0 205 -48 355
-191 49 -48 122 -126 160 -174 39 -47 94 -114 123 -148 71 -83 130 -204 144
-294 9 -60 9 -82 -5 -135 -48 -182 -110 -366 -160 -475 -54 -115 -69 -175 -48
-188 14 -8 124 110 191 204 32 44 97 153 145 243 49 90 109 199 135 243 130
222 208 371 438 830 334 666 401 848 374 1007 -7 38 -17 78 -22 89 -20 37
-105 62 -175 52z m-283 -464 c11 -6 26 -26 34 -45 18 -43 11 -73 -52 -215 -25
-57 -66 -152 -89 -210 -24 -59 -69 -153 -99 -209 -31 -57 -56 -105 -56 -108 0
-3 -20 -39 -45 -81 -60 -103 -104 -145 -152 -145 -32 0 -43 8 -91 60 -56 61
-104 121 -184 232 -26 36 -84 102 -127 147 -44 45 -83 93 -86 108 -23 89 50
147 353 277 86 37 168 70 182 75 14 4 61 21 105 38 80 31 248 84 273 86 7 1
22 -4 34 -10z"/>
<path d="M33244 10116 c-77 -35 -129 -139 -121 -241 12 -160 197 -396 497
-638 80 -64 174 -142 210 -173 234 -203 285 -248 370 -329 107 -101 317 -279
430 -363 41 -30 117 -94 169 -141 182 -167 457 -402 509 -437 76 -51 135 -69
173 -54 40 17 69 56 69 95 0 41 -55 125 -150 230 -40 44 -100 116 -133 160
-110 145 -228 277 -456 511 -393 401 -796 824 -913 959 -121 138 -195 205
-339 307 -159 113 -247 145 -315 114z"/>
<path d="M11670 8914 c-246 -44 -420 -112 -590 -233 -117 -84 -352 -303 -425
-396 -131 -168 -318 -528 -364 -700 -45 -171 -56 -305 -36 -435 25 -170 52
-252 107 -336 89 -138 283 -307 427 -373 64 -29 78 -32 114 -25 32 7 44 15 51
36 18 52 -15 107 -164 268 -153 165 -182 204 -226 300 -27 61 -29 73 -29 190
0 158 14 211 105 393 133 266 307 477 628 760 158 139 196 167 304 221 115 58
187 71 326 55 139 -15 278 -54 441 -124 166 -71 294 -189 337 -312 16 -46 17
-58 5 -116 -12 -63 -12 -68 10 -106 12 -23 31 -43 41 -47 32 -10 81 28 110 84
48 94 47 225 -1 326 -50 102 -247 274 -421 368 -117 63 -329 152 -425 178 -77
21 -263 35 -325 24z"/>
<path d="M31262 8184 c-80 -56 17 -170 782 -919 180 -176 481 -480 669 -675
487 -507 743 -761 812 -806 51 -33 68 -39 115 -39 52 0 61 4 125 52 39 28 88
71 111 95 51 53 276 334 443 551 68 89 162 209 209 267 166 203 192 292 110
377 -58 60 -132 67 -226 19 -26 -13 -108 -77 -182 -142 -303 -268 -337 -298
-392 -340 -90 -70 -175 -106 -250 -105 -83 0 -197 25 -256 55 -26 13 -122 79
-213 147 -91 68 -183 138 -206 154 -200 148 -332 254 -459 367 -148 132 -347
298 -493 412 -42 33 -137 107 -211 165 -74 58 -193 162 -265 232 -161 156
-177 166 -223 133z"/>
<path d="M13341 7585 c-140 -75 -338 -247 -573 -499 -160 -171 -319 -372 -541
-686 -64 -91 -138 -194 -163 -230 -80 -110 -180 -263 -203 -308 -26 -50 -20
-82 13 -82 71 0 634 467 981 815 183 183 474 494 573 613 82 99 142 212 142
269 0 71 -68 143 -135 143 -16 0 -59 -16 -94 -35z"/>
<path d="M29703 6650 c-61 -27 -94 -83 -100 -168 -4 -53 5 -114 42 -297 26
-126 60 -273 77 -325 48 -151 208 -581 274 -735 23 -55 56 -136 74 -179 17
-44 79 -177 137 -295 58 -119 120 -250 138 -291 73 -169 317 -613 440 -800
187 -284 260 -348 368 -319 48 13 73 32 94 73 17 34 15 102 -11 291 -8 61 -20
171 -26 245 -5 74 -17 200 -26 280 -17 149 -14 298 8 390 5 25 33 92 60 150
48 99 57 110 172 221 134 130 274 239 352 275 58 27 189 47 249 38 87 -13 238
-45 371 -78 351 -88 530 -70 551 57 4 27 -1 47 -23 86 -58 108 -136 156 -459
284 -280 112 -448 185 -650 282 -206 99 -646 289 -875 377 -85 33 -245 101
-355 150 -409 185 -565 247 -727 288 -92 24 -101 24 -155 0z m710 -599 c77
-20 116 -36 367 -151 74 -34 194 -86 265 -117 392 -168 510 -265 490 -403 -15
-101 -63 -157 -290 -343 -88 -73 -200 -166 -250 -207 -208 -176 -253 -187
-343 -85 -72 82 -279 525 -357 765 -10 30 -32 89 -50 130 -18 41 -44 118 -59
170 -45 159 -46 210 -4 252 18 18 28 20 87 14 37 -3 102 -15 144 -25z"/>
<path d="M14005 6410 c-118 -18 -172 -35 -278 -90 -155 -79 -192 -103 -315
-205 -116 -96 -250 -244 -323 -358 -26 -40 -85 -148 -132 -242 -109 -214 -173
-419 -186 -588 -18 -222 37 -498 126 -644 85 -139 230 -283 360 -360 97 -57
367 -128 603 -159 88 -11 171 -14 280 -11 145 4 164 7 299 46 253 73 382 151
566 342 220 228 323 411 401 714 26 99 28 126 28 265 -1 147 -23 388 -43 456
-15 52 -91 201 -144 283 -160 245 -537 496 -822 545 -94 17 -327 20 -420 6z
m455 -235 c200 -18 301 -58 477 -192 152 -115 247 -222 314 -354 81 -161 60
-410 -54 -635 -55 -109 -301 -396 -455 -530 -48 -42 -131 -109 -185 -148 -53
-39 -120 -87 -148 -108 -107 -78 -316 -168 -554 -239 -70 -21 -99 -24 -235
-23 -136 1 -162 4 -210 23 -99 40 -234 153 -331 276 -134 171 -175 461 -102
725 39 137 168 365 320 564 151 198 415 426 614 532 167 89 316 129 444 118
22 -2 69 -6 105 -9z"/>
<path d="M28479 5211 c-44 -35 -26 -144 62 -373 28 -73 72 -196 99 -273 52
-151 95 -254 159 -380 22 -44 65 -152 94 -240 30 -88 79 -217 109 -285 31 -69
77 -181 103 -250 26 -69 67 -172 91 -230 156 -376 182 -470 155 -553 -27 -81
-115 -99 -254 -53 -399 134 -868 310 -1272 476 -548 226 -906 344 -1075 356
-109 7 -167 -16 -198 -76 -36 -72 -13 -139 79 -231 91 -91 337 -227 774 -427
143 -66 341 -158 440 -205 214 -101 380 -168 610 -247 309 -105 477 -167 695
-253 297 -118 466 -168 598 -174 118 -6 167 7 222 60 44 43 68 98 81 193 16
113 5 189 -52 359 -46 140 -163 390 -424 905 -29 58 -80 170 -114 250 -34 80
-84 186 -111 235 -28 50 -92 176 -144 280 -51 105 -127 244 -168 310 -42 66
-103 174 -136 240 -33 66 -85 163 -117 215 -31 52 -79 142 -107 200 -52 109
-84 152 -130 176 -35 18 -41 18 -69 -5z"/>
<path d="M16309 4581 c-94 -63 -1093 -1099 -1407 -1459 -106 -122 -162 -221
-162 -287 0 -27 6 -47 18 -58 59 -53 142 -2 311 192 60 70 218 234 350 364
220 217 248 241 316 274 67 31 83 35 129 30 134 -14 251 -126 285 -272 15 -68
31 -318 31 -503 0 -152 -1 -158 -80 -555 -102 -514 -110 -563 -110 -659 0 -74
1 -79 25 -90 51 -23 109 29 940 851 590 584 703 699 736 750 34 53 36 72 8 96
-29 27 -52 16 -203 -101 -70 -54 -138 -106 -150 -114 -11 -8 -100 -71 -196
-140 -383 -275 -496 -341 -556 -326 -34 9 -92 85 -102 136 -6 28 -8 321 -4
755 8 950 8 950 -1 1027 -15 117 -83 151 -178 89z"/>
</g>
</svg>
