<svg id="Capa_1" data-name="Capa 1" xmlns="http://www.w3.org/2000/svg" viewBox="0 0 652.97 276.25"><defs><style>.cls-1{fill:#40b4e5;}.cls-2{fill:#95d600;}.cls-3{fill:#ffce00;}.cls-4{fill:#7764a0;}.cls-5{fill:#dd0031;}.cls-6{fill:#f38b00;}.cls-7{fill:#fff;}.cls-8{fill:#3e3935;}</style></defs><title>Logo ALTER</title><path class="cls-1" d="M94.47,199.29l4.25,178.53a20.39,20.39,0,0,0,13.22,18.59c-.07-.57-.12-1.14-.14-1.72l-5.2-166.38a20.4,20.4,0,0,1,14.67-20.22l0-9.23a20.69,20.69,0,0,1,6.58-15l0-2.81a20.41,20.41,0,0,1,.41-3.67c-5,.38-10.07.73-15.09,1.12a20.39,20.39,0,0,0-18.78,20.82" transform="translate(-94.46 -159.51)"/><path class="cls-1" d="M682.16,160.48c-74.36-1-151.66-.6-230.31,1.22,42.08,1.08,83.67,2.55,124.29,4.38,41.49.17,82.41,1,122.05,2.55a20.37,20.37,0,0,0-16-8.15" transform="translate(-94.46 -159.51)"/><path class="cls-1" d="M151.39,414.53v16.41l22.78-16.41q-11.28,0-22.78,0" transform="translate(-94.46 -159.51)"/><path class="cls-2" d="M725.95,379.37l-2.29.06a20.9,20.9,0,0,1-19.1,15.65q-77.27,4.12-154.86,6.49l-3.53,10.72L535.3,402q-58.52,1.67-117.12,2.35l-3.79,5.47,14.15.54c73,2.58,146.11,3.94,218.74,3.58l30,21.82V413.7q17.53-.21,35-.56a20.37,20.37,0,0,0,19.93-20l.26-15a20.31,20.31,0,0,1-6.52,1.28" transform="translate(-94.46 -159.51)"/><path class="cls-3" d="M388.47,408.79l-2.89-4.15q-43.55.27-87.09,0-54.11-.39-108.14-1.71-19.49-.47-39-1.06l-4.21-.12A20.91,20.91,0,0,1,127,380.93v-1.71a20.71,20.71,0,0,1-6.21-14.86l.54-156.26a20.41,20.41,0,0,0-14.67,20.22l5.2,166.38c0,.58.07,1.15.14,1.72a20.36,20.36,0,0,0,20.07,18c6.53,0,13,.06,19.38.08q11.51,0,22.78,0c15.9,0,31.5-.14,46.93-.33l7.25,21.45,23-21.92c44.88-.86,89.33-2.4,137.34-4.66Z" transform="translate(-94.46 -159.51)"/><path class="cls-4" d="M147.82,161a20.45,20.45,0,0,0-19.89,20l0,2.81a20.66,20.66,0,0,1,13.52-5.63q51.8-1.64,103.09-2.71c105.54-5.85,220.62-9.88,331.64-9.41-40.62-1.83-82.2-3.3-124.29-4.38-100.71-2.58-204.24-2.94-304-.69" transform="translate(-94.46 -159.51)"/><path class="cls-4" d="M730.75,175.29a20.34,20.34,0,0,1,6.1,14.85l-2.6,164.54a20.42,20.42,0,0,1-9.92,17.18l0,2.08a21,21,0,0,1-.68,5.48l2.29-.06a20.45,20.45,0,0,0,19.82-20.18l1.66-163.65a20.38,20.38,0,0,0-16.68-20.25" transform="translate(-94.46 -159.51)"/><path class="cls-5" d="M523,390.33q-19.1.28-38.2.44-155.22,1.44-310.52-4.29c-6.37-.15-12.76-.28-19.12-.46l-.27-.29c-4.75-.19-9.5-.35-14.24-.55-.5,0-1-.08-1.47-.13a20.63,20.63,0,0,1-12.19-5.83v1.71a20.91,20.91,0,0,0,20.23,20.76l4.21.12q19.47.6,39,1.06,54,1.32,108.14,1.71,43.53.31,87.09,0l2.89,4.15.19.28L401.82,428l12.58-18.16,3.79-5.47q58.58-.65,117.12-2.35l-1.85-1.75Z" transform="translate(-94.46 -159.51)"/><path class="cls-5" d="M724.32,371.87a20.4,20.4,0,0,1-2.05,1.07A20.79,20.79,0,0,1,706,385c-.59.08-1.18.14-1.79.16q-75.32,3.16-150.66,4.61l-3.34,10.15-.54,1.63q77.56-2.38,154.86-6.49a21,21,0,0,0,19.78-21.14Z" transform="translate(-94.46 -159.51)"/><path class="cls-6" d="M730.75,175.29a20.25,20.25,0,0,0-13.32-5.85q-9.56-.45-19.25-.82c-39.64-1.57-80.56-2.38-122.05-2.55-111-.47-226.11,3.56-331.64,9.41Q479,170.54,702.09,178l2,.07a20.74,20.74,0,0,1,20,20.74V364.44a20.67,20.67,0,0,1-1.84,8.5A20.28,20.28,0,0,0,732.75,362a20.35,20.35,0,0,0,1.5-7.35l2.6-164.54a20.34,20.34,0,0,0-6.1-14.85" transform="translate(-94.46 -159.51)"/><path class="cls-6" d="M155.11,386c6.36.18,12.74.31,19.12.46q-9.7-.36-19.39-.74l.27.29" transform="translate(-94.46 -159.51)"/><path class="cls-7" d="M704.13,178.11l-2-.07q-222.83-7.83-457.6-2.56-51.29,1.08-103.09,2.71a20.83,20.83,0,0,0-20.1,20.68l0,9.23-.54,156.26a20.78,20.78,0,0,0,18.4,20.69c.49.05,1,.11,1.47.13,4.75.2,9.5.36,14.24.55l19.39.74q155.3,5.73,310.52,4.29,19.1-.18,38.2-.44l10.5,9.93L535.3,402l10.88,10.29,3.53-10.72.54-1.63,3.34-10.15q75.34-1.47,150.66-4.61c.6,0,1.2-.09,1.79-.16a20.82,20.82,0,0,0,18.08-20.58V198.86a20.74,20.74,0,0,0-20-20.74" transform="translate(-94.46 -159.51)"/><path class="cls-8" d="M277.24,318a10.09,10.09,0,0,0-3.24-2.56,18,18,0,0,0-4-1.42,21.58,21.58,0,0,0-4.84-.51h-16a2.5,2.5,0,0,0-1.11.24,2,2,0,0,0-1,1.16,3.62,3.62,0,0,0-.15,1.14v30.33a6.08,6.08,0,0,0,.35,2.14,2.51,2.51,0,0,0,2.5,1.62,2.36,2.36,0,0,0,2.34-1.73,6.66,6.66,0,0,0,.3-2v-6.86h12.45a28.87,28.87,0,0,0,4.66-.36,19.36,19.36,0,0,0,4.09-1.11,9.9,9.9,0,0,0,3.43-2.29,10.16,10.16,0,0,0,2.22-3.7,15.58,15.58,0,0,0,.77-5.2,16.91,16.91,0,0,0-.67-5,11,11,0,0,0-2-3.8m-3.58,13.28a4.72,4.72,0,0,1-2.25,2.16,12.63,12.63,0,0,1-4.47,1.07c-2,.17-4.34.26-7,.26h-7.6V318.28h7.6a56.74,56.74,0,0,1,7,.37,12.33,12.33,0,0,1,4.44,1.31,5.43,5.43,0,0,1,2.32,2.44,10.5,10.5,0,0,1,.81,4.51,10,10,0,0,1-.79,4.39" transform="translate(-94.46 -159.51)"/><path class="cls-8" d="M314,315.7h0a7.28,7.28,0,0,0-1.07-1.54,2.58,2.58,0,0,0-3.72.13,10.94,10.94,0,0,0-.9,1.42L291.5,346c-.11.23-.21.44-.29.62a2.67,2.67,0,0,0-.23,1.07,3.16,3.16,0,0,0,.49,1.79,2.6,2.6,0,0,0,3.61.47,3.72,3.72,0,0,0,1.26-1.44l4.81-8.73h19.92l4.76,8.62a4.44,4.44,0,0,0,1.27,1.52,2.89,2.89,0,0,0,1.67.55,2.44,2.44,0,0,0,1.76-.73,2.57,2.57,0,0,0,.73-1.88,3.91,3.91,0,0,0-.52-1.89Zm-10.33,19.36,7.48-13.66,7.48,13.66Z" transform="translate(-94.46 -159.51)"/><path class="cls-8" d="M380.76,317h0a10.44,10.44,0,0,0-3.54-2.13,21.94,21.94,0,0,0-4.29-1.05,34.79,34.79,0,0,0-5-.33H353.06a1.8,1.8,0,0,0-1.32.49,1.88,1.88,0,0,0-.55,1.29c0,.17,0,.42,0,.76v30.38a5.88,5.88,0,0,0,.38,2.17,2.55,2.55,0,0,0,2.5,1.59,2.28,2.28,0,0,0,1.53-.55,2.65,2.65,0,0,0,.76-1.1,4.5,4.5,0,0,0,.25-1.09,8.89,8.89,0,0,0,.06-1v-10h9.28l11.71,12.5a3.37,3.37,0,0,0,1.3,1,3.33,3.33,0,0,0,1.25.26,2.44,2.44,0,0,0,1.76-.71,2.47,2.47,0,0,0,.71-1.92,3.72,3.72,0,0,0-.21-.86,3,3,0,0,0-.69-1.06L372.71,336h0a19.89,19.89,0,0,0,3.19-.71,15.53,15.53,0,0,0,3-1.27,9.85,9.85,0,0,0,2.56-2,9.41,9.41,0,0,0,1.74-2.88,10.42,10.42,0,0,0,.65-3.79,13.64,13.64,0,0,0-.78-4.89,9.25,9.25,0,0,0-2.31-3.48m-3.2,11.51a5.56,5.56,0,0,1-2.3,1.84,12.23,12.23,0,0,1-3.76.94c-1.55.16-3.2.24-4.9.24h-9.94v-13H370a13.72,13.72,0,0,1,4.89.75,5.12,5.12,0,0,1,2.59,2,7.51,7.51,0,0,1,.88,4,5.52,5.52,0,0,1-.81,3.21" transform="translate(-94.46 -159.51)"/><path class="cls-8" d="M423.91,315.7h0a7.32,7.32,0,0,0-1.07-1.54,2.58,2.58,0,0,0-3.72.13,11,11,0,0,0-.9,1.42L401.44,346c-.11.23-.21.44-.29.62a2.65,2.65,0,0,0-.23,1.07,3.17,3.17,0,0,0,.49,1.79,2.6,2.6,0,0,0,3.61.47,3.72,3.72,0,0,0,1.26-1.44l4.81-8.73H431l4.76,8.62A4.45,4.45,0,0,0,437,349.9a2.89,2.89,0,0,0,1.67.55,2.44,2.44,0,0,0,1.76-.73,2.57,2.57,0,0,0,.73-1.88,3.9,3.9,0,0,0-.52-1.89Zm-10.33,19.36,7.48-13.66,7.48,13.66Z" transform="translate(-94.46 -159.51)"/><path class="cls-8" d="M494.5,317.43a17,17,0,0,0-6.85-3.11,41.38,41.38,0,0,0-9-.89H457.07a2,2,0,0,0-1.23.37,1.79,1.79,0,0,0-.74,1.39c0,.18,0,.44,0,.79v31.69c0,.31,0,.55,0,.69a1.87,1.87,0,0,0,.62,1.32,1.92,1.92,0,0,0,1.32.47h21.59a42.08,42.08,0,0,0,9-.87,17,17,0,0,0,6.85-3.08,13.56,13.56,0,0,0,4.26-5.84,23.74,23.74,0,0,0,1.38-8.64,23.24,23.24,0,0,0-1.38-8.49,13.7,13.7,0,0,0-4.25-5.81m-.68,20.68a8.56,8.56,0,0,1-2.49,4,11.39,11.39,0,0,1-4.78,2.34,33,33,0,0,1-7.93.8H460.57v-26.9h18.05a33,33,0,0,1,7.93.8,11.36,11.36,0,0,1,4.77,2.33,8.65,8.65,0,0,1,2.49,4,21.21,21.21,0,0,1,.81,6.29,21.88,21.88,0,0,1-.81,6.38" transform="translate(-94.46 -159.51)"/><path class="cls-8" d="M555,317.42a19.89,19.89,0,0,0-7.5-3.54,48.14,48.14,0,0,0-20.68,0,19.8,19.8,0,0,0-7.49,3.54,14.68,14.68,0,0,0-4.49,6.07,24.72,24.72,0,0,0,0,16.55,14.69,14.69,0,0,0,4.49,6.08,19.75,19.75,0,0,0,7.49,3.54,48.14,48.14,0,0,0,20.68,0,19.92,19.92,0,0,0,7.5-3.53,14.62,14.62,0,0,0,4.51-6.08,24.73,24.73,0,0,0,0-16.55,14.62,14.62,0,0,0-4.51-6.08m-.65,21a9.86,9.86,0,0,1-3.21,4.21,14.43,14.43,0,0,1-5.61,2.44,44.22,44.22,0,0,1-16.74,0,14.36,14.36,0,0,1-5.59-2.44,9.85,9.85,0,0,1-3.2-4.22,20.46,20.46,0,0,1,0-13.28,9.86,9.86,0,0,1,3.2-4.23,14.34,14.34,0,0,1,5.59-2.44,44.27,44.27,0,0,1,16.74,0,14.53,14.53,0,0,1,5.61,2.44,9.89,9.89,0,0,1,3.21,4.23,20.5,20.5,0,0,1,0,13.28" transform="translate(-94.46 -159.51)"/><path class="cls-8" d="M609.37,346.58v0a3.86,3.86,0,0,0-.9-1.21L594.17,332l14.06-14a3.11,3.11,0,0,0,.72-1.06,2.92,2.92,0,0,0,.23-1.09,2.51,2.51,0,0,0-.6-1.67c-.95-1.13-2.75-1.08-4,.21l-14,14.07-14-14.07a2.73,2.73,0,0,0-4-.25,2.5,2.5,0,0,0-.65,1.7,3,3,0,0,0,1,2.15l14.06,14L572.5,345.4a3.42,3.42,0,0,0-1.21,2.48,2.26,2.26,0,0,0,.66,1.63,2.75,2.75,0,0,0,2.83.4,4.16,4.16,0,0,0,1.23-.84l14.48-13.51L605,349a3.55,3.55,0,0,0,2.43,1.13,2.21,2.21,0,0,0,1.65-.7,2.3,2.3,0,0,0,.63-1.61,3.15,3.15,0,0,0-.29-1.26m-2.62,1.26a.55.55,0,0,1,0-.11l1.27-.57Z" transform="translate(-94.46 -159.51)"/><path class="cls-8" d="M205.23,293.64H183.56a2.42,2.42,0,0,1-1.78-.75,2.09,2.09,0,0,1-.75-1.43,3.47,3.47,0,0,1,.11-1l25-73.28q1-3.79,5.16-3.79h31.88q4.13,0,5.16,3.79l25,73.28a3.5,3.5,0,0,1,.12,1,2.1,2.1,0,0,1-.75,1.43,2.42,2.42,0,0,1-1.78.75H249.27q-3.67,0-5.16-3.9l-2.87-8h-28l-2.87,8q-1.49,3.9-5.16,3.9m30.16-34.29-8.14-23.85-8.14,23.85Z" transform="translate(-94.46 -159.51)"/><path class="cls-8" d="M322.66,270.13h39.11a3.13,3.13,0,0,1,3.1,3.1v17.32a3.14,3.14,0,0,1-3.1,3.09h-67a3.14,3.14,0,0,1-3.1-3.09V216.46a3.14,3.14,0,0,1,3.1-3.1h24.77a3.13,3.13,0,0,1,3.1,3.1Z" transform="translate(-94.46 -159.51)"/><path class="cls-8" d="M382.3,213.36h79.13a3.13,3.13,0,0,1,3.1,3.09v18.46a3.13,3.13,0,0,1-3.1,3.09H436.77v52.52a3.14,3.14,0,0,1-3.1,3.1H410a3.14,3.14,0,0,1-3.1-3.1V238H382.3a3.13,3.13,0,0,1-3.1-3.09V216.46a3.13,3.13,0,0,1,3.1-3.09" transform="translate(-94.46 -159.51)"/><path class="cls-8" d="M510.74,271.28H556.5a3.13,3.13,0,0,1,3.1,3.1v16.17a3.13,3.13,0,0,1-3.1,3.09H484a3.14,3.14,0,0,1-3.09-3.09V216.46a3.14,3.14,0,0,1,3.09-3.1h71.33a3.14,3.14,0,0,1,3.1,3.1v16.17a3.13,3.13,0,0,1-3.1,3.1H510.74V243H549a3.13,3.13,0,0,1,3.1,3.1V261a3.13,3.13,0,0,1-3.1,3.1h-38.3Z" transform="translate(-94.46 -159.51)"/><path class="cls-8" d="M662.34,290.08a2.89,2.89,0,0,1,.23,1.26,2.19,2.19,0,0,1-.75,1.55,2.42,2.42,0,0,1-1.78.75H634a4.9,4.9,0,0,1-4.82-2.87l-10.09-22.71h-9.63v22.48a3.14,3.14,0,0,1-3.1,3.1H581.61a3.13,3.13,0,0,1-3.1-3.1V216.46a3.13,3.13,0,0,1,3.1-3.09h44.61q15.71,0,24.88,7.45t9.17,20.3q0,15.6-12,22.59Zm-52.87-55.39v12.16h14.33a4.77,4.77,0,0,0,3.9-1.66,6.34,6.34,0,0,0,1.38-4.18,7.54,7.54,0,0,0-1.32-4.42,4.51,4.51,0,0,0-4-1.89Z" transform="translate(-94.46 -159.51)"/></svg>