<?xml version="1.0" encoding="UTF-8"?><svg id="Layer_1" xmlns="http://www.w3.org/2000/svg" viewBox="0 0 832.99 1054.89"><defs><style>.cls-1{fill:#fff;}.cls-2{fill:#060000;}</style></defs><g><path class="cls-1" d="m686.09,61.9c-.3-4.58-3.33-8.52-7.67-9.98-1.18-.4-2.4-.59-3.6-.59-3.22,0-6.36,1.38-8.54,3.9-1.18,1.36-1.97,2.65-2.49,3.5-.11.18-.21.35-.32.52-6.47,9.64-13.74,18.81-21.61,27.27-7.73,8.28-16.57,16.24-26.29,23.65l-.58.43c-1.19.88-2.37,1.76-3.54,2.61-1.56-6.4-4.39-11.59-8.47-15.49-2.12-2.03-4.93-3.14-7.81-3.14-.6,0-1.21.05-1.82.15-3.39.55-6.34,2.61-8.02,5.59-.31.51-.93,1.55-1.37,2.97-1.05,3.33-2.4,6.65-3.85,10.1-5.29-4.4-11.38-7.27-18.16-8.57-.6-.12-1.22-.21-1.84-.28-.04-5.11-.53-10.2-1.47-15.17-2.26-11.98-6.64-23.28-13.03-33.59-.09-.15-.18-.29-.28-.43-.8-1.17-1.59-2.35-2.38-3.53-3.92-5.87-8.36-12.51-14.44-18.02-2.44-2.18-4.42-3.91-6.3-5.49-7.86-6.56-15.44-11.58-23.21-15.38-.08-.04-.16-.08-.24-.11C480.51,4.44,459.71,0,438.61,0c-44.1,0-82.69,19.22-103.25,51.43-.06.1-.12.2-.18.3-4.75,7.97-8.17,16.28-11.47,24.3l-.75,1.83c-.44,1.07-.85,2.13-1.24,3.2-2.95-1.36-6.13-2.06-9.49-2.06-.83,0-1.67.04-2.51.13-5.01.55-9.63,2.64-13.79,6.23-3.77,3.25-6.95,7.4-9.71,12.71-1.95,3.76-3.46,7.56-4.66,11.25-.8-1.1-1.61-2.22-2.44-3.36-2.5-3.46-5.09-7.04-7.86-10.53-2.51-3.18-4.35-7.47-6.31-12.01l-.69-1.61c-.03-.07-.06-.14-.1-.22-.64-1.4-1.38-2.37-1.78-2.89l-.09-.11c-2.11-3.02-5.55-4.79-9.23-4.8h-.01c-3.68,0-7.11,1.81-9.23,4.82-3.01,4.28-2.74,8.58-2.54,10.39-4.47-4.41-9.82-9.76-15.05-15.26-5.54-5.82-10.2-9.94-15.12-13.37-1.51-1.07-3.23-1.75-5.14-2.03-.64-.11-1.29-.17-1.93-.17-4.17,0-8.1,2.32-10.06,6.16-.96,1.87-2.79,6.79.58,12.36.33.65.67,1.27,1.01,1.89.53.97,1.03,1.88,1.26,2.5,3.02,8.07,6.22,16.73,9.21,25.37,3.82,11.01,8.33,20.2,13.79,28.07,0,.18,0,.36,0,.54,0,1.4.03,2.8.11,4.19-1.13.15-2.25.46-3.33.92-3.35,1.44-5.8,4.4-6.59,7.96-.72,3.27-.43,6.6.85,9.63l.24.57c.47,1.1.99,2.36,1.66,3.67,3.72,7.29,8.08,13.87,11.46,18.78.97,1.42,1.95,2.83,2.93,4.24,2.63,3.79,5.34,7.72,7.89,11.58,2.62,3.96,4.69,8.1,6.15,12.31,1.42,4.13,2.58,8.72,3.55,14.01.44,2.45.78,4.6,1.01,6.57.04.31.07.63.1.96-2.86,2.55-5.48,5.14-7.94,7.63-3.49,3.56-6.2,7.05-8.29,10.68-4.39,7.59-6.54,15.64-6.4,23.91.08,4.24.83,8.12,1.49,11.55l.1.53.12.63c.36,1.84.77,3.96,1.43,6.2-1.44,5.15-2.64,10.65-3.59,16.34-.75,4.43-1.42,11.44-1.51,15.91-.05,3.12.01,5.85.2,8.36-.66.65-1.32,1.3-1.98,1.95-4.59,4.53-9.33,9.21-14.03,13.71-6.84,6.54-14.94,12.96-24.75,19.62-2.89,1.96-5.89,3.93-8.78,5.84-3.15,2.07-6.4,4.21-9.61,6.4-.47.32-.92.68-1.34,1.07-.6.56-1.55,1.26-2.55,1.99-3.92,2.87-9.83,7.22-11.38,15.53-.14.78-.21,1.57-.19,2.36.16,6.14,1.36,11.67,2.53,17.01,1.31,6.01,2.44,11.19,1.89,16.26-.06.52-.08,1.05-.06,1.58.04,1.08.09,2.16.13,3.23.1,2.21.2,4.3.17,6.28-.03,1.65-.19,3.47-.36,5.4-.08.93-.17,1.87-.24,2.8-.03.28-.08.75-.09,1.32-.05,1.63-.14,3.27-.24,5.01-.23,4.28-.48,8.7-.16,13.41.36,5.56,1.25,13.92,4.72,22.24,1.08,2.59,2.5,4.78,3.47,6.2.02.02.03.05.05.07,2.29,3.3,6.69,7.36,14.6,7.94.32.02.64.04.96.04,1.74,0,3.48-.36,5.15-1.06,8.37,9.69,19.18,16.36,32.23,19.88,5.06,1.36,10.47,2.05,16.09,2.05,1.94,0,3.95-.08,5.98-.24,5.07-.4,11.06-1.1,17.01-3.29,1.11-.4,2.17-.84,3.2-1.29.29.08.59.17.88.25-.86,4.98-.16,10.06,2.09,15.08,1.49,3.28,3.15,6.95,4.29,10.46,1.28,3.94,1.78,8.09,1.53,12.69-.06,1.09-.21,2.33-.38,3.65-.19,1.53-.41,3.24-.52,5.07-.44,3.1-1.71,13.15-.63,20.46,0,.05.02.1.02.16,1.49,9.27,8.75,15.96,18.49,17.04,1.14.13,2.3.19,3.46.19,4.77,0,8.93-1.04,12.02-1.95,7.23-2.15,14.03-5.19,19.84-7.88,4.07-1.9,8.07-3.93,11.82-5.84,1.2-.62,2.39-1.25,3.56-1.88,4.71,2.33,9.92,3.54,15.42,3.54.28,0,.57,0,.85,0,5.76-.11,11-1.45,15.66-3.99,1.86,1.1,3.72,2.2,5.58,3.28,12.14,7,22.64,11.97,33.05,15.67,8.24,3.33,16.95,4.47,24.39,5.13.66.06,1.33.09,1.99.09,12.19,0,22.23-9.85,22.97-22.48.43-4.93.28-9.44-.46-13.66.55-.21,1.09-.43,1.63-.64,1.12-.44,2.25-.89,3.38-1.32,3.76-1.43,7.62-3.28,11.04-5.16,2.22,2.18,4.56,4.2,7.01,6.05,2.95,2.22,7.54,5.36,13.37,7.01,2.12.59,4.21.89,6.24.89,6.27,0,11.97-2.82,16.06-7.94,1.41-1.77,2.59-3.79,3.64-6.19,1.79-4.14,2.72-8.66,2.85-13.86.06-3.08-.15-5.98-.36-8.41-.38-4.3-1.07-8.31-1.74-11.54.56-.52,1.09-1.03,1.62-1.54,2.6-2.49,5.17-5.1,7.71-7.84,1.33,4.17,4.99,7.24,9.4,7.78.46.06.92.08,1.37.08,4.29,0,8.27-2.45,10.17-6.39l.08-.15c.21-.4.59-1.13.92-2.13.39-1.19.79-2.35,1.18-3.51,1.08-3.21,2.21-6.53,3.2-9.95.81-2.8,1.5-5.53,2.09-8.2l.15.24,1.33,2.14c1.02,1.66,2.18,2.65,2.69,3.08l.07.06c2.14,1.99,4.9,3.02,7.69,3.02,1.87,0,3.76-.47,5.48-1.42,4.28-2.37,6.54-7.24,5.61-12.04-.12-.61-.24-1.17-.36-1.68-.05-.21-.09-.4-.13-.59-.07-1.39-.09-2.8-.04-4.25.3.17.55.31.74.41l.13.07c1.71.95,3.61,1.42,5.5,1.42,2.28,0,4.55-.68,6.48-2.04,3.48-2.43,5.31-6.59,4.74-10.78-.07-.67-.28-2.26-1.18-4.06-1.65-3.39-2.82-7.4-3.74-12.85,4.75,4.27,9.76,8.06,14.9,11.31,1.19.75,2.23,1.17,2.84,1.43l.2.08c1.5.69,3.1,1.02,4.68,1.02,2.51,0,4.99-.84,7.03-2.46,3.33-2.64,4.88-6.94,4.03-11.11-.69-3.42-2.5-5.68-3.85-7.02,1.36-.93,2.52-2.16,3.38-3.62l.1-.16c.31-.5.83-1.33,1.3-2.44.01-.03.03-.07.04-.1l.13-.32c.63-1.51,1.28-3.07,1.9-4.75,2.98-7.93,4.82-16.65,5.67-27.07,3.94-1.48,6.79-5.08,7.25-9.38.08-.74.14-1.44.2-2.11.09-1.01.16-1.88.27-2.43,1.63-8.22,1.22-16.24.7-23.12-.3-3.73-.83-7.24-1.34-10.63-.18-1.16-.35-2.33-.52-3.49-1.14-7.94-3.21-16.25-6.34-25.43-1.64-4.79-3.64-9.29-5.62-13.36,2.67-3.08,5.03-6.26,7.14-9.62.38-.6,9.11-14.63,8.57-22.66-.04-.57-.12-1.14-.24-1.69,1.88-.98,3.9-1.99,6.11-3.03l.57-.27c1.79-.85,3.61-1.71,5.6-2.67,4.02-1.92,6.51-6.01,6.43-10.41,2.86-2.16,4.6-5.62,4.49-9.36-.13-4.3-2.68-8.08-6.44-9.87,1.92-2.62,3.66-5.29,5.24-8.04,2.84-4.97,5.72-10.31,7.3-16.65.23-.95.38-1.76.51-2.47.84-4.54-1.17-9.13-5.04-11.6.67-3.87,1.17-7.95,1.5-12.27.27-3.41.14-6.72.02-9.63-.05-1.32-.1-2.56-.12-3.76,0-.25.08-.93.13-1.2,0-.04,0-.05.02-.08.34-1.68.69-3.35,1.05-5.02.47-2.23.94-4.46,1.39-6.71.38-1.92.73-3.42,1.27-4.63,3.17-7.07,5.83-14.33,8.41-21.35,1.01-2.76,2.05-5.6,3.1-8.36.05-.1.11-.21.16-.31.13-.25.27-.51.41-.79,1.89-3.77,1.52-8.29-.97-11.7-2.15-2.95-5.56-4.66-9.14-4.66-.27,0-.54,0-.82.03,1-8.23,1.27-16.8-.46-25.34,3.67-5.89,6.4-10.8,8.71-15.68,2.66-5.62,5.56-12.41,6.83-20.13.03-.18.06-.36.08-.55.05-.46.25-1.27.44-2.05.53-2.21,1.26-5.23,1.03-8.77Z"/><g><path class="cls-2" d="m496.53,545.13s.37,4.66.36,7.03c0,2.7-.12,5.42-.42,8.11-.25,2.22-.55,4.47-1.44,6.57-.52,1.22-1.15,2.31-2.39,2.87-1.68-.05-2.76-.42-4.69-1.62-3.29-2.07-6.29-4.52-9.07-7.23-1.7-1.65-3.25-3.46-5.03-5.37,12.02-7.46,22.86-16.09,32.9-25.7,10.02-9.59,18.75-20.31,26.94-32.03.14,1.6.36,2.75.31,3.89-.16,3.54-.47,7.07-.63,10.61-.17,3.8-.25,7.61-.35,11.41-.02.91-.21,1.83.03,2.98.23-.47.38-.69.46-.93,1.43-4.35,2.97-8.66,4.24-13.05,2.48-8.59,4.11-17.33,4.05-26.32,0-1.42.47-2.81,1.45-3.91,1.81-2.01,3.28-4.31,3.86-6.95.62-2.8.47-2.25,1.42-3.75.31,1.67.55,2.85.74,4.09,1.07,6.84,3.51,13.4,7.06,19.35,1.78,2.99,3.64,5.94,5.47,8.9.12.2.35.33.81.76-.27-1.41-.59-2.45-.66-3.5-.3-5.04.05-10.05.87-15.04.77-4.71,1.83-9.34,2.98-13.97.67-2.69,1.2-5.41,1.85-8.34.18.53.33.82.38,1.13.21,1.2.41,2.41.56,3.62.91,7.21,4.2,13.05,9.98,17.47.27.21.59.35,1,.58-.05-.31-.04-.45-.09-.55-2.76-5.62-4.12-11.65-5.06-17.76-.82-5.34-1.3-10.73-2.01-16.09-.69-5.23-1.49-10.44-2.23-15.67-.06-.43,0-.88,0-1.77,3.22,5,6.75,9.11,10.57,12.96,3.59,3.61,7.33,7.09,11.05,10.57,4.64,4.32,9.6,8.23,14.98,11.61.52.33,1.12.52,1.68.78-.21-1.03-1.12-1.51-1.77-2.15-1.99-1.98-3.73-4.09-4.56-6.84-.28-.92-.79-1.76-1.19-2.65-1.38-3.05-2.85-6.07-4.12-9.17-2.42-5.91-3.97-12.09-5.42-18.29-.73-3.11-1.29-6.26-1.93-9.39,1.17,1.6,2.11,3.26,2.93,4.98.73,1.53,1.47,3.11,1.82,4.75.68,3.18,1.92,6.22,3.33,9.16.32.67.64,1.34.96,2.01-.58-13.54-.24-26.97,1.18-40.38,1.33,3.32,2.4,6.62,2.34,10.27-.15,8.32.09,16.65-.41,24.97-.13,2.13-.16,4.24-.73,6.32-.38,1.36-.56,2.78-.78,4.18-.06.39.02.8.04,1.2,5.32-11.03,8.08-22.78,10.89-34.55.11.76.14,1.51.11,2.26-.1,2.32-.22,4.64-.35,6.96-.13,2.25-.29,4.51-.43,6.76-.22,3.47-.44,6.95-.67,10.42-.22,3.41-.47,6.81-.69,10.22,0,.08.14.17.31.37.27-.47.56-.87.75-1.32.65-1.55,1.29-3.09,1.88-4.66,3.62-9.64,4.92-19.71,5.36-29.93.32-7.43-.19-14.83-.79-22.23-.12-1.48-.28-2.95-.43-4.42-.22-2.11-.45-4.22-.67-6.33-.21-1.98-.44-3.97-.64-5.95-.16-1.63-.3-3.26-.45-4.89.62.42.62,1.16.78,1.76,2.74,10.57,5.58,21.12,7.9,31.79.33,1.52.42,3.67.66,5.21.05.33.26.62.56,1.29.23-2.13.3-3.88.63-5.57,1.32-6.66,1.02-13.37.51-20.05-.34-4.48-1.14-8.93-1.78-13.39-1.14-7.97-3.24-15.72-5.85-23.35-2.03-5.93-4.76-11.58-7.64-17.14-.32-.61-.6-1.25-.93-1.94,4.31-4.1,8.09-8.57,11.23-13.57,3.39-5.41,7-13.74,6.86-15.89-2.79,2.38-5.52,4.84-8.38,7.14-4.08,3.3-8.48,6.09-13.54,7.68-.69.22-1.39.66-2.34.44,1.26-3.09,2.79-5.9,4.81-8.41,4.45-5.54,9.87-9.98,15.8-13.84,5.09-3.31,10.46-6.11,15.94-8.71,1.97-.94,3.95-1.88,6.14-2.92-.46-.11-.69-.22-.91-.21-2.57.14-5.16.15-7.71.47-6.92.86-13.38,3.18-19.41,6.66-2.18,1.26-4.25,2.72-6.37,4.09.29-.5.52-1.05.91-1.46,6.15-6.53,13.41-11.4,21.87-14.43,4.67-1.67,9.5-2.76,14.33-3.84.48-.11.94-.27,1.78-.52-.64-.14-.89-.22-1.13-.25-5.81-.69-11.56-.42-17.22,1.11-.78.21-1.59.32-2.39.48.32-.44.61-.92.99-1.3,2.28-2.29,4.6-4.52,6.86-6.83,5.07-5.18,9.57-10.81,13.19-17.11,2.51-4.37,4.9-8.79,6.13-13.72.15-.6.25-1.21.37-1.82-.58.47-.88,1.03-1.18,1.58-2.13,3.84-4.33,7.63-7.14,11.02-3.18,3.84-6.85,7.18-10.64,10.4-.29.27-.73.3-1,.64.07-.09.1-.2.14-.3.36-.68.68-1.37,1.08-2.02,1.46-2.43,2.98-4.83,4.42-7.27,2.33-3.95,4.49-8,5.96-12.34,2.68-7.91,4.02-16.12,4.67-24.4.32-4.1-.09-8.25-.14-12.38-.01-1.02.17-2.67.37-3.67.79-3.89,1.65-7.77,2.43-11.66.48-2.4,1.02-4.76,2.03-7.02,4.28-9.58,7.61-19.53,11.34-29.34.25-.63.6-1.22.96-1.96-6.97,1.05-11.6,8.79-16.36,13.64,2.39-16.94,8.12-35.33,2.94-52.22.52-.81.97-1.51,1.42-2.22,3.35-5.29,6.53-10.68,9.21-16.34,2.6-5.48,4.89-11.08,5.89-17.12.34-2.95,1.62-5.82,1.42-8.8-.84.96-1.35,1.98-1.98,2.92-6.82,10.15-14.39,19.7-22.72,28.65-8.51,9.15-17.83,17.4-27.75,24.99-7.06,5.22-14.22,10.63-22.38,13.93.81-3.56,1.69-6.94,1.46-10.46-.38-5.97-1.84-12.52-6.29-16.78-.17.3-.33.51-.41.75-1.84,5.85-4.38,11.43-6.72,17.08-1.76,4.23-4.8,7.52-7.37,11.31-.22-.76-.37-1.31-.54-1.85-1-3.16-2.27-6.2-4.6-8.62-4.31-4.48-9.5-7.43-15.7-8.62-3.76-.72-7.56.23-11,1.9-.21.1-.44.19-.72.32-.02-3.18.51-6.2.61-9.36.28-5.82-.11-11.6-1.19-17.33-2-10.62-5.84-20.55-11.52-29.72-4.64-6.77-8.95-14.01-15.08-19.56-1.98-1.76-3.96-3.51-5.99-5.21-6.45-5.4-13.32-10.18-20.9-13.88-49.1-22.58-118.5-13.57-149.13,34.41-4.66,7.84-8.02,16.28-11.48,24.66-2.43,5.87-3.99,12.07-5.66,18.2-.27.99-.23,2.07-.86,3.07-.52-1.04-.9-2.01-1.46-2.87-1.26-1.95-2.43-3.98-3.94-5.72-2.76-3.19-6.25-4.93-10.61-4.47-2.94.31-5.4,1.65-7.59,3.54-3.03,2.61-5.23,5.86-7.06,9.38-4.09,7.87-6.09,16.36-7.41,25.05-.31,2.03-.55,4.06-.84,6.27-.37-.29-.58-.42-.74-.6-3.34-3.85-6.82-7.59-9.97-11.6-5.13-6.52-9.73-13.46-14.88-19.97-3.8-4.81-6.08-10.51-8.52-16.13-.17-.38-.48-.7-.82-1.2-.73,1.03-.62,1.98-.51,2.92.46,3.84.92,7.67,1.37,11.51.39,3.33.76,6.65,1.12,9.98.1.92.16,1.85.24,2.84-1.25-.54-2.39-.99-3.48-1.52-1.22-.59-2.44-1.18-3.58-1.91-4.42-2.81-8.71-5.83-12.45-9.5-5.99-5.88-11.94-11.81-17.72-17.9-4.15-4.37-8.49-8.48-13.44-11.92-.14-.09-.35-.08-.55-.12-.38.76.17,1.24.44,1.78.99,1.95,2.17,3.83,2.93,5.87,3.18,8.51,6.33,17.03,9.31,25.61,3.16,9.13,7.13,17.83,12.68,25.77.66.95,1.33,1.9,1.99,2.83-.1,1.28-.26,2.5-.27,3.72-.02,3.88.33,7.73,1.08,11.53,1.58,8.03,4.16,15.68,8.74,22.55.2.29.33.63.48.95-.28-.07-.58-.1-.81-.25-3.36-2.2-6.51-4.68-9.16-7.7-2.25-2.57-4.38-5.25-6.54-7.9-.82-1-1.55-2.07-2.36-3.07-.34-.43-.71-.94-1.5-.61-.21.95-.17,1.89.22,2.81.5,1.19.98,2.38,1.57,3.53,3.12,6.1,6.81,11.85,10.7,17.49,3.66,5.32,7.37,10.6,10.93,15.98,3.07,4.63,5.57,9.58,7.38,14.85,1.76,5.12,3.02,10.36,3.99,15.68.44,2.4.83,4.82,1.12,7.24.28,2.36.4,4.73.6,7.15-.22.2-.44.44-.69.64-3.88,3.1-7.44,6.55-10.92,10.09-2.5,2.53-4.76,5.3-6.54,8.38-3.22,5.58-5.01,11.56-4.89,18.08.06,3.44.75,6.78,1.39,10.13.56,2.9,1.08,5.83,2.34,8.65-.31,1.03-.66,2.13-.97,3.24-1.42,5.02-2.5,10.13-3.36,15.27-.65,3.91-1.28,10.33-1.35,14.29-.07,4.09.05,8.17.77,12.17-.18.24-.28.41-.42.54-6.54,6.42-13.03,12.91-19.66,19.24-8.09,7.73-16.96,14.52-26.21,20.8-6.09,4.13-12.29,8.08-18.37,12.22-3.81,3.55-9.51,5.85-10.52,11.32.3,11.77,5.64,22.66,4.36,34.77.1,3.35.35,6.71.3,10.06-.05,3.02-.42,6.04-.65,9.06-.01.19-.04.39-.05.58-.18,5.8-.8,11.59-.42,17.41.42,6.39,1.39,12.67,3.88,18.62.61,1.47,1.47,2.87,2.38,4.18,1.47,2.12,3.71,2.94,6.17,3.12.57.04,1.25-.31,1.76-.66.74-.5,1.41-1.13,2.06-1.75,1.22-1.15,2.41-2.33,3.68-3.57.35.56.66,1.04.96,1.53,7.5,12.15,18.2,19.96,31.97,23.67,6,1.62,12.09,1.94,18.22,1.46,4.74-.37,9.49-.98,14-2.63,2.11-.77,4.13-1.76,6.27-2.67,2.3.65,4.71,1.34,7.12,2,.68.19,1.39.28,2.07.47,1.05.3,2.05.15,3.03-.23,1.72-.68,3.44-1.39,5.24-2.12,1.55,2.66,3.89,4.68,6.43,6.71-1.4.69-2.75.75-4.06.97-1.96.34-3.71,1.01-5.12,2.48-.97,1.02-1.53,2.22-1.79,3.58-.59,3.08-.07,5.99,1.22,8.83,1.72,3.81,3.44,7.62,4.74,11.61,1.77,5.47,2.37,11.08,2.06,16.78-.16,3.08-.79,6.14-.93,9.22,0,0-1.67,11.1-.7,17.7.78,4.91,4.77,7.19,8.57,7.61,3.79.42,7.42-.31,11.04-1.38,6.32-1.87,12.32-4.52,18.28-7.29,3.85-1.79,7.65-3.71,11.43-5.65,3.03-1.56,6.01-3.23,9.16-4.94,4.42,3.73,9.65,5.48,15.58,5.36,5.86-.12,10.98-1.99,15.3-6.19,4.01,2.37,7.92,4.73,11.87,7.01,10.06,5.81,20.41,11,31.38,14.88,6.83,2.8,14.51,3.82,21.37,4.44,6.89.62,12.36-5.28,12.69-11.93.42-4.71.27-9.41-1.03-14.01-.57-2.03-1.23-4.03-1.88-6.14,5.06-1.28,9.88-3.26,14.69-5.24,5.89-2.42,12.31-5.8,13.79-7.25-.54-.78-1.08-1.56-1.69-2.43-2.66,1.33-5.24,2.62-7.82,3.91-.09.04-.18.08-.27.12-4.94,2.08-9.87,4.17-14.81,6.24-.87.37-1.8.6-2.74.69-1.45.14-2.4-.02-2.78-1.55.3-.58.61-1.35,1.07-2.03.72-1.07,1.53-2.08,2.32-3.1,3.74-4.85,7.64-9.59,10.93-14.78.14-.22.4-.37.82-.74-.37,5.77-2.59,10.43-6.14,14.67,2.97-.97,14.12-6.34,16.57-7.98-3.13-5.3-5.71-10.89-7.8-16.66-.38.05-.57.06-.76.1-.21.05-.42.12-.78.22,0-.65,0-1.09,0-1.54.05-3.22-1.03-6.07-2.91-8.63-1.71-2.33-4.06-3.8-6.87-4.36-1.63-.33-3.33-.48-5-.42-2.7.09-5.39.4-8.09.63-1.13.1-2.26.23-3.58.37.46-2.43.91-4.69,2.04-6.73,2.46-4.46,4.95-8.91,7.47-13.34,2.07-3.65,4.21-7.25,6.31-10.89.37-.65.95-1.28.45-2.13-.07.03-.15.04-.18.08-.63.73-1.25,1.47-1.88,2.21-6.48,7.71-13.04,15.35-18.45,23.88-1.8,2.84-3.71,5.59-4.8,9.03-3.41.76-6.78,1.94-10.72,2.77,1.63-2.51,2.82-4.7,4.4-6.62,2.7-3.28,5.22-6.73,7.02-10.57,3.05-6.52,7.14-12.31,12.28-17.34,3.19-3.12,6.61-5.96,10.12-8.71.55-.43,1.07-.89,1.49-1.25-.28-3.39-.54-6.58-.81-9.81-.27.13-.45.19-.61.3-8.51,5.61-16.27,12.07-22.6,20.13-3.33,4.24-6.1,8.81-7.55,14.05-1.15,4.15-2.13,8.35-3.15,12.53-.62,2.55-1.17,5.13-1.75,7.67-2.9.84-5.68,1.61-8.44,2.45-6.72,2.05-13.23,4.67-19.76,7.23-.55.22-1.07.52-1.8.48.2-.3.29-.47.42-.61,4.44-4.83,7.22-10.49,8.38-16.92.5-2.78.87-5.59,1.21-8.4.41-3.39.73-6.79,1.06-10.18.31-3.14.4-6.32.89-9.43,1.26-7.89,3.04-15.67,5.56-23.26,1.5-4.53,3.12-9.03,6.04-12.91.74-.98,1.45-1.98,2.13-3,.24-.36.38-.78.56-1.18-.31.21-.65.39-.9.65-7.82,8.03-16.29,15.37-24.52,22.96-.04.04-.09.07-.14.11-6.41,4.21-13.09,9.15-20.24,11.48-.69.23-1.34.56-2.05.72-8.16,1.88-16.32,3.78-24.5,5.55-13.63,2.95-27.12,6.44-40.52,10.3-.85.25-1.74.36-2.61.54.47-.39.9-.85,1.42-1.17,9-5.51,18.01-11,27.02-16.48.48-.29,1.3-.66,1.83-.84,4.98-1.6,9.94-3.3,14.98-4.68,7.33-2,14.63-4.12,21.83-6.53,4.27-1.43,8.42-3.11,12.08-5.8,2.36-1.73,4.04-3.96,4.88-6.79,1.21-4.12,1.5-8.35,1.54-12.61,0-.5-.14-1.03-.34-1.49-.59-1.41-1.88-1.95-3.33-1.39-.66.25-1.3.57-1.91.93-3.98,2.39-8,4.72-11.91,7.22-12.38,7.94-24.7,15.98-37.09,23.9-7.17,4.59-14.41,9.07-21.68,13.51-9.03,5.51-18.18,10.83-26.67,17.18-.3.23-.66.39-1.07.64-.72-.13-1.49-.22-2.22-.43-4.9-1.41-9.63-3.28-14.26-5.41-9.72-4.47-19.22-9.38-28.59-14.54-6.45-3.55-12.76-7.32-18.64-11.77-1.28-.97-2.69-1.78-4.05-2.64-.76-.48-1.54-.92-2.44-1.46l1.01-18.74c1.53-2.45,2.98-4.98,4.64-7.36,1.68-2.4,3.57-4.64,5.33-6.9-2.44-.8-4.59-.11-6.65,1.25-.75-.44-1.53-.79-2.18-1.29-4.71-3.87-7.81-10-5.75-16.05.21-.7.65-1.34,1.02-2.06.7.29,1,.19,1.39.74-.4,5.47,1.85,9.88,5.96,13.75.35-2.74-.85-5.35.36-7.98.27.36.45.55.57.77,1.84,3.3,4.6,5.7,7.7,7.72.96.63,2.04,1.08,3.18,1.26,1.66.26,3.36.31,5.04.35,1.09.03,2.19-.05,3.27-.21,4.22-.62,7.75-2.65,11-5.31,3.22-2.63,5.89-5.79,8.71-8.81.11-.12.12-.32.29-.78-1.2.73-2.16,1.34-3.13,1.91-4.28,2.53-8.63,4.93-13.54,6.05-1.73.4-3.48.9-5.46.46.35-.86.66-1.62.97-2.39,7.35-4.61,13.89-10.05,18.69-17.37-1.23.67-2.36,1.46-3.52,2.23-1.18.79-2.37,1.56-3.57,2.32-1.25.79-2.52,1.57-3.78,2.35-1.21.75-2.39,1.54-3.62,2.24-1.21.68-2.27,1.68-3.81,1.94l-.68-2.46c6.01-4.45,10.82-9.95,15.81-15.3-6.37,3.38-13.06,6.09-19.14,10.11l-2.49-2.57c2.41-2.17,4.7-4.14,6.9-6.23,3.48-3.31,5.04-5.27,5.69-6.93-6.38,2.23-11.51,6.39-16.82,10.2l-2.47-1.33c1.31-1.18,2.09-1.91,3.34-2.99.83-.72,1.65-1.46,2.45-2.23,2.68-2.57,5.33-5.18,7.98-7.79,1.19-1.17,2.35-2.35,3.52-3.54-.64.26-1.31.45-1.89.81-6.69,4.15-13.35,8.33-20.03,12.5-.93.16-2.2.38-3.13.54-.87-.19-1.75-.33-2.53-.86,2.94-2.4,5.85-4.65,8.62-7.07,4.67-4.09,7.08-6.71,7.44-7.8-8.25,3.71-15.68,8.71-22.85,13.9-2.34.14-2.98.04-4.87-.78,5.89-3.95,10.49-9.16,15.32-14.13-7.78,3.3-15.34,6.98-22.16,11.88-1.11-.64-2.03-1.18-2.83-2.14,6.11-4.25,11.06-9.57,16.2-14.69-7.25,3.35-14.45,6.77-21.13,11.15-.74-.38-1.37-.69-1.99-1.01-.58-.3-1.15-.61-1.89-1,2.04-1.07,3.82-2.03,5.64-2.95,7.01-3.58,13.83-7.51,20.38-11.87,5.93-3.95,11.84-7.94,17.15-12.72,4.56-4.1,9.09-8.23,13.49-12.5,8.01-7.78,15.88-15.71,23.88-23.51,8.47-8.25,17.61-15.73,27.01-22.91,5.03-3.84,10.23-7.44,14.9-11.73,2.48-2.28,4.7-4.79,6.53-7.62,2.19-3.39,3.35-7.09,3.27-11.15-.03-1.43-.04-2.85-.36-4.28-.26.28-.39.56-.44.85-.7,3.81-2.17,7.29-4.49,10.38-1.1,1.46-2.05,3.08-3.7,4.05-.09-1.46-.06-2.93-.3-4.36-.9-5.28-3.48-9.8-6.71-13.97-2.62-3.39-6.15-5.65-9.75-7.84-3.66-2.22-7.54-3.24-11.82-2.41-3.06.6-6.04,1.37-8.54,3.37-3.19,2.56-5.44,5.82-7.05,9.55-.64,1.49-1.02,3.03-1.21,4.65-.3,2.54.02,5.01.48,7.48.83,4.41,2.17,8.61,4.85,12.3,2.43,3.35,5.53,5.75,9.5,6.98.37.11.78.08,1.27.13-1.21-1.13-2.38-2.06-3.37-3.16-3.27-3.61-5.33-7.88-6.63-12.53-.24-.84-.3-1.74-.18-2.6.48-3.3,1.54-6.41,3.26-9.29,1.45-2.44,3.43-4.35,5.86-5.8.23-.14.52-.17.8-.23-.24.34-.45.69-.72,1.01-1.7,2.05-3.06,4.31-4,6.8-1.88,4.95-1.85,9.82.7,14.55,1.51,2.79,3.72,4.81,6.97,6.18-.45-1.31-.71-2.37-1.17-3.34-1.02-2.12-1.2-4.34-.97-6.6.28-2.69.64-5.35,1.92-7.82,2.42-4.67,6.08-7.77,11.21-9.04.62-.15,1.27-.24,1.9-.22.42.01.94.15,1.24.43,1.45,1.37,2.6,2.97,3.77,4.83-.77.07-1.27.15-1.77.16-1.47.03-2.81.49-4,1.29-1.9,1.28-3.43,2.93-4.48,4.99-1.09,2.14-1.19,4.38-.25,6.54,1.48,3.38,3.91,5.71,7.75,6.23.44.06.88.19,1.32.29.07-.05.13-.11.2-.16.01.01.03.03.04.04-.07.05-.14.1-.21.16-.39.39-.74.84-1.18,1.18-5.75,4.37-11.54,8.71-17.28,13.1-2.1,1.6-4.09,3.34-6.19,5.05-2.21-1.82-3.98-3.95-5.54-6.25-1.56-2.31-3.04-4.67-4.76-7.33.41,6.52,2.92,11.78,6.73,16.54-1.18,1.15-2.24,2.24-3.66,3.11-2.94-4.14-4.88-8.65-7.43-12.84.28,2.78.61,5.52,1.11,8.23.5,2.73,1.61,5.26,3.11,7.65-2.22,2.14-4.31,4.16-6.41,6.16-.13.12-.33.15-.72.32-.13-2.15-.14-4.19.02-6.22.3-3.85.61-7.71,1.05-11.55.36-3.13.8-6.26,1.44-9.34.84-4.03,1.84-8.03,2.91-12,.26-.97-2.03-10.86-2.03-10.86-.17-1.93-.26-3.86-.53-5.77-.44-3.17-.27-6.33.28-9.44,1.12-6.34,3.93-11.83,8.63-16.29,2.81-2.67,5.58-5.38,8.46-7.97,1.67-1.5,3.54-2.78,5.12-4.01,2.16-.14,4.02-.35,5.89-.35,2.84,0,5.67.2,8.51.26,3.18.07,6.26.74,9.33,1.44,8,1.82,15.1,5.52,21.65,10.37.32.23.68.41,1.02.61-2.65-3.47-5.7-6.42-9.26-8.81-7.07-4.74-14.93-7.49-23.18-9.28-1.45-.32-3-.29-4.5-1.02,2.35-1.86,4.56-3.61,6.68-5.28,2.92.51,5.59,1.18,8.19,2.17,11.21,4.25,21.2,10.57,30.61,17.9.42.33.9.57,1.36.84-.09-.27-.16-.56-.32-.77-4.49-5.8-9.54-11.02-15.54-15.29-5.4-3.84-11.32-6.64-17.49-8.99-.38-.14-.72-.39-1.2-.65,1.62-1.45,3.11-2.78,4.64-4.14,4.91,1.27,9.59,3.03,13.99,5.51,8.44,4.77,15.81,10.9,22.65,17.71.53.53,1.05,1.07,1.58,1.6.16-.38.12-.62,0-.81-2.58-4.34-5.5-8.42-9.03-12.06-6.48-6.68-14.26-11.42-22.62-15.32-.57-.26-1.12-.55-1.8-.88,2.99-2.76,5.82-5.37,8.72-8.04.28.47.54.9.79,1.33,2.69,4.63,5.53,9.17,9.03,13.25,2.44,2.84,4.88,5.67,7.79,8.07,1.79,1.47,3.54,3,5.31,4.49,1.43,1.21,2.82,2.47,4.31,3.59,6.62,4.95,13.44,9.51,21.11,12.79,5.51,2.35,10.94,4.87,16.6,6.85.28.1.51.32.74.47-12.95,18.87-16.58,39.44-11.86,61.47-.67.79-1.18,1.45-1.76,2.06-2.01,2.09-3.91,4.32-6.11,6.2-4.62,3.94-9.52,7.5-14.81,10.51-2.12,1.21-5.38,3.5-7.3,5.02-4,3.17-7.91,6.45-11.86,9.69-1.1.9-2.2,1.8-3.26,2.75-1.93,1.73-3.5,3.73-4.66,6.06,2.98-.9,5.72-2.26,8.17-4.21,2.27-1.81,4.52-3.65,6.81-5.43,3.93-3.05,8.12-5.7,12.35-8.31,4.16-2.57,7.99-5.59,11.21-9.34,1.91-2.22,3.91-4.36,6.43-6.01,2.61-1.7,3.48-4.76,4.62-7.66.06-.16.27-.24.43-.37,1.12,2.43,2.22,4.8,3.25,7.04-1.81,1.9-3.63,3.73-5.35,5.65-1.98,2.21-3.87,4.5-5.78,6.77-.27.32-.71.66-.17,1.23,3.9-1.07,7.19-3.45,10.49-5.52,1.33,1.25,2.5,2.35,3.68,3.45,2.26,2.12,4.56,4.2,6.78,6.35,4.88,4.72,9.3,9.88,13.77,14.99,4.21,4.81,8.04,9.94,11.53,15.3,3.55,5.44,7.24,10.79,10.91,16.15,1.43,2.09,2.95,4.13,4.54,6.34.1-.38.17-.52.15-.62-.08-.31-.19-.61-.3-.91-3.31-9.02-7.03-17.86-11.67-26.29-.33-.61-.55-1.39-.81-2.04.32.38.77.77,1.02,1.19,2.58,4.16,5.14,8.34,7.71,12.51,3.31,5.38,6.63,10.76,9.95,16.14.19.31.42.48.67.75-.19-.73-.28-1.37-.53-2.08-.54-1.51-1.15-2.99-1.74-4.49-2.36-6.03-4.72-12.06-7.08-18.09-.46-1.18-.95-2.36-1.43-3.54.32.27.68.52.92.85,3.42,4.69,6.82,9.39,10.24,14.09.18.25.4.47.6.7-.68-2.7-1.58-5.25-2.42-7.81-.2-.6-.26-1.25-.37-1.89.28.37.57.73.83,1.12,3.08,4.52,6.16,9.04,9.25,13.55.18.26.48.43.88.78-.77-2.58-1.38-4.94-2.18-7.23-1.08-3.09-2.32-6.13-3.46-9.21-.17-.45-.22-.93-.32-1.41.29.29.62.56.85.89,1.34,1.89,2.64,3.82,3.98,5.71,2.25,3.18,4.58,6.32,7.52,9.16-.04-.44,0-.76-.1-1.05-1.31-4.17-2.63-8.34-3.95-12.51-.44-1.4-.9-2.8-1.35-4.19.43.44.89.86,1.28,1.33.69.85,1.33,1.73,2.01,2.59.55.7,1.2,1.34,1.68,2.09,2.74,4.28,5.44,8.59,8.16,12.89.15.24.35.45.68.87-.03-.45-.01-.64-.06-.81-1.53-5.51-3.16-11-5.16-16.36-.2-.53-.27-1.12-.38-1.68.37.46.74.91,1.09,1.39,2.81,3.93,5.11,8.18,7.55,12.34.31.54.68,1.04,1.1,1.67.11-.33.2-.46.18-.56-.59-2.76-1.03-5.56-1.82-8.27-1.28-4.37-2.8-8.67-4.18-13.02-.21-.67-.29-1.38-.42-2.08,1.84,2.29,3.42,4.73,4.63,7.41,1.22,2.7,2.42,5.42,3.63,8.12.19.41.45.79.67,1.19.18-.35.19-.61.13-.85-.6-2.71-.99-5.44-1.15-8.22-.19-3.08-.71-6.14-.95-9.22-.09-1.21-.75-2.41-.21-4.04.53,1.55,1.06,2.73,1.34,3.97.45,2.07.73,4.18,1.1,6.27.17.97.4,1.93.68,3.24.26-.52.39-.67.41-.83.6-4.78,1.14-9.56,1.82-14.33.17-1.16.47-2.3.9-3.39,2.55-6.55,4.98-13.13,6.74-19.95.41-1.57,1.61-3.66,2.42-4.41,1.43.98,2.86,1.96,4.33,2.98-.14.47-.28.97-.44,1.45-5.06,15.33-9.7,30.78-13.06,46.58-1.11,5.21-2,10.48-2.94,15.73-.64,3.61-1.22,7.23-1.78,10.85-.47,3.05-.9,6.11-1.3,9.17-.34,2.62-.6,5.24-.88,7.87-.36,3.33-.79,6.65-1.02,9.99-.26,3.67-.33,7.35-.47,11.02-.05,1.42-.1,2.84-.12,4.26-.06,4.77-.3,9.56-.11,14.32.22,5.53.28,11.09.99,16.6.37,2.81.48,5.65.89,8.45.7,4.77,1.42,9.54,2.33,14.27,1.81,9.41,4.1,18.71,6.98,27.85,2.17,6.88,4.56,13.69,8.05,20.04,4.47,8.13,10.21,15.2,17.65,20.8,2.95,2.22,6.07,4.16,9.67,5.17,4.14,1.16,7.67.15,10.37-3.23.87-1.09,1.55-2.38,2.11-3.66,1.33-3.05,1.82-6.31,1.9-9.6.06-2.38-.1-4.77-.32-7.14-.81-9.07-2.06-11.18-2.06-11.18-2.26,2.84-4.85,4.29-4.85,4.29Zm-158.78-73.13c3.84-1.3,7.67-2.61,11.54-3.82,3.5-1.09,6.35-3.06,8.7-5.85,1.49-1.76,2.64-3.65,2.9-6.08.8-.49,1.61-.99,2.55-1.56.43,1.67-.14,3.12-.46,4.57-.77,3.44-2.8,5.93-6.01,7.34-2.82,1.25-5.67,2.46-8.59,3.47-4.74,1.63-9.55,3.08-14.33,4.58-.35.11-.73.08-1.11.11,1.38-1.29,3.03-2.17,4.8-2.77Zm-34.26,114.86c-3.93,2.09-8.11,3.59-12.24,5.2-2.79,1.09-5.69,1.65-8.69,1.34-.93-.1-1.87-.42-2.74-.79-1-.42-1.71-1.29-1.82-2.35-.23-2.16-.67-4.32-.37-6.66.48.27.86.48,1.23.7,2.31,1.35,4.76,2.16,7.43,2.49,6.02.73,11.94.13,17.83-1.07.55-.11,1.13-.12,1.71-.14-.77.42-1.57.87-2.35,1.28Zm-.14-24.09c1.84.06,3.69.24,5.52.14,1.85-.1,3.72-.37,5.52-.78,1.8-.42,3.53-1.12,5.53-1.77.38,1.7.74,3.29,1.13,5.02-6.22.49-12.06-.24-17.7-2.61Zm42.3,15.9c-1.55-.2-2.65-1.22-3.66-2.56,1.04.09,1.96.2,2.87.25,2.69.17,5.27-.3,7.67-1.54,3.3-1.71,6.26-3.83,8.33-7.02.2-.3.51-.54.76-.8h0c-.3,8.33-8.22,13.11-15.98,11.66Zm2.94-46.9c2.93-3.47,4.84-7.58,7.1-11.47.91-1.55,1.68-3.19,2.54-4.77.17-.31.45-.57.68-.84-.13,1.91-.18,3.83-.42,5.73-.58,4.45-1.57,8.83-2.88,13.33-2.3-.88-3.97-1.44-7.07-1.52.01-.12-.03-.35.06-.46Zm24.97,33.28c-.49-.12-.95-.35-1.5-.56.4-1.8.61-3.57.56-5.56,10.06,4.87,20.6,5.58,31.45,3.9-1.96.86-3.99,1.29-6.03,1.69-5.31,1.06-10.65,1.89-16.09,1.72-2.84-.09-5.64-.5-8.39-1.19Zm58.9,30.07c-.68,1.78-2.42,2.2-4.06,2.54-1.9.39-3.8.37-5.75.1-5.87-.79-11.71-1.72-17.31-3.64-3.77-1.29-7.4-2.96-11.09-4.48-5.2-2.14-10.17-4.7-14.76-7.97-.83-.59-1.7-1.13-2.33-2.25.6.06,1.05.03,1.44.16.98.33,1.96.65,2.88,1.11,3.7,1.82,7.56,3.26,11.45,4.63,4.79,1.69,9.53,3.54,14.37,5.04,5.05,1.56,10.24,2.47,15.58,2.24,3.23-.14,6.21-.99,8.92-2.74.37-.24.75-.47,1.4-.88.26,2.32-.05,4.29-.76,6.15Zm-43.16-54.87c8.14-2.82,16.45-5.11,24.74-7.42,5.28-1.47,10.66-2.39,16.02-3.39,2.54-.47,5.12-.55,7.71-.48,3.22.09,4.61,1.3,4.87,4.49.14,1.74.11,3.47-.64,5.12-.66,1.45-1.46,2.93-2.07,4.41-.14-.27-.52-.54-.66-.81-2.31-4.75-6.65-6.54-11.71-5.96-7.29.84-14.46,2.39-21.68,3.63-7.04,1.2-14.01,2.69-20.95,4.34-5.38,1.28-10.7,2.79-15.84,4.89-.11.04-.24.02-.47.04-.13-.22-.28-.48-.53-.91,1-.39,1.87-.75,2.76-1.08,6.14-2.3,12.25-4.71,18.45-6.86Zm-22.67-18.8c2.7-7.37,5.42-14.73,8.16-22.08.28-.74.77-1.41,1.17-2.11-.02.51.02,1.02-.1,1.51-.89,3.59-1.05,7.26-1.34,10.92-.25,3.21-.26,6.44-.49,9.65-.28,4-1.15,7.9-2.38,11.7-.35,1.08-.95,2.12-1.63,3.05-1.59,2.18-3.29,4.29-5.02,6.52-1.63-1.76-2.62-3.26-5.45-4.74.96-1.54,1.93-2.98,2.79-4.49,1.78-3.15,3.04-6.53,4.28-9.92Zm-12.15-14.07c2.39-2.79,4.63-5.71,6.94-8.56.14-.18.38-.28.58-.4-.25,2.32-.84,4.49-2.32,6.39-3.09,3.96-6.14,7.96-9.17,11.97-1.07,1.42-2.03,2.93-3.17,4.61-.1-1.82.43-3.25,1.05-4.65,1.54-3.44,3.64-6.5,6.09-9.36Zm-21.98,20.03c1.67-3.77,3.2-7.6,5.1-11.25,2.21-4.25,5.98-8.9,9.86-11.83-.11.29-.34.9-.52,1.14-4.2,5.71-6.53,12.21-8.13,19.04-.54,2.31-1.16,4.61-1.81,6.9-.24.86-.65,1.67-.95,2.39-2.47.99-4.69,1.87-7,3.76-.33-.29-.71-.63-1.06-.93,1.75-2.91,3.28-5.99,4.49-9.21Zm-4.21,18.71c2.58-3.15,5.82-5.22,9.73-6.28,1.08-.29,2.13-.82,3.58-.71-2.23,1.83-4.12,3.57-5.64,5.68-3.09,4.28-5.42,8.89-6.33,14.15-.76,4.38-.73,8.71.81,12.95.11.29.12.61.18.92-.5-.46-1.09-.86-1.48-1.4-2.23-3.12-3.85-6.55-4.9-10.23-.82-5.23.86-10.93,4.05-15.07Zm-36.43-35.19c.23.28.45.51.61.77,3.73,6.3,8.42,11.73,14.36,16.04.19.14.36.33.53.51-1.05.14-1.85-.46-2.64-.97-6.36-4.12-12.27-8.8-17.45-14.36-.18-.19-.34-.39-.48-.6-.07-.1-.08-.24-.18-.56,1.75-.27,3.48-.54,5.26-.82Zm7.91,20.36c1.53.63,3.03,1.34,4.47,2.15,5.6,3.17,11.18,6.38,16.76,9.59.61.35,1.2.74,1.94,1.21-.47.51-1.03,1.05-1.33,1.48-.25.36-.73.52-1.12.31-3.08-1.7-7.52-5.36-11.66-7.33-5.26-2.86-11.03-5.49-16.78-7.27-3.12-.96-6.26-1.38-9.51-.7-3.27.69-5.41,1.38-7.03,4.36-.21.39-.44.76-.87,1.51-1.12-2.91-2.83-5.3-2.29-8.13.95-.97,1.9-1.23,2.93-1.46,8.36-.9,16.83.98,24.48,4.28Zm-103.18-41.42c2.23.28,4.45.68,6.65,1.15,2.89.62,5.78,1.29,8.63,2.06,4.13,1.12,7.86,3.14,11.57,5.24,5.94,3.36,11.96,6.59,17.97,9.84,1.41.77,2.9,1.39,4.35,2.1.39.19.75.44,1.29.75-2.91,1.06-5.72,1.69-8.56,2.16-2.94.49-5.91.52-8.88.38-11.2-.54-21.55-3.58-30.5-10.59-4.52-3.54-8.24-7.78-10.89-12.92-.19-.37-.34-.77-.52-1.17.24-.07.37-.15.47-.12,2.76.71,5.61.77,8.41,1.12Zm-28.27-19.18c2.67,1.53,5.28,2.56,8.34,2.75-1.14-1.59-2.23-3.06-3.28-4.56-1.56-2.22-2.95-4.53-3.73-7.17-.37-1.25-.58-2.45-.34-3.77.42-2.33.66-4.7,1.04-7.49,2.9,3.5,6.19,5.82,10.37,6.76-1.9-1.66-3.49-3.55-4.87-5.61-1.08-1.6-2.08-3.26-3.07-4.92-1.62-2.72-2.4-5.63-2.33-8.84.04-1.64-.1-3.29-.37-4.92-.24-1.47-.23-1.74-.34-3.24.5.44.82.68,1.1.96,4.87,4.82,8.17,10.76,11.86,16.43,1.23,1.89,2.49,3.76,3.84,5.57,1.57,2.11,3.52,3.76,6.12,4.51.11.03.2.15.39.31-.4,5.77-.81,11.6-1.23,17.62-6.74,4.75-12.93,10.7-17.71,17.6-.23.34-.71.37-.99.06-1.05-1.15-2.06-2.5-2.53-3.91-1.23-3.69-1.81-7.49-2.02-11.36-.08-1.54-.24-3.08-.33-4.62-.03-.63.04-1.26.08-2.17Zm418.61-328.73c.23-.38.49-.75.73-1.12-.26,2.94-1.23,5.52-2.38,8.05-.85,1.88-1.55,3.83-2.53,5.64-2.26,4.2-4.53,8.39-7,12.47-4.61,7.62-10.07,14.66-15.18,21.94-3.6,5.12-6.87,10.45-9.48,16.16-.26.57-.58,1.11-1.13,1.59.1-.62.13-1.26.32-1.85,1.12-3.63,2.01-7.35,3.46-10.84,2.5-6.01,5.13-11.97,9.02-17.27.34-.47.68-.95.96-1.46,1.69-3.07,3.9-5.75,6.05-8.49,6.2-7.93,12.01-16.15,17.15-24.81Zm-34.12,140.18c-1.55-4.07-2.27-8.3-2.21-12.67.06-4.39.3-8.75,1.28-13.05.52-2.28,1.89-5.6,3.05-7.12,0,.94.09,1.78-.01,2.6-.88,7.28.06,14.39,1.83,21.44,1.32,5.25,2.84,10.44,5.32,15.28,1.44,2.81,3.05,5.53,4.61,8.27,1.1,1.93,2.25,3.84,3.38,5.75-.33-.09-.69-.14-.95-.33-7.31-5.2-13.06-11.68-16.28-20.16Zm3.46-52c-.44.79-.91,1.56-1.43,2.3-3.38,4.74-6.18,9.8-8.52,15.13-.17.35-.26.81-.72.65.16-1.12.26-2.26.48-3.37,1.04-5.05,2.39-10.03,4.35-14.79,1.07-2.6,2.53-5.07,4-7.47,3.34-5.45,7.28-10.46,11.55-15.23,4.56-5.09,8.94-10.34,13.01-15.83.26-.36.57-.68,1.14-1.37-.15.67-.18.95-.26,1.2-1.74,5.14-3.84,10.12-7,14.58-2.38,3.36-4.72,6.76-7.21,10.04-3.43,4.52-6.63,9.2-9.39,14.16Zm-223.98-106.12c2.09-13.53,5.81-26.63,11.12-39.24,4.97-11.8,11.16-22.95,19.15-33,4.27-5.37,9.13-10.18,14.75-14.18,6.57-4.68,13.33-9.06,20.79-12.22,5.34-2.27,10.93-3.78,16.54-5.2,3.93-.99,7.94-1.56,11.97-2.03,4.51-.52,9.02-.48,13.53-.23,3.21.18,6.39.73,9.59,1.13.29.04.56.21.81.58-1.17.16-2.33.35-3.51.48-1.54.17-3.08.27-4.62.44-3.52.4-7.06.66-10.54,1.28-6.71,1.2-13.33,2.79-19.88,4.7-6.28,1.82-12.15,4.59-17.87,7.7-8.17,4.44-15.37,10.17-21.89,16.77-5.42,5.49-9.9,11.72-14.01,18.21-6.2,9.8-10.6,20.42-14.44,31.32-2.95,8.38-5.36,16.91-7.68,25.48-1.08,3.97-2.14,7.94-3.22,11.91-.1.35-.3.67-.58,1.27-.06-.88-.1-1.45-.14-2.03-.11-1.87-.32-3.74-.29-5.6.04-2.51.05-5.05.43-7.52Zm91.87-93.13c-.28.15-.55.33-.84.44-6.61,2.37-12.58,5.94-18.37,9.83-7.53,5.06-14.38,10.95-20.43,17.7-7.03,7.84-13.15,16.38-18.34,25.57-5.59,9.89-10.38,20.15-14.49,30.73-.47,1.2-.85,2.43-1.29,3.64-.15.4-.35.78-.78,1.11.13-1.01.24-2.02.39-3.02,1.53-10.34,3.92-20.46,8.07-30.1,3.66-8.51,8.28-16.45,14.13-23.65,6.3-7.76,13.46-14.61,21.56-20.45,7.31-5.26,15.56-8.51,24.2-10.86,1.43-.39,2.87-.72,4.32-1.03.6-.13,1.22-.12,1.83-.18.02.09.03.18.05.26Zm-94.06,115.1c1.33,2.26,3,4.36,4.73,6.35,4.81,5.51,10.19,10.45,16.08,14.78,3.43,2.52,7,4.85,10.51,7.25,1.33.91,2.71,1.75,4.02,2.68,8.53,6.02,18,9.99,28,12.77,4.03,1.12,8.13,1.91,12.3,2.42,5.56.68,11.11,1.49,16.67,2.17,2.05.25,4.11.36,6.17.46,3.16.15,6.32.39,9.48.33,4.38-.08,8.76-.35,13.14-.63,8.77-.55,17.37-2.13,25.87-4.32,9.33-2.41,18.36-5.62,26.89-10.13,3.36-1.78,6.54-3.89,9.8-5.85.33-.2.64-.41,1.05-.53-.62,1.24-1.51,2.29-2.4,3.32-2.4,2.79-4.83,5.55-7.23,8.32-.95,1.09-2.12,1.85-3.4,2.5-7.96,4.02-16.3,7.06-24.88,9.42-5.4,1.49-10.89,2.6-16.43,3.41-3.95.58-7.94.88-11.91,1.3-8.23.88-16.49.88-24.76.65-1.61-.04-3.21-.2-4.86-.03.93.15,1.85.35,2.78.46,4.74.53,9.48,1.06,14.22,1.55,6.44.67,12.9.36,19.35.25,4.12-.07,8.25-.33,12.35-.77,3.19-.34,6.36-1,9.51-1.65,4.6-.95,9.12-2.24,13.55-3.81.22-.08.45-.11.68-.16l.31.4c-.48.34-.99.63-1.42,1.01-2.04,1.78-4.11,3.54-6.08,5.4-1.43,1.35-3.18,1.99-4.98,2.39-3.76.84-7.55,1.52-11.34,2.22-1.2.22-2.42.39-3.63.49-3.79.31-7.58.52-11.37.85-7.61.68-15.23.39-22.84.32-2.95-.03-5.91-.41-8.86-.65-1.8-.14-3.59-.36-5.39-.46-8.59-.46-16.99-2.01-25.25-4.38-8.66-2.5-17.14-5.47-25.07-9.82-.22-.12-.46-.24-.7-.32-4.83-1.65-8.91-4.59-13.05-7.47-4.62-3.22-8.94-6.8-12.89-10.81-2.8-2.85-5.5-5.8-7.74-9.15-1.2-1.8-2.1-3.69-2.73-5.73-1.37-4.52-2.15-9.15-2.48-13.86-.13-1.93-.36-3.86-.42-5.79-.06-1.99.05-3.98.08-6.26,1.6,3.25,2.89,6.29,4.56,9.1Zm141.81,69.19c-.79.53-1.3.91-1.84,1.23-7.89,4.67-15.95,9-24.43,12.49-9.2,3.78-18.67,6.6-28.46,8.38-5.01.91-10.03,1.7-15.12,1.94-2.64.13-5.28.26-7.92.36-.77.03-1.54-.06-2.32-.28,1.26-.18,2.52-.38,3.79-.52,6.04-.69,11.87-2.24,17.69-3.94,9.21-2.68,18.37-5.53,27.2-9.33,5.27-2.27,10.58-4.46,15.5-7.45,1.29-.78,2.73-.71,4.1-.99,3.47-.7,6.96-1.28,10.45-1.89.34-.06.71,0,1.39,0Zm-212.27-110.84c3.26,5.03,6.54,10.05,9.77,15.11,3.58,5.61,7.47,10.99,11.86,16.01,1.78,2.04,3.66,4,5.5,5.99.26.28.5.58.81.93-.07,2.54-.15,5.11-.23,7.79-1.12-1.15-1.63-2.65-2.45-3.95-.9-1.41-1.71-2.88-2.59-4.31-.84-1.38-1.7-2.74-2.56-4.1-.9-1.42-1.81-2.82-2.72-4.24-.86-1.34-1.73-2.69-2.59-4.03.24,2.44,1.18,4.6,2.06,6.77.89,2.21,1.81,4.41,2.75,6.6.93,2.16,1.91,4.3,2.57,6.64-.43-.53-.88-1.05-1.28-1.6-2.98-4.15-5.49-8.58-7.73-13.16-1.53-3.12-3.11-6.22-4.84-9.3.04.31.05.63.13.94,1.87,7.34,4.71,14.31,8.14,21.04,1.17,2.3,2.32,4.6,3.43,6.92.27.56.37,1.22.56,1.82-.3-.31-.66-.59-.89-.95-2.17-3.36-4.44-6.66-6.44-10.13-1.28-2.22-2.22-4.65-3.15-7.04-4.03-10.32-7.12-20.95-10.1-31.61-.25-.91-.49-1.82-.51-2.83.17.23.35.45.5.69Zm-14.46,9c1.91,1.17,3.95,2.14,5.98,3.09,1.45.67,2.98,1.15,4.47,1.73.29.11.54.32.59.34,1.31,4.4,2.57,8.57,3.8,12.75.09.29.07.58.07.9-.39-.5-.79-.98-1.16-1.49-1.82-2.57-3.64-5.14-5.46-7.71-.21-.3-.49-.56-1.04-1.2.1.76.09,1.1.2,1.38,1.16,2.93,2.34,5.84,3.5,8.77.19.47.3.96.45,1.44-.49-.46-1.03-.89-1.42-1.42-4.97-6.62-9.92-13.25-14.85-19.9-.83-1.12-1.54-2.34-2.32-3.49,2.38,1.62,4.74,3.3,7.2,4.81Zm41.41,97.54c-.2-.18-.43-.31-.55-.5-4.55-7.1-10.77-12.28-18.38-15.79-4.09-1.89-8.4-3.21-12.83-4.39.35.29.67.62,1.06.85,8.45,4.87,14.44,12.16,19.78,20.09.16.24.2.56.29.84-2.12-1.29-4.29-2.51-6.35-3.9-1.75-1.19-3.49-2.37-5.77-3.58.37.68.51.99.69,1.27,2.38,3.52,4.8,7.02,7.14,10.57,1.05,1.61,1.93,3.33,2.48,5.14-1.05,1.34-7.24,6.64-9.66,8.28-.31-.67-.15-1.36-.15-2.01-.07-7.86-1.47-15.46-4.27-22.8-1.88-4.93-4.71-9.31-8.2-13.24-3.21-3.61-6.56-7.11-9.9-10.61-3.52-3.68-7.02-7.38-10.14-11.43-.33-.43-.55-.96-.81-1.44.12.03.26.03.33.11,4.03,3.82,8.76,6.58,13.66,9.08,3.11,1.59,6.19,3.19,8.71,5.68.25.25.61.4.95.63.58-.72.33-1.34.03-1.89-.58-1.08-1.15-2.17-1.86-3.16-1.62-2.25-3.33-4.44-4.98-6.67-5.06-6.85-8.25-14.56-10.27-22.76-1.06-4.29-1.84-8.66-2.82-13.37,1.88,1.51,3.1,3.06,4.31,4.6,3.02,3.81,6.46,7.21,10.01,10.5,6.54,6.05,13.12,12.06,19.59,18.19,5.34,5.06,10.56,10.26,15.81,15.42.41.41.72.92,1.07,1.4-2.03-1.03-4.08-2-6.07-3.11-4.01-2.24-8.15-4.17-12.57-5.46-1.35-.4-1.49-.4-3.36-.08,11.43,7.72,22.08,16.13,31.05,26.76-2.68,2.27-5.33,4.5-8.04,6.78Zm19.27-76.24c-.73,3.85-1.34,7.73-1.89,11.61-.29,2.03-.37,4.1-.82,6.16-.05-.96-.09-1.92-.15-2.88-.07-1.03-.21-2.05-.24-3.08-.11-4.84.22-9.66.62-14.49.47-5.74,1.57-11.35,3.54-16.76.86-2.35,1.94-4.63,3.07-6.87.56-1.11,1.46-2.06,2.32-3.24-2.45.65-4.12,2.12-5.55,3.87-2.81,3.43-4.82,7.26-5.94,11.59-1.34,5.23-2.61,10.47-3.39,15.82-.26,1.78-.35,3.59-.49,5.39-.24,3.08-.47,6.17-.7,9.25-.06.77-.09,1.55-.09,2.32-.02,5.16-.05,10.33-.03,15.49,0,1.67.19,3.34.28,5.02.02.38,0,.75,0,1.13h-.48c-.2-.73-.43-1.46-.61-2.19-.78-3.25-1.48-6.53-2.33-9.76-.82-3.08-1.1-6.21-1.19-9.37-.09-3.67-.36-7.35-.27-11.02.26-10.76,2.07-21.25,6.15-31.27,1.63-4.02,3.62-7.83,6.42-11.19,1.44-1.72,3.17-3.12,5.22-3.9,2.28-.88,4.67-.78,6.78.67,1,.69,1.96,1.5,2.76,2.42,1.68,1.94,3.24,4,4.78,5.93-.1,1.18-1,1.45-1.64,1.94-1.47,1.15-3.04,2.18-4.46,3.39-4.01,3.45-6.51,7.95-8.56,12.72-1.56,3.62-2.39,7.47-3.12,11.32Zm14.43,75.07c-3-7.14-5.07-14.56-6.39-22.19-.68-3.93-1.22-7.87-1.61-11.85-.58-5.87-.6-11.76-.19-17.6.88-12.57,3.49-24.82,7.78-36.68,1.34-3.72,3.01-7.27,5.73-10.23.17-.19.26-.45.38-.67.11.07.22.14.33.22-.05.43-.07.86-.16,1.28-.89,4.02-1.89,8.01-2.69,12.05-1.4,7.06-2.78,14.13-3.98,21.22-.53,3.16-.68,6.4-.87,9.61-.21,3.54-.32,7.09-.39,10.63-.1,4.58.26,9.14.71,13.7.71,7.19,2.11,14.23,4.29,21.12,2.71,8.49,6.74,16.37,12.58,23.14,4.19,4.41,8.03,9.43,13.62,12.1,4.73,2.47,9.81,3.98,14.92,5.42,4.08,1.15,8.23,2.06,12.43,2.69,7.33,1.11,14.72,1.65,22.13,1,2.63-.23,5.29-.25,7.91-.53,3.52-.38,7.04-.78,10.51-1.41,14.44-2.62,28.01-7.74,41.02-14.45,10.18-5.25,19.95-11.15,28.71-18.56,4.68-3.96,9.14-8.18,13.52-12.47,4.11-4.01,8.15-8.12,11.91-12.45,3.42-3.93,6.38-8.26,9.61-12.36,8.59-10.92,14.33-23.34,19.25-36.21,1.2-3.13,2.62-6.16,3.97-9.23.24-.55.4-1.26,1.24-1.33,1.16,2.11,1.11,4.29.65,6.56-1.49,7.5-4.4,14.61-7.93,21.4-.95,1.84-1.7,3.78-2.55,5.67-.35.77-.58,1.57-.2,2.56,5.45.59,9.16,4.19,12.66,7.75,1.03.17,1.59-.18,2.03-.82,2.91-4.26,6.08-8.33,8.4-12.98,2.17-4.34,4.18-8.71,5.21-13.47.94-4.35,1.04-8.7-.2-13.01-1.05-3.62-3.22-6.27-6.83-7.61-.84-.31-1.68-.63-2.58-.97,0,0,4.15-1.56,7.87.53,6.18,2.65,10.02,8.89,10.22,15.51.26,5.09-1.48,9.84-2.72,14.72-3.93,10.49-10.88,22.26-19.64,28.99-2.12-4.71-7.8-10.45-12.09-12.15-.15.32-.39.63-.45.97-.42,2.24-.82,4.48-1.23,6.71-1.11,6.1-3.44,15.97-5.19,21.92-1.69,5.74-3.59,11.39-6.02,16.85-.37.82-.75,1.64-1.16,2.44-.56,1.1-1.37,1.96-2.29,2.81-7.64,7.01-16.8,11.43-26.14,15.56-2.89,1.28-5.85,2.37-8.79,3.54-.4.16-.84.23-1.39.11.42-.32.84-.65,1.28-.95,5.46-3.66,11.02-7.2,16.37-11.02,4.62-3.3,9.02-6.9,13.46-10.45,1.3-1.04,2.59-2.21,3.54-3.56.86-1.23,1.41-2.74,1.83-4.2,1.19-4.17,2.29-8.36,3.4-12.55,1.69-6.37,3.18-12.81,4.03-19.35.25-1.91.72-3.78,1.08-5.67.09-.49.11-1-.08-1.6-1.68,2.25-3.49,4.43-5.03,6.77-4.3,6.52-8.94,12.8-13.85,18.87-5.61,6.94-11.68,13.43-18.35,19.38-13.72,12.24-29.25,21.49-46.29,28.27-7.85,3.12-15.93,5.42-24.26,6.87-3.99.7-8.01,1.19-12.05,1.57-4.76.45-9.51.86-14.29.69-3.47-.13-6.94-.46-10.41-.7-26.82-3.02-55.89-14.99-66.29-41.9Zm204.78,42.47c-.19-1.86-.59-3.71-.57-5.56.02-1.98.4-3.97.67-5.95.24-1.79.52-3.57.79-5.35.04-.23.14-.46.33-1.08.23.61.38.86.41,1.13,1.29,11.65,3.89,22.97,8.33,33.84,1.34,3.28,2.55,6.61,3.87,9.89,1.23,3.06,2.7,5.99,4.5,8.76.17.26.18.47.29.77-.57-.49-1.14-.85-1.62-1.42-2.5-3.04-4.98-6.09-7.4-9.19-2.65-3.39-4.21-7.37-5.81-11.31-1.9-4.68-3.3-9.48-3.8-14.52Zm15.45-33.71c-.99,3.79-2.27,7.5-3.24,11.29-.67,2.6-1.03,5.29-1.54,7.95-.07-.06-.27-.14-.31-.28-1.45-4.55-1.66-9.25-1.31-13.95.21-2.88.57-5.77,1.24-8.57.89-3.74,2.2-7.38,3.2-11.1,1.33-4.96,2.58-9.95,3.77-14.94.29-1.23.27-2.55.31-3.84.05-1.61.01-3.22.01-4.83,1.2,2.21,1.57,4.64,1.9,7.05.33,2.36.49,4.74.71,7.11.23,2.4-.19,4.75-.51,7.11-.78,5.82-2.74,11.35-4.23,17Zm-45.23,31.64c.42,1.82.81,3.64,1.14,5.48,1.11,6.14,2.58,12.2,4.15,18.24.44,1.68.83,3.38,1.21,5.07.1.43.08.88-.13,1.44-.3-.5-.62-.98-.89-1.49-3.49-6.58-6.03-13.53-7.81-20.76-.51-2.06-1.14-4.09-1.71-6.14-.2-.73-.38-1.46-.19-2.21,1-.44,2.1-.92,3.26-1.44.67.36.8,1.11.96,1.8Zm17.5-11.96c.67,4.46,1.24,8.75,1.99,13.01.74,4.26,2.17,8.34,3.64,12.39,1.48,4.08,3.18,8.08,4.5,12.28-.69-1.04-1.43-2.04-2.07-3.12-2.55-4.33-4.82-8.78-6.44-13.57-1.57-4.63-3.43-9.16-4.58-13.92-.33-1.37-.64-2.75-.96-4.18,1.78-1.07,3.18-2.06,3.93-2.88Zm-58.77,23.04c2.91,5.26,3.7,11.04,4.57,16.85-3.18-5.39-7.32-10.17-10.07-15.95,1.91-.31,3.67-.6,5.5-.9Zm-87.74,7.73c1.18-3.87,2.66-7.63,4.78-11.11,1.87.69,3.67,1.35,5.67,2.1-4.56,6.77-8.84,13.66-12.49,21.08-.44-1.7.36-6.53,2.04-12.07Zm9.44,75.83c-2.29-1.07-4.03-2.75-5.36-4.87-3.19-5.09-6.03-10.35-7.94-16.07-.26-.79-.47-1.61-.66-2.42-.06-.27.04-.57.08-1.02,1.02.45,1.28,1.27,1.64,1.98,1.88,3.75,3.8,7.47,6.23,10.9,1.31,1.84,2.63,3.67,4.08,5.39,1.64,1.95,2.72,4.16,3.55,6.57-.73.33-1.14-.23-1.62-.45Zm45.29,14.27c-4.47,1.94-9.08,3.37-14.02,2.92-4.23-.39-8.36-1.29-12.35-2.85-3.52-1.38-6.67-3.27-9.62-5.61-1.67-1.33-3.3-2.65-4.61-4.35-.38-.49-.87-.91-.94-1.82,1.85.85,3.53,1.6,5.19,2.38.99.46,1.95.98,2.94,1.45,2.33,1.09,4.68,2.15,7,3.25,3.44,1.63,7.03,2.86,10.76,3.6,1.76.35,3.58.44,5.38.47,3.59.06,7.18,0,10.95-.02-.27.24-.44.49-.67.59Zm22.67-9.49c-4.04,3.82-8.85,6.13-14.1,7.64-1.03.3-2.11.34-3.33-.12.56-1.06,1.38-1.66,2.2-2.24,2.88-2.06,5.77-4.1,8.69-6.1,4.8-3.29,9.19-7.06,13.22-11.24.71-.74,1.33-1.57,2.02-2.33.32-.35.7-.66,1.05-.98-.04.35-.03.71-.16,1.01-2.39,5.32-5.28,10.28-9.59,14.35Zm-.21-12.79c-1.76,2.52-4.06,4.51-6.33,6.5-3.71,3.24-7.79,5.96-12.54,7.43-3.12.97-6.29,1.97-9.51,2.35-10.09,1.19-19.3-1.26-27.43-7.46-3.55-2.71-6.8-5.75-9.86-8.99-.62-.65-1.23-1.34-1.73-2.08-2.39-3.52-4.82-7.01-7.08-10.61-1.79-2.85-3-5.97-3.66-9.3-.45-2.26-1.08-4.5-1.44-6.77-.57-3.65-.41-7.3-.07-10.98.45-4.76,1.51-9.38,2.85-13.93.63-2.15,1.35-4.33,2.42-6.29,2.53-4.63,5.25-9.16,7.99-13.68.58-.96,1.56-1.68,2.4-2.56,4.82.97,9.53,1.92,14.23,2.87-2.25,1.49-4.54,2.82-6.62,4.43-3.74,2.91-6.9,6.4-9.54,10.35-.2.3-.28.69-.41,1.04.42-.26.87-.49,1.21-.83,7.04-6.95,15.62-10.74,25.25-12.45,2.87-.51,5.74-.98,8.64-.63,3.06.37,6.11.88,9.13,1.5,3.84.79,7.72,1.52,11.33,3.12,1.76.78,3.42,1.78,5.13,2.68.45.24.89.48,1.33.72.56-.61.15-1.03-.15-1.41-1.31-1.7-2.8-3.21-4.63-4.36-1.2-.76-2.42-1.47-3.63-2.22-.42-.26-.81-.57-1.45-1.02,5.09-.45,9.86-.87,14.88-1.31.41.56.97,1.25,1.45,2,.73,1.14,1.3,2.38,2.11,3.45,3.17,4.19,4.96,9,6.47,13.94.36,1.17.61,2.36.97,3.53.63,2.04.88,4.14,1.05,6.26.16,1.98.5,3.95.62,5.93.11,1.73.15,3.49.01,5.22-.31,4-1.35,7.84-2.58,11.65-2.53,7.84-6.11,15.16-10.83,21.92Zm16.9-15.21c-.64,1.27-1.58,2.34-2.92,3.17-.94-.72-.57-1.54-.41-2.22.33-1.44.79-2.84,1.24-4.25,1.02-3.18,2.14-6.33,2.69-9.65.36-2.22.67-4.45,1.03-6.67.14-.88.34-1.75.57-2.88,1,1.06,1.14,2.22,1.31,3.28,1.09,6.81-.45,13.16-3.51,19.21Zm70.37,173.88c-1.65,3.3-3.72,6.34-5.91,9.3-6.35,8.58-13.38,16.56-20.99,24.03-4.61,4.53-9.35,8.91-14.77,12.47-3.23,2.12-6.61,4.01-9.95,5.97-1.04.61-2.13,1.12-3.2,1.68-.1-.11-.2-.23-.3-.34,1.11-.97,2.24-1.91,3.32-2.9,2.76-2.53,5.5-5.08,8.25-7.61,6.85-6.28,13.75-12.51,20.09-19.32,5.19-5.57,10.29-11.23,15.47-16.81,2.24-2.41,4.57-4.74,6.87-7.09.39-.39.86-.7,1.36-1.09.46.79-.03,1.26-.26,1.72Zm-10.73-28.76c-.49-6.55-1.43-13.02-3.84-19.2-.09-.24-.18-.48-.26-.73-.01-.04.06-.11.2-.32.38.65.73,1.22,1.05,1.81,2.85,5.25,4.59,10.89,5.71,16.73.35,1.83.63,3.68.75,5.53.23,3.38-.42,6.68-1.36,9.9-.87,2.96-1.98,5.85-3.02,8.75-.14.4-.41.78-.66,1.14,0-.51-.07-1.04.03-1.53.97-4.61,1.48-9.26,1.46-13.97-.01-2.71.12-5.43-.09-8.12Zm18.42-15.49c-.05.9-.08,1.8-.14,2.95-.57-.61-.66-1.17-.81-1.73-2.52-9.41-5.93-18.48-10.56-27.07-2.39-4.43-5.09-8.66-8.03-12.75-.3-.41-.53-.87-.79-1.31-.1-.16-.15-.23-.25-.39.15.11.23.16.38.26,1.28,1.35,2.58,2.68,3.83,4.05,4.69,5.15,9.21,10.43,13.12,16.21,1.05,1.55,2.01,3.15,3.03,4.71.65,1,.96,2.06.88,3.28-.25,3.92-.46,7.84-.67,11.76Zm9.66,10.41c-1.24,3.25-2.5,6.48-3.8,9.7-.7,1.73-1.5,3.42-2.27,5.11-.2.44-.28,1.04-1.07,1.03-.55-.41-.32-.97-.15-1.5,1.44-4.4,2.9-8.8,4.36-13.19.3-.92.62-1.83,1-2.72.24-.56.61-1.07.91-1.58,1.09.15,1.4.61,1.36,1.26-.04.63-.11,1.3-.33,1.88Zm33.98-17.77c-.13-.13-.26-.26-.38-.39-1.62-1.83-3.33-3.58-4.84-5.5-2.66-3.41-5.19-6.92-7.78-10.38-.87-1.16-1.37-2.46-1.69-3.86-1.45-6.24-3.58-12.24-6.36-18-1.91-3.96-4.47-7.55-7.02-11.12-.18-.25-.43-.46-.92-.98.12.69.11,1.04.23,1.34,3.8,8.77,6.72,17.84,8.82,27.16.65,2.88,1.4,5.78,1.69,8.71.43,4.29.76,8.61.25,12.94-.2,1.73-.13,3.49-.41,5.2-.57,3.42-1.33,6.82-1.97,10.23-.69,3.67-1.33,7.34-1.99,11.02-.41,2.28-.8,4.56-1.2,6.84-.49,2.8-.77,5.62-.77,8.46,0,.32-.05.63-.34.99-.41-1.81-.96-3.6-1.21-5.44-.5-3.7-.79-7.42-1.25-11.13-.8-6.45-1.35-12.94-2.9-19.26-1.82-7.44-5-14.33-9.17-20.75-4.13-6.36-8.85-12.24-14.23-17.57-2.98-2.95-6.22-5.63-9.29-8.49-6.8-6.33-13.87-12.39-20.37-19.05-3.03-3.11-5.82-6.4-8.12-10.08-.1-.16-.25-.29-.47-.55-.23,1.1.38,1.83.79,2.57,1.48,2.65,3.04,5.25,4.54,7.88,4,7.03,8.9,13.46,13.49,20.09,8.77,12.65,15.66,26.2,20.03,40.99,1.31,4.45,2.27,8.97,2.99,13.55.35,2.21.75,4.42.87,6.71-.12-.28-.25-.55-.35-.84-3.64-10.09-8.94-19.28-15.25-27.9-4.77-6.5-9.72-12.87-14.6-19.3-6.86-8.9-11.96-18.98-14.36-29.99-.13-.21-.36-.02-.43.97-.24,3.15.28,6.31.56,9.46.39,4.33,1.66,8.47,3.09,12.54,2,5.71,4.16,11.36,6.2,17.06,2.58,7.21,4.99,14.47,6.57,21.98.89,4.21,1.64,8.47,1.75,12.8.07,2.71.33,5.42.2,8.11-.15,3.14-.67,6.27-.97,9.41-.37,3.79-.94,7.54-1.95,11.21-.85,3.11-1.8,6.18-2.7,9.28-.16.54-.3,1.08-.16,1.75,1.17-1.97,2.35-3.93,3.49-5.91,2.1-3.63,3.83-7.45,5.41-11.34.11-.27.33-.5.5-.75-.16.87-.28,1.74-.53,2.58-2.04,6.74-5,13.1-8.07,19.42-1.99,4.1-4.66,7.7-7.56,11.18-4.42,5.32-9.07,10.41-14.08,15.18-3.24,2.87-6.69,5.73-10.45,7.82,1.11-1.33,2.23-2.64,3.32-3.99,7.65-9.43,14.84-19.16,20.09-30.19,3.14-6.59,5.66-13.39,6.99-20.58.69-3.73,1.18-7.5,1.31-11.31.11-3.16.22-6.32.32-9.48.02-.61-.05-1.22-.41-1.87-.18.77-.38,1.54-.54,2.32-2.53,12.29-6.31,24.17-12.2,35.29-4.53,8.55-9.57,16.79-15.06,24.76-.82,1.19-1.8,2.18-3.04,2.92-2.42,1.45-4.89,2.81-7.62,3.99-.26-.93-.48-1.71-.64-2.27,1.47-1.83,2.77-3.5,4.11-5.13,6.12-7.47,11.41-15.45,15.43-24.25,1.15-2.52,2.26-5.06,3.34-7.62.24-.57.35-1.18.49-1.79-.53.79-1.11,1.55-1.58,2.38-5.96,10.52-13.12,20.1-21.96,28.38-.38.35-.75.71-1.14,1.05-.09.08-.22.14-.46.29-.18-.4-.41-.76-.5-1.16-1.01-4.25-1.99-8.51-3-12.75-.24-1.01.02-1.87.51-2.76,2.05-3.66,4.86-6.67,7.99-9.4,2.63-2.29,5.37-4.44,8.02-6.71,5.21-4.48,9.77-9.57,13.71-15.2,2.93-4.19,4.77-8.83,5.34-13.93.34-3.01.6-6.03.77-9.05.19-3.29.23-6.58.33-9.87.02-.71,0-1.42-.22-2.17-.12.42-.31.83-.36,1.25-1.05,8.85-4.11,16.98-8.58,24.65-3.02,5.18-6.91,9.63-10.99,13.95-2.57,2.72-5.22,5.39-7.62,8.25-3.37,4.01-6.25,8.37-8.4,13.18-.34.76-.7,1.52-1.16,2.53-1.02-1.92-.92-3.87-1.32-5.68-.42-1.88-.59-3.81-.88-5.81,1.17-1.58,2.36-3.17,3.53-4.78,5.95-8.2,10.71-17.01,13.67-26.73,1.41-4.64,2.3-9.38,2.67-14.21.18-2.31.41-4.62.61-6.94.01-.16-.06-.33-.33-.55-.59,2.21-1.12,4.44-1.78,6.63-.69,2.28-1.45,4.54-2.29,6.77-.82,2.17-1.74,4.3-2.68,6.42-.97,2.18-1.97,4.34-3.03,6.48-1.03,2.08-2.07,4.16-3.24,6.16-1.2,2.06-2.54,4.04-3.85,6.03-1.27,1.92-2.63,3.78-4.29,5.78-.59-3.55-.88-6.8-.93-10.12.24-.3.44-.64.71-.9,2.4-2.26,4.04-5.01,5.13-8.1,1.03-2.92,2.03-5.85,3.03-8.77.08-.23.07-.49.12-.85-1.42,2.01-2.67,3.99-4.14,5.77-1.5,1.82-3.25,3.45-5.47,4.86v-16.22c9.56-9.98,12.87-22.05,10.18-36.31-2.76,7.09-5.54,13.68-9.36,19.8.35-3.84.6-7.69,1.07-11.51.87-7.08,1.73-14.17,2.94-21.21,2.03-11.85,4.45-23.62,7.47-35.25,2.02-7.77,4.23-15.5,6.36-23.24,1.33-4.83,2.67-9.66,4.05-14.48.7-2.45.64-4.61-1.87-6.04.56-1.92,1.12-3.76,1.64-5.61.23-.81.41-1.62.56-2.45.25-1.42-.17-2.61-1.48-3.28-1.77-.91-3.6-1.7-5.66-2.66,0-.19-.03-.69,0-1.18.51-6.39.47-12.74-.8-19.07-.5-2.47-1.27-4.84-2.13-7.19-.75-2.05-1.46-4.11-2.2-6.16-1.48-4.13-3.51-8.01-5.64-11.84-.18-.32-.36-.65-.62-1.13,5.33-1.25,10.5-2.46,15.86-3.71.26.82.61,1.76.85,2.73.63,2.52,1.53,4.92,2.76,7.2.27.51.48,1.05.68,1.59,1.3,3.42,2.59,6.85,3.99,10.54.47-1.77.19-7.93-.36-12.25-.51-4.01-.91-8.04-1.38-12.2,2.47-.87,5.06-1.78,7.62-2.68.77,3.2,1.4,6.35,2.28,9.42,2.48,8.61,5.58,17,9.69,24.98,4.46,8.69,9.56,16.98,16.08,24.3,3.27,3.67,6.7,7.19,10.71,10.06,2.28,1.63,4.81,2.94,7.22,4.38-.05-.23-.08-.49-.19-.68-1.68-2.82-3.39-5.61-5.08-8.43-6.26-10.48-10.79-21.75-15.02-33.14-.31-.84-.73-2.62-.97-3.48,1.34,1.97,3.15,4.62,4.47,6.6,4.78,7.17,10.29,13.74,16.36,19.83,3.92,3.93,8.07,7.63,12.11,11.43.14.13.32.22.73.5-.2-.54-.24-.89-.43-1.13-.88-1.11-1.82-2.18-2.71-3.29-4.96-6.13-9.46-12.57-13.52-19.33-.33-.55-.58-1.14-.87-1.71-.07-.13-.15-.26-.22-.4.14.07.27.14.41.21.2.16.42.3.59.48,5.78,6,11.92,11.62,18.22,17.08,3.75,3.25,7.54,6.47,11.22,9.81,3.39,3.09,6.36,6.58,8.98,10.36.25.36.53.7,1.02,1.34.03-.64.13-.98.05-1.26-.84-2.91-1.84-5.77-3.36-8.41-1.32-2.29-2.72-4.53-4.06-6.8-.2-.34-.33-.71-.48-1.08.26.21.55.4.75.65,6.61,8.2,12.58,16.83,17.18,26.32,1.76,3.63,2.97,7.53,4.42,11.32.08.2.03.45.02.69-.31-.27-.68-.51-.92-.83-6.28-8.46-14.15-15.1-23.26-20.32-3.13-1.79-6.26-3.57-9.42-5.31-4.42-2.43-8.48-5.37-12.47-8.42-1.08-.82-2.08-1.77-3.41-2.2.72.92,1.38,1.92,2.2,2.74,3.66,3.64,7.41,7.19,11.06,10.84,7.81,7.81,15.44,15.78,22.29,24.45,5.6,7.1,10.52,14.66,14.57,22.77.36.72.6,1.48.9,2.23-.19-.11-.41-.19-.51-.35-3.46-5.79-7.71-10.97-12.3-15.89-5.69-6.1-11.53-12.03-18.34-16.91-4.36-3.11-8.78-6.14-13.16-9.22-1.52-1.07-3.01-2.19-4.91-3.58.35.76.47,1.16.7,1.48,1.39,2.01,2.57,4.24,4.26,5.97,4.39,4.52,7.89,9.72,11.74,14.64,5.44,6.95,9.85,14.51,13.47,22.53.66,1.47,1.25,2.97,1.86,4.46.07.16.06.35.12.79-1.61-1.86-3.05-3.55-4.52-5.21-6.22-7.02-12.85-13.62-20.2-19.45-7.48-5.93-15.01-11.81-22.56-17.66-2.07-1.6-3.71-3.6-5.35-5.58-4.98-6.01-9.81-12.15-13.74-18.93-2.39-4.12-5.07-8.1-7.19-12.36-2.56-5.14-5.14-10.25-7.91-15.28-.52-.94-1.11-1.85-1.99-2.68.08.77.18,1.54.25,2.3.07.77.06,1.55.17,2.32.74,5.46,2.4,10.66,4.32,15.8.65,1.75,1.29,3.5,1.91,5.26.1.29.1.61.14.92-.3-.38-.64-.74-.86-1.16-3.21-6.03-6.25-12.13-8.91-18.43-2.08-4.93-4.21-9.83-5.77-14.95-.15-.48-.38-.93-.71-1.71-.16.55-.29.81-.31,1.08-.13,1.8-.32,3.6-.32,5.4,0,1.67.12,3.35.31,5.01.57,4.99,1.27,9.96,2.62,14.81,3.73,13.42,9.56,25.83,17.99,36.96,7.93,10.48,17.38,19.4,28.07,27.02,5.78,4.12,11.72,8.03,17.12,12.65,3.28,2.81,6.37,5.84,9.55,8.78.5.47,1.01.93,1.8,1.22-.06-.33-.06-.7-.2-1-.83-1.74-1.6-3.52-2.58-5.18-3.18-5.42-7.08-10.31-11.37-14.9-.37-.39-.68-.84-1.01-1.26.37.15.77.25,1.07.49,9.4,7.75,17.84,16.39,24.72,26.48,1.11,1.63,2.02,3.44,2.82,5.25,1.59,3.58,3.14,7.19,4.53,10.85,1.7,4.5,3.26,9.06,4.81,13.62,1.57,4.63,3.28,9.21,5.51,13.56,1.17,2.28,2.55,4.46,3.83,6.68.12.14.24.28.36.42.12.14.23.28.35.42.07.09.15.18.22.27l-.28-.21c-.14-.12-.27-.24-.41-.37Zm17.08-56.04c-2.43-6.58-4.92-13.14-6.4-20.03-.99-4.59-1.87-9.2-2.92-13.77-.82-3.57-1.83-7.1-2.73-10.65-.14-.57-.19-1.16-.28-1.75.27.43.6.84.78,1.31,1.63,4.19,3.25,8.39,4.85,12.6,2.27,5.95,4.09,12.04,5.25,18.31.7,3.79,1.5,7.56,2.16,11.35.27,1.53.31,3.1.45,4.65-.4-.67-.89-1.3-1.16-2.02Zm1.31,2.68c-.03-.16-.06-.31-.09-.47.1.12.2.24.3.36-.07.04-.14.08-.21.11Zm3.04-29.66c.17,1.54.43,3.06.62,4.6.05.43,0,.88,0,1.61-1.32-3.27-2.43-6.33-3.78-9.27-1.53-3.34-3.28-6.58-4.94-9.85-.38-.75-.86-1.45-1.18-2.22-2.15-5.21-5.06-10.02-7.89-14.86-2.6-4.47-4.98-9.04-6.85-13.86-.3-.76-.54-1.54-.81-2.31,2.41,2.65,5.05,4.97,7.11,7.89,5.54,7.84,10.06,16.2,13.72,25.05.47,1.13.88,2.29,1.43,3.38,1.58,3.1,2.18,6.44,2.57,9.85Zm41.12-171.96c-2.61,5.03-5.34,10.01-8.07,14.98-2.76,5.03-6.7,9.23-9.88,14.08.49-.24,1.01-.43,1.47-.72,3.98-2.48,7.5-5.5,10.52-9.07,2.25-2.66,4.37-5.43,6.56-8.15.2-.24.42-.47.81-.9,0,.49.05.74,0,.96-1.66,6.68-3.53,13.3-5.77,19.82-1.47,4.29-3.73,8.2-5.93,12.15-5.64,10.14-13.1,18.84-21.31,26.94-.33.32-.68.73-.98,1.08.42-.17.92-.36,1.29-.6,2.84-1.89,5.69-3.75,8.3-5.97,2.15-1.83,4.54-3.4,6.69-5.23,5.01-4.27,9.61-8.95,13.49-14.29.19-.26.43-.46.65-.69.16-.2.31-.39.47-.59-.08.26-.17.52-.25.79-.6,1.28-1.16,2.58-1.82,3.82-3.98,7.46-8.34,14.68-13.56,21.35-5.28,6.76-10.52,13.55-15.74,20.36-4.04,5.27-8.07,10.55-11.32,16.37-1.04,1.86-2.02,3.72-2.67,5.77-.89,2.82-2.43,5.36-3.65,7.93-2.11-2.02-4.14-3.96-6.29-6.01.73-2.6,1.43-5.26,2.22-7.89.61-2.03,1.31-4.04,2.04-6.04,1.62-4.47,4.03-8.47,7.11-12.1,1.46-1.72,2.69-3.63,4.1-5.39.96-1.2,2.06-2.3,3.08-3.45.32-.36.83-.64.57-1.41-.36.12-.72.19-1.03.36-1.99,1.06-3.99,2.12-5.94,3.24-3.93,2.24-7.15,5.32-9.91,8.85-4.03,5.14-7.56,10.6-9.7,16.84-.06.16-.22.29-.41.52-.59-.42-1.14-.82-1.72-1.24.53-4.36,1.16-8.62,2.93-12.61,2.35-5.3,4.47-10.71,7.57-15.65.99-1.58,2.05-3.13,3.15-4.65,3.41-4.7,6.81-9.41,10.29-14.05,1.55-2.06,3.31-3.96,4.95-5.95.35-.42.63-.9,1.21-1.74-.81.19-1.18.19-1.46.35-10.82,6.38-20.43,14.22-28.59,23.77-1.84,2.15-3.36,4.57-5.03,6.87-.41.57-.83,1.14-1.24,1.71-.17.21-.34.42-.51.62.08-.29.17-.58.25-.87.24-.59.46-1.2.73-1.77,3.59-7.54,8.21-14.45,13.02-21.26,3.13-4.43,6.23-8.88,9.95-12.84,4.06-4.33,8.09-8.68,12.79-12.36,1.29-1.02,2.3-2.4,3.63-3.81-1.05.03-1.63.52-2.25.86-3.91,2.15-7.53,4.74-11.05,7.47-6.6,5.09-12.87,10.56-18.72,16.48-4.01,4.06-7.29,8.68-10.3,13.52-2.46,3.95-4.67,8.02-6.23,12.42-.1.29-.3.56-.51.95-.65-1.49-.96-2.89-1.09-4.38-.69-7.74,1.83-14.59,5.74-21.07,1.23-2.04,2.52-4.05,3.79-6.07,1.52-2.42,3.36-4.58,5.4-6.56,5.74-5.58,11.73-10.87,18.59-15.08,3.96-2.43,7.73-5.15,11.17-8.3.81-.74,1.74-1.34,2.6-2.01.65-.51,1.29-1.03,1.82-1.81-.32.07-.67.08-.96.21-6.41,2.9-13.27,4.56-19.81,7.1-.99.39-2.02.7-3.03,1.05.07-.8.79-1.08,1.31-1.46.67-.49,1.44-.86,2.2-1.19,4.58-2.02,8.73-4.7,12.43-8.07,4.05-3.69,8.17-7.31,12.1-11.13,5.05-4.92,9.37-10.46,13.06-16.48.24-.38.47-.77.69-1.16.09-.17.15-.35.35-.82-.51.27-.82.4-1.08.58-2.21,1.56-4.46,3.07-6.59,4.73-2.58,2.03-5.04,4.23-7.58,6.31-1.64,1.34-3.31,2.67-5.04,3.9-3.26,2.31-6.57,4.55-9.87,6.8-.36.24-.63.29-1.03.47,1.86-2.05,3.73-3.89,5.45-6.06,4.82-6.06,9.74-12.06,14.21-18.38,3.08-4.35,5.75-9.01,8-13.9,3.24-7.05,7.06-13.76,12.14-19.71,2.97-3.48,5.62-7.24,8.41-10.87.35-.45.68-.91,1.09-1.44.09.31.18.49.18.68.13,3.42.23,6.83.37,10.25.24,5.96-.53,11.84-1.61,17.68-.73,3.98-1.53,7.96-2.38,11.92-1.35,6.25-3.48,12.26-5.61,18.27-1.53,4.32-3.28,8.55-5.38,12.63-1.24,2.41-2.53,4.79-3.77,7.19-.34.66-.8,1.32-.52,2.4.65-.71,1.2-1.24,1.66-1.84,6.55-8.29,12.13-17.18,16.41-26.85,1.18-2.65,2.59-5.14,4.58-7.3-2.1,5.3-3.77,10.77-6.4,15.84Zm7.63-84.43c-2.04,3.52-4.57,6.71-6.93,10.02-3.14,4.41-6.13,8.93-9.14,13.43-6.2,9.27-12.38,18.56-18.55,27.86-4.92,7.41-9.81,14.85-14.74,22.26-.27.4-.62.65-.96,1.01.08-.43.07-.8.25-1.19,2.38-5.2,4.71-10.42,7.2-15.57,1.26-2.6,2.83-5.04,4.24-7.57,1.65-2.98,3.29-5.96,4.9-8.96,1.4-2.61,2.76-5.23,4.12-7.86.2-.39.33-.81.47-1.23-1.62,1.83-3.26,3.64-4.87,5.48-4.07,4.67-8.14,9.33-12.18,14.02-3.37,3.91-6.66,7.88-10.03,11.79-2.65,3.08-5.37,6.1-8.08,9.12-.32.36-.76.61-1.15.9.76-1.48,1.49-2.97,2.27-4.43,4.13-7.68,9.29-14.68,14.6-21.57,5.07-6.58,10.19-13.13,15.4-19.6,2.54-3.16,5.32-6.14,8.06-9.13.77-.84,1.76-1.5,2.69-2.19,2.89-2.16,5.86-4.21,8.68-6.46,5-3.98,9.61-8.38,13.95-13.07.95-1.02,1.83-1.84,2.81-2.83-1.02,1.99-1.88,3.84-3,5.78Z"/><path class="cls-2" d="m378.67,460.59c-.29.5-.64,1.01-.1,1.61.58.1.93-.27,1.27-.66,1.4-1.6,2.84-3.18,4.19-4.82,1.48-1.8,2.69-3.78,3.6-5.94,1.89-4.46,2.21-8.98.31-13.52-1.47-3.5-4.12-5.71-7.79-6.65-3.08-.79-6.15-.38-9.19.22-4.15.83-7.99,2.48-11.59,4.66-3.69,2.24-7.32,4.59-10.94,6.95-7.69,5.01-14.84,10.76-22.09,16.35-.44.34-.78.81-1.15,1.23.41-.18.81-.35,1.2-.57,5.27-3,10.51-6.05,15.81-9,8.3-4.62,16.99-8.34,26.16-10.87,3.23-.89,6.46-1.69,9.89-1,1.46.29,2.49.92,3.23,2.16,1.43,2.38,1.8,4.99,1.35,7.64-.74,4.27-1.99,8.39-4.16,12.19Z"/><path class="cls-2" d="m397.77,508.12c-.21,2.7-.14,5.42.69,8.05.16.52.4,1.02.69,1.76,1.29-1.35,1.82-2.79,2.33-4.22,1.43-4.07,2.91-8.12,4.2-12.23,1.3-4.15,3.19-8,5.38-11.73,2.51-4.28,4.99-8.58,7.39-12.92,3.14-5.68,5.57-11.61,5.77-18.24.05-1.61.11-2.03-.34-3.22-.23.38-.43.69-.62,1-1.14,1.87-2.19,3.81-3.44,5.6-3.66,5.23-7.48,10.36-11.08,15.63-4.1,5.99-7.17,12.5-9.18,19.5-1.04,3.61-1.49,7.31-1.77,11.03Z"/><path class="cls-2" d="m314.61,303.35c2.41-1.5,2.77-2.68,2.27-5.57-.29-1.71-.46-3.46-.43-5.19.04-2.05.32-4.11.55-6.15.55-4.97,1.89-9.71,4.2-14.17,2.48-4.79,5.65-9.08,9.26-13.07.44-.49,1.08-.86,1.3-1.8-5.75,3.27-10.35,7.44-13.74,12.83-5.35,8.5-8.61,17.57-7.02,27.83-1.38,1.82-2.66,3.6-4.03,5.31-4.72,5.89-9.48,11.75-14.2,17.64-.35.44-.6.95-.88,1.45.47-.3.98-.57,1.39-.94,3.53-3.21,7.03-6.47,10.57-9.67,3.4-3.08,6.86-6.06,10.77-8.5Z"/><path class="cls-2" d="m418.72,434.49c-2.76,5.24-5.67,10.41-8.57,15.58-1.86,3.31-3.83,6.57-5.74,9.85-.04.07.04.22.1.43,3.13-2.65,6.46-5,9.16-8.08.25-.29.5-.59.75-.89,5.62-7.06,9.5-14.99,11.69-23.73.83-3.32,1.38-6.7.98-10.14-.22-1.92-.48-3.83-.77-5.73-.22-1.48-.31-2.93.18-4.38.14-.42.18-.88.22-1.33.39-4.26-.86-8.16-2.72-11.89-.67-1.35-1.67-2.54-2.65-4-.23.43-.31.54-.35.65-.03.12-.06.27-.02.38.6,1.6.17,3.18-.07,4.76-.7,4.61.03,8.84,3.19,12.47.69.79,1.15,1.69,1.23,2.78.05.7.22,1.4.4,2.09.41,1.62.19,3.19-.31,4.76-1.78,5.66-3.93,11.19-6.69,16.44Z"/><path class="cls-2" d="m286.84,252.99c-6.35-4.84-13.34-7.43-21.47-6.08-3.8.63-7.39,1.76-10.64,3.85-.3.19-.57.44-.86.66.33.25.55.21.77.19,1.61-.12,3.23-.43,4.82-.31,2.69.19,5.39.54,8.04,1.04,3.15.59,6.32,1.21,9.3,2.47,4.15,1.76,7.76,4.32,11.13,7.26,1.99,1.74,3.95,3.52,5.95,5.25.47.41.9.97,1.92.79.12-.36.3-.71.34-1.07.17-1.32-.2-2.54-.73-3.74-1.85-4.27-4.93-7.53-8.57-10.31Z"/><path class="cls-2" d="m240.56,350.53c2.64-2.84,5.22-5.72,7.84-8.57.64-.7,1.34-1.36,2-2.03,1.49-.73,2.93-1.59,4.47-2.16,1.83-.68,3.51-1.59,5.1-2.7,8.7-6.07,16.54-13.12,23.81-20.81,2.21-2.34,4.24-4.84,6.32-7.3.27-.32.4-.75.59-1.14-.38.21-.78.39-1.11.66-6.48,5.2-12.92,10.46-19.44,15.61-3.33,2.64-6.85,5.04-10.2,7.66-2.18,1.7-4.43,3.36-6.07,5.64-1.02,1.41-1.9,2.91-3.3,4-.12.1-.12.34-.18.52-1.14.58-2.27,1.19-3.42,1.75-4.55,2.22-8.79,4.91-12.61,8.24-2.82,2.46-5.61,4.96-8.37,7.49-5.09,4.68-10.12,9.4-15.2,14.09-3.23,2.97-6.38,6.04-10.14,8.37-.21.13-.35.38-.52.57,1.01-.09,1.81-.44,2.58-.86,2.38-1.3,4.75-2.61,7.11-3.95,2.35-1.34,4.74-2.63,7.02-4.08,9.04-5.71,16.5-13.22,23.72-20.99Z"/><path class="cls-2" d="m440.21,403.33c-.31-.78-.58-1.57-.81-2.38-.63-2.23-1.23-4.47-1.83-6.71-.21-.8-.32-1.65-1.28-1.97-.5.61-.18,1.14,0,1.67.46,1.27.89,2.56,1.4,3.81.57,1.4.75,2.84.78,4.35.04,2.34-.48,4.61-.79,6.9-1,7.44-3.03,14.62-5.69,21.61-1.69,4.46-3.66,8.81-4.96,13.41-.18.63-.33,1.27-.5,1.91,2.48-2.99,4.68-6.07,6.88-9.16.19-.26.35-.54.5-.83,3.93-7.33,6.76-15,7.61-23.35.33-3.24-.14-6.28-1.32-9.27Z"/><path class="cls-2" d="m348.87,269.63c.62-1.68,1.28-3.34,1.93-5.01-.11-.08-.23-.15-.34-.23-3.3,3.64-6.13,7.59-8.16,12.1-1.98,4.4-3,9.03-3.41,13.8-.17,1.99-.18,4,.32,5.97.31,1.23.83,2.33,2.09,2.84,1.91.77,3.93-.43,4.02-2.57.1-2.44.01-4.91-.18-7.34-.23-2.85.04-5.67.41-8.47.51-3.86,1.99-7.45,3.32-11.08Z"/><path class="cls-2" d="m274.8,334.51c.26-.3.45-.67.67-1.01-.41-.02-.64.09-.84.24-5.04,3.92-10.15,7.75-15.1,11.78-4.19,3.42-8.25,7.02-12.27,10.64-2.63,2.37-5,5.05-7.66,7.39-6.15,5.41-12.51,10.57-19.34,15.13-.61.41-1.1.99-1.65,1.5.51-.23,1.06-.39,1.53-.69,6.11-3.87,11.87-8.22,17.37-12.92,3.34-2.86,6.92-5.37,10.9-7.3,1.44-.7,2.86-1.53,4.12-2.51,2.23-1.74,4.41-3.58,6.49-5.5,5.64-5.23,10.77-10.93,15.78-16.75Z"/><path class="cls-2" d="m394.61,483.97c-.32.52-.54.87-.75,1.23-.49.83-.88,1.73-1.47,2.48-1.45,1.84-2.58,3.84-3.43,6.01-2.34,5.98-3.87,12.11-3.64,18.59.09,2.57.21,5.14.33,7.71.02.46.07.93.1,1.39.62-1.27.99-2.56,1.45-3.82,2.18-5.98,3.96-12.08,5.55-18.24.98-3.8,1.95-7.6,1.76-11.58-.03-.57.14-1.14.24-1.71.1-.61.28-1.23-.15-2.07Z"/><path class="cls-2" d="m300.23,366.82c.79-1.24,1.66-2.42,2.49-3.65-2.45.6-4.75,1.52-6.92,2.84-3.21,1.96-6.12,4.28-8.85,6.85-1.93,1.81-3.96,3.51-5.86,5.34-2.93,2.81-5.85,5.64-8.67,8.56-1.59,1.65-2.97,3.5-4.03,5.58,1.17-.77,2.23-1.66,3.33-2.51,7.72-5.92,15.47-11.82,23.18-17.75,1.99-1.53,3.96-3.1,5.34-5.28Z"/><path class="cls-2" d="m439.02,462.49c-.14-3.1-.29-6.17-.43-9.38-.31.39-.56.68-.79.99-5.84,7.96-11.25,16.19-16.05,24.82-.59,1.07-1.11,2.18-1.62,3.29-.14.3-.17.65-.29,1.15,1.91-1.32,16.02-16.74,19.18-20.87Z"/><path class="cls-2" d="m372.13,382.16c1.03-4.06,1.3-7.69,1.01-11.35.04-3.57-2.97-7.37-6.12-4.74-.45.37-.75.91-.79,1.49-.06.88.18,1.66.51,2.44,1.5,3.56,2.96,7.13,4.46,10.68.16.39.45.72.92,1.48Z"/><path class="cls-2" d="m435.14,518.74c1.4-4.04,3.74-7.47,6.68-10.54.84-.87,1.53-1.89,2.27-2.81-.58-2.15-1.13-4.16-1.7-6.29-3.45,4.15-8,16.01-7.74,20.33.29-.4.45-.53.51-.69Z"/><path class="cls-2" d="m275.49,473.62c-.25-.91-1.12-1.57-2.19-1.56-.57,0-1.17.09-1.7.29-1.86.71-3.72,1.44-5.53,2.27-1.15.52-2.21,1.23-3.31,1.85,3.18,1.15,6.25,1.16,9.3.48.86-.19,1.73-.54,2.49-.99.89-.53,1.18-1.49.94-2.35Z"/><path class="cls-2" d="m257.98,454.53c-.64-.21-1.27-.56-1.93-.61-.95-.07-1.93,0-2.88.13-3.24.45-6.46.95-9.69,1.45-.22.03-.42.17-.88.37,3.57,1.1,6.91,1.9,10.36,2.11,1.13.07,2.31-.12,3.42-.39,1.48-.35,1.82-1.04,1.6-3.06Z"/><path class="cls-2" d="m291.15,465.84c-3.32,1.74-6.25,4.04-9.28,6.21.04.13.08.27.13.4,1.07-.15,2.15-.27,3.22-.45,2.36-.4,4.65-1.05,6.76-2.2,1.15-.63,2.19-1.38,2.49-2.92-.19-.36-.41-.81-.59-1.16-1.03-.45-1.89-.32-2.73.12Z"/><path class="cls-2" d="m249.32,476.27c-.06-1.18-.8-1.89-2.2-1.92-1.02-.02-2.07.01-3.07.2-2.23.43-4.45,1.26-6.74,1.33-.2,0-.24.28-.05.36,1.68.65,3.33,1.41,5.03,1.99,1.61.55,3.29.57,4.96.37,1.36-.17,2.15-1.11,2.08-2.32Z"/><path class="cls-2" d="m271.67,488.03c-.57-.02-1.17.05-1.71.23-2.08.66-4.14,1.39-6.21,2.09,0,.13,0,.26.01.39,1.15.36,2.29.8,3.47,1.04,1.19.25,2.41.36,3.62.43.49.03,1.03-.12,1.49-.31,1.07-.45,1.52-1.32,1.3-2.31-.19-.85-.97-1.52-1.97-1.55Z"/><path class="cls-2" d="m277.65,453.9c.59-.61.77-1.34.46-1.93-.33-.64-.89-.95-1.59-.9-.57.04-1.18.1-1.69.33-1.94.85-3.62,2.11-5.67,3.73,2.93.25,5.38.58,7.74-.63.28-.14.53-.37.75-.6Z"/><path class="cls-2" d="m252.36,490.97c.94.08,1.76-.27,2.26-1.12-.09-1.51-.37-1.95-1.59-2.19-.62-.12-1.28-.16-1.91-.13-1.98.1-4,.47-5.97.6,1.42.7,2.76,1.7,4.22,2.27.93.36,1.98.48,2.99.57Z"/><path class="cls-2" d="m229.36,455.81c1.17-.29,1.29-.76,1.03-2.29-2.4-1.18-6.44-.89-8.45.56,1.38.86,2.8,1.63,4.41,1.84.99.13,2.05.12,3.01-.12Z"/><path class="cls-2" d="m219.85,471.82c1.46,1.45,2.63,2.19,4.02,2.35.96.05,2.1-.08,2.49-1.1-1.4-1.79-3.65-2.22-6.51-1.25Z"/><path class="cls-2" d="m475.43,340.83c-.02.4-.13.39.18,1.33.99,3,2.52,5.8,4.02,8.58,3.01,5.6,6.71,10.72,11.36,15.09,3.77,3.54,7.84,6.71,12.11,9.62,6.5,4.43,13.04,8.8,19.45,13.35,6.99,4.97,13.08,10.89,18.09,17.88,6.46,9.01,11.34,18.86,15.54,29.07.75,1.83,1.36,3.72,2.15,5.89.2-.67.39-1.02.41-1.38.25-3.87.24-7.74-.43-11.57-.91-5.22-2.54-10.22-4.55-15.12-3.7-9.01-8.96-16.94-16.05-23.66-4.6-4.36-9.61-8.21-14.83-11.78-7.45-5.09-14.99-10.05-22.43-15.16-3.34-2.3-6.71-4.62-9.74-7.29-4.11-3.62-7.91-7.59-11.82-11.44-1.14-1.12-2.36-2.23-3.45-3.39Z"/><path class="cls-2" d="m481.11,405.25c-.68-1.94-1.51-3.83-2.38-5.7-2.42-5.19-4.25-10.59-5.97-16.05-1-3.17-1.58-6.34-1.61-9.65,0-1.48-.19-2.96-.33-4.44-.02-.27-.19-.53-.34-.89-1.09.81-1.49,1.84-1.8,2.87-.46,1.54-.84,3.11-1.21,4.67-.68,2.86-.32,5.78-.4,8.67-.05,1.82.23,3.59.66,5.35,1.86,7.56,3.38,15.16,3.74,22.99.19,4.09,0,8.13-.62,12.13-.91,5.86-2.36,11.6-4.4,17.19-.17.48-.28.98-.41,1.47,4.46-6.36,9.63-14.24,12.09-24.86,1.09,3.94,1.91,7.8,2.02,11.71.16,5.74.17,11.49-.11,17.23-.21,4.41.32,8.72.82,13.06.02.17.17.33.37.69.89-1.49,1.73-2.84,2.51-4.22,2.96-5.27,4.24-11,4.59-16.99.41-7.14-.21-14.16-2.39-20.99-1.52-4.77-3.16-9.51-4.83-14.24Z"/><path class="cls-2" d="m449.39,306.07c-2.09-2.53-3.32-5.55-4.33-8.59-1.66-4.98-4.19-9.43-7.56-13.38-4.45-5.21-9.86-8.99-16.53-10.93-4.36-1.27-8.77-1.59-13.26-1.47-2.96.08-5.91.53-8.71,1.49-7.04,2.42-12.51,6.81-16.89,12.62-3.54,4.69-5.34,10.16-6.88,15.71-.48,1.71-.75,3.47-.95,5.23-.39,3.44-1.65,5.89-2.93,9.09-.43,1.06.07,1.14.56,1.88,4.58-2.95,12.64-5.76,16.08-5.58,1.23,2.25,2.89,4.21,4.76,6.02,1.92,1.85,4.01,3.46,6.44,4.58,2.69,1.24,5.91,2,7.41,1.74-3.71-1.82-6.37-4.62-8.65-7.78-1.5-2.09-2.85-4.3-4.14-6.53-2.41-4.15-4.25-8.5-4.52-13.41-.14-2.47.06-4.88.52-7.29.22-1.19.87-1.49,2.05-1.83,0,0-.34,3.89.41,8.28,1.48,9,7.27,16.84,14.56,22.28.85.55,2.06.72,3.23.6-.34-.49-1.83-2.11-2.06-2.56-1.86-3.68-3.6-6.02-4.83-9.98-.74-2.4-1.53-4.81-1.65-7.33-.22-4.85,1.21-9.33,3.78-13.36,2.57-3.91,7.28-5.81,11.91-4.64,3.49.96,6.79,2.29,9.83,4.59-.51.22-.9.39-1.28.55-2.7,1.17-5.01,3.14-6.41,5.72-4.04,6.35-1.4,14.76,6.02,16.91,1.85.6,3.82.64,5.76.44,1.96-.2,3.73-.87,5.29-2.16,2.33-1.91,3.84-4.29,4.44-7.55,1.24,1.7.86,3.17.42,5.59-1.66,7.89-7.92,13.74-14.51,17.79-1.74,1.11-3.7,1.8-5.78,2.08-1.08.15-2.15.42-3.22.67-.33.08-.64.26-1.16.48,2.79,1.03,5.35.48,7.9.24,2.61-.24,5-1.2,7.37-2.22,2.39-1.03,4.57-2.4,6.58-4.04,2.02-1.64,3.67-3.62,5.15-5.76,1.46-2.12,2.27-4.55,3.22-7.08,1.84,1.48,3.07,3.43,5.44,3.82.14-1.25-.46-2.1-1.09-2.91-.55-.71-1.21-1.35-1.78-2.04Z"/><path class="cls-2" d="m411.71,338.45c-7.93-1.96-15.21-5.18-21.39-10.64-1.3-1.15-2.62-2.29-3.92-3.45-1.07-.97-2.24-1.39-3.73-.89-.19.06-.4.12-.6.14-1.78.18-3.57.03-5.36.02-.32,0-.65.11-1.29.22,2.36,1.46,4.77,1.71,6.33,2.29,2.08,2.1,3.65,3.81,5.35,5.37,2.48,2.27,5.34,4.04,8.19,5.8,5.88,3.63,12.36,5.42,19.17,5.94,6.49.5,12.46-1.47,18.14-4.48.22-.12.39-.31.59-.47-2.58.58-5.09,1.12-7.67,1.24-4.65.22-9.26.02-13.81-1.1Z"/><path class="cls-2" d="m342.09,173.07c4.5,3.77,9.32,7.11,14.23,10.34,7.13,4.69,14.78,8.13,23.18,9.81.58.12,1.18.12,1.77.16-.56-.35-1.1-.73-1.68-1.03-8.95-4.58-17.91-9.14-25.92-15.32-5.52-4.26-11.13-8.39-15.93-13.49-.88-.94-1.9-1.74-2.88-2.58-.31-.27-.69-.47-1.22-.81-.2,1.46.28,2.5.83,3.49,1.99,3.58,4.48,6.8,7.62,9.42Z"/><path class="cls-2" d="m381.54,193.51l-.13-.12s-.09,0-.14,0c.03.02.06.04.09.06.06.02.12.05.18.07Z"/></g></g><g><path class="cls-2" d="m99.24,682.38c-2.83-4.38-5.76-8.68-8.67-12.98l6.75,71.28,3.76-39.74-1.76-18.56h-.09Z"/><path class="cls-2" d="m47.75,682.22c-2.96-4.19-5.71-8.62-8.66-12.82l6.6,70.95,3.81-40.23-1.65-17.74c-.11.04-.09-.08-.1-.15Z"/><path class="cls-2" d="m64.43,854.44c-.34,1.84-1.94,3.17-3.81,3.17h-31.04c2.53,3.88,5.18,7.63,7.68,11.55h36.23l3.04-16.57-5.94-31.76-6.16,33.61Z"/><path class="cls-2" d="m158.6,682.38c-3.15-4.5-6.19-9.12-9.22-13.74l-28.63,185.7c-.29,1.89-1.92,3.28-3.83,3.28h-31.04c2.53,3.88,5.18,7.63,7.68,11.55h36.23l28.8-186.79Z"/><path class="cls-2" d="m559.12,808.22v-95.74c0-9.6-.86-10.43-5.23-10.43h-1.89v116.61h1.89c4.38,0,5.23-.84,5.23-10.43Z"/><path class="cls-2" d="m606.43,809.71c0,31.34-14.77,47.91-42.7,47.91h-49.97c2.36,3.67,5.29,7.74,7.66,11.55h55.18c28.8,0,38.7-18.72,38.82-43.58-2.07-9.63-2.07-19.64-2.07-27.77v-23.23c0-7.85,0-17.53,2.08-26.84v-21.34c-.08-11.85-2.18-21.79-6.89-29.21-1.7-2.54-3.41-5.08-5.11-7.63,1.92,6.09,2.93,13.21,2.99,21.39v98.74Z"/><path class="cls-2" d="m326.59,704.27h-155.42c2.51,3.89,5.2,7.61,7.66,11.55h147.76v-11.55Z"/><path class="cls-2" d="m373.9,840.18l.19,13.51c.02,1.04-.39,2.03-1.11,2.77-.73.74-1.72,1.15-2.76,1.15h-34.74c2.51,3.89,5.2,7.61,7.66,11.55h39.95l-.19-13.56v-139.78h118.09v-33.44c-3.06-4.41-6.05-8.91-9-13.43v31.46c0,2.14-1.73,3.87-3.87,3.87h-114.22v135.91Z"/><path class="cls-2" d="m664.05,820.52c2.82,0,3.56-.57,3.56-14.34v-37.72c0-13.1-.63-14.34-3.56-14.34s-3.56,1.23-3.56,14.34v37.72c0,13.77.74,14.34,3.56,14.34Z"/><path class="cls-2" d="m714.75,797.82c0,25.14,0,63.14-50.69,63.14-10.43,0-18.69-1.69-25.27-4.56,4.3,6.23,10.73,11.21,20.34,13.9h36.29c22.74-6.27,27.24-24.97,28.12-44.06-2.04-10.07-2.05-20.48-2.05-28.43v-20.81c0-3.79,0-8.15.26-12.75-1.25-5.83-3.27-11.28-6.58-15.94-1.43-2.14-2.86-4.28-4.3-6.42,3.86,11.43,3.87,24.43,3.87,35.11v20.81Z"/><path class="cls-2" d="m199.35,722.88l-.16,11.63v33.05h7.12c-.02-1.28.03-33.08-.02-34.3-2.33-3.44-4.65-6.9-6.95-10.38Z"/><path class="cls-2" d="m262.82,736.31c-3.08-4.4-6.02-8.95-9.03-13.43l-.16,11.63v105.67l.18,13.51c.01,1.04-.39,2.03-1.12,2.77-.73.74-1.72,1.15-2.75,1.15h-34.73c2.51,3.89,5.2,7.61,7.66,11.55h39.95l-.18-13.56v-105.72l.18-13.56Z"/><path class="cls-2" d="m208.38,869.16l-.16-12c-.35-.18-.69-.41-.97-.7-.73-.74-1.13-1.74-1.12-2.77l.18-13.56v-33.79h-7.12c0,9.51-.05,38.32.18,47.36.01,1.04-.39,2.03-1.12,2.77-.73.74-1.72,1.15-2.75,1.15h-34.55c2.51,3.89,5.2,7.61,7.66,11.55h39.76Z"/><path class="cls-2" d="m323,736.31c-3.08-4.4-6.02-8.95-9.03-13.43l-.16,11.63v105.67l.18,13.51c.01,1.04-.39,2.03-1.12,2.77-.73.74-1.72,1.15-2.75,1.15h-34.55c2.51,3.89,5.2,7.61,7.66,11.55h39.76l-.18-13.56v-105.72l.18-13.56Z"/><path class="cls-2" d="m466.73,774.9v26.07c0,2.14-1.73,3.87-3.87,3.87h-28.64v12.33h9v-.78h32.51v-28.06c-3.06-4.41-6.04-8.92-9-13.43Z"/><path class="cls-2" d="m470.44,722.88v30.72c0,2.14-1.73,3.87-3.87,3.87h-32.36v11.58h9v-.03h36.23v-32.7c-3.06-4.41-6.04-8.92-9-13.43Z"/><path class="cls-2" d="m479.82,869.16v-32.7c-3.06-4.41-6.04-8.92-9-13.43v30.72c0,2.14-1.73,3.87-3.87,3.87h-70.97c2.51,3.89,5.2,7.61,7.66,11.55h76.18Z"/><path class="cls-2" d="m780.38,811.01v-1.7h-8.21c-1.6,0-2.97-.97-3.56-2.35.03,13.92.87,15.05,5.23,15.05,5.59,0,6.53-2.74,6.53-10.99Z"/><path class="cls-2" d="m746.91,858.12c.04.05.07.1.1.15.03.05.07.1.1.15,3.62,5.29,8.72,9.48,15.87,11.88h27.61v-16.98c-6.87,5.13-15.29,7.64-25.49,7.64-7.31,0-13.38-1.17-18.44-3.2.01.02.02.04.04.05.04.05.07.1.1.15.03.05.07.1.1.15Z"/><path class="cls-2" d="m832.99,795.58v127.45H37.27c-2.47-3.93-5.15-7.66-7.66-11.55h790.51c2.14,0,3.87-1.73,3.87-3.87v-127.45c0-2.14-1.73-3.87-3.87-3.87h-47.94c-1.6,0-2.97.97-3.56,2.35v-12.05c0-12.08.73-13.22,4.12-13.22s4.12.49,4.12,12.29v2.97c0,.28.03.55.09.81.02.07.05.14.07.22.05.18.11.37.18.54.04.08.08.15.12.23.08.15.16.3.26.44.06.08.13.16.19.23.1.12.2.23.31.34.69.65,1.62,1.05,2.64,1.05h39.39c2.14,0,3.87-1.73,3.87-3.87v-2.04c0-5-.01-13.9-2.86-23,0,.01.02.03.03.04.03.05.07.1.1.15,1.4,2.09,2.79,4.17,4.19,6.26.03.05.07.1.1.15,6.45,9.89,7.44,22.21,7.44,31.82v2.04h-7.77l7.77,11.52Z"/><path class="cls-2" d="m66.19,801.39c.34-1.84,1.94-3.17,3.81-3.17h.93c1.86,0,3.46,1.33,3.81,3.16l9.07,48.49h29.7l27.61-179.05h-29.5l-10.07,106.36c-.19,1.99-1.86,3.51-3.85,3.51h-.93c-2,0-3.66-1.52-3.85-3.51l-10.07-106.36h-22.88l-10.07,106.36c-.19,1.99-1.86,3.51-3.85,3.51h-.93c-2,0-3.67-1.52-3.85-3.51l-9.9-106.35H0l27.6,179.05h29.69l8.89-48.48Z"/><path class="cls-2" d="m213.81,849.87h32.1l-.13-9.64v-105.78l.13-9.69h-32.1l.13,9.64v37.03c0,2.14-1.73,3.87-3.87,3.87h-14.86c-2.14,0-3.87-1.73-3.87-3.87v-36.97l.13-9.69h-31.91l.13,9.64v105.78l-.13,9.69h31.91l-.13-9.64v-37.77c0-2.14,1.73-3.87,3.87-3.87h14.86c2.14,0,3.87,1.73,3.87,3.87v37.72l-.13,9.69Z"/><polygon class="cls-2" points="274.19 849.87 306.1 849.87 305.97 840.23 305.97 734.46 306.1 724.77 274.19 724.77 274.32 734.41 274.32 840.18 274.19 849.87"/><path class="cls-2" d="m334.22,700.4v139.83l-.13,9.64h32.1l-.13-9.64v-139.83c0-2.14,1.73-3.87,3.87-3.87h114.22v-25.7H169.72v25.7h160.63c2.14,0,3.87,1.73,3.87,3.87Z"/><path class="cls-2" d="m394.58,849.87h68.39v-24.96h-32.73c-2.14,0-3.87-1.73-3.87-3.87v-20.07c0-2.14,1.73-3.87,3.87-3.87h28.64v-20.32h-28.64c-2.14,0-3.87-1.73-3.87-3.87v-19.32c0-2.14,1.73-3.87,3.87-3.87h32.36v-24.96h-68.01l.13,9.64v105.78l-.13,9.69Z"/><path class="cls-2" d="m563.62,849.87c23.53,0,34.96-13.14,34.96-40.16v-98.72c-.19-27.39-11.3-40.16-34.96-40.16h-51.2l.07,2.28v167.08s-.13,9.69-.13,9.69h51.26Zm-19.48-151.7c0-2.14,1.73-3.87,3.87-3.87h5.76c12.97,0,12.97,10.51,12.97,18.18v95.74c0,7.67,0,18.18-12.97,18.18h-5.76c-2.14,0-3.87-1.73-3.87-3.87v-124.35Z"/><path class="cls-2" d="m664.05,853.22c42.95,0,42.95-29.43,42.95-55.4v-20.81c0-26.06,0-55.59-42.95-55.59s-42.95,29.48-42.95,53.17v23.23c0,29.2,3.29,55.4,42.95,55.4Zm-11.3-84.76c0-11.85,0-22.08,11.3-22.08s11.3,10.23,11.3,22.08v37.72c0,11.85,0,22.08-11.3,22.08s-11.3-10.23-11.3-22.08v-37.72Z"/><path class="cls-2" d="m816.24,784.04h-40.2v17.53h8.21c2.14,0,3.87,1.73,3.87,3.87v5.57c0,3.38,0,7.6-1.63,11.29-1.5,3.39-4.91,7.44-12.64,7.44-12.97,0-12.97-10.92-12.97-23.57v-39.58c0-10.31,0-20.96,11.86-20.96s11.85,9.98,11.86,19.14h31.64c-.3-20.58-6.02-43.35-43.31-43.35-40.35,0-43.7,26.29-43.7,55.59v20.81c0,28.03,2.77,55.4,35.89,55.4,11.42,0,20.05-3.73,26.37-11.41,1.04-1.26,2.76-1.74,4.3-1.18,1.54.55,2.56,2.01,2.56,3.64v29.9c0,2.14-1.73,3.87-3.87,3.87H28.26v25.7h787.98v-119.71Z"/><g><path class="cls-2" d="m.42,625.31c2.19-4.37,5.42-10.02,7.27-12.91.81-1.27,1.38-1.61,1.96-1.61,1.84,0,6.22,2.19,8.18,4.15,1.38,1.39,1.27,2.77.23,4.61-1.27,2.31-3.58,6.11-5.3,7.61-1.27,1.04-2.53,1.38-4.26,1.38s-6.81-.92-7.72-1.27c-.81-.35-.81-.92-.35-1.96Z"/><path class="cls-2" d="m18.65,651.02c9.22-15.33,26.28-40.8,44.95-68.13-8.18,1.27-16.48,2.65-23.86,3.92-1.96.34-2.31-.12-1.84-1.04,1.49-3.34,2.3-6.11,3.57-7.72,1.96-2.42,3.69-3.91,8.88-4.72,4.04-.69,12.45-1.61,21.33-2.42,1.04-1.5,1.73-2.66,2.31-3.58,1.15-1.73,1.73-1.84,3.8-.81,1.5.81,3.58,2.07,5.65,3.46,5.53-.35,10.61-.58,14.41-.58,3.11,0,5.07,1.04,7.38,2.53,2.77,1.85,3.8,2.53,3.8,3.34,0,.47-.46.81-1.38.93-4.27.57-12.92,1.84-23.29,3.45-7.61,12.22-31.24,47.15-46.69,67.32-2.77,3.58-4.72,4.16-7.49,4.16-5.76.23-8.53,1.27-10.84,1.27-.69,0-1.38-.23-.69-1.39Z"/><path class="cls-2" d="m99.94,645.49c-2.88-2.88-3.8-6.35-2.07-10.38,2.88-6.22,8.76-13.14,11.99-19.25-5.07,3.46-12.45,9.8-19.94,17.76-1.15,2.07-2.42,4.15-3.58,6.34-3.58,6.46-4.5,7.72-6.22,7.72-1.27,0-3.46-.57-6.35-1.84-3.69-1.61-5.07-3.23-5.07-5.65,0-3.12,2.53-7.5,8.3-16.37,11.87-18.22,26.17-39.42,36.32-55.22,1.15-1.61,1.61-1.61,2.65-1.27,2.88.81,5.76,1.96,7.15,2.88,2.65,1.73,2.3,7.72-4.84,17.64-4.84,6.68-10.72,15.56-19.25,29.86,8.18-5.88,15.68-10.26,18.79-10.26,1.73,0,3.45.69,5.18,2.31,2.77,2.41,2.88,4.5,1.15,8.41-2.65,6.22-11.41,17.87-12.22,23.4,5.54-1.5,11.76-6.34,20.29-17.75l.35-.46c.81-1.04,1.03-1.15,1.38-.81l.35.35c.81.81.69,1.38.23,2.19l-.34.57c-8.07,13.38-19.95,23.29-26.86,23.29-2.99,0-4.84-1.03-7.38-3.45Z"/><path class="cls-2" d="m132.14,642.02c-4.04-4.72-5.54-12.1,2.88-23.17,6-7.84,16.48-14.41,23.97-14.41,2.31,0,4.16.81,5.89,1.95,1.73,1.15,2.65,1.74,3.69,3.23,2.19,1.73,3.91,4.38,3.91,6.81,0,3.45-2.07,6.8-9.8,11.76-4.03,2.53-10.26,5.29-18.44,8.06-.57,2.66-.34,4.73.81,5.76.46.12.93.12,1.39.12,3.45,0,10.83-2.77,16.37-6.81,1.03-.81,1.49-.81,1.49,0,0,1.73-.92,4.15-1.95,5.3-4.27,4.72-11.07,8.88-17.3,8.88-4.37,0-7.95-1.61-12.91-7.5Zm33.2-29.28c-6.35,1.38-14.87,9.91-18.9,17.86,5.18-2.19,9.91-4.61,13.02-6.91,4.27-3.12,7.04-6.92,5.89-10.95Z"/><path class="cls-2" d="m181.26,625.31c2.19-4.37,5.42-10.02,7.27-12.91.81-1.27,1.38-1.61,1.96-1.61,1.84,0,6.22,2.19,8.18,4.15,1.38,1.39,1.27,2.77.23,4.61-1.27,2.31-3.58,6.11-5.3,7.61-1.27,1.04-2.53,1.38-4.26,1.38s-6.81-.92-7.72-1.27c-.81-.35-.81-.92-.35-1.96Z"/></g><g><path class="cls-2" d="m181.26,997.71c2.19-4.37,5.42-10.02,7.27-12.91.81-1.27,1.38-1.61,1.96-1.61,1.84,0,6.22,2.19,8.18,4.15,1.38,1.39,1.27,2.77.23,4.61-1.27,2.31-3.58,6.11-5.3,7.61-1.27,1.04-2.53,1.38-4.26,1.38s-6.81-.92-7.72-1.27c-.81-.35-.81-.92-.35-1.96Z"/><path class="cls-2" d="m199.49,1023.42c9.22-15.33,26.28-40.8,44.95-68.13-8.18,1.27-16.48,2.65-23.86,3.92-1.96.34-2.31-.12-1.84-1.04,1.49-3.34,2.3-6.11,3.57-7.72,1.96-2.42,3.69-3.91,8.88-4.72,4.04-.69,12.45-1.61,21.33-2.42,1.04-1.5,1.73-2.66,2.31-3.58,1.15-1.73,1.73-1.84,3.8-.81,1.5.81,3.58,2.07,5.65,3.46,5.53-.35,10.61-.58,14.41-.58,3.11,0,5.07,1.04,7.38,2.53,2.77,1.85,3.8,2.53,3.8,3.34,0,.47-.46.81-1.38.93-4.27.57-12.92,1.84-23.29,3.45-7.61,12.22-31.24,47.15-46.69,67.32-2.77,3.58-4.72,4.16-7.49,4.16-5.76.23-8.53,1.27-10.84,1.27-.69,0-1.38-.23-.69-1.39Z"/><path class="cls-2" d="m279.98,1007.75c-6.22,8.64-11.3,12.1-14.99,12.1-4.61,0-9.22-3.8-11.99-8.64-2.53-4.37-2.3-10.26,4.15-18.67,7.5-9.8,18.9-15.68,25.47-15.68,3.46,0,6.35,3.11,8.18,6.22.69-.92,1.28-1.39,2.54-1.39,1.03,0,3.11.58,6.57,2.2,2.65,1.27,3.8,2.65,3.8,3.91,0,1.5-.92,3.81-4.61,11.3-2.31,4.84-4.38,9.69-4.73,12.91,5.08-1.15,10.15-5.18,18.22-15.79l.34-.46c.81-1.04,1.04-1.15,1.39-.81l.35.35c.81.81.69,1.38.23,2.19l-.35.57c-7.72,12.8-18.21,22.59-27.31,22.59-5.3,0-9.23-3.11-7.27-12.91Zm8.88-21.33c-4.96,1.27-9.91,4.61-13.84,8.53-5.42,5.42-8.99,11.99-8.3,16.6,6.8-2.42,13.6-9.45,22.13-25.13Z"/><path class="cls-2" d="m321.74,1022.04c-2.53,0-5.88-.81-9.1-4.27-4.96-5.18-4.96-10.26,2.42-21.55,2.99-4.61,5.65-8.77,8.18-12.46-1.5-.11-2.42-.46-3.23-1.15-1.5-1.15-2.65-3.58-2.65-4.5,0-.46.35-.93,1.84-1.15,3.23-.35,6.22-.69,9.23-.92,4.26-6.35,8.18-11.87,12.68-17.76,3.45-4.61,4.83-5.53,5.76-5.53,1.61,0,2.19,1.84,4.26,3.69,4.96,4.15,3.8,6.8-4.04,18.56l15.56-.69c4.04-5.99,8.3-12.45,12.46-19.02.69-.92,1.15-1.38,2.88-.69,1.49.58,3.57,1.15,5.76,1.74,1.95.46,3.11,1.49,3.11,3.34,0,3.69-2.42,8.52-5.76,14.06,3-.11,5.65-.11,7.72-.11,1.38,0,1.73.35,1.73.92,0,.69-1.03,1.5-1.73,2.31s-1.5,1.38-5.53,1.84c-1.85.23-3.69.35-5.77.58-7.72,11.86-17.29,23.86-18.44,32.27,8.88-.92,15.34-4.61,23.41-15.33l.34-.46c.81-1.04,1.04-1.15,1.39-.81l.35.35c.81.81.69,1.38.23,2.19l-.35.57c-7.84,13.14-21.79,22.02-30.66,22.02-5.43,0-9.34-3.69-10.84-6.46-1.5-2.88-.92-8.06,4.96-17.4,2.88-4.38,6.35-9.56,10.15-15.22-5.42.46-10.83.92-15.8,1.38-12.79,19.36-17.75,27.55-18.44,31.82,3.58-.58,7.85-2.88,11.07-5.76,2.07-1.74,2.54-2.42,3.12-2.42.35,0,.57.23.81.57.35.46.46.69.46,1.15,0,.69-.81,2.42-2.31,4.26-4.49,5.43-10.14,10.03-15.22,10.03Z"/><path class="cls-2" d="m383.33,1015.47c-5.19-5.89-6-13.72,1.5-23.75,6.34-8.42,17.98-15.34,24.78-15.34,2.66,0,4.73.35,7.03,1.74,3.35,2.07,4.15,3.34,4.15,4.04,0,.46-.11.8-1.27,1.49,1.5,1.96,2.42,4.61,2.42,7.84,0,1.04-.11,2.07-.23,3.12,6.57-1.04,12.91-5.3,18.21-10.61l.46-.46c.93-.92,1.27-.81,1.61-.35l.23.35c.46.69.46,1.27-.11,1.96l-.47.57c-4.5,5.54-12.91,12.45-21.55,13.95-4.04,10.03-14.07,20.63-25.47,20.63-4.96,0-8.31-1.84-11.3-5.18Zm29.86-15.45c-4.5-1.15-6.57-4.38-6.92-8.18-7.27,5.88-12.79,13.25-11.99,20.52,6.92-.69,14.41-6.11,18.9-12.33Zm2.99-14.64c-1.84,1.04-3.8,2.2-5.76,3.46.23,3.11,1.96,5.19,5.76,5.76.69-1.73,1.04-3.34,1.04-4.96,0-1.96-.35-3.34-1.04-4.27Z"/><path class="cls-2" d="m431.43,1015.7c-5.07-5.53-6.11-14.06,1.04-23.51,5.76-7.72,15.56-15.33,23.4-15.33,3.8,0,8.3,2.3,9.8,4.61,3.11,1.27,4.61,4.72,4.61,8.87,0,.93-.11,1.85-.23,2.77,7.6-.57,12.91-4.15,17.86-9.1l.46-.46c.93-.92,1.27-.81,1.61-.35l.23.35c.46.69.46,1.27-.11,1.96l-.47.57c-4.03,5.07-11.64,11.07-20.87,11.87-.8,2.42-1.95,4.84-3.22,7.03-5.54,9.57-13.95,15.91-22.83,15.91-4.96,0-8.18-1.96-11.3-5.19Zm11.07-2.99c7.72-1.96,15.34-8.41,19.71-15.22-4.83-1.15-6.8-4.38-6.8-7.49-3.23,2.99-6.57,6.92-9.45,11.53-2.53,3.91-4.04,7.84-3.46,11.18Zm22.13-20.06c.58-1.73.93-3.34.93-4.84,0-1.61-.58-2.88-1.61-3.23-1.04.35-2.2.81-3.46,1.61,0,.23-.11.58-.11,1.04,0,2.42,1.15,4.5,4.26,5.42Z"/><path class="cls-2" d="m512.09,972.7c0-9.1,6.45-15.68,16.37-22.01,11.53-7.38,25.7-12.33,32.27-12.33,4.5,0,7.15,1.73,10.26,5.88,2.77,3.58,2.77,5.42,1.61,5.76-11.99,3.23-22.71,7.27-31.24,11.3-14.64,7.03-18.56,12.1-18.56,16.02,0,2.53,1.96,4.37,5.65,7.03,6.22,4.5,12.21,9.45,12.21,17.18,0,6.34-4.83,12.22-12.1,16.83-9.69,6.11-19.25,8.64-24.33,8.64-4.03,0-6.68-1.73-9.68-4.73-4.84-4.83-4.73-7.84-2.66-8.18,24.09-3.91,37.58-11.64,37.58-19.02,0-3.23-1.73-5.19-5.65-7.95-6.34-4.5-11.75-7.84-11.75-14.42Z"/><path class="cls-2" d="m552.69,1015.7c-5.07-5.53-6.11-14.06,1.04-23.51,5.76-7.72,15.56-15.33,23.4-15.33,3.8,0,8.3,2.3,9.8,4.61,3.11,1.27,4.61,4.72,4.61,8.87,0,.93-.11,1.85-.23,2.77,7.6-.57,12.91-4.15,17.86-9.1l.46-.46c.93-.92,1.27-.81,1.61-.35l.23.35c.46.69.46,1.27-.11,1.96l-.47.57c-4.03,5.07-11.64,11.07-20.87,11.87-.8,2.42-1.95,4.84-3.22,7.03-5.54,9.57-13.95,15.91-22.83,15.91-4.96,0-8.18-1.96-11.3-5.19Zm11.07-2.99c7.72-1.96,15.34-8.41,19.71-15.22-4.83-1.15-6.8-4.38-6.8-7.49-3.23,2.99-6.57,6.92-9.45,11.53-2.53,3.91-4.04,7.84-3.46,11.18Zm22.13-20.06c.58-1.73.93-3.34.93-4.84,0-1.61-.58-2.88-1.61-3.23-1.04.35-2.2.81-3.46,1.61,0,.23-.11.58-.11,1.04,0,2.42,1.15,4.5,4.26,5.42Z"/><path class="cls-2" d="m601.13,1016.39c-6.45-7.84-5.99-15.91,1.5-25.25,8.64-10.48,20.52-15.56,26.06-15.56,2.88,0,4.96,1.5,7.95,5.65,1.85,2.53,2.99,4.73,1.04,5.43-17.87,6.45-28.02,14.98-29.4,25.7.81.23,1.61.35,2.53.35,10.26,0,22.02-5.76,29.97-16.48l.35-.46c.81-1.04,1.04-1.15,1.38-.81l.35.35c.81.81.69,1.38.23,2.19l-.35.57c-6.68,11.19-21.67,22.83-32.16,22.83-3.69,0-6.69-1.27-9.46-4.5Z"/><path class="cls-2" d="m641.17,1019.27c-1.96-1.5-3.45-2.99-4.15-4.5-2.31-4.38-.58-9.56,6.22-18.56,6.35-8.42,10.49-14.76,12.11-17.87,1.38-2.53,1.73-2.88,3.22-2.42,3.12,1.15,6.57,1.85,8.07,2.66,2.88,1.49,3.34,4.96-.57,10.26-5.54,7.27-14.3,18.9-15.45,25.47,4.38-.69,9.1-4.04,13.25-8.42.23-.23.58-.23.69,0,.11.35.23,1.28.23,1.74s-.12,1.15-.93,2.19c-2.99,4.38-9.45,11.87-15.68,11.87-2.53,0-5.07-1.04-7.03-2.42Zm24.9-53.02c2.88-3.46,6.8-9.23,8.87-12.57.35-.57.58-.69,1.15-.46,2.88,1.15,5.3,2.99,6.35,4.84.81,1.38.69,2.65-.69,4.26-2.65,2.77-4.73,4.73-5.76,5.42-1.96,1.27-3.69,1.5-6.11,1.5-1.15,0-3.45-.46-4.04-1.04-.46-.46-.46-1.15.23-1.95Z"/><path class="cls-2" d="m680.72,1019.39c-3.45-1.73-6.92-5.42-8.64-9.45-1.73-3.91-.11-10.94,4.84-17.64,6.46-8.53,17.75-15.44,25.59-15.44,3.12,0,5.54,1.03,8.77,5.88,2.53,2.19,4.04,4.26,4.04,6.92s-2.42,6.34-9.8,10.95c-4.27,2.65-10.95,5.53-18.68,7.84-.23,1.49-.35,2.88-.23,4.26,1.38.46,3.11.69,4.83.69,9.23,0,20.29-6.11,28.59-17.18l.35-.46c.81-1.04,1.03-1.15,1.38-.81l.35.35c.81.81.69,1.38.23,2.19l-.35.57c-7.49,12.57-22.48,22.83-34.01,22.83-2.99,0-5.3-.46-7.27-1.5Zm27.55-33.42c-7.14,1.73-15.44,8.99-19.36,16.94,5.08-2.07,10.15-4.72,12.92-6.92,5.07-3.69,6.68-6.68,6.45-10.02Z"/><path class="cls-2" d="m720.63,1016.96c-4.97-4.61-5.54-9.45,1.84-20.74,2.99-4.61,5.65-8.64,8.07-12.46-1.27-.11-2.07-.46-3-1.15-1.49-1.39-2.76-3.69-2.76-4.62,0-.46.35-.81,2.19-1.03,2.77-.35,5.76-.81,8.99-1.04,4.26-6.34,8.18-11.75,12.57-17.64,3.45-4.61,4.83-5.53,5.76-5.53,1.61,0,2.19,1.84,4.26,3.69,4.84,4.04,3.8,6.68-3.34,17.86,3.8-.23,7.27-.34,9.8-.34,1.15,0,1.27.34,1.27.81,0,1.27-1.04,2.41-2.42,2.65s-1.5.92-5.76,1.96l-7.38,1.73c-12.45,19.02-17.29,27.09-18.33,31.24,5.65-.35,11.3-2.77,15.34-6.46.23-.23.57-.23.69,0,.12.35.23,1.28.23,1.74s-.11,1.15-.92,2.19c-3.12,4.26-10.73,11.07-17.98,11.07-2.53,0-5.89-.81-9.1-3.92Z"/><path class="cls-2" d="m735.17,1051.55c-2.76-2.42-4.61-5.3-4.61-9.57,0-3.11,1.5-6.68,4.96-9.79,6.92-6.11,19.37-9.69,36.2-12.68,2.88-3.92,5.53-8.18,8.06-12.46-8.99,8.99-12.91,10.95-16.71,10.95-1.96,0-3.12-.46-5.3-1.96-2.88-1.96-3.23-3.58-1.39-9.1,2.66-7.61,11.07-22.25,14.3-29.51.23-.57.57-.81,1.5-.81.69,0,2.88.35,4.96.92,4.72,1.27,5.76,3.34,4.61,7.27-1.03,3.69-4.96,11.99-8.07,20.28,6.35-3.45,14.3-11.18,21.1-23.28,1.27-2.2,2.07-3,3.45-3,1.5,0,5.08,1.15,6.92,2.07,1.85,1.04,2.2,2.07,1.39,4.62-1.61,5.76-10.26,20.4-17.98,31.93,2.65-.23,5.07-.35,7.14-.35,2.99,0,3.46.69,3.92,1.73.69,1.27.46,1.73-.12,1.73-3.91.35-8.87.92-14.41,2.07-16.25,23.86-32.74,32.28-40.69,32.28-2.99,0-6-.57-9.23-3.34Zm31.13-24.9c-13.25,3.58-19.25,6.46-23.75,10.37-3.91,3.46-4.83,6.69-4.49,9.69.46.11.8.11,1.27.11,6.68,0,15.79-6.11,26.97-20.17Z"/><path class="cls-2" d="m814.17,997.71c2.19-4.37,5.42-10.02,7.27-12.91.81-1.27,1.38-1.61,1.96-1.61,1.84,0,6.22,2.19,8.18,4.15,1.38,1.39,1.27,2.77.23,4.61-1.27,2.31-3.58,6.11-5.3,7.61-1.27,1.04-2.53,1.38-4.26,1.38s-6.81-.92-7.72-1.27c-.81-.35-.81-.92-.35-1.96Z"/></g></g></svg>