<?xml version="1.0" encoding="UTF-8" standalone="no"?>
<!-- Created with Inkscape (http://www.inkscape.org/) -->

<svg
   version="1.1"
   id="svg1"
   width="1044.104"
   height="1005.1202"
   viewBox="0 0 1044.104 1005.1202"
   xmlns="http://www.w3.org/2000/svg"
   xmlns:svg="http://www.w3.org/2000/svg">
  <defs
     id="defs1">
    <clipPath
       clipPathUnits="userSpaceOnUse"
       id="clipPath2">
      <path
         d="M 0,1080 H 1080 V 0 H 0 Z"
         transform="translate(-218.917,-512.60302)"
         id="path2" />
    </clipPath>
    <clipPath
       clipPathUnits="userSpaceOnUse"
       id="clipPath4">
      <path
         d="M 0,1080 H 1080 V 0 H 0 Z"
         transform="translate(-255.8623,-503.91211)"
         id="path4" />
    </clipPath>
    <clipPath
       clipPathUnits="userSpaceOnUse"
       id="clipPath6">
      <path
         d="M 0,1080 H 1080 V 0 H 0 Z"
         transform="translate(-389.04051,-512.60302)"
         id="path6" />
    </clipPath>
    <clipPath
       clipPathUnits="userSpaceOnUse"
       id="clipPath8">
      <path
         d="M 0,1080 H 1080 V 0 H 0 Z"
         transform="translate(-427.05911,-454.43211)"
         id="path8" />
    </clipPath>
    <clipPath
       clipPathUnits="userSpaceOnUse"
       id="clipPath10">
      <path
         d="M 0,1080 H 1080 V 0 H 0 Z"
         id="path10" />
    </clipPath>
    <clipPath
       clipPathUnits="userSpaceOnUse"
       id="clipPath12">
      <path
         d="M 0,1080 H 1080 V 0 H 0 Z"
         transform="translate(-529.08592,-610.44872)"
         id="path12" />
    </clipPath>
    <clipPath
       clipPathUnits="userSpaceOnUse"
       id="clipPath14">
      <path
         d="M 0,1080 H 1080 V 0 H 0 Z"
         transform="translate(-634.12061,-490.31401)"
         id="path14" />
    </clipPath>
    <clipPath
       clipPathUnits="userSpaceOnUse"
       id="clipPath16">
      <path
         d="M 0,1080 H 1080 V 0 H 0 Z"
         transform="translate(-747.46192,-501.32131)"
         id="path16" />
    </clipPath>
    <clipPath
       clipPathUnits="userSpaceOnUse"
       id="clipPath18">
      <path
         d="M 0,1080 H 1080 V 0 H 0 Z"
         id="path18" />
    </clipPath>
    <clipPath
       clipPathUnits="userSpaceOnUse"
       id="clipPath20">
      <path
         d="M 0,1080 H 1080 V 0 H 0 Z"
         transform="translate(-881.49805,-491.93751)"
         id="path20" />
    </clipPath>
    <clipPath
       clipPathUnits="userSpaceOnUse"
       id="clipPath22">
      <path
         d="M 0,1080 H 1080 V 0 H 0 Z"
         transform="translate(-874.1602,-666.26422)"
         id="path22" />
    </clipPath>
    <clipPath
       clipPathUnits="userSpaceOnUse"
       id="clipPath24">
      <path
         d="M 0,1080 H 1080 V 0 H 0 Z"
         transform="translate(-539.90581,-163.08008)"
         id="path24" />
    </clipPath>
    <clipPath
       clipPathUnits="userSpaceOnUse"
       id="clipPath26">
      <path
         d="M 0,1080 H 1080 V 0 H 0 Z"
         transform="translate(-322.49661,-291.67141)"
         id="path26" />
    </clipPath>
    <clipPath
       clipPathUnits="userSpaceOnUse"
       id="clipPath28">
      <path
         d="M 0,1080 H 1080 V 0 H 0 Z"
         transform="translate(-398.56151,-258.57961)"
         id="path28" />
    </clipPath>
    <clipPath
       clipPathUnits="userSpaceOnUse"
       id="clipPath30">
      <path
         d="M 0,1080 H 1080 V 0 H 0 Z"
         transform="translate(-473.00051,-217.21238)"
         id="path30" />
    </clipPath>
    <clipPath
       clipPathUnits="userSpaceOnUse"
       id="clipPath32">
      <path
         d="M 0,1080 H 1080 V 0 H 0 Z"
         transform="translate(-551.92771,-242.86958)"
         id="path32" />
    </clipPath>
    <clipPath
       clipPathUnits="userSpaceOnUse"
       id="clipPath34">
      <path
         d="M 0,1080 H 1080 V 0 H 0 Z"
         transform="translate(-587.37161,-273.59768)"
         id="path34" />
    </clipPath>
    <clipPath
       clipPathUnits="userSpaceOnUse"
       id="clipPath36">
      <path
         d="M 0,1080 H 1080 V 0 H 0 Z"
         transform="translate(-659.26372,-297.96578)"
         id="path36" />
    </clipPath>
    <clipPath
       clipPathUnits="userSpaceOnUse"
       id="clipPath38">
      <path
         d="M 0,1080 H 1080 V 0 H 0 Z"
         transform="translate(-727.29152,-327.01658)"
         id="path38" />
    </clipPath>
    <clipPath
       clipPathUnits="userSpaceOnUse"
       id="clipPath40">
      <path
         d="M 0,1080 H 1080 V 0 H 0 Z"
         transform="translate(-267.84961,-711.80662)"
         id="path40" />
    </clipPath>
    <clipPath
       clipPathUnits="userSpaceOnUse"
       id="clipPath42">
      <path
         d="M 0,1080 H 1080 V 0 H 0 Z"
         transform="translate(-308.88481,-765.24852)"
         id="path42" />
    </clipPath>
    <clipPath
       clipPathUnits="userSpaceOnUse"
       id="clipPath44">
      <path
         d="M 0,1080 H 1080 V 0 H 0 Z"
         transform="translate(-408.82231,-802.01952)"
         id="path44" />
    </clipPath>
    <clipPath
       clipPathUnits="userSpaceOnUse"
       id="clipPath46">
      <path
         d="M 0,1080 H 1080 V 0 H 0 Z"
         transform="translate(-477.10211,-819.88772)"
         id="path46" />
    </clipPath>
    <clipPath
       clipPathUnits="userSpaceOnUse"
       id="clipPath48">
      <path
         d="M 0,1080 H 1080 V 0 H 0 Z"
         transform="translate(-511.11131,-861.21922)"
         id="path48" />
    </clipPath>
    <clipPath
       clipPathUnits="userSpaceOnUse"
       id="clipPath50">
      <path
         d="M 0,1080 H 1080 V 0 H 0 Z"
         transform="translate(-614.36332,-817.00542)"
         id="path50" />
    </clipPath>
    <clipPath
       clipPathUnits="userSpaceOnUse"
       id="clipPath52">
      <path
         d="M 0,1080 H 1080 V 0 H 0 Z"
         transform="translate(-664.78562,-788.61232)"
         id="path52" />
    </clipPath>
    <clipPath
       clipPathUnits="userSpaceOnUse"
       id="clipPath54">
      <path
         d="M 0,1080 H 1080 V 0 H 0 Z"
         transform="translate(-733.09812,-751.46002)"
         id="path54" />
    </clipPath>
    <clipPath
       clipPathUnits="userSpaceOnUse"
       id="clipPath56">
      <path
         d="M 0,1080 H 1080 V 0 H 0 Z"
         transform="translate(-752.33942,-694.31692)"
         id="path56" />
    </clipPath>
    <clipPath
       clipPathUnits="userSpaceOnUse"
       id="clipPath58">
      <path
         d="M 0,1080 H 1080 V 0 H 0 Z"
         transform="translate(-539.90041,-773.58402)"
         id="path58" />
    </clipPath>
    <clipPath
       clipPathUnits="userSpaceOnUse"
       id="clipPath60">
      <path
         d="M 0,1080 H 1080 V 0 H 0 Z"
         transform="translate(-539.90041,-306.42818)"
         id="path60" />
    </clipPath>
  </defs>
  <g
     id="layer-MC0"
     transform="translate(-197.948,-217.43974)">
    <path
       id="path1"
       d="m 0,0 v -20.726 c 0,-24.966 -12.029,-39.228 -35.228,-39.228 -23.199,0 -35.228,14.262 -35.228,39.228 v 81.13 c 0,24.958 12.029,39.227 35.228,39.227 C -12.029,99.631 0,85.362 0,60.404 V 45.246 h -22.34 v 16.715 c 0,11.143 -4.727,15.376 -12.246,15.376 -7.516,0 -12.24,-4.233 -12.24,-15.376 v -84.248 c 0,-11.144 4.724,-15.154 12.24,-15.154 7.519,0 12.246,4.01 12.246,15.154 V 0 Z"
       style="fill:#000000;fill-opacity:1;fill-rule:nonzero;stroke:none"
       transform="matrix(1.3333333,0,0,-1.3333333,291.88933,756.52933)"
       clip-path="url(#clipPath2)" />
    <path
       id="path3"
       d="M 0,0 H 22.767 L 11.601,78.897 H 11.169 Z M 53.917,-49.482 H 30.072 L 25.99,-21.177 H -3.009 l -4.083,-28.305 h -21.694 l 24.058,156.021 h 34.586 z"
       style="fill:#000000;fill-opacity:1;fill-rule:nonzero;stroke:none"
       transform="matrix(1.3333333,0,0,-1.3333333,341.14973,768.1172)"
       clip-path="url(#clipPath4)" />
    <path
       id="path5"
       d="m 0,0 v -20.726 c 0,-24.966 -12.029,-39.228 -35.228,-39.228 -23.199,0 -35.228,14.262 -35.228,39.228 v 81.13 c 0,24.958 12.029,39.227 35.228,39.227 C -12.029,99.631 0,85.362 0,60.404 V 45.246 h -22.34 v 16.715 c 0,11.143 -4.727,15.376 -12.246,15.376 -7.516,0 -12.239,-4.233 -12.239,-15.376 v -84.248 c 0,-11.144 4.723,-15.154 12.239,-15.154 7.519,0 12.246,4.01 12.246,15.154 V 0 Z"
       style="fill:#000000;fill-opacity:1;fill-rule:nonzero;stroke:none"
       transform="matrix(1.3333333,0,0,-1.3333333,518.72067,756.52933)"
       clip-path="url(#clipPath6)" />
    <path
       id="path7"
       d="M 0,0 H -23.63 V 156.017 H 0 V 89.152 h 26.849 v 66.865 H 50.908 V 0 H 26.849 V 66.861 H 0 Z"
       style="fill:#000000;fill-opacity:1;fill-rule:nonzero;stroke:none"
       transform="matrix(1.3333333,0,0,-1.3333333,569.41213,834.09053)"
       clip-path="url(#clipPath8)" />
    <path
       id="path9"
       d="m 495.15,610.449 h 23.63 V 454.432 h -23.63 z"
       style="fill:#000000;fill-opacity:1;fill-rule:nonzero;stroke:none"
       transform="matrix(1.3333333,0,0,-1.3333333,0,1440)"
       clip-path="url(#clipPath10)" />
    <path
       id="path11"
       d="M 0,0 H 73.033 V -22.287 H 48.33 v -133.73 H 24.703 v 133.73 H 0 Z"
       style="fill:#000000;fill-opacity:1;fill-rule:nonzero;stroke:none"
       transform="matrix(1.3333333,0,0,-1.3333333,705.44787,626.0684)"
       clip-path="url(#clipPath12)" />
    <path
       id="path13"
       d="m 0,0 c 0,-11.143 4.727,-15.379 12.247,-15.379 7.518,0 12.242,4.236 12.242,15.379 v 84.248 c 0,11.148 -4.724,15.38 -12.242,15.38 C 4.727,99.628 0,95.396 0,84.248 Z m -23.627,82.691 c 0,24.958 12.671,39.227 35.874,39.227 23.194,0 35.869,-14.269 35.869,-39.227 V 1.561 c 0,-24.962 -12.675,-39.228 -35.869,-39.228 -23.203,0 -35.874,14.266 -35.874,39.228 z"
       style="fill:#000000;fill-opacity:1;fill-rule:nonzero;stroke:none"
       transform="matrix(1.3333333,0,0,-1.3333333,845.49413,786.248)"
       clip-path="url(#clipPath14)" />
    <path
       id="path15"
       d="M 0,0 H 0.446 L 16.978,111.026 H 51.159 V -45.351 H 27.922 V 66.793 H 27.476 L 10.948,-45.351 H -12.285 L -30.159,65.232 h -0.443 V -45.351 h -21.446 v 156.377 h 34.177 z"
       style="fill:#ee9d2e;fill-opacity:1;fill-rule:nonzero;stroke:none"
       transform="matrix(1.3333333,0,0,-1.3333333,996.61587,771.5716)"
       clip-path="url(#clipPath16)" />
    <path
       id="path17"
       d="m 816.489,612.347 h 24.576 V 455.97 h -24.576 z m 38.65,33.063 -22.786,-24.797 h -16.532 l 15.188,24.797 z"
       style="fill:#ee9d2e;fill-opacity:1;fill-rule:nonzero;stroke:none"
       transform="matrix(1.3333333,0,0,-1.3333333,0,1440)"
       clip-path="url(#clipPath18)" />
    <path
       id="path19"
       d="m 0,0 c 0,-11.17 4.915,-15.414 12.734,-15.414 7.82,0 12.731,4.244 12.731,15.414 v 84.443 c 0,11.17 -4.911,15.413 -12.731,15.413 C 4.915,99.856 0,95.613 0,84.443 Z m -24.576,82.878 c 0,25.022 13.181,39.318 37.31,39.318 24.126,0 37.307,-14.296 37.307,-39.318 V 1.564 c 0,-25.022 -13.181,-39.321 -37.307,-39.321 -24.129,0 -37.31,14.299 -37.31,39.321 z"
       style="fill:#ee9d2e;fill-opacity:1;fill-rule:nonzero;stroke:none"
       transform="matrix(1.3333333,0,0,-1.3333333,1175.3307,784.08333)"
       clip-path="url(#clipPath20)" />
    <path
       id="path21"
       d="M 0,0 C -51.337,140.161 -184.909,230.942 -334.254,230.942 -483.6,230.942 -617.173,140.161 -668.51,0 h -21.073 c 26.292,71.785 74.568,136.636 137.146,181.129 63.973,45.485 139.419,69.527 218.183,69.527 78.757,0 154.202,-24.042 218.177,-69.527 C -53.496,136.635 -5.096,71.784 21.195,0 Z"
       style="fill:#000000;fill-opacity:1;fill-rule:nonzero;stroke:none"
       transform="matrix(1.3333333,0,0,-1.3333333,1165.5469,551.64773)"
       clip-path="url(#clipPath22)" />
    <path
       id="path23"
       d="m 0,0 c -78.76,0 -154.207,24.043 -218.182,69.533 -62.576,44.494 -110.888,109.342 -137.18,181.122 h 21.108 C -282.912,110.494 -149.341,19.713 0,19.713 c 149.341,0 282.911,90.781 334.253,230.942 H 355.38 C 329.087,178.877 280.757,114.029 218.177,69.533 154.199,24.043 78.754,0 0,0"
       style="fill:#000000;fill-opacity:1;fill-rule:nonzero;stroke:none"
       transform="matrix(1.3333333,0,0,-1.3333333,719.8744,1222.5599)"
       clip-path="url(#clipPath24)" />
    <path
       id="path25"
       d="m 0,0 c -3.495,3.098 -6.223,6.524 -8.184,10.278 -1.962,3.755 -3.121,7.618 -3.482,11.591 -0.36,3.972 0.097,7.923 1.374,11.852 1.275,3.93 3.424,7.599 6.447,11.009 l 0.113,0.128 c 2.871,3.238 6.167,5.739 9.888,7.503 3.72,1.762 7.575,2.76 11.566,2.99 3.989,0.231 7.992,-0.369 12.007,-1.797 4.014,-1.428 7.749,-3.672 11.201,-6.731 3.964,-3.513 6.874,-7.12 8.731,-10.821 1.857,-3.7 3.071,-7.63 3.645,-11.792 l -15.05,-2.298 c -0.412,2.799 -1.138,5.306 -2.178,7.523 -1.042,2.217 -2.671,4.308 -4.887,6.272 -1.62,1.436 -3.405,2.447 -5.356,3.035 -1.952,0.589 -3.931,0.782 -5.935,0.581 C 17.894,39.121 15.932,38.539 14.014,37.576 12.094,36.613 10.38,35.279 8.87,33.575 L 8.756,33.447 C 7.169,31.657 5.995,29.73 5.234,27.665 4.473,25.6 4.155,23.542 4.283,21.488 4.41,19.435 4.937,17.444 5.865,15.52 6.792,13.594 8.154,11.835 9.95,10.244 12.857,7.667 15.799,6.162 18.777,5.73 l 4.816,5.434 -8.822,7.819 8.046,9.079 L 43.402,9.816 25.554,-10.321 c -4.126,0.155 -8.393,1.007 -12.802,2.557 C 8.342,-6.213 4.091,-3.626 0,0"
       style="fill:#000000;fill-opacity:1;fill-rule:nonzero;stroke:none"
       transform="matrix(1.3333333,0,0,-1.3333333,429.99547,1051.1048)"
       clip-path="url(#clipPath26)" />
    <path
       id="path27"
       d="m 0,0 c 2.042,-1.021 4.098,-1.572 6.166,-1.652 2.068,-0.079 4.014,0.237 5.838,0.948 1.825,0.711 3.501,1.766 5.032,3.166 1.529,1.399 2.779,3.066 3.748,5.002 l 0.077,0.153 c 0.968,1.935 1.552,3.935 1.755,6 0.202,2.062 0.021,4.063 -0.541,6.001 -0.564,1.937 -1.491,3.722 -2.781,5.355 -1.29,1.632 -2.957,2.96 -5,3.982 -2.044,1.023 -4.086,1.566 -6.127,1.633 -2.043,0.066 -3.989,-0.25 -5.84,-0.947 -1.85,-0.699 -3.528,-1.755 -5.031,-3.167 -1.505,-1.412 -2.741,-3.086 -3.71,-5.021 L -6.49,21.3 C -7.458,19.363 -8.044,17.364 -8.246,15.301 -8.449,13.237 -8.281,11.243 -7.742,9.318 -7.206,7.393 -6.291,5.614 -5,3.982 -3.71,2.349 -2.043,1.022 0,0 m -6.803,-13.312 c -4.125,2.063 -7.582,4.7 -10.37,7.91 -2.788,3.21 -4.832,6.699 -6.13,10.469 -1.299,3.769 -1.832,7.698 -1.602,11.786 0.231,4.087 1.301,8.042 3.212,11.861 l 0.076,0.153 c 1.911,3.82 4.439,7.06 7.586,9.721 3.145,2.661 6.648,4.602 10.507,5.824 3.858,1.222 7.908,1.679 12.149,1.373 4.24,-0.307 8.423,-1.492 12.549,-3.556 4.125,-2.063 7.582,-4.701 10.37,-7.91 2.788,-3.21 4.83,-6.7 6.129,-10.469 1.298,-3.77 1.833,-7.698 1.602,-11.786 -0.23,-4.088 -1.3,-8.042 -3.211,-11.861 L 35.987,0.05 c -1.91,-3.82 -4.439,-7.061 -7.585,-9.721 -3.146,-2.662 -6.648,-4.602 -10.507,-5.824 -3.859,-1.222 -7.908,-1.679 -12.149,-1.373 -4.24,0.307 -8.423,1.492 -12.549,3.556"
       style="fill:#000000;fill-opacity:1;fill-rule:nonzero;stroke:none"
       transform="matrix(1.3333333,0,0,-1.3333333,531.41533,1095.2272)"
       clip-path="url(#clipPath28)" />
    <path
       id="path29"
       d="m 0,0 c -4.185,0.858 -7.841,2.16 -10.972,3.906 -3.13,1.745 -5.641,3.96 -7.532,6.644 -1.892,2.684 -3.12,5.842 -3.683,9.475 -0.564,3.632 -0.377,7.736 0.561,12.311 l 6.74,32.889 16.57,-3.396 -6.672,-32.554 c -0.869,-4.24 -0.545,-7.577 0.976,-10.01 1.52,-2.434 3.914,-3.985 7.18,-4.654 3.267,-0.67 6.067,-0.227 8.406,1.329 2.338,1.556 3.929,4.397 4.776,8.526 l 6.757,32.972 16.57,-3.395 -6.655,-32.47 C 32.05,16.83 30.557,12.878 28.543,9.716 26.529,6.554 24.11,4.113 21.288,2.396 18.464,0.677 15.257,-0.366 11.665,-0.733 8.072,-1.101 4.184,-0.857 0,0"
       style="fill:#000000;fill-opacity:1;fill-rule:nonzero;stroke:none"
       transform="matrix(1.3333333,0,0,-1.3333333,630.66733,1150.3835)"
       clip-path="url(#clipPath30)" />
    <path
       id="path31"
       d="m 0,0 c 2.845,0.093 5.016,0.806 6.511,2.137 1.495,1.331 2.207,3.077 2.136,5.24 L 8.642,7.548 C 8.563,9.939 7.707,11.691 6.076,12.806 4.444,13.92 2.233,14.432 -0.556,14.341 l -10.842,-0.355 0.469,-14.344 z m -28.432,27.787 28.261,0.925 c 4.61,0.152 8.526,-0.29 11.752,-1.324 3.225,-1.034 5.866,-2.543 7.926,-4.527 3.641,-3.299 5.558,-7.881 5.75,-13.743 l 0.005,-0.171 c 0.152,-4.61 -0.834,-8.461 -2.954,-11.55 -2.121,-3.09 -5.035,-5.493 -8.739,-7.209 l 14.941,-20.365 -19.125,-0.627 -12.632,17.706 -0.17,-0.006 -7.086,-0.231 0.592,-18.101 -16.563,-0.543 z"
       style="fill:#000000;fill-opacity:1;fill-rule:nonzero;stroke:none"
       transform="matrix(1.3333333,0,0,-1.3333333,735.9036,1116.1739)"
       clip-path="url(#clipPath32)" />
    <path
       id="path33"
       d="m 0,0 16.771,5.042 20.327,-18.062 6.996,26.277 16.771,5.042 17.217,-57.265 -15.789,-4.747 -9.887,32.886 -7.864,-26.805 -0.327,-0.098 -21.211,17.886 9.838,-32.723 -15.625,-4.698 z"
       style="fill:#000000;fill-opacity:1;fill-rule:nonzero;stroke:none"
       transform="matrix(1.3333333,0,0,-1.3333333,783.16213,1075.2031)"
       clip-path="url(#clipPath34)" />
    <path
       id="path35"
       d="m 0,0 41.125,24.771 7.272,-12.074 -27.148,-16.352 4.672,-7.757 24.587,14.809 6.744,-11.195 -24.587,-14.81 4.892,-8.122 27.514,16.572 7.273,-12.073 -41.49,-24.992 z"
       style="fill:#000000;fill-opacity:1;fill-rule:nonzero;stroke:none"
       transform="matrix(1.3333333,0,0,-1.3333333,879.01827,1042.7123)"
       clip-path="url(#clipPath36)" />
    <path
       id="path37"
       d="M 0,0 -13.159,-12.192 -23.029,-1.54 15.445,34.109 25.315,23.457 12.156,11.264 42.928,-21.947 30.772,-33.21 Z"
       style="fill:#000000;fill-opacity:1;fill-rule:nonzero;stroke:none"
       transform="matrix(1.3333333,0,0,-1.3333333,969.722,1003.9779)"
       clip-path="url(#clipPath38)" />
    <path
       id="path39"
       d="M 0,0 27.174,37.316 38.13,29.338 20.191,4.704 27.229,-0.421 43.476,21.889 53.635,14.491 37.389,-7.819 44.759,-13.186 62.939,11.78 73.896,3.802 46.48,-33.847 Z"
       style="fill:#000000;fill-opacity:1;fill-rule:nonzero;stroke:none"
       transform="matrix(1.3333333,0,0,-1.3333333,357.1328,490.92453)"
       clip-path="url(#clipPath40)" />
    <path
       id="path41"
       d="M 0,0 12.806,10.933 37.692,2.91 33.671,28.746 46.478,39.679 83.81,-4.05 71.753,-14.343 50.314,10.77 53.776,-15.867 53.526,-16.08 27.931,-8.555 49.264,-33.542 37.333,-43.729 Z"
       style="fill:#000000;fill-opacity:1;fill-rule:nonzero;stroke:none"
       transform="matrix(1.3333333,0,0,-1.3333333,411.8464,419.66867)"
       clip-path="url(#clipPath42)" />
    <path
       id="path43"
       d="M 0,0 C 2.538,1.29 4.222,2.901 5.052,4.835 5.88,6.77 5.772,8.768 4.724,10.829 l -0.075,0.148 c -1.122,2.208 -2.697,3.524 -4.723,3.946 -2.026,0.421 -4.333,-0.026 -6.92,-1.34 l -6.664,-3.386 6.921,-13.62 z m -33.892,14.841 21.969,11.163 c 3.221,1.637 6.355,2.723 9.401,3.257 3.045,0.534 5.886,0.503 8.523,-0.092 2.636,-0.595 5.025,-1.762 7.167,-3.498 2.142,-1.738 3.933,-4.023 5.371,-6.853 l 0.075,-0.147 C 20.152,15.644 20.955,12.705 21.022,9.853 21.09,6.999 20.543,4.295 19.385,1.742 18.226,-0.813 16.49,-3.169 14.177,-5.327 11.865,-7.485 9.122,-9.37 5.949,-10.982 l -7.03,-3.572 7.442,-14.646 -14.207,-7.218 z"
       style="fill:#000000;fill-opacity:1;fill-rule:nonzero;stroke:none"
       transform="matrix(1.3333333,0,0,-1.3333333,545.0964,370.64067)"
       clip-path="url(#clipPath44)" />
    <path
       id="path45"
       d="m 0,0 -10.155,14.321 -2.361,-17.427 z m -22.06,30.917 14.908,3.7 37.705,-50.308 -16.582,-4.115 -6.539,8.956 -21.525,-5.342 -1.513,-10.954 -16.263,-4.036 z"
       style="fill:#000000;fill-opacity:1;fill-rule:nonzero;stroke:none"
       transform="matrix(1.3333333,0,0,-1.3333333,636.13613,346.8164)"
       clip-path="url(#clipPath46)" />
    <path
       id="path47"
       d="M 0,0 14.897,0.242 39.093,-29.762 38.601,0.626 54.287,0.88 55.219,-56.609 41.228,-56.836 16.107,-25.698 16.619,-57.235 0.932,-57.49 Z"
       style="fill:#000000;fill-opacity:1;fill-rule:nonzero;stroke:none"
       transform="matrix(1.3333333,0,0,-1.3333333,681.48173,291.70773)"
       clip-path="url(#clipPath48)" />
    <path
       id="path49"
       d="M 0,0 -2.315,17.403 -12.522,3.082 Z m -5.119,37.633 14.915,-3.67 9.931,-62.08 -16.59,4.083 -1.615,10.971 -21.535,5.299 -6.441,-8.988 -16.271,4.004 z"
       style="fill:#000000;fill-opacity:1;fill-rule:nonzero;stroke:none"
       transform="matrix(1.3333333,0,0,-1.3333333,819.15107,350.65947)"
       clip-path="url(#clipPath50)" />
    <path
       id="path51"
       d="m 0,0 c 4.234,-2.22 8.226,-2.89 11.976,-2.011 3.749,0.878 6.705,3.379 8.865,7.502 l 0.076,0.145 c 2.136,4.074 2.504,7.916 1.106,11.523 -1.398,3.608 -4.214,6.521 -8.449,8.74 L 7.805,28.923 -5.769,3.023 Z M 0.25,48.834 19.893,38.539 c 4.559,-2.39 8.297,-5.137 11.214,-8.242 2.916,-3.106 5.014,-6.416 6.295,-9.93 1.279,-3.515 1.755,-7.149 1.426,-10.903 C 38.498,5.71 37.369,1.99 35.437,-1.695 l -0.076,-0.146 c -1.932,-3.686 -4.373,-6.75 -7.322,-9.192 -2.949,-2.442 -6.258,-4.155 -9.926,-5.137 -3.669,-0.984 -7.647,-1.171 -11.933,-0.562 -4.288,0.608 -8.711,2.107 -13.269,4.497 l -19.352,10.142 z"
       style="fill:#000000;fill-opacity:1;fill-rule:nonzero;stroke:none"
       transform="matrix(1.3333333,0,0,-1.3333333,886.3808,388.51693)"
       clip-path="url(#clipPath52)" />
    <path
       id="path53"
       d="M 0,0 5.999,16.5 -9.676,8.525 Z M 12.871,35.732 24.396,25.579 4.482,-34.053 -8.337,-22.759 -4.693,-12.286 -21.334,2.375 -31.203,-2.614 -43.776,8.463 Z"
       style="fill:#000000;fill-opacity:1;fill-rule:nonzero;stroke:none"
       transform="matrix(1.3333333,0,0,-1.3333333,977.46413,438.05333)"
       clip-path="url(#clipPath54)" />
    <path
       id="path55"
       d="m 0,0 c -3.023,4.167 -5.246,8.592 -6.671,13.274 -1.425,4.684 -1.889,9.405 -1.392,14.162 L 5.742,26.493 C 5.396,19.138 7.184,12.757 11.108,7.35 12.362,5.621 13.595,4.503 14.807,3.996 16.019,3.488 17.135,3.604 18.153,4.343 l 0.132,0.095 c 0.486,0.353 0.838,0.778 1.053,1.272 0.215,0.495 0.282,1.169 0.203,2.024 -0.082,0.855 -0.318,1.902 -0.709,3.14 -0.391,1.238 -0.989,2.784 -1.792,4.636 -1.227,2.9 -2.269,5.661 -3.127,8.286 -0.858,2.625 -1.316,5.118 -1.373,7.478 -0.059,2.36 0.39,4.58 1.347,6.66 0.954,2.08 2.628,3.987 5.017,5.721 l 0.132,0.096 c 2.168,1.573 4.456,2.608 6.865,3.104 2.409,0.497 4.848,0.439 7.317,-0.171 2.469,-0.609 4.872,-1.758 7.211,-3.445 2.337,-1.686 4.52,-3.926 6.546,-6.718 2.894,-3.988 4.95,-7.926 6.17,-11.811 1.219,-3.885 1.719,-7.835 1.501,-11.849 L 40.832,12.68 c -0.038,3.22 -0.481,6.232 -1.329,9.033 -0.849,2.801 -2.028,5.243 -3.54,7.326 -1.126,1.552 -2.257,2.506 -3.395,2.864 -1.139,0.358 -2.128,0.232 -2.968,-0.378 l -0.133,-0.096 c -0.53,-0.385 -0.906,-0.844 -1.127,-1.376 -0.223,-0.533 -0.281,-1.219 -0.18,-2.059 0.102,-0.839 0.365,-1.899 0.79,-3.182 0.423,-1.282 1.037,-2.85 1.842,-4.702 1.354,-3.076 2.424,-5.969 3.21,-8.681 0.785,-2.711 1.172,-5.222 1.159,-7.532 -0.013,-2.309 -0.515,-4.433 -1.506,-6.37 -0.992,-1.938 -2.572,-3.693 -4.739,-5.265 l -0.133,-0.097 c -2.389,-1.734 -4.844,-2.82 -7.36,-3.26 -2.518,-0.44 -5.025,-0.313 -7.519,0.38 -2.496,0.693 -4.922,1.943 -7.279,3.749 C 4.266,-5.158 2.058,-2.836 0,0"
       style="fill:#000000;fill-opacity:1;fill-rule:nonzero;stroke:none"
       transform="matrix(1.3333333,0,0,-1.3333333,1003.1192,514.24413)"
       clip-path="url(#clipPath56)" />
    <path
       id="path57"
       d="M 0,0 C -82.486,0 -154.982,-42.76 -196.542,-107.32 H 196.541 C 154.982,-42.76 82.486,0 0,0"
       style="fill:#000000;fill-opacity:1;fill-rule:nonzero;stroke:none"
       transform="matrix(1.3333333,0,0,-1.3333333,719.8672,408.55467)"
       clip-path="url(#clipPath58)" />
    <path
       id="path59"
       d="M 0,0 C 82.481,0 154.973,42.754 196.533,107.307 H -196.533 C -154.973,42.754 -82.481,0 0,0"
       style="fill:#000000;fill-opacity:1;fill-rule:nonzero;stroke:none"
       transform="matrix(1.3333333,0,0,-1.3333333,719.8672,1031.4291)"
       clip-path="url(#clipPath60)" />
  </g>
</svg>
