<?xml version="1.0" encoding="UTF-8" standalone="no"?>
<svg
   id="Capa_1"
   data-name="Capa 1"
   viewBox="0 0 108.93503 48.321999"
   version="1.1"
   sodipodi:docname="libere.svg"
   width="108.93503"
   height="48.321999"
   inkscape:version="1.3 (0e150ed6c4, 2023-07-21)"
   xmlns:inkscape="http://www.inkscape.org/namespaces/inkscape"
   xmlns:sodipodi="http://sodipodi.sourceforge.net/DTD/sodipodi-0.dtd"
   xmlns="http://www.w3.org/2000/svg"
   xmlns:svg="http://www.w3.org/2000/svg">
  <defs
     id="defs1" />
  <sodipodi:namedview
     id="namedview1"
     pagecolor="#ffffff"
     bordercolor="#999999"
     borderopacity="1"
     inkscape:showpageshadow="0"
     inkscape:pageopacity="0"
     inkscape:pagecheckerboard="0"
     inkscape:deskcolor="#d1d1d1"
     inkscape:zoom="7.5576092"
     inkscape:cx="54.845387"
     inkscape:cy="25.603335"
     inkscape:window-width="1842"
     inkscape:window-height="1051"
     inkscape:window-x="69"
     inkscape:window-y="-9"
     inkscape:window-maximized="1"
     inkscape:current-layer="Capa_1" />
  <path
     d="m 20.737,5.325 -6.092,6.96 h -3.263 l 4.655,-6.96 z M 14.6,17.948 h 3.913 V 39.351 H 14.6 Z M 31.469,38.74 c -1.337,-0.726 -2.35,-1.724 -3.046,-3 v 3.61 H 24.726 V 8.035 h 3.913 V 21.56 c 0.636,-1.276 1.604,-2.274 2.895,-3 1.291,-0.727 2.789,-1.09 4.504,-1.09 2.002,0 3.812,0.484 5.436,1.457 1.624,0.974 2.9,2.315 3.828,4.025 0.928,1.71 1.392,3.61 1.392,5.698 0,2.088 -0.465,3.99 -1.392,5.7 -0.928,1.709 -2.204,3.05 -3.828,4.024 -1.624,0.973 -3.434,1.457 -5.436,1.457 -1.71,0 -3.233,-0.363 -4.57,-1.09 z m 7.766,-3.237 c 1.09,-0.68 1.941,-1.614 2.567,-2.804 0.625,-1.19 0.933,-2.537 0.933,-4.044 0,-1.508 -0.313,-2.855 -0.933,-4.045 -0.626,-1.19 -1.478,-2.123 -2.567,-2.804 -1.09,-0.68 -2.315,-1.024 -3.676,-1.024 -1.362,0 -2.598,0.343 -3.697,1.024 -1.104,0.68 -1.967,1.619 -2.587,2.804 -0.625,1.19 -0.933,2.537 -0.933,4.044 0,1.508 0.313,2.855 0.933,4.045 0.625,1.19 1.488,2.123 2.587,2.804 1.1,0.68 2.335,1.024 3.697,1.024 1.361,-0.005 2.587,-0.343 3.676,-1.024 z m 32.089,-9.198 -15.977,5.708 c 0.833,1.982 2.063,3.384 3.697,4.201 1.634,0.817 3.389,0.893 5.275,0.217 1.473,-0.525 2.607,-1.347 3.394,-2.461 0.787,-1.115 1.104,-2.365 0.943,-3.757 l 3.49,-0.323 c 0.308,1.982 -0.162,3.853 -1.412,5.608 -1.25,1.755 -3.036,3.046 -5.361,3.878 -2.022,0.721 -3.969,0.908 -5.85,0.565 -1.876,-0.343 -3.54,-1.175 -4.977,-2.491 -1.443,-1.317 -2.537,-3.026 -3.288,-5.13 -0.732,-2.047 -0.954,-4.049 -0.666,-5.995 0.287,-1.952 1.039,-3.657 2.26,-5.124 1.215,-1.468 2.793,-2.547 4.73,-3.238 1.855,-0.665 3.676,-0.827 5.456,-0.494 a 9.63,9.63 0 0 1 4.74,2.35 c 1.377,1.23 2.411,2.804 3.092,4.715 0.227,0.62 0.378,1.216 0.454,1.77 z M 66.825,24.958 C 66.16,23.102 65.075,21.801 63.563,21.065 62.05,20.328 60.38,20.283 58.55,20.939 c -1.72,0.615 -2.945,1.684 -3.682,3.207 -0.73,1.523 -0.872,3.268 -0.418,5.23 z m 9.779,-7.01 h 3.873 l -0.046,6.48 h 0.086 c 0.378,-2.057 1.332,-3.696 2.87,-4.916 1.538,-1.22 3.333,-1.826 5.396,-1.826 L 89,21.73 h -0.48 c -2.728,0 -4.74,0.828 -6.046,2.482 -1.306,1.654 -1.957,3.913 -1.957,6.788 v 8.35 H 76.604 V 17.949 Z M 1.654,29.794 C 0.55,28.518 0,26.547 0,23.88 V 0 h 3.913 v 23.53 c 0,1.625 0.248,2.815 0.742,3.566 0.494,0.757 1.361,1.13 2.612,1.13 0.812,0 1.594,-0.162 2.35,-0.48 l 0.262,3.264 c -0.867,0.464 -2.017,0.696 -3.434,0.696 -2.093,0 -3.686,-0.636 -4.79,-1.912 z m 107.104,8.22 H 91.793 c 0.116,2.149 0.807,3.878 2.068,5.2 1.26,1.321 2.895,1.977 4.892,1.977 1.563,0 2.905,-0.394 4.024,-1.175 1.115,-0.782 1.836,-1.856 2.154,-3.218 l 3.394,0.868 c -0.379,1.971 -1.453,3.575 -3.218,4.806 -1.77,1.23 -3.888,1.85 -6.35,1.85 -2.147,0 -4.044,-0.479 -5.698,-1.437 -1.654,-0.958 -2.935,-2.3 -3.848,-4.024 -0.912,-1.725 -1.371,-3.707 -1.371,-5.936 0,-2.173 0.464,-4.13 1.392,-5.87 0.927,-1.74 2.209,-3.096 3.847,-4.065 1.64,-0.973 3.485,-1.457 5.548,-1.457 1.972,0 3.742,0.459 5.305,1.372 1.563,0.912 2.789,2.183 3.676,3.807 0.883,1.624 1.327,3.45 1.327,5.482 a 9.208,9.208 0 0 1 -0.177,1.82 z m -3.782,-2.783 c 0,-1.972 -0.585,-3.56 -1.76,-4.766 -1.175,-1.2 -2.733,-1.805 -4.675,-1.805 -1.825,0 -3.343,0.595 -4.544,1.785 -1.205,1.19 -1.921,2.784 -2.153,4.786 z"
     id="path1" />
</svg>
