<?xml version="1.0" encoding="UTF-8" standalone="no"?>
<svg
   viewBox="0 0 92.111466 56.693199"
   height="56.693199"
   width="92.111465"
   xml:space="preserve"
   id="svg2"
   version="1.1"
   sodipodi:docname="vitoria-gasteiz-green-capital-negro.svg"
   inkscape:version="1.3 (0e150ed6c4, 2023-07-21)"
   xmlns:inkscape="http://www.inkscape.org/namespaces/inkscape"
   xmlns:sodipodi="http://sodipodi.sourceforge.net/DTD/sodipodi-0.dtd"
   xmlns="http://www.w3.org/2000/svg"
   xmlns:svg="http://www.w3.org/2000/svg"
   xmlns:rdf="http://www.w3.org/1999/02/22-rdf-syntax-ns#"
   xmlns:cc="http://creativecommons.org/ns#"
   xmlns:dc="http://purl.org/dc/elements/1.1/"><sodipodi:namedview
     id="namedview12"
     pagecolor="#ffffff"
     bordercolor="#999999"
     borderopacity="1"
     inkscape:pageshadow="0"
     inkscape:pageopacity="0"
     inkscape:pagecheckerboard="0"
     showgrid="false"
     inkscape:zoom="7.3556022"
     inkscape:cx="41.804871"
     inkscape:cy="27.394086"
     inkscape:window-width="1842"
     inkscape:window-height="1051"
     inkscape:window-x="69"
     inkscape:window-y="-9"
     inkscape:window-maximized="1"
     inkscape:current-layer="svg2"
     inkscape:showpageshadow="0"
     inkscape:deskcolor="#d1d1d1" /><metadata
     id="metadata8"><rdf:RDF><cc:Work
         rdf:about=""><dc:format>image/svg+xml</dc:format><dc:type
           rdf:resource="http://purl.org/dc/dcmitype/StillImage" /></cc:Work></rdf:RDF></metadata><defs
     id="defs6" /><g
     transform="matrix(1.3333333,0,0,-1.3333333,0,56.693199)"
     id="g10"
     style="fill:#000000;fill-opacity:1"><g
       transform="scale(0.1)"
       id="g12"
       style="fill:#000000;fill-opacity:1"><path
         id="path14"
         style="fill:#000000;fill-opacity:1;fill-rule:nonzero;stroke:none"
         d="M 92.8633,191.758 H 48.9609 v -22.363 h 9.918 V 152.09 c 0,-5.215 -0.7734,-9.317 -2.3086,-12.324 -1.5625,-3.047 -3.9531,-4.571 -7.1836,-4.571 -4.0781,0 -6.125,3.653 -6.125,10.996 v 74.711 c 0,5.899 0.3281,10.137 0.9531,12.649 0.6368,2.539 2.211,3.808 4.7461,3.808 3.2344,0 5.4649,-1.515 6.6446,-4.543 1.207,-3.015 1.8047,-7.773 1.8047,-14.246 v -13.078 h 35.4531 v 14.981 c 0,12.804 -3.9453,22.433 -11.832,28.925 -7.875,6.457 -18.9102,9.7 -33.129,9.7 -11.1054,0 -20.2187,-2.121 -27.3203,-6.321 C 13.4844,248.539 8.92578,242.133 6.96094,233.551 6.12109,230.309 5.66406,226.266 5.59766,221.422 5.51563,216.566 5.48438,211.605 5.48438,206.539 v -43.043 -6.348 c 0,-6.191 0.32812,-11.464 0.96093,-15.82 0.63282,-4.355 2,-8.437 4.10939,-12.226 2.957,-5.645 7.668,-9.707 14.1328,-12.247 6.4727,-2.539 14.0039,-3.808 22.5781,-3.808 18.4492,0 31.043,3.594 37.7852,10.762 5.1953,5.625 7.8125,15.117 7.8125,28.476 z m 78.0547,67.125 h -54.66 L 97.043,113.672 h 38.652 l 2.078,26.172 h 13.829 l 1.91,-26.172 h 38.929 z M 137.773,165.82 c 0.84,8.008 1.895,17.071 3.165,27.207 1.843,15.621 3.238,26.813 4.23,33.571 0,-3.528 0.633,-11.868 1.895,-25.012 1.269,-13.148 2.539,-25.082 3.808,-35.766 z m 130.821,12.227 c -3.379,7.734 -10.477,15.058 -21.317,21.957 -9.843,6.328 -15.722,10.762 -17.629,13.293 -1.894,2.527 -2.839,6.746 -2.839,12.664 0,7.59 2.031,11.398 6.109,11.398 2.957,0 4.73,-1.621 5.281,-4.863 0.149,-0.84 0.211,-3.156 0.211,-6.965 V 219 h 31.453 v 1.902 c 0,8.293 -0.293,13.996 -0.84,17.09 -0.988,5.188 -3.039,9.504 -6.132,12.883 -3.106,3.359 -6.996,5.555 -11.707,6.523 -4.719,0.997 -11.149,1.485 -19.301,1.485 -8.453,0 -15.211,-0.852 -20.266,-2.539 -5.066,-1.692 -9.019,-4.836 -11.832,-9.485 -1.965,-3.523 -3.265,-7.254 -3.89,-11.199 -0.633,-3.926 -0.961,-8.574 -0.961,-13.918 0,-15.058 4.156,-26.449 12.464,-34.183 4.918,-4.668 13.922,-11.68 26.997,-21.114 2.832,-2.832 4.503,-5.488 5.07,-8.027 0.57,-2.52 0.848,-6.328 0.848,-11.387 0,-7.871 -2.247,-11.836 -6.762,-11.836 -2.664,0 -4.321,0.938 -4.957,2.754 -0.633,1.817 -0.942,5.196 -0.942,10.137 v 13.496 h -31.664 v -5.488 c 0,-9.981 0.668,-17.266 2.016,-21.817 1.332,-4.589 3.441,-8.554 6.312,-11.933 2.899,-3.379 6.805,-5.781 11.719,-7.188 4.93,-1.406 11.192,-2.109 18.785,-2.109 7.032,0 13.09,0.664 18.16,2.012 5.055,1.328 9.004,3.535 11.817,6.64 2.808,3.106 4.805,6.446 6.012,10.039 1.199,3.575 1.8,9.512 1.8,17.832 0,12.93 -1.347,22.422 -4.015,28.477 m 88.601,80.836 h -82.527 v -28.906 h 22.59 V 113.672 h 37.777 v 116.305 h 22.16 z m 70.868,-116.285 h -27.422 v 32.07 h 23.632 v 27.652 h -23.632 v 27.657 h 25.117 v 28.906 H 362.867 V 113.672 h 65.196 z m 45.781,116.285 H 436.051 V 113.672 h 37.793 z m 76.152,-116.285 h -28.301 l 28.301,87.379 v 28.906 h -66.074 v -28.906 h 25.332 l -28.926,-95.192 v -21.113 h 69.668 v 28.926" /><path
         id="path16"
         style="fill:#000000;fill-opacity:1;fill-rule:nonzero;stroke:none"
         d="m 52.5469,425.121 c -1.8281,-14.629 -3.6289,-30.18 -5.3828,-46.629 -1.7539,-16.457 -2.6328,-34.75 -2.6328,-54.883 0,20.672 -0.8711,39.852 -2.629,57.516 -1.7734,17.66 -3.7695,32.336 -6.0273,43.996 H 0 L 19.6289,279.926 h 51.7109 l 17.3086,145.195 z m 79.0351,0 H 93.8164 V 279.906 h 37.7656 z m 86.652,0 h -82.515 v -28.91 h 22.578 V 279.926 h 37.777 v 116.285 h 22.16 z m 92.758,-60.152 c 0,11.824 -0.238,20.867 -0.73,27.136 -0.5,6.25 -1.524,11.075 -3.074,14.438 -3.227,6.758 -8.055,11.504 -14.461,14.246 -6.391,2.746 -14.797,4.109 -25.211,4.109 -10.414,0 -18.852,-1.398 -25.332,-4.203 -6.465,-2.824 -11.317,-7.535 -14.555,-14.152 -1.691,-3.652 -2.75,-8.188 -3.168,-13.613 -0.426,-5.41 -0.637,-14.742 -0.637,-27.961 v -24.688 c 0,-11.961 0.25,-21.07 0.746,-27.32 0.496,-6.266 1.516,-11.012 3.059,-14.25 3.238,-6.758 8.184,-11.645 14.883,-14.68 6.679,-3.011 15.008,-4.515 25.004,-4.515 9.984,0 18.324,1.504 25.004,4.515 6.695,3.035 11.582,7.922 14.668,14.68 1.691,3.648 2.746,8.187 3.175,13.598 0.418,5.425 0.629,14.757 0.629,27.972 z M 267.301,301.25 c -2.387,0 -3.926,1.031 -4.637,3.141 -0.699,2.129 -1.066,5.078 -1.066,8.886 v 74.496 c 0,6.329 0.367,10.582 1.066,12.754 0.711,2.192 2.313,3.286 4.852,3.286 2.531,0 4.113,-0.985 4.746,-2.954 0.629,-1.984 0.957,-5.218 0.957,-9.707 v -3.379 -71.972 c 0,-9.711 -1.969,-14.551 -5.918,-14.551 m 140.039,22.148 c 0,10.551 -1.055,17.739 -3.164,21.52 -2.664,4.789 -8.516,8.371 -17.52,10.77 8.867,0.988 14.629,3.667 17.305,8.015 2.266,3.68 3.379,10.981 3.379,21.957 0,18.438 -4.988,30.102 -14.981,35.035 -6.054,2.969 -20.195,4.426 -42.425,4.426 H 323.125 V 279.926 h 37.789 v 65.418 c 4.785,0 7.871,-0.844 9.277,-2.539 1.407,-1.668 2.129,-5.125 2.129,-10.328 v -52.551 h 35.02 z m -37.039,47.172 c -1.34,-1.617 -4.473,-2.425 -9.387,-2.425 v 32.082 h 1.68 c 4.082,0 6.828,-1.063 8.242,-3.172 0.977,-1.555 1.484,-4.223 1.484,-8.032 v -7.992 c 0,-5.367 -0.672,-8.84 -2.019,-10.461 m 84.832,54.551 H 417.359 V 279.906 h 37.774 z m 78.008,0 h -54.668 l -19.2,-145.195 h 38.633 l 2.09,26.164 h 13.828 l 1.914,-26.164 h 38.926 z m -33.145,-93.074 c 0.84,8.031 1.895,17.101 3.164,27.246 1.836,15.609 3.242,26.781 4.238,33.539 0,-3.519 0.625,-11.852 1.875,-25.004 1.27,-13.156 2.54,-25.09 3.809,-35.781 h -13.086" /><path
         id="path18"
         style="fill:#000000;fill-opacity:1;fill-rule:nonzero;stroke:none"
         d="M 92.332,79.375 H 75.0469 l -1.3203,-5.1758 c -1.5313,1.9141 -3.1328,3.2617 -4.8633,4.0235 -1.7188,0.7812 -3.9102,1.1523 -6.543,1.1523 -4.7305,0 -8.0312,-1.3281 -9.9101,-3.9648 C 50.5234,72.7734 49.5859,68.457 49.5859,62.4414 V 37.832 c 0,-3.125 0.1407,-5.7226 0.4219,-7.7539 0.2774,-2.0508 0.961,-3.8672 2.043,-5.4687 1.0742,-1.6016 2.6172,-2.8516 4.6094,-3.7696 2.0039,-0.9375 4.2929,-1.3867 6.8671,-1.3867 2.3243,0 4.1836,0.3711 5.629,1.1328 1.457,0.7618 3.0859,1.9532 4.9257,3.5352 v -5.1367 c 0,-2.3438 -0.1953,-4.0821 -0.5976,-5.2344 -0.4063,-1.1719 -1.3203,-1.7383 -2.7656,-1.7383 -2.1563,0 -3.2383,1.4844 -3.2383,4.4336 H 49.5859 c 0,-5.5273 1.5235,-9.62889 4.5625,-12.36327 C 57.1836,1.36719 62.2734,0 69.4063,0 80.7617,0 88.0078,3.69141 91.125,11.0547 c 0.5703,1.3476 0.9141,2.6562 1.0234,3.8867 0.1329,1.25 0.1836,3.0274 0.1836,5.3516 z M 70.7188,31.4453 c -1.1172,0 -1.8165,0.5274 -2.0938,1.582 -0.293,1.0352 -0.4219,2.9102 -0.4219,5.625 v 22.8321 c 0,2.1679 0.1758,3.8672 0.5352,5.1562 0.3555,1.2696 1.1015,1.9141 2.2305,1.9141 1.1953,0 1.957,-0.4102 2.2656,-1.2695 0.3281,-0.8399 0.4922,-2.2461 0.4922,-4.2383 V 61.4844 40.4688 c 0,-5.9961 -1.0039,-9.0235 -3.0078,-9.0235 m 56.2652,49.1211 c -3.058,-0.332 -5.523,-1.3476 -7.441,-3.125 -1.523,-1.4453 -3.008,-3.75 -4.449,-6.9531 l 0.844,8.8867 H 97.3203 V 11.6406 h 18.6177 v 26.7969 c 0,7.3438 0.359,11.9531 1.074,13.8086 1.121,2.9492 4.015,4.4336 8.652,4.4336 h 1.32 z m 43.887,-42.9883 h -16.445 v -8.164 c 0,-2.2461 -0.266,-3.9649 -0.778,-5.1563 -0.523,-1.1914 -1.46,-1.7969 -2.828,-1.7969 -1.605,0 -2.488,0.6836 -2.644,2.0313 -0.153,1.3672 -0.231,3.0859 -0.231,5.1758 v 14.5312 h 22.926 v 8.9844 c 0,4.082 -0.258,7.6953 -0.777,10.8203 -0.524,3.125 -1.5,5.7617 -2.946,7.9297 -1.75,2.6367 -4.043,4.5312 -6.835,5.7031 -2.817,1.1524 -6.293,1.7383 -10.45,1.7383 -4.808,0 -8.789,-0.8398 -11.961,-2.4609 -3.148,-1.6602 -5.41,-4.2774 -6.777,-7.8711 -0.715,-1.9141 -1.184,-3.8867 -1.383,-5.8985 -0.191,-1.9922 -0.308,-4.3945 -0.308,-7.1875 V 36.25 c 0,-1.25 0.054,-3.2617 0.136,-5.9961 0.078,-2.7148 0.438,-5 1.071,-6.8555 1.363,-4.1406 3.769,-7.1679 7.211,-9.0429 3.445,-1.8946 7.886,-2.8321 13.332,-2.8321 4.156,0 7.421,0.5079 9.781,1.5039 2.371,0.9961 4.465,2.9297 6.312,5.8204 1.598,2.4023 2.602,4.5507 2.993,6.4257 0.406,1.875 0.601,4.4336 0.601,7.6172 v 2.1875 z m -22.926,17.793 v 8.1445 c 0,1.836 0.18,3.125 0.539,3.8477 0.356,0.7031 1.133,1.0937 2.336,1.0937 1.043,0 1.727,-0.4687 2.051,-1.3281 0.309,-0.8789 0.465,-2.5391 0.465,-4.9219 v -2.0312 -4.8047 z m 67.785,-17.793 h -16.457 v -8.164 c 0,-2.2461 -0.261,-3.9649 -0.785,-5.1563 -0.519,-1.1914 -1.461,-1.7969 -2.808,-1.7969 -1.61,0 -2.485,0.6836 -2.653,2.0313 -0.156,1.3672 -0.238,3.0859 -0.238,5.1758 v 14.5312 h 22.941 v 8.9844 c 0,4.082 -0.253,7.6953 -0.781,10.8203 -0.515,3.125 -1.504,5.7617 -2.941,7.9297 -1.774,2.6367 -4.047,4.5312 -6.856,5.7031 -2.793,1.1524 -6.285,1.7383 -10.449,1.7383 -4.789,0 -8.773,-0.8398 -11.937,-2.4609 -3.168,-1.6602 -5.43,-4.2774 -6.793,-7.8711 -0.711,-1.9141 -1.176,-3.8867 -1.383,-5.8985 -0.195,-1.9922 -0.293,-4.3945 -0.293,-7.1875 V 36.25 c 0,-1.25 0.035,-3.2617 0.113,-5.9961 0.09,-2.7148 0.445,-5 1.094,-6.8555 1.363,-4.1406 3.754,-7.1679 7.199,-9.0429 3.442,-1.8946 7.891,-2.8321 13.332,-2.8321 4.156,0 7.43,0.5079 9.781,1.5039 2.36,0.9961 4.469,2.9297 6.309,5.8204 1.586,2.4023 2.594,4.5507 3.008,6.4257 0.387,1.875 0.597,4.4336 0.597,7.6172 v 2.1875 z m -22.941,17.793 v 8.1445 c 0,1.836 0.176,3.125 0.531,3.8477 0.379,0.7031 1.16,1.0937 2.36,1.0937 1.019,0 1.703,-0.4687 2.031,-1.3281 0.324,-0.8789 0.488,-2.5391 0.488,-4.9219 v -2.0312 -4.8047 z m 69.231,3.7109 c 0,5.2735 -0.192,9.1797 -0.606,11.6993 -0.402,2.5195 -1.441,4.6484 -3.117,6.4257 -1.117,1.1328 -2.387,1.875 -3.785,2.2266 -1.395,0.3711 -3.055,0.5469 -4.989,0.5469 -5.117,0 -9.054,-2.2852 -11.769,-6.8555 l 0.496,6.25 H 219.273 V 11.6406 h 18.481 v 45.7617 2.6368 c 0,2.2461 0.125,4.2187 0.363,5.9375 0.242,1.7382 1.121,2.5781 2.645,2.5781 1.285,0 2.031,-0.4688 2.281,-1.3672 0.246,-0.918 0.355,-2.9297 0.355,-6.0742 V 58.5938 11.6406 H 262.02 V 59.082" /><path
         id="path20"
         style="fill:#000000;fill-opacity:1;fill-rule:nonzero;stroke:none"
         d="m 314.734,39.5117 v -8.0664 c 0,-3.0273 -0.183,-5.293 -0.539,-6.7773 -0.355,-1.4649 -1.218,-2.2071 -2.586,-2.2071 -1.277,0 -2.16,0.6055 -2.625,1.7969 -0.492,1.1914 -0.742,3.0274 -0.742,5.5274 v 31.8164 c 0,2.6562 0.172,4.4531 0.496,5.4687 0.325,0.9766 1.067,1.4844 2.274,1.4844 1.929,0 2.89,-1.6016 2.89,-4.8047 v -9.9609 h 16.801 c 0,4.5703 -0.226,8.3203 -0.711,11.3086 -0.492,2.9492 -1.535,5.5468 -3.125,7.7734 -3.121,4.4141 -8.644,6.6211 -16.566,6.6211 -4.488,0 -8.356,-0.7813 -11.594,-2.3438 -3.242,-1.5625 -5.613,-3.9257 -7.144,-7.1484 -0.793,-1.6016 -1.301,-3.3789 -1.493,-5.332 -0.215,-1.9727 -0.308,-4.7461 -0.308,-8.3594 V 37.1094 c 0,-3.2813 0.156,-6.3477 0.484,-9.1406 0.309,-2.793 0.801,-5.0196 1.434,-6.7188 1.523,-3.5156 3.836,-6.0352 6.902,-7.5 3.086,-1.4844 7.07,-2.207 11.957,-2.207 3.441,0 6.227,0.2148 8.34,0.7031 2.125,0.4687 4.027,1.5234 5.703,3.125 2.156,1.9922 3.734,4.3164 4.695,6.9141 0.953,2.5781 1.426,6.8945 1.426,12.9101 v 4.3164 z m 61.434,6.1133 c 0,8.2422 -0.164,14.3164 -0.488,18.2617 -0.313,3.9063 -1.219,6.9922 -2.696,9.2383 -1.484,2.2461 -3.64,3.75 -6.484,4.5703 -2.852,0.8008 -6.629,1.1914 -11.344,1.1914 -3.933,0 -7.039,-0.1953 -9.304,-0.6054 -2.297,-0.3907 -4.309,-1.4258 -6.079,-3.125 -2.312,-2.2266 -3.824,-4.629 -4.507,-7.1875 -0.68,-2.5782 -1.008,-5.9961 -1.008,-10.3125 v -2.1875 h 17.285 v 7.8125 c 0,2.246 0.281,3.6718 0.852,4.3359 0.554,0.6055 1.316,0.9375 2.273,0.9375 1.914,0 2.879,-2.832 2.879,-8.5352 0,-2.4414 -0.266,-4.2187 -0.781,-5.1953 -0.524,-1.0156 -1.5,-1.875 -2.942,-2.5781 l -9.363,-4.2188 c -4.484,-1.9921 -7.305,-3.9062 -8.465,-5.7031 -1.164,-1.8164 -1.738,-5.1367 -1.738,-10.039 v -5.5079 c 0,-2.1679 0.152,-4.1796 0.476,-6.0742 0.325,-1.875 0.871,-3.5351 1.692,-4.9804 0.793,-1.4258 2.125,-2.5 4.015,-3.1836 1.879,-0.6836 4.106,-0.9961 6.657,-0.9961 2.972,0 5.234,0.4297 6.789,1.3086 1.562,0.8789 2.941,2.4804 4.148,4.8047 v -6.0157 h 18.133 z M 354.781,22.4609 c -1.918,0 -2.988,1.3086 -3.238,3.9649 v 4.414 c 0,3.7891 0.445,6.5235 1.32,8.1836 0.571,1.0352 2.133,2.6563 4.684,4.8047 V 26.6602 c 0,-2.8125 -0.914,-4.1993 -2.766,-4.1993 m 68.985,38.3008 c 0,4.0039 -0.118,6.9727 -0.352,8.9453 -0.254,1.9727 -0.859,3.75 -1.855,5.3321 -1.016,1.6211 -2.383,2.7539 -4.102,3.4375 -1.719,0.664 -3.691,1.0156 -5.918,1.0156 -2.578,0 -4.824,-0.4688 -6.797,-1.3672 -1.961,-0.9375 -3.699,-2.5195 -5.234,-4.7461 l 0.488,5.9961 H 381.012 V 1.91406 h 18.496 V 17.5391 c 1.613,-2.3438 3.281,-3.9453 5.058,-4.8828 1.758,-0.918 3.926,-1.3672 6.485,-1.3672 5.527,0 9.16,1.9922 10.918,5.9961 1.191,2.7343 1.797,7.6953 1.797,14.9023 z m -19.2,-37.0312 c -0.332,-0.8594 -1.015,-1.2696 -2.05,-1.2696 -1.993,0 -3.008,1.6993 -3.008,5.1563 V 62.793 c 0,3.8476 1.015,5.7617 3.008,5.7617 1.367,0 2.129,-0.4297 2.285,-1.3086 0.176,-0.8789 0.234,-2.1484 0.234,-3.8477 V 59.6875 27.5 c 0,-1.6797 -0.137,-2.9492 -0.469,-3.7695 m 43.418,70.2148 H 427.809 V 83.6914 h 20.175 z m 0,-14.5703 H 427.809 V 11.6406 h 20.175 z m 32.461,-56.9141 c -2.949,0 -4.629,0.3125 -5.019,0.9375 -0.41,0.6641 -0.606,3.1446 -0.606,7.4414 v 36.1719 h 4.922 V 77.6953 H 474.82 V 88.4961 H 456.09 V 77.6953 h -3.965 V 67.0117 h 3.965 V 32.6563 c 0,-4.004 0.078,-7.3047 0.215,-9.9024 0.175,-2.6172 0.488,-4.375 0.976,-5.3516 1.446,-2.7148 3.653,-4.4335 6.602,-5.1562 1.601,-0.4102 4.648,-0.6055 9.121,-0.6055 h 7.441 z m 45.84,23.1641 c 0,8.2422 -0.176,14.3164 -0.508,18.2617 -0.312,3.9063 -1.211,6.9922 -2.695,9.2383 -1.465,2.2461 -3.633,3.75 -6.484,4.5703 -2.832,0.8008 -6.621,1.1914 -11.348,1.1914 -3.906,0 -7.012,-0.1953 -9.297,-0.6054 -2.285,-0.3907 -4.297,-1.4258 -6.074,-3.125 -2.324,-2.2266 -3.809,-4.629 -4.492,-7.1875 -0.684,-2.5782 -1.035,-5.9961 -1.035,-10.3125 v -2.1875 h 17.304 v 7.8125 c 0,2.246 0.274,3.6718 0.821,4.3359 0.586,0.6055 1.347,0.9375 2.304,0.9375 1.914,0 2.871,-2.832 2.871,-8.5352 0,-2.4414 -0.254,-4.2187 -0.781,-5.1953 -0.508,-1.0156 -1.484,-1.875 -2.93,-2.5781 l -9.375,-4.2188 c -4.472,-1.9921 -7.304,-3.9062 -8.457,-5.7031 -1.171,-1.8164 -1.757,-5.1367 -1.757,-10.039 v -5.5079 c 0,-2.1679 0.156,-4.1796 0.488,-6.0742 0.332,-1.875 0.879,-3.5351 1.68,-4.9804 0.82,-1.4258 2.128,-2.5 4.023,-3.1836 1.895,-0.6836 4.102,-0.9961 6.66,-0.9961 2.949,0 5.235,0.4297 6.797,1.3086 1.563,0.8789 2.93,2.4804 4.141,4.8047 v -6.0157 h 18.144 z M 504.898,22.4609 c -1.914,0 -3.007,1.3086 -3.242,3.9649 v 4.414 c 0,3.7891 0.449,6.5235 1.328,8.1836 0.547,1.0352 2.11,2.6563 4.668,4.8047 V 26.6602 c 0,-2.8125 -0.898,-4.1993 -2.754,-4.1993 m 44.825,71.5235 h -19.2 l 0.254,-82.3438 h 19.219 l -0.273,82.3438" /><path
         id="path22"
         style="fill:#000000;fill-opacity:1;fill-rule:nonzero;stroke:none"
         d="m 577.75,425.199 16.836,-311.976 h 79.394 l 16.856,311.976 z m 7.813,-413.5584 h 97.46 v 82.3047 h -97.46 V 11.6406" /></g></g></svg>
