<?xml version="1.0" encoding="UTF-8" standalone="no"?>
<!-- Generator: Adobe Illustrator 19.2.1, SVG Export Plug-In . SVG Version: 6.00 Build 0)  -->

<svg
   version="1.1"
   id="layer"
   x="0px"
   y="0px"
   viewBox="0 0 600.03052 264.90936"
   xml:space="preserve"
   sodipodi:docname="ayuntamiento-de-vitoria-gasteiz-vitoria-gasteizko-udala-logo-vector.svg"
   width="600.03052"
   height="264.90936"
   inkscape:version="1.1 (c68e22c387, 2021-05-23)"
   xmlns:inkscape="http://www.inkscape.org/namespaces/inkscape"
   xmlns:sodipodi="http://sodipodi.sourceforge.net/DTD/sodipodi-0.dtd"
   xmlns="http://www.w3.org/2000/svg"
   xmlns:svg="http://www.w3.org/2000/svg"><defs
   id="defs37" /><sodipodi:namedview
   id="namedview35"
   pagecolor="#ffffff"
   bordercolor="#999999"
   borderopacity="1"
   inkscape:pageshadow="0"
   inkscape:pageopacity="0"
   inkscape:pagecheckerboard="0"
   showgrid="false"
   inkscape:zoom="0.9348559"
   inkscape:cx="253.51501"
   inkscape:cy="232.65618"
   inkscape:window-width="1842"
   inkscape:window-height="1051"
   inkscape:window-x="69"
   inkscape:window-y="-9"
   inkscape:window-maximized="1"
   inkscape:current-layer="g32" />
<g
   id="g32"
   transform="translate(-20.469453,-189.83145)">
	<path
   d="m 352.1,405.2 c 0,3.6 -2.3,6.3 -6.6,6.3 -2,0 -4.4,-1.4 -4.4,-3.9 0,-4.2 5.9,-4.6 8.3,-4.6 0.9,0 1.9,0.1 2.8,0.1 v 2.1 z M 339.3,396 c 1.8,-1.5 4.4,-2.4 6.9,-2.4 4.4,0 5.9,2.1 5.9,6.2 -1.7,-0.1 -2.9,-0.1 -4.7,-0.1 -4.5,0 -11.1,1.9 -11.1,7.9 0,5.2 3.6,7.4 8.7,7.4 4,0 6.4,-2.2 7.4,-3.6 h 0.1 v 3.1 h 4.1 c -0.1,-0.7 -0.2,-2 -0.2,-4.7 v -9.9 c 0,-6.5 -2.8,-9.9 -9.6,-9.9 -3,0 -5.7,0.9 -7.9,2.2 z m -13.8,18.4 h 4.4 v -35 h -4.4 z m -12.4,-9.2 c 0,3.6 -2.3,6.3 -6.6,6.3 -2,0 -4.4,-1.4 -4.4,-3.9 0,-4.2 5.9,-4.6 8.3,-4.6 0.9,0 1.9,0.1 2.8,0.1 v 2.1 z M 300.3,396 c 1.8,-1.5 4.4,-2.4 6.9,-2.4 4.4,0 5.9,2.1 5.9,6.2 -1.7,-0.1 -2.9,-0.1 -4.7,-0.1 -4.5,0 -11.1,1.9 -11.1,7.9 0,5.2 3.6,7.4 8.7,7.4 4,0 6.4,-2.2 7.4,-3.6 h 0.1 v 3.1 h 4.1 c -0.1,-0.7 -0.2,-2 -0.2,-4.7 v -9.9 c 0,-6.5 -2.8,-9.9 -9.6,-9.9 -3,0 -5.7,0.9 -7.9,2.2 z m -26.8,6.4 c -0.1,-4.3 1.8,-8.8 6.5,-8.8 4.8,0 7.1,4.5 7.1,9 0,4 -2.1,8.9 -7,8.9 -4.8,0 -6.7,-5.3 -6.6,-9.1 m 13.8,12 h 4.2 v -35 h -4.4 v 14.5 H 287 c -1.4,-2.2 -3.7,-3.8 -7.9,-3.8 -6.9,0 -10.3,5.6 -10.3,12.1 0,6.5 3,12.9 10.2,12.9 4.3,0 7,-2.1 8.1,-3.9 h 0.1 v 3.2 z m -24.9,-32.6 h -4.7 v 18.5 c 0,6.3 -2,10.6 -8,10.6 -6,0 -8,-4.3 -8,-10.6 V 381.8 H 237 V 401 c 0,9.2 4.6,14.1 12.7,14.1 8,0 12.7,-4.9 12.7,-14.1 z"
   id="path2"
   style="fill:#ffffff" />
	<path
   d="m 587.8,355.8 c 0,-4.5 2.8,-8.9 7.5,-8.9 4.7,0 7.4,4.4 7.4,8.9 0,4.3 -2.3,8.9 -7.4,8.9 -5.2,0 -7.5,-4.6 -7.5,-8.9 m -4.7,0 c 0,6.8 4.9,12.5 12.1,12.5 7.2,0 12.1,-5.6 12.1,-12.5 0,-7.2 -4.9,-12.5 -12.1,-12.5 -7.2,0 -12.1,5.3 -12.1,12.5 m -24.4,11.9 h 4.4 v -12.2 l 10.7,12.2 h 6.3 l -12.5,-13.3 11.1,-10.6 h -6 l -9.6,9.7 v -20.9 h -4.4 z m -25.1,0 H 553 v -3.5 h -14.3 l 13.7,-16.5 v -3.8 h -18.2 v 3.5 h 13.1 l -13.7,16.5 z m -6,-34.1 h -4.9 v 4.9 h 4.9 z m -4.7,34.1 h 4.4 v -23.8 h -4.4 z m -23.5,-14.2 c 0.3,-3.1 2.1,-6.6 6.4,-6.6 3.8,0 5.9,3 5.9,6.6 z m 15.2,8.8 c -1.1,0.9 -4.4,2.4 -7.3,2.4 -4.2,0 -7.9,-3.2 -7.9,-7.9 h 17 c 0,-7.7 -2.6,-13.5 -10.5,-13.5 -6.7,0 -11.2,5 -11.2,12.1 0,7.8 3.9,12.9 12.3,12.9 3.9,0 5.8,-0.9 7.5,-1.5 v -4.5 z m -23.8,-18.4 h -6.3 V 337 l -4.4,1.4 v 5.5 h -5.4 v 3.5 h 5.4 v 13.9 c 0,4.8 2.8,6.9 7.3,6.9 1.4,0 2.8,-0.4 3.7,-0.6 v -3.7 c -0.7,0.4 -1.6,0.8 -3,0.8 -2,0 -3.7,-1.5 -3.7,-4.2 v -13 h 6.3 v -3.6 z M 458,367 c 2,1.1 4.3,1.3 6.5,1.3 4.3,0 8.3,-2.3 8.3,-7.4 0,-7.6 -10.3,-6.2 -10.3,-11.1 0,-2 2,-2.9 4.2,-2.9 1,0 3.6,0.6 4.6,1.2 l 0.4,-3.8 c -1.7,-0.5 -3.4,-0.9 -5.5,-0.9 -4.7,0 -8.4,2.4 -8.4,7.3 0,6.7 10.3,6.3 10.3,10.7 0,2.6 -2.5,3.4 -4.5,3.4 -1.3,0 -3.7,-0.6 -5.5,-1.7 z m -9.8,-8.5 c 0,3.6 -2.3,6.3 -6.6,6.3 -2,0 -4.4,-1.4 -4.4,-3.9 0,-4.2 5.9,-4.6 8.3,-4.6 0.9,0 1.9,0.1 2.8,0.1 v 2.1 z m -12.8,-9.2 c 1.8,-1.5 4.4,-2.4 6.9,-2.4 4.4,0 5.9,2.1 5.9,6.2 -1.7,-0.1 -2.9,-0.1 -4.7,-0.1 -4.5,0 -11.1,1.9 -11.1,7.9 0,5.2 3.6,7.4 8.7,7.4 4,0 6.4,-2.2 7.4,-3.6 h 0.1 v 3.1 h 4.1 c -0.1,-0.7 -0.2,-2 -0.2,-4.7 v -9.9 c 0,-6.5 -2.8,-9.9 -9.6,-9.9 -3,0 -5.7,0.9 -7.8,2.2 z m -9.6,-13.1 c -2.7,-0.9 -4.8,-1.6 -9.6,-1.6 -10,0 -17.2,6.7 -17.2,16.7 0,10.4 6.9,17 17.2,17 5.1,0 8.2,-0.8 9.9,-1.4 v -17 h -11.5 v 3.8 h 6.9 v 9.9 c -1.2,0.2 -2,0.6 -5.2,0.6 -6.8,0 -12.3,-5.1 -12.3,-12.8 0,-7.3 5,-12.8 12.5,-12.8 4.2,0 6.7,0.7 9,2.2 z m -43.1,20.7 h 12 v -3.5 h -12 z m -9.8,1.6 c 0,3.6 -2.3,6.3 -6.6,6.3 -2,0 -4.4,-1.4 -4.4,-3.9 0,-4.2 5.9,-4.6 8.3,-4.6 0.9,0 1.9,0.1 2.8,0.1 v 2.1 z m -12.8,-9.2 c 1.8,-1.5 4.4,-2.4 6.9,-2.4 4.4,0 5.9,2.1 5.9,6.2 -1.7,-0.1 -2.9,-0.1 -4.7,-0.1 -4.5,0 -11.1,1.9 -11.1,7.9 0,5.2 3.6,7.4 8.7,7.4 4,0 6.4,-2.2 7.4,-3.6 h 0.1 v 3.1 h 4.1 c -0.1,-0.7 -0.2,-2 -0.2,-4.7 v -9.9 c 0,-6.5 -2.8,-9.9 -9.6,-9.9 -3,0 -5.7,0.9 -7.9,2.2 z M 351,333.6 h -5 v 4.9 h 4.9 v -4.9 z m -4.7,34.1 h 4.4 v -23.8 h -4.4 z m -18.8,0 h 4.4 v -10.8 c 0,-6 2.6,-9.7 6.5,-9.7 0.8,0 1.6,0.1 2.4,0.4 v -3.9 c -0.9,-0.2 -1.6,-0.3 -2.9,-0.3 -2.5,0 -5,1.8 -6.2,4.2 h -0.1 v -3.7 h -4.1 z m -25.4,-11.9 c 0,-4.5 2.8,-8.9 7.5,-8.9 4.7,0 7.4,4.4 7.4,8.9 0,4.3 -2.3,8.9 -7.4,8.9 -5.2,0 -7.5,-4.6 -7.5,-8.9 m -4.7,0 c 0,6.8 4.9,12.5 12.2,12.5 7.2,0 12.1,-5.6 12.1,-12.5 0,-7.2 -4.9,-12.5 -12.1,-12.5 -7.3,0 -12.2,5.3 -12.2,12.5 m -3.9,-11.9 h -6.3 V 337 l -4.4,1.4 v 5.5 h -5.4 v 3.5 h 5.4 v 13.9 c 0,4.8 2.8,6.9 7.3,6.9 1.4,0 2.8,-0.4 3.7,-0.6 v -3.7 c -0.7,0.4 -1.6,0.8 -3,0.8 -2,0 -3.7,-1.5 -3.7,-4.2 v -13 h 6.3 v -3.6 z m -20.4,-10.3 h -4.9 v 4.9 h 4.9 z m -4.7,34.1 h 4.4 v -23.8 h -4.4 z m -4.6,-32.6 h -4.9 l -10.3,28.5 h -0.1 l -10,-28.5 h -5.2 l 12.3,32.6 h 5.8 z"
   id="path4"
   style="fill:#ffffff" />
	<path
   d="m 601.2,311.6 h 19.3 v -3.5 h -14.3 l 13.7,-16.5 v -3.8 h -18.2 v 3.5 h 13.1 l -13.7,16.5 v 3.8 z m -6.1,-34.1 h -4.9 v 4.9 h 4.9 z m -4.7,34.1 h 4.4 v -23.8 h -4.4 z M 567,297.4 c 0.3,-3.1 2.1,-6.6 6.4,-6.6 3.8,0 5.9,3 5.9,6.6 z m 15.2,8.9 c -1.1,0.9 -4.4,2.4 -7.3,2.4 -4.2,0 -7.9,-3.2 -7.9,-7.9 h 17 c 0,-7.7 -2.6,-13.5 -10.5,-13.5 -6.7,0 -11.2,5 -11.2,12.1 0,7.8 3.9,12.9 12.3,12.9 3.9,0 5.8,-0.9 7.5,-1.5 v -4.5 z m -23.8,-18.5 h -6.3 v -6.9 l -4.4,1.4 v 5.5 h -5.4 v 3.5 h 5.4 v 13.9 c 0,4.8 2.8,6.9 7.3,6.9 1.4,0 2.8,-0.4 3.7,-0.7 v -3.7 c -0.7,0.4 -1.6,0.8 -3,0.8 -2,0 -3.7,-1.5 -3.7,-4.3 v -13 h 6.3 v -3.4 z m -32.9,23.1 c 2,1.1 4.3,1.3 6.5,1.3 4.3,0 8.3,-2.3 8.3,-7.4 0,-7.6 -10.3,-6.2 -10.3,-11.1 0,-2 2,-2.9 4.2,-2.9 1,0 3.6,0.6 4.6,1.2 l 0.4,-3.8 c -1.7,-0.5 -3.4,-0.9 -5.5,-0.9 -4.7,0 -8.4,2.4 -8.4,7.3 0,6.7 10.3,6.3 10.3,10.7 0,2.6 -2.5,3.4 -4.5,3.4 -1.3,0 -3.7,-0.6 -5.5,-1.7 z m -9.8,-8.5 c 0,3.6 -2.3,6.3 -6.6,6.3 -2,0 -4.4,-1.4 -4.4,-3.9 0,-4.2 5.9,-4.6 8.3,-4.6 0.9,0 1.9,0.1 2.8,0.1 v 2.1 z m -12.8,-9.2 c 1.8,-1.5 4.4,-2.4 6.9,-2.4 4.4,0 5.9,2.1 5.9,6.2 -1.7,-0.1 -2.9,-0.1 -4.7,-0.1 -4.5,0 -11.1,1.9 -11.1,7.8 0,5.2 3.6,7.4 8.7,7.4 4,0 6.4,-2.2 7.4,-3.6 h 0.1 v 3.1 h 4.1 c -0.1,-0.7 -0.2,-2 -0.2,-4.7 V 297 c 0,-6.5 -2.8,-9.9 -9.6,-9.9 -3,0 -5.7,0.9 -7.8,2.2 z m -9.5,-13.1 c -2.7,-0.9 -4.8,-1.6 -9.6,-1.6 -10,0 -17.2,6.7 -17.2,16.7 0,10.4 6.9,17 17.2,17 5.1,0 8.2,-0.8 9.9,-1.4 v -17 h -11.5 v 3.8 h 6.9 v 9.9 c -1.2,0.2 -2,0.6 -5.2,0.6 -6.8,0 -12.3,-5.1 -12.3,-12.8 0,-7.3 5,-12.8 12.5,-12.8 4.2,0 6.7,0.8 9,2.2 z m -43.1,20.7 h 12 v -3.5 h -12 z m -9.9,1.6 c 0,3.6 -2.3,6.3 -6.6,6.3 -2,0 -4.4,-1.4 -4.4,-3.9 0,-4.2 5.9,-4.6 8.3,-4.6 0.9,0 1.9,0.1 2.8,0.1 v 2.1 z m -12.8,-9.2 c 1.8,-1.5 4.4,-2.4 6.9,-2.4 4.4,0 5.9,2.1 5.9,6.2 -1.7,-0.1 -2.9,-0.1 -4.7,-0.1 -4.5,0 -11.1,1.9 -11.1,7.8 0,5.2 3.6,7.4 8.7,7.4 4,0 6.4,-2.2 7.4,-3.6 h 0.1 v 3.1 h 4.1 c -0.1,-0.7 -0.2,-2 -0.2,-4.7 V 297 c 0,-6.5 -2.8,-9.9 -9.6,-9.9 -3,0 -5.7,0.9 -7.9,2.2 z m -9.1,-15.7 h -4.9 v 4.9 h 4.9 z m -4.7,34.1 h 4.4 v -23.8 h -4.4 z m -18.7,0 h 4.4 v -10.8 c 0,-6 2.6,-9.7 6.5,-9.7 0.7,0 1.6,0.1 2.4,0.4 v -3.9 c -0.9,-0.2 -1.6,-0.3 -2.9,-0.3 -2.5,0 -5,1.8 -6.2,4.2 h -0.1 v -3.7 h -4.1 z m -25.5,-11.9 c 0,-4.5 2.8,-8.9 7.5,-8.9 4.7,0 7.4,4.4 7.4,8.9 0,4.3 -2.3,8.9 -7.4,8.9 -5.2,0 -7.5,-4.6 -7.5,-8.9 m -4.7,0 c 0,6.8 4.9,12.5 12.2,12.5 7.2,0 12.1,-5.6 12.1,-12.5 0,-7.2 -4.9,-12.5 -12.1,-12.5 -7.3,0 -12.2,5.3 -12.2,12.5 M 361,287.8 h -6.3 v -6.9 l -4.4,1.4 v 5.5 h -5.4 v 3.5 h 5.4 v 13.9 c 0,4.8 2.8,6.9 7.3,6.9 1.4,0 2.8,-0.4 3.7,-0.7 v -3.7 c -0.7,0.4 -1.6,0.8 -3,0.8 -2,0 -3.7,-1.5 -3.7,-4.3 v -13 h 6.3 v -3.4 z m -20.4,-10.3 h -4.9 v 4.9 h 4.9 z m -4.7,34.1 h 4.4 v -23.8 h -4.4 z M 331.3,279 h -4.9 l -10.3,28.5 H 316 L 306,279 h -5.2 l 12.3,32.6 h 5.8 z m -63,18.4 c 0.3,-3.1 2.1,-6.6 6.4,-6.6 3.8,0 5.9,3 5.9,6.6 z m 15.2,8.9 c -1.1,0.9 -4.4,2.4 -7.3,2.4 -4.2,0 -7.9,-3.2 -7.9,-7.9 h 17 c 0,-7.7 -2.6,-13.5 -10.5,-13.5 -6.7,0 -11.2,5 -11.2,12.1 0,7.8 3.9,12.9 12.3,12.9 3.9,0 5.8,-0.9 7.5,-1.5 v -4.5 z m -43.8,-6.7 c -0.1,-4.4 1.8,-8.8 6.5,-8.8 4.8,0 7.1,4.5 7.1,9 0,4 -2.1,8.9 -7,8.9 -4.7,-0.1 -6.7,-5.3 -6.6,-9.1 m 13.8,12 h 4.2 v -35 h -4.4 v 14.5 h -0.1 c -1.4,-2.2 -3.7,-3.8 -7.9,-3.8 -6.9,0 -10.3,5.6 -10.3,12.1 0,6.5 3,12.9 10.2,12.9 4.3,0 7,-2.1 8.1,-3.9 h 0.1 v 3.2 z"
   id="path6"
   style="fill:#ffffff" />
	<path
   d="m 524.2,253 c 0,-4.5 2.8,-8.9 7.5,-8.9 4.7,0 7.4,4.4 7.4,8.9 0,4.3 -2.3,8.9 -7.4,8.9 -5.2,0 -7.5,-4.7 -7.5,-8.9 m -4.7,0 c 0,6.8 4.9,12.5 12.2,12.5 7.2,0 12.1,-5.6 12.1,-12.5 0,-7.2 -4.9,-12.5 -12.1,-12.5 -7.3,0 -12.2,5.2 -12.2,12.5 m -3.9,-11.9 h -6.3 v -6.9 l -4.4,1.4 v 5.5 h -5.4 v 3.5 h 5.4 v 13.9 c 0,4.8 2.8,6.9 7.3,6.9 1.4,0 2.8,-0.4 3.7,-0.7 V 261 c -0.7,0.4 -1.6,0.8 -3,0.8 -2,0 -3.7,-1.5 -3.7,-4.3 v -13 h 6.3 v -3.4 z m -41.2,23.8 h 4.4 v -11 c 0,-5.8 2.2,-9.8 7.2,-9.8 3.8,0.2 5.1,2.9 5.1,8.5 v 12.3 h 4.4 v -14.2 c 0,-6.4 -2.8,-10.2 -8.9,-10.2 -3.3,0 -6.5,1.6 -7.8,4.3 h -0.1 V 241 h -4.2 v 23.9 z m -22.9,-14.2 c 0.3,-3.1 2.1,-6.6 6.4,-6.6 3.8,0 5.9,3 5.9,6.6 z m 15.2,8.8 c -1.1,0.9 -4.4,2.4 -7.3,2.4 -4.2,0 -7.9,-3.2 -7.9,-7.9 h 17 c 0,-7.7 -2.6,-13.5 -10.5,-13.5 -6.7,0 -11.2,5 -11.2,12.1 0,7.8 3.9,12.9 12.3,12.9 3.9,0 5.8,-0.9 7.5,-1.5 v -4.5 z m -26,-28.7 h -4.9 v 4.9 h 4.9 z m -4.7,34.1 h 4.4 V 241.1 H 436 Z m -42.2,0 h 4.4 v -12 c 0,-4.4 1.8,-8.8 6.3,-8.8 3.6,0 4.3,3.7 4.3,6.6 v 14.2 h 4.4 v -12 c 0,-4.4 1.8,-8.8 6.3,-8.8 3.6,0 4.3,3.7 4.3,6.6 v 14.2 h 4.4 v -15.3 c 0,-5.2 -2.2,-9.1 -8.3,-9.1 -2.2,0 -5.8,1.2 -7.4,4.6 -1.3,-3.2 -4,-4.6 -6.8,-4.6 -3.5,0 -5.9,1.3 -7.6,4 H 398 V 241 h -4.1 v 23.9 z M 382,255.6 c 0,3.6 -2.3,6.3 -6.6,6.3 -2,0 -4.4,-1.4 -4.4,-3.9 0,-4.2 5.9,-4.6 8.3,-4.6 0.9,0 1.9,0.1 2.8,0.1 v 2.1 z m -12.8,-9.1 c 1.8,-1.5 4.4,-2.4 6.9,-2.4 4.4,0 5.9,2.1 5.9,6.2 -1.7,-0.1 -2.9,-0.1 -4.7,-0.1 -4.5,0 -11.1,1.9 -11.1,7.8 0,5.2 3.6,7.4 8.7,7.4 4,0 6.4,-2.2 7.4,-3.6 h 0.1 v 3.1 h 4.1 c -0.1,-0.7 -0.2,-2 -0.2,-4.7 v -9.9 c 0,-6.5 -2.8,-9.9 -9.6,-9.9 -3,0 -5.7,0.9 -7.8,2.2 z m -6.8,-5.4 h -6.3 v -6.9 l -4.4,1.4 v 5.5 h -5.4 v 3.5 h 5.4 v 13.9 c 0,4.8 2.8,6.9 7.3,6.9 1.4,0 2.8,-0.4 3.7,-0.7 V 261 c -0.6,0.4 -1.6,0.8 -3,0.8 -2,0 -3.7,-1.5 -3.7,-4.3 v -13 h 6.3 v -3.4 z m -41.3,23.8 h 4.4 v -11 c 0,-5.8 2.2,-9.8 7.2,-9.8 3.8,0.2 5,2.9 5,8.5 v 12.3 h 4.4 v -14.2 c 0,-6.4 -2.8,-10.2 -8.9,-10.2 -3.3,0 -6.5,1.6 -7.8,4.3 h -0.1 V 241 h -4.2 z m -7.4,-23.8 h -4.4 v 11 c 0,5.8 -2.2,9.8 -7.2,9.8 -3.8,-0.2 -5,-2.9 -5,-8.5 v -12.3 h -4.4 v 14.2 c 0,6.4 2.8,10.2 8.9,10.2 3.3,0 6.5,-1.6 7.8,-4.3 h 0.1 v 3.8 h 4.2 z m -46.5,33.8 c 0.8,0.1 1.6,0.3 3,0.3 5.8,0 7.5,-5.3 9.2,-9.9 l 8.8,-24.4 h -4.4 l -6.5,19.7 H 277 l -6.4,-19.7 h -4.8 l 8.1,22.2 c 0.3,0.8 0.8,2 0.8,2.5 0,0.5 -1.3,5.9 -5.2,5.9 -0.7,0 -1.5,-0.2 -2.1,-0.4 z m -11,-22.1 h -13 l 6.5,-16.2 z m -22.7,12.1 h 4.9 l 3.3,-8.2 h 16 l 3.3,8.2 h 5.1 l -13.8,-32.6 h -4.9 z"
   id="path8"
   style="fill:#ffffff" />
	<path
   d="m 147.1,234.1 c 1.8,1 4.2,1.7 7,1.7 3.3,0 6.2,-0.9 8,-2.4 4.8,-3.8 -26.1,-20.5 -64.3,-17.9 -28.4,2 -52.4,9.8 -62.5,19.3 -2.3,2 -3.5,5.2 -2.9,8.4 1,4.8 13.7,-8 14.8,-8.8 6.6,-4.6 26.6,-8 50.2,-8 22.7,0 42.4,3.3 49.7,7.7"
   id="path10"
   style="fill:#ffffff" />
	<path
   d="m 94.9,191.7 c -5,3.2 -4.4,8.6 -4.4,14.5 0,1.2 0.8,2.1 1.8,2.6 8.7,-1.6 12.1,-8.2 14.4,-16.5 0.6,-2.2 -3.1,-2.2 -5.4,-2.4 -2.5,-0.3 -4.2,0.4 -6.4,1.8"
   id="path12"
   style="fill:#ffffff" />
	<path
   d="m 150,208.4 c 1.2,3.9 4.6,7.1 8.9,7.1 3.3,0 5,-3.7 5,-6.9 0,-4.3 -5.6,-5.7 -10,-5.7 -1.7,0 -3.2,0.5 -3.9,2 -0.6,1.3 0,3.5 0,3.5"
   id="path14"
   style="fill:#ffffff" />
	<path
   d="m 117.7,204.7 c -1.7,-4.2 2.5,-7.8 6.7,-9.5 3.6,-1.4 8.2,-0.8 9.7,2.7 1,2.4 -0.7,4.1 -2.3,6.1 -1.6,2.2 -3,3.3 -5.6,4.3 -3.3,1.4 -7.1,-0.3 -8.5,-3.6"
   id="path16"
   style="fill:#ffffff" />
	<path
   d="m 45.1,216.4 c -1.2,3.9 -4.6,7.1 -8.9,7.1 -3.3,0 -5,-3.7 -5,-6.9 0,-4.3 5.6,-5.7 10,-5.7 1.7,0 3.2,0.5 3.9,2 0.6,1.2 0,3.5 0,3.5"
   id="path18"
   style="fill:#ffffff" />
	<path
   d="m 75.4,207.7 c 1.7,-4.2 -2.5,-7.8 -6.7,-9.5 -3.6,-1.4 -8.2,-0.8 -9.7,2.7 -1,2.4 0.7,4.1 2.3,6.1 1.6,2.2 3,3.3 5.6,4.3 3.4,1.3 7.2,-0.3 8.5,-3.6"
   id="path20"
   style="fill:#ffffff" />
	<path
   d="m 154.2,289.1 c 2.2,2.5 3.5,5.5 3.5,7.6 0,1.6 -0.7,5.2 -0.7,5.2 -2.3,10.2 -11.5,63.7 -12.6,70.3 -0.6,2.2 -2.6,3.8 -5,3.8 -2.9,0 -5.2,-2.3 -5.2,-5.1 0,-0.5 0.6,-3.9 0.6,-3.9 2.2,-13.7 11,-67.6 11,-67.6 0,0 0.4,-3.7 -3,-4.4 0,0 -20,-3.8 -22.8,-6.3 -1,-0.9 -1.6,-2.9 -1.7,-5.2 L 117,266.6 c 0,-4.7 -2.4,-9.5 -7,-9.9 -3.1,-0.3 -6.5,-0.5 -9.9,-0.5 -4,0 -7.9,0.3 -11.5,0.7 -4.8,0 -8.7,3.9 -8.7,8.7 l -1.1,19.3 c 0.1,1.9 -3.3,1.9 -3.3,1.9 0,0 -19,1.8 -22.3,2.5 -3.4,0.7 -3,4.4 -3,4.4 0,0 8.9,48.1 11,61.8 0,0 0.6,3.4 0.6,3.9 0,2.8 -2.3,5.1 -5.2,5.1 -2.4,0 -4.4,-1.6 -5,-3.8 -1.1,-6.6 -8.8,-51.8 -11.1,-62 0,0 -0.7,-3.6 -0.7,-5.2 0,-7 4,-13 9.9,-15.9 1,-0.3 1.7,-1.1 1.7,-1.9 0,-0.8 -0.6,-1.5 -1.5,-1.9 -9.6,-4.5 -4.2,-9 -4.2,-9 -0.6,-7.7 -19.9,-2.5 -4.8,-10.4 4.7,-2.5 12,5.4 12,5.4 4.3,1.5 10.3,5.1 15.4,8.8 0.4,0.3 0.8,0.5 1.3,0.5 1.2,0 2.2,-0.9 2.2,-2.1 v -9.3 c 0,-4.4 2.9,-8.4 7,-9.8 5.7,-1.8 12.8,-2.8 20,-2.8 12,0 22.6,2.8 29.5,7.1 1.4,0.9 2.4,2.4 2.4,4.2 v 10 0.9 c 0.1,1.3 1.1,2 2.3,2 0.4,0 0.9,-0.1 1.2,-0.3 4,-2.6 8.1,-4.8 11.2,-6 0,0 7.3,-7.9 12,-5.4 15.1,7.9 -4.2,2.8 -4.8,10.4 0,0 8.1,6.6 -12.9,11.9 -1,0.1 -1.7,0.8 -1.7,1.6 0,0.7 0.6,1.1 1.2,1.6 0,0 4.9,0.4 7.8,1.5 3.2,1.2 5.1,2 7.2,4.5"
   id="path22"
   style="fill:#ffffff" />
	<path
   d="m 81.8,343.4 c 0,-11 9.3,-19.8 20.5,-19.8 15.3,0 13.9,21.4 13.9,36.5 0,8.8 2.4,19.9 0.2,27 v 0.1 c -0.6,1.7 -2.1,2.9 -4,2.9 -2.3,0 -4.2,-1.9 -4.2,-4.3 0,0 -0.1,-28.3 -0.1,-46.8 0,-3.9 -3.4,-6.9 -7.4,-6.9 -10.3,0 -12.2,12.9 -12.2,23.1 v 23.5 c 0,3.4 0.6,7.6 0.1,10.8 -0.4,1.5 -1.8,2.6 -3.4,2.6 -1.8,0 -3.3,-1.4 -3.4,-3.1 0,-0.1 0,-27.7 0,-45.6"
   id="path24"
   style="fill:#ffffff" />
	<path
   d="m 100.4,436.1 c -2.7,3.5 -7,7.2 -13.3,10.4 -3.3,1.4 -7.4,-0.8 -9.1,-4.8 -0.2,-0.4 -0.3,-0.7 -0.4,-1.1 -1.5,-5.3 -6.1,-8.7 -11.8,-8.7 -5.3,0 -9.8,3.4 -11.6,8.1 l -0.3,1 c 0,0.1 -0.1,0.1 -0.1,0.2 -1.1,2.9 -4.1,4.5 -6.6,3.5 -2.5,-1 -3.7,-4.2 -2.5,-7.1 4.8,-9.4 13.1,-15.7 22.5,-15.7 8.3,0 15.8,4.9 20.7,12.4 4.9,-4.9 7.2,-10.5 5.6,-15.1 -2.7,-7.8 -15.5,-8.8 -29.5,-5.5 0,0 -0.8,-4.2 -1.6,-7 -1.6,-7.9 -10.8,-17.3 -18.8,-17.3 -5,0 -22.8,13.8 -1.9,14.3 0.6,0 1.1,0.3 1.5,0.8 0.4,0.6 0.3,1.4 -0.1,1.9 -6.1,9.1 -23,3.7 -17.6,-10.7 8.3,-22.4 42.4,-15.2 41.7,9.9 v 0.2 c 14.3,-2.7 27.1,-0.5 33.2,5.8 6,-6.3 18.8,-8.6 33.1,-5.8 v -0.2 c -0.7,-25.2 33.4,-32.3 41.7,-9.9 5.4,14.4 -11.5,19.8 -17.6,10.7 -0.4,-0.5 -0.5,-1.3 -0.1,-1.9 0.3,-0.5 0.9,-0.8 1.5,-0.8 21,-0.5 3.1,-14.3 -1.9,-14.3 -8,0 -17.2,9.4 -18.8,17.3 -0.8,2.8 -1.6,7 -1.6,7 -14.1,-3.3 -26.8,-2.3 -29.6,5.5 -1.6,4.7 0.7,10.2 5.6,15.1 4.9,-7.5 12.4,-12.4 20.7,-12.4 9.5,0 17.8,6.3 22.5,15.7 1.1,2.9 0,6.1 -2.5,7.1 -2.5,1 -5.5,-0.6 -6.6,-3.5 0,-0.1 -0.1,-0.1 -0.1,-0.2 l -0.3,-1 c -1.8,-4.7 -6.3,-8.1 -11.6,-8.1 -5.7,0 -10.3,3.4 -11.8,8.7 -0.1,0.4 -0.2,0.7 -0.4,1.1 -1.7,4 -5.8,6.1 -9.1,4.8 -6.5,-3.2 -10.4,-6.9 -13.1,-10.4 z"
   id="path26"
   style="fill:#ffffff" />
	<path
   d="m 161.5,436.5 c 3.6,3.1 7.7,5.5 8.9,10.1 0.6,2.3 -1.8,5 0.2,6.9 1.7,1.6 3.7,1.4 5.9,0.8 5,-1.4 3.4,-8.4 2.2,-12.8 -1.2,-4.3 -4.1,-7.7 -8.1,-9.8 0,0 1.1,-6.5 1.1,-8.3 0,-2.6 -3.2,-7 -7.2,-7.1 -2.3,-0.1 -4.7,0.1 -5.5,2.2 -1.3,3.5 2.9,2.5 3.4,7.2 0.2,1.8 -3.7,5.8 -2.2,9.1 0.2,0.6 0.7,1.3 1,1.6 0.1,0 0.2,0.1 0.3,0.1"
   id="path28"
   style="fill:#ffffff" />
	<path
   d="m 38.9,436.5 c -3.6,3.1 -7.7,5.5 -8.9,10.1 -0.6,2.3 1.8,5 -0.2,6.9 -1.7,1.6 -3.7,1.4 -5.9,0.8 -5,-1.4 -3.4,-8.4 -2.2,-12.8 1.2,-4.3 4.1,-7.7 8.1,-9.8 0,0 -1.1,-6.5 -1.1,-8.3 0,-2.6 3.2,-7 7.2,-7.1 2.3,-0.1 4.7,0.1 5.5,2.2 1.3,3.5 -2.9,2.5 -3.4,7.2 -0.2,1.8 3.7,5.8 2.2,9.1 -0.2,0.6 -0.7,1.3 -1,1.6 -0.1,0 -0.2,0.1 -0.3,0.1"
   id="path30"
   style="fill:#ffffff" />
</g>
</svg>
