<?xml version="1.0" encoding="UTF-8" standalone="no"?>
<!-- Created with Inkscape (http://www.inkscape.org/) -->

<svg
   version="1.1"
   id="svg1"
   width="4651.4053"
   height="1042.316"
   viewBox="0 0 4651.4053 1042.316"
   sodipodi:docname="HORZINTAL.pdf"
   xmlns:inkscape="http://www.inkscape.org/namespaces/inkscape"
   xmlns:sodipodi="http://sodipodi.sourceforge.net/DTD/sodipodi-0.dtd"
   xmlns="http://www.w3.org/2000/svg"
   xmlns:svg="http://www.w3.org/2000/svg">
  <defs
     id="defs1">
    <clipPath
       clipPathUnits="userSpaceOnUse"
       id="clipPath2">
      <path
         d="M 0,907.087 H 6066.142 V 0 H 0 Z"
         transform="translate(-1491.6792,-97.162077)"
         id="path2" />
    </clipPath>
    <clipPath
       clipPathUnits="userSpaceOnUse"
       id="clipPath4">
      <path
         d="M 0,907.087 H 6066.142 V 0 H 0 Z"
         transform="translate(-1545.063,-210.1025)"
         id="path4" />
    </clipPath>
    <clipPath
       clipPathUnits="userSpaceOnUse"
       id="clipPath6">
      <path
         d="M 0,907.087 H 6066.142 V 0 H 0 Z"
         transform="translate(-1546.9858,-235.98341)"
         id="path6" />
    </clipPath>
    <clipPath
       clipPathUnits="userSpaceOnUse"
       id="clipPath8">
      <path
         d="M 0,907.087 H 6066.142 V 0 H 0 Z"
         transform="translate(-1546.0249,-263.4521)"
         id="path8" />
    </clipPath>
    <clipPath
       clipPathUnits="userSpaceOnUse"
       id="clipPath10">
      <path
         d="M 0,907.087 H 6066.142 V 0 H 0 Z"
         transform="translate(-1548.9175,-291.77341)"
         id="path10" />
    </clipPath>
    <clipPath
       clipPathUnits="userSpaceOnUse"
       id="clipPath12">
      <path
         d="M 0,907.087 H 6066.142 V 0 H 0 Z"
         transform="translate(-1336.8819,-296.07421)"
         id="path12" />
    </clipPath>
    <clipPath
       clipPathUnits="userSpaceOnUse"
       id="clipPath14">
      <path
         d="M 0,907.087 H 6066.142 V 0 H 0 Z"
         transform="translate(-1296.0786,-321.89451)"
         id="path14" />
    </clipPath>
    <clipPath
       clipPathUnits="userSpaceOnUse"
       id="clipPath16">
      <path
         d="M 0,907.087 H 6066.142 V 0 H 0 Z"
         transform="translate(-1552.5006,-332.18551)"
         id="path16" />
    </clipPath>
    <clipPath
       clipPathUnits="userSpaceOnUse"
       id="clipPath18">
      <path
         d="M 0,907.087 H 6066.142 V 0 H 0 Z"
         transform="translate(-1265.8789,-356.46391)"
         id="path18" />
    </clipPath>
    <clipPath
       clipPathUnits="userSpaceOnUse"
       id="clipPath20">
      <path
         d="M 0,907.087 H 6066.142 V 0 H 0 Z"
         transform="translate(-1614.2275,-457.58591)"
         id="path20" />
    </clipPath>
    <clipPath
       clipPathUnits="userSpaceOnUse"
       id="clipPath22">
      <path
         d="M 0,907.087 H 6066.142 V 0 H 0 Z"
         transform="translate(-1600.6318,-424.39451)"
         id="path22" />
    </clipPath>
    <clipPath
       clipPathUnits="userSpaceOnUse"
       id="clipPath24">
      <path
         d="M 0,907.087 H 6066.142 V 0 H 0 Z"
         transform="translate(-1589.1064,-397.23731)"
         id="path24" />
    </clipPath>
    <clipPath
       clipPathUnits="userSpaceOnUse"
       id="clipPath26">
      <path
         d="M 0,907.087 H 6066.142 V 0 H 0 Z"
         transform="translate(-1570.4614,-351.83591)"
         id="path26" />
    </clipPath>
    <clipPath
       clipPathUnits="userSpaceOnUse"
       id="clipPath28">
      <path
         d="M 0,907.087 H 6066.142 V 0 H 0 Z"
         transform="translate(-1232.8701,-397.84671)"
         id="path28" />
    </clipPath>
    <clipPath
       clipPathUnits="userSpaceOnUse"
       id="clipPath30">
      <path
         d="M 0,907.087 H 6066.142 V 0 H 0 Z"
         transform="translate(-1217.3067,-419.80181)"
         id="path30" />
    </clipPath>
    <clipPath
       clipPathUnits="userSpaceOnUse"
       id="clipPath32">
      <path
         d="M 0,907.087 H 6066.142 V 0 H 0 Z"
         transform="translate(-1199.4546,-451.09081)"
         id="path32" />
    </clipPath>
    <clipPath
       clipPathUnits="userSpaceOnUse"
       id="clipPath34">
      <path
         d="M 0,907.087 H 6066.142 V 0 H 0 Z"
         transform="translate(-1205.2368,-503.75102)"
         id="path34" />
    </clipPath>
    <clipPath
       clipPathUnits="userSpaceOnUse"
       id="clipPath36">
      <path
         d="M 0,907.087 H 6066.142 V 0 H 0 Z"
         transform="translate(-1222.3159,-804.64262)"
         id="path36" />
    </clipPath>
    <clipPath
       clipPathUnits="userSpaceOnUse"
       id="clipPath38">
      <path
         d="M 0,907.087 H 6066.142 V 0 H 0 Z"
         transform="translate(-1370.2677,-855.17682)"
         id="path38" />
    </clipPath>
    <clipPath
       clipPathUnits="userSpaceOnUse"
       id="clipPath40">
      <path
         d="M 0,907.087 H 6066.142 V 0 H 0 Z"
         transform="translate(-1535.9316,-830.39162)"
         id="path40" />
    </clipPath>
    <clipPath
       clipPathUnits="userSpaceOnUse"
       id="clipPath42">
      <path
         d="M 0,907.087 H 6066.142 V 0 H 0 Z"
         transform="translate(-1296.5737,-117.45798)"
         id="path42" />
    </clipPath>
    <clipPath
       clipPathUnits="userSpaceOnUse"
       id="clipPath44">
      <path
         d="M 0,907.087 H 6066.142 V 0 H 0 Z"
         transform="translate(-1700.4117,-703.69242)"
         id="path44" />
    </clipPath>
    <clipPath
       clipPathUnits="userSpaceOnUse"
       id="clipPath46">
      <path
         d="M 0,907.087 H 6066.142 V 0 H 0 Z"
         transform="translate(-1418.3286,-403.71881)"
         id="path46" />
    </clipPath>
    <clipPath
       clipPathUnits="userSpaceOnUse"
       id="clipPath48">
      <path
         d="M 0,907.087 H 6066.142 V 0 H 0 Z"
         transform="translate(-1349.1852,-585.44042)"
         id="path48" />
    </clipPath>
    <clipPath
       clipPathUnits="userSpaceOnUse"
       id="clipPath50">
      <path
         d="M 0,907.087 H 6066.142 V 0 H 0 Z"
         transform="translate(-1298.8878,-517.36232)"
         id="path50" />
    </clipPath>
    <clipPath
       clipPathUnits="userSpaceOnUse"
       id="clipPath52">
      <path
         d="M 0,907.087 H 6066.142 V 0 H 0 Z"
         transform="translate(-1527.063,-497.11621)"
         id="path52" />
    </clipPath>
    <clipPath
       clipPathUnits="userSpaceOnUse"
       id="clipPath54">
      <path
         d="M 0,907.087 H 6066.142 V 0 H 0 Z"
         transform="translate(-1347.3354,-483.62011)"
         id="path54" />
    </clipPath>
    <clipPath
       clipPathUnits="userSpaceOnUse"
       id="clipPath56">
      <path
         d="M 0,907.087 H 6066.142 V 0 H 0 Z"
         transform="translate(-1213.6255,-454.17871)"
         id="path56" />
    </clipPath>
    <clipPath
       clipPathUnits="userSpaceOnUse"
       id="clipPath58">
      <path
         d="M 0,907.087 H 6066.142 V 0 H 0 Z"
         transform="translate(-1695.0162,-730.38382)"
         id="path58" />
    </clipPath>
    <clipPath
       clipPathUnits="userSpaceOnUse"
       id="clipPath60">
      <path
         d="M 0,907.087 H 6066.142 V 0 H 0 Z"
         transform="translate(-1694.3467,-726.77252)"
         id="path60" />
    </clipPath>
    <clipPath
       clipPathUnits="userSpaceOnUse"
       id="clipPath62">
      <path
         d="M 0,907.087 H 6066.142 V 0 H 0 Z"
         transform="translate(-1314.1636,-148.3711)"
         id="path62" />
    </clipPath>
    <clipPath
       clipPathUnits="userSpaceOnUse"
       id="clipPath64">
      <path
         d="M 0,907.087 H 6066.142 V 0 H 0 Z"
         transform="translate(-1456.8423,-122.97273)"
         id="path64" />
    </clipPath>
    <clipPath
       clipPathUnits="userSpaceOnUse"
       id="clipPath66">
      <path
         d="M 0,907.087 H 6066.142 V 0 H 0 Z"
         transform="translate(-1444.2622,-144.6055)"
         id="path66" />
    </clipPath>
    <clipPath
       clipPathUnits="userSpaceOnUse"
       id="clipPath68">
      <path
         d="M 0,907.087 H 6066.142 V 0 H 0 Z"
         transform="translate(-1275.1641,-149.2783)"
         id="path68" />
    </clipPath>
    <clipPath
       clipPathUnits="userSpaceOnUse"
       id="clipPath70">
      <path
         d="M 0,907.087 H 6066.142 V 0 H 0 Z"
         transform="translate(-1283.6373,-148.708)"
         id="path70" />
    </clipPath>
    <clipPath
       clipPathUnits="userSpaceOnUse"
       id="clipPath72">
      <path
         d="M 0,907.087 H 6066.142 V 0 H 0 Z"
         transform="translate(-1293.4722,-140.6221)"
         id="path72" />
    </clipPath>
    <clipPath
       clipPathUnits="userSpaceOnUse"
       id="clipPath74">
      <path
         d="M 0,907.087 H 6066.142 V 0 H 0 Z"
         transform="translate(-1303.7734,-139.7695)"
         id="path74" />
    </clipPath>
    <clipPath
       clipPathUnits="userSpaceOnUse"
       id="clipPath76">
      <path
         d="M 0,907.087 H 6066.142 V 0 H 0 Z"
         transform="translate(-1455.5991,-138.85353)"
         id="path76" />
    </clipPath>
    <clipPath
       clipPathUnits="userSpaceOnUse"
       id="clipPath78">
      <path
         d="M 0,907.087 H 6066.142 V 0 H 0 Z"
         transform="translate(-1462.9966,-143.2588)"
         id="path78" />
    </clipPath>
    <clipPath
       clipPathUnits="userSpaceOnUse"
       id="clipPath80">
      <path
         d="M 0,907.087 H 6066.142 V 0 H 0 Z"
         transform="translate(-1469.71,-140.76168)"
         id="path80" />
    </clipPath>
    <clipPath
       clipPathUnits="userSpaceOnUse"
       id="clipPath82">
      <path
         d="M 0,907.087 H 6066.142 V 0 H 0 Z"
         transform="translate(-1479.0498,-142.64358)"
         id="path82" />
    </clipPath>
    <clipPath
       clipPathUnits="userSpaceOnUse"
       id="clipPath84">
      <path
         d="M 0,907.087 H 6066.142 V 0 H 0 Z"
         transform="translate(-2050.1221,-422.36521)"
         id="path84" />
    </clipPath>
    <clipPath
       clipPathUnits="userSpaceOnUse"
       id="clipPath86">
      <path
         d="M 0,907.087 H 6066.142 V 0 H 0 Z"
         transform="translate(-3929.5001,-595.12011)"
         id="path86" />
    </clipPath>
    <clipPath
       clipPathUnits="userSpaceOnUse"
       id="clipPath88">
      <path
         d="M 0,907.087 H 6066.142 V 0 H 0 Z"
         transform="translate(-2206.0132,-524.37011)"
         id="path88" />
    </clipPath>
    <clipPath
       clipPathUnits="userSpaceOnUse"
       id="clipPath90">
      <path
         d="M 0,907.087 H 6066.142 V 0 H 0 Z"
         transform="translate(-4171.673,-217.0625)"
         id="path90" />
    </clipPath>
    <clipPath
       clipPathUnits="userSpaceOnUse"
       id="clipPath92">
      <path
         d="M 0,907.087 H 6066.142 V 0 H 0 Z"
         transform="translate(-4540.8409,-265.95901)"
         id="path92" />
    </clipPath>
    <clipPath
       clipPathUnits="userSpaceOnUse"
       id="clipPath94">
      <path
         d="M 0,907.087 H 6066.142 V 0 H 0 Z"
         transform="translate(-3588.3312,-589.88571)"
         id="path94" />
    </clipPath>
    <clipPath
       clipPathUnits="userSpaceOnUse"
       id="clipPath96">
      <path
         d="M 0,907.087 H 6066.142 V 0 H 0 Z"
         transform="translate(-3330.7442,-524.99801)"
         id="path96" />
    </clipPath>
    <clipPath
       clipPathUnits="userSpaceOnUse"
       id="clipPath98">
      <path
         d="M 0,907.087 H 6066.142 V 0 H 0 Z"
         transform="translate(-3925.0929,-479.04591)"
         id="path98" />
    </clipPath>
    <clipPath
       clipPathUnits="userSpaceOnUse"
       id="clipPath100">
      <path
         d="M 0,907.087 H 6066.142 V 0 H 0 Z"
         transform="translate(-3049.4503,-186.5957)"
         id="path100" />
    </clipPath>
    <clipPath
       clipPathUnits="userSpaceOnUse"
       id="clipPath102">
      <path
         d="M 0,907.087 H 6066.142 V 0 H 0 Z"
         transform="translate(-2453.692,-379.05761)"
         id="path102" />
    </clipPath>
    <clipPath
       clipPathUnits="userSpaceOnUse"
       id="clipPath104">
      <path
         d="M 0,907.087 H 6066.142 V 0 H 0 Z"
         transform="translate(-2307.2095,-112.27638)"
         id="path104" />
    </clipPath>
    <clipPath
       clipPathUnits="userSpaceOnUse"
       id="clipPath106">
      <path
         d="M 0,907.087 H 6066.142 V 0 H 0 Z"
         transform="translate(-4507.0782,-233.23241)"
         id="path106" />
    </clipPath>
    <clipPath
       clipPathUnits="userSpaceOnUse"
       id="clipPath108">
      <path
         d="M 0,907.087 H 6066.142 V 0 H 0 Z"
         transform="translate(-2791.8364,-693.49512)"
         id="path108" />
    </clipPath>
  </defs>
  <sodipodi:namedview
     id="namedview1"
     pagecolor="#ffffff"
     bordercolor="#999999"
     borderopacity="1"
     inkscape:showpageshadow="0"
     inkscape:pageopacity="0"
     inkscape:pagecheckerboard="0"
     inkscape:deskcolor="#d1d1d1" />
  <g
     id="layer-MC0"
     inkscape:groupmode="layer"
     inkscape:label="Capa 1"
     transform="translate(-1432.6169,-69.213597)">
    <path
       id="path1"
       d="m 0,0 c -0.247,-14.082 -47.7,-24.671 -105.999,-23.655 -58.293,1.025 -105.349,13.268 -105.105,27.351 0.251,14.086 47.705,24.67 106.007,23.644 C -46.803,26.323 0.248,14.081 0,0"
       style="fill:#bdbcbc;fill-opacity:1;fill-rule:evenodd;stroke:none"
       transform="matrix(1.3333333,0,0,-1.3333333,1988.9056,1079.8999)"
       clip-path="url(#clipPath2)" />
    <path
       id="path3"
       d="M 0,0 C -0.005,0.035 0,0.08 -0.01,0.11 -0.025,0.224 -0.064,0.318 -0.089,0.433 -0.094,0.438 -0.094,0.438 -0.094,0.447 -0.268,1.092 -0.713,1.602 -1.437,1.85 -1.981,2.156 -2.606,2.384 -3.418,2.384 H -3.75 c -0.179,0 -0.343,-0.034 -0.516,-0.055 -8.136,1.036 -17,0.705 -25.076,0.705 -9.81,0.004 -19.616,-0.012 -29.412,-0.239 -4.133,0.124 -8.255,0.225 -12.358,0.209 -25.279,-0.03 -50.538,-0.916 -75.827,-0.49 -26.023,0.445 -52.082,0.425 -78.109,0.603 -24.735,0.174 -49.498,-1.723 -74.193,-1.163 -2.334,0.054 -3.152,-3.266 -1.517,-4.386 -0.366,-0.253 -0.668,-0.62 -0.703,-1.209 -0.005,-0.113 -0.015,-0.217 -0.02,-0.327 -0.015,-0.297 0.094,-0.599 0.263,-0.862 -0.357,-0.897 -0.114,-1.957 0.897,-2.586 -0.164,-0.665 -0.065,-1.357 0.301,-1.873 -0.188,-1.447 1.145,-2.919 2.686,-3.093 24.794,-2.739 50.445,-1.55 75.402,-2.69 29.219,-1.332 58.592,-1.951 87.845,-2.279 25.979,-0.302 51.966,-1.784 77.944,-1.144 12.11,0.297 24.7,0.619 36.676,2.591 5.227,0.863 17.262,-1.467 19.388,5.494 0.376,1.23 -0.025,2.662 -0.902,3.629 0.228,0.068 0.476,0.118 0.689,0.202 C 2.958,-5.36 2.448,-0.891 0,0"
       style="fill:#bf1b2c;fill-opacity:1;fill-rule:evenodd;stroke:none"
       transform="matrix(1.3333333,0,0,-1.3333333,2060.084,929.31267)"
       clip-path="url(#clipPath4)" />
    <path
       id="path5"
       d="m 0,0 c -0.015,0.029 -0.01,0.074 -0.02,0.108 -0.009,0.115 -0.055,0.208 -0.079,0.317 0,0 -0.01,0.011 -0.01,0.02 -0.168,0.634 -0.61,1.155 -1.338,1.397 -0.535,0.312 -1.169,0.546 -1.982,0.54 -0.104,-0.004 -0.214,-0.004 -0.321,-0.004 -0.185,0 -0.353,-0.03 -0.526,-0.055 -8.131,1.031 -16.995,0.703 -25.072,0.703 -9.81,0 -19.611,0 -29.417,-0.232 -4.127,0.118 -8.244,0.217 -12.351,0.208 -25.285,-0.025 -50.54,-0.922 -75.834,-0.491 -26.018,0.441 -52.075,0.422 -78.103,0.609 -24.739,0.169 -49.499,-1.728 -74.204,-1.169 -2.318,0.05 -3.146,-3.265 -1.501,-4.39 -0.371,-0.247 -0.669,-0.613 -0.713,-1.213 -0.006,-0.105 -0.01,-0.208 -0.015,-0.323 -0.02,-0.296 0.094,-0.588 0.267,-0.852 -0.371,-0.902 -0.119,-1.962 0.887,-2.591 -0.308,-1.278 0.327,-2.721 2.037,-2.617 50.45,3.177 100.622,2.013 151.107,0.754 27.252,-0.679 54.522,0.153 81.784,0.109 11.951,-0.025 23.912,0.406 35.859,0.679 8.626,0.198 21.206,-1.12 29.248,1.902 C 2.958,-5.362 2.438,-0.893 0,0"
       style="fill:#bf1b2c;fill-opacity:1;fill-rule:evenodd;stroke:none"
       transform="matrix(1.3333333,0,0,-1.3333333,2062.6477,894.8048)"
       clip-path="url(#clipPath6)" />
    <path
       id="path7"
       d="M 0,0 C -0.006,0.04 0,0.074 -0.021,0.108 -0.03,0.223 -0.07,0.327 -0.09,0.431 -0.099,0.436 -0.104,0.446 -0.104,0.446 -0.283,1.09 -0.719,1.601 -1.447,1.848 -1.978,2.16 -2.612,2.388 -3.43,2.388 -3.528,2.384 -3.638,2.384 -3.756,2.384 c -0.179,0 -0.347,-0.03 -0.52,-0.055 -8.132,1.036 -16.995,0.703 -25.072,0.703 -9.805,0 -19.611,-0.004 -29.417,-0.238 -4.117,0.13 -8.245,0.22 -12.352,0.22 -25.279,-0.041 -50.534,-0.928 -75.834,-0.492 -26.012,0.442 -52.074,0.411 -78.097,0.599 -24.735,0.174 -49.499,-1.729 -74.199,-1.169 -2.329,0.054 -3.147,-3.255 -1.511,-4.39 -0.371,-0.248 -0.674,-0.62 -0.704,-1.204 -0.015,-0.114 -0.019,-0.222 -0.024,-0.317 -0.02,-0.307 0.094,-0.609 0.267,-0.871 -0.362,-0.898 -0.114,-1.958 0.892,-2.582 -0.312,-1.274 0.327,-2.725 2.031,-2.611 50.456,3.166 100.623,2.006 151.108,0.752 27.255,-0.683 54.528,0.154 81.785,0.099 11.964,-0.015 23.906,0.412 35.867,0.68 8.617,0.197 21.196,-1.121 29.243,1.913 C 2.953,-5.361 2.453,-0.892 0,0"
       style="fill:#bf1b2c;fill-opacity:1;fill-rule:evenodd;stroke:none"
       transform="matrix(1.3333333,0,0,-1.3333333,2061.3665,858.17987)"
       clip-path="url(#clipPath8)" />
    <path
       id="path9"
       d="m 0,0 c -0.004,0.387 -0.128,0.772 -0.297,1.165 0.738,1.025 0.629,2.61 -0.237,3.641 -1.334,1.552 -3.38,0.981 -5.148,0.828 -0.882,-0.078 -1.899,-0.207 -2.899,-0.406 -0.644,0.02 -1.273,0.03 -1.893,0.02 -0.109,0 -0.173,-0.044 -0.272,-0.05 -5.282,0.505 -10.787,0.551 -16.138,0.526 -1.991,-4.183 -4.321,-8.211 -7.422,-11.555 0.198,0 0.396,0.005 0.594,0.005 0.857,0.024 1.769,0.029 2.69,0.024 -1.075,-1.228 -0.113,-3.537 1.888,-3.092 4.39,0.987 9.255,1.106 13.745,1.13 4.103,0.026 8.919,-0.411 12.759,1.165 0.901,0.362 1.302,1.119 1.282,1.853 C 0.813,-4.162 1.264,-1.526 0,0"
       style="fill:#bf1b2c;fill-opacity:1;fill-rule:evenodd;stroke:none"
       transform="matrix(1.3333333,0,0,-1.3333333,2065.2233,820.41813)"
       clip-path="url(#clipPath10)" />
    <path
       id="path11"
       d="m 0,0 c -0.605,0.397 -0.952,0.888 -1.194,1.397 -5.337,0.026 -10.663,0.051 -15.989,0.089 -24.735,0.173 -49.504,-1.728 -74.199,-1.169 -0.575,0.021 -1.056,-0.183 -1.442,-0.495 -1.784,0.763 -4.479,-0.698 -3.548,-2.898 0.06,0.263 0.06,0.203 0.015,-0.179 -0.069,-0.396 -0.06,-0.782 0.055,-1.164 0.104,-0.383 0.262,-0.787 0.436,-1.188 -0.045,-1.131 -0.446,-2.335 -0.422,-3.51 0.065,-2.739 3.003,-3.493 4.733,-2.328 0.302,-0.153 0.674,-0.238 1.135,-0.213 36.011,2.26 71.889,2.304 107.845,1.695 C 11.446,-6.99 5.628,-3.661 0,0"
       style="fill:#bf1b2c;fill-opacity:1;fill-rule:evenodd;stroke:none"
       transform="matrix(1.3333333,0,0,-1.3333333,1782.5091,814.68373)"
       clip-path="url(#clipPath12)" />
    <path
       id="path13"
       d="m 0,0 c -0.391,1.041 -1.288,1.888 -2.661,1.898 -1.05,0 -2.106,-0.025 -3.166,-0.025 0.649,1.298 0.436,2.973 -0.669,3.934 1.244,1.937 -0.386,5.297 -3.364,4.672 -0.53,-0.11 -1.061,-0.213 -1.591,-0.327 -0.134,-0.029 -0.233,-0.08 -0.362,-0.114 C -19.487,8.368 -27.841,8.26 -35.591,7.269 -41.487,6.506 -50.332,6.44 -55.459,3.245 c -0.58,-0.356 -1.125,-1.08 -1.041,-1.808 0.01,-0.069 0.02,-0.144 0.035,-0.218 -0.441,-0.659 -0.62,-1.448 -0.531,-2.236 -0.084,-0.113 -0.173,-0.208 -0.242,-0.316 -0.872,-1.393 -0.302,-3.488 1.01,-4.444 -0.827,-0.372 -1.144,-1.006 -1.168,-1.691 -0.987,-0.47 -1.914,-1 -2.686,-1.67 -1.571,-1.351 0.089,-4.404 2.085,-3.586 17.903,7.328 39.932,1.04 58.131,6.238 C 3.349,-5.574 3.092,-0.327 0,0"
       style="fill:#bf1b2c;fill-opacity:1;fill-rule:evenodd;stroke:none"
       transform="matrix(1.3333333,0,0,-1.3333333,1728.1048,780.25667)"
       clip-path="url(#clipPath14)" />
    <path
       id="path15"
       d="m 0,0 c -2.125,-0.021 -4.256,0.124 -6.387,0.094 -0.867,-0.019 -1.784,-0.119 -2.716,-0.212 -1.223,0.271 -2.486,0.499 -3.675,0.574 -1.051,0.074 -1.943,-0.496 -2.517,-1.303 -0.447,0.03 -0.883,0.07 -1.323,0.07 -2.661,0 -3.603,-2.474 -2.84,-4.406 -0.465,-0.753 -0.595,-1.744 -0.356,-2.69 -3.191,-0.645 -2.845,-5.437 0.644,-5.827 0.56,-0.065 1.12,-0.114 1.674,-0.173 0.224,-1.245 1.244,-2.27 2.795,-1.695 2.537,0.952 5.653,0.328 8.314,0.198 1.403,-0.064 2.241,0.768 2.507,1.813 0.996,0.411 1.844,1.111 2.349,2.338 0.382,0.903 0.044,1.834 -0.525,2.578 0.133,0.341 0.202,0.708 0.168,1.11 -0.059,0.614 -0.258,1.139 -0.521,1.615 0.392,-0.034 0.784,-0.065 1.17,-0.1 1.224,-0.633 2.824,-0.247 3.518,0.982 L 1.546,-5.698 C 3.85,-3.999 3.285,0.034 0,0"
       style="fill:#bf1b2c;fill-opacity:1;fill-rule:evenodd;stroke:none"
       transform="matrix(1.3333333,0,0,-1.3333333,2070.0007,766.53533)"
       clip-path="url(#clipPath16)" />
    <path
       id="path17"
       d="M 0,0 C 1.898,1.091 1.273,4.718 -1.209,4.455 -1.427,4.429 -1.635,4.391 -1.853,4.36 V 4.37 C -1.982,4.351 -2.116,4.325 -2.245,4.296 -2.918,4.212 -3.587,4.123 -4.241,3.998 c -0.194,0.204 -0.402,0.383 -0.654,0.511 -0.089,0.045 -0.188,0.075 -0.282,0.113 0.069,1.482 -0.819,2.94 -2.74,2.87 -0.417,-0.011 -0.868,-0.044 -1.284,-0.064 -0.323,1.51 -1.853,2.908 -3.647,2.551 -4.905,-0.971 -10.092,-2.304 -14.527,-4.682 -1.571,-0.322 -3.147,-0.649 -4.643,-1.056 -3.097,-0.832 -2.462,-4.42 -0.129,-5.401 -0.015,-0.336 0.035,-0.668 0.134,-0.999 -1.957,-1.389 -0.862,-5.283 1.724,-4.971 0.773,0.1 1.576,0.258 2.359,0.377 0.029,-0.025 0.079,-0.03 0.114,-0.055 -0.08,-0.045 -0.164,-0.075 -0.233,-0.129 -0.59,-0.38 -0.927,-1.03 -1.055,-1.718 -0.025,-0.095 -0.05,-0.199 -0.06,-0.298 -0.02,-0.163 -0.005,-0.322 0,-0.485 0.01,-0.129 0,-0.264 0.03,-0.383 0.104,-0.614 0.386,-1.14 0.857,-1.486 0.782,-0.743 1.957,-1.109 3.215,-0.515 l 0.754,0.346 c 0.139,0.07 0.247,0.159 0.351,0.254 h 0.016 c 7.867,1.407 15.894,4.321 23.415,6.635 C 1.987,-3.819 1.714,-1.051 0,0"
       style="fill:#bf1b2c;fill-opacity:1;fill-rule:evenodd;stroke:none"
       transform="matrix(1.3333333,0,0,-1.3333333,1687.8385,734.16413)"
       clip-path="url(#clipPath18)" />
    <path
       id="path19"
       d="m 0,0 c -0.049,0.164 -0.093,0.338 -0.139,0.507 -0.237,0.936 -1.055,1.807 -2.016,2.205 -5.158,4.588 -11.917,8.047 -17.298,12.377 -7.104,5.727 -15.453,9.741 -22.678,15.335 L -42.2,30.329 c -1.982,1.655 -5.446,-0.465 -3.726,-2.829 0.019,-0.029 0.044,-0.044 0.059,-0.084 -1.006,-0.753 -1.586,-2.19 -0.936,-3.573 0.094,-0.202 0.223,-0.396 0.326,-0.604 -0.123,0.074 -0.247,0.149 -0.381,0.213 -0.322,0.347 -0.744,0.526 -1.194,0.575 -1.124,0.327 -1.957,-0.153 -2.428,-0.931 -0.644,-0.679 -0.896,-1.646 -0.203,-2.652 0.174,-0.416 0.461,-0.767 0.882,-0.975 6.322,-6.387 14.22,-11.525 21.553,-16.778 4.52,-3.231 8.825,-6.674 13.23,-10.028 2.586,-1.972 5.005,-5.694 8.562,-5.709 3.914,-0.015 4.495,4.475 2.368,6.482 0.609,0.475 1.021,1.195 1.229,1.962 C -0.977,-4.142 0.57,-2.223 0,0"
       style="fill:#bf1b2c;fill-opacity:1;fill-rule:evenodd;stroke:none"
       transform="matrix(1.3333333,0,0,-1.3333333,2152.3033,599.3348)"
       clip-path="url(#clipPath20)" />
    <path
       id="path21"
       d="m 0,0 c 1.471,2.726 -1.774,6.03 -4.812,4.484 -0.068,-0.029 -16.489,12.307 -18.297,13.453 -6.833,4.315 -14.146,8.259 -21.648,11.271 -1.353,0.551 -2.299,-0.703 -2.309,-1.897 -1.001,-0.789 -1.557,-2.201 -0.827,-3.488 0.029,-0.04 0.054,-0.075 0.073,-0.104 -2.16,0.427 -3.765,-1.646 -2.76,-3.627 3.132,-6.263 12.284,-10.489 17.863,-14.205 7.011,-4.662 14.815,-8.666 21.271,-14.157 0.362,-0.823 1.135,-1.466 2.051,-1.833 0.837,-0.797 1.655,-1.611 2.418,-2.477 2.18,-2.458 6.313,-0.476 6.303,2.611 -0.021,2.16 2.442,4.435 2.199,7.026 C 1.432,-1.829 0.852,-0.713 0,0"
       style="fill:#bf1b2c;fill-opacity:1;fill-rule:evenodd;stroke:none"
       transform="matrix(1.3333333,0,0,-1.3333333,2134.1757,643.59)"
       clip-path="url(#clipPath22)" />
    <path
       id="path23"
       d="m 0,0 c -6.199,2.73 -12.228,5.772 -18.273,8.814 -5.668,2.855 -13.938,5.307 -18.591,9.711 -2.224,2.091 -5.217,-1.029 -3.314,-3.309 0.638,-0.763 1.386,-1.456 2.174,-2.12 -1.159,-1.022 -1.719,-2.795 -0.915,-4.242 -1.235,-0.788 -1.463,-2.839 -0.442,-3.999 3.816,-4.305 9.727,-6.252 14.602,-9.046 5.926,-3.41 12.466,-5.684 18.372,-9.048 3.934,-1.659 7.433,3.741 3.449,5.895 -0.892,0.407 -1.764,1.656 -2.577,2.716 1.002,-0.5 2.003,-1.015 3.013,-1.496 C 2.448,-8.492 4.118,-0.753 0,0"
       style="fill:#bf1b2c;fill-opacity:1;fill-rule:evenodd;stroke:none"
       transform="matrix(1.3333333,0,0,-1.3333333,2118.8085,679.7996)"
       clip-path="url(#clipPath24)" />
    <path
       id="path25"
       d="m 0,0 c -0.346,0.308 -0.763,0.724 -1.18,1.136 0.715,-0.214 1.408,-0.185 2.023,0.029 0.589,0.049 1.164,0.197 1.744,0.481 0.971,0.486 1.689,1.763 1.629,2.838 -0.281,5.009 -5.361,8.126 -9.27,10.51 -3.433,2.085 -6.709,4.39 -9.87,6.867 -1.328,1.046 -2.597,2.19 -3.904,3.27 -0.412,0.407 -0.843,0.808 -1.258,1.214 -0.338,0.535 -0.56,0.862 -0.748,1.094 0.777,2.112 -2.116,3.762 -3.885,2.29 -1.526,-1.279 -1.918,-2.685 -1.542,-4.176 -1.322,0.416 -2.76,-0.085 -3.686,-0.976 -0.034,-1.339 -0.059,-2.667 -0.084,-4.004 0.074,-0.064 0.124,-0.13 0.204,-0.204 0.218,-0.168 0.455,-0.311 0.668,-0.49 0,0 -0.01,0 -0.01,-0.005 0.035,-0.024 0.065,-0.04 0.099,-0.055 1.229,-0.921 2.503,-1.794 3.801,-2.616 -0.263,-0.461 -0.426,-0.986 -0.426,-1.575 0,-2.195 0.574,-3.83 2.571,-5.06 3.374,-2.075 6.115,-4.557 9.152,-7.08 3.161,-2.61 6.311,-5.208 9.438,-7.848 1.487,-1.253 3.146,-2.785 5.219,-2.547 1.302,0.154 2.868,0.857 3.1,2.354 0.04,0.273 0.085,0.549 0.13,0.818 C 4.34,-1.011 1.972,0.53 0,0"
       style="fill:#bf1b2c;fill-opacity:1;fill-rule:evenodd;stroke:none"
       transform="matrix(1.3333333,0,0,-1.3333333,2093.9485,740.3348)"
       clip-path="url(#clipPath26)" />
    <path
       id="path27"
       d="m 0,0 c -0.129,0.629 -0.436,1.238 -0.912,1.68 -0.159,0.832 -0.723,1.55 -1.456,2.031 0.208,0.273 0.43,0.55 0.623,0.828 1.353,1.917 -0.178,3.775 -1.996,4.25 -0.456,1.547 -2.483,2.607 -3.781,1.102 C -7.611,9.775 -7.715,9.652 -7.804,9.543 V 9.528 c -3.459,-4.286 -7.204,-7.918 -11.282,-11.619 -2.24,-2.022 -6.659,-4.657 -6.343,-8.165 0.149,-1.73 1.78,-3.539 3.692,-2.824 0.238,0.098 0.47,0.217 0.703,0.332 0.461,-0.609 1.215,-1.017 1.968,-1.106 0.045,-0.143 0.114,-0.283 0.178,-0.412 -0.015,-0.153 -0.064,-0.306 -0.079,-0.465 -0.114,-1.887 1.729,-3.175 3.439,-3.166 0.312,-0.05 0.619,-0.059 0.955,0.065 3.093,1.124 5.778,4.211 8.102,6.476 2.824,2.76 5.237,6.124 7.486,9.354 C 1.63,-1.109 0.882,-0.145 0,0"
       style="fill:#bf1b2c;fill-opacity:1;fill-rule:evenodd;stroke:none"
       transform="matrix(1.3333333,0,0,-1.3333333,1643.8268,678.98707)"
       clip-path="url(#clipPath28)" />
    <path
       id="path29"
       d="m 0,0 c -0.347,-0.253 -0.688,-0.505 -1.036,-0.768 0.021,0.827 -0.322,1.615 -0.901,2.14 0.124,1.273 -0.838,2.453 -2.046,2.943 -0.025,0.02 -0.055,0.01 -0.09,0.025 0.248,1.467 -0.248,2.774 -2.314,3.186 -0.5,0.094 -0.99,0.065 -1.481,-0.019 -0.089,0.084 -0.189,0.134 -0.278,0.193 0.788,0.946 1.462,1.957 1.888,3.076 0.704,1.918 -2.091,2.826 -3.126,1.318 -1.883,-2.76 -5.292,-4.746 -7.601,-7.174 -2.784,-2.934 -6.565,-5.465 -8.582,-8.998 -0.98,-1.71 0.957,-3.632 2.671,-2.671 0.5,0.277 0.991,0.601 1.467,0.937 0.098,-0.233 0.208,-0.471 0.346,-0.674 -0.456,-0.427 -0.902,-0.863 -1.373,-1.279 -2.838,-2.576 1.314,-6.62 4.178,-4.172 0.287,0.274 0.629,0.516 0.941,0.763 -0.049,-0.787 0.253,-1.511 0.713,-2.065 -0.772,-0.699 -1.555,-1.383 -2.328,-2.101 -0.506,-0.303 -0.902,-0.778 -1.036,-1.447 l -0.015,-0.034 c -0.415,-2.073 1.779,-4.301 3.825,-2.939 3.583,2.388 6.263,5.782 9.375,8.731 2.864,2.716 7.036,5.449 8.746,9.092 C 2.483,-0.788 1.273,0.907 0,0"
       style="fill:#bf1b2c;fill-opacity:1;fill-rule:evenodd;stroke:none"
       transform="matrix(1.3333333,0,0,-1.3333333,1623.0755,649.7136)"
       clip-path="url(#clipPath30)" />
    <path
       id="path31"
       d="m 0,0 c -0.024,0.502 -0.109,1.016 -0.372,1.513 -0.614,1.139 -1.868,1.479 -3.052,1.316 -0.48,1.309 -1.501,2.155 -2.929,2.211 -3.037,0.099 -5.231,-2.429 -7.332,-4.262 -2.394,-2.1 -5.832,-4.518 -7.106,-7.471 -0.609,-1.393 -0.074,-2.963 0.912,-3.906 -0.055,-1.625 1.343,-3.135 3.127,-3.126 -0.025,-0.04 -0.05,-0.084 -0.064,-0.124 -0.432,-1.089 -0.089,-2.002 0.589,-2.64 -0.03,-0.123 -0.084,-0.243 -0.089,-0.367 -0.184,-1.416 1.615,-2.73 2.914,-2.229 2.486,0.966 5.117,3.319 6.737,5.415 2.047,2.636 4.411,5.257 6.764,7.615 0.897,0.912 0.853,1.938 0.357,2.717 C 1.338,-2.309 0.912,-0.861 0,0"
       style="fill:#bf1b2c;fill-opacity:1;fill-rule:evenodd;stroke:none"
       transform="matrix(1.3333333,0,0,-1.3333333,1599.2728,607.99493)"
       clip-path="url(#clipPath32)" />
    <path
       id="path33"
       d="m 0,0 c 1.67,4.916 2.557,10.083 0.956,13.834 -0.228,0.529 -0.56,0.916 -0.936,1.194 0.124,1.323 0.238,2.641 0.243,3.945 0.025,3.809 -6.006,4.796 -6.774,0.91 -1.917,-9.681 -5.247,-19.168 -8.69,-28.401 -1.081,-2.913 -2.225,-6.293 -3.513,-9.771 -4.514,-7.827 -9.925,-14.744 -15.662,-19.288 -1.908,-1.512 -0.035,-4.524 1.967,-4.411 -0.055,-0.34 -0.065,-0.688 -0.03,-1.026 -0.486,-0.697 -0.977,-1.396 -1.427,-2.104 -2.087,-3.24 3.082,-6.237 5.137,-3.013 0.595,0.921 1.214,1.833 1.854,2.739 0.05,0.055 0.109,0.099 0.169,0.14 l 0.019,-0.02 c 0.03,0.04 0.055,0.074 0.085,0.103 3.507,2.904 5.97,6.486 7.967,10.392 2.151,2.66 4.276,5.345 6.223,8.07 5.648,7.973 9.286,15.791 12.937,24.676 C 0.872,-1.199 0.575,-0.475 0,0"
       style="fill:#bf1b2c;fill-opacity:1;fill-rule:evenodd;stroke:none"
       transform="matrix(1.3333333,0,0,-1.3333333,1606.9824,537.78133)"
       clip-path="url(#clipPath34)" />
    <path
       id="path35"
       d="m 0,0 c 1.457,0.669 45.158,26.935 45.659,25.839 0.5,-1.1 13.794,-61.817 13.794,-61.817 l -25.032,-16.801 33.411,-23.589 -75.686,18.337 40.595,25.285 z"
       style="fill:#bf1b2c;fill-opacity:1;fill-rule:evenodd;stroke:none"
       transform="matrix(1.3333333,0,0,-1.3333333,1629.7545,136.59253)"
       clip-path="url(#clipPath36)" />
    <path
       id="path37"
       d="M 0,0 C 1.571,-0.229 51.673,-1.844 51.505,-3.013 51.336,-4.191 29.926,-61.43 29.926,-61.43 L 0.282,-61.965 15.295,-99.28 -37.444,-43.752 9.587,-44.523 Z"
       style="fill:#bf1b2c;fill-opacity:1;fill-rule:evenodd;stroke:none"
       transform="matrix(1.3333333,0,0,-1.3333333,1827.0235,69.2136)"
       clip-path="url(#clipPath38)" />
    <path
       id="path39"
       d="M 0,0 C 1.273,-0.955 44.45,-26.418 43.736,-27.364 43.023,-28.32 -3.245,-68.246 -3.245,-68.246 l -26.256,13.754 -4.742,-39.941 -19.621,74.025 40.897,-23.258 z"
       style="fill:#bf1b2c;fill-opacity:1;fill-rule:evenodd;stroke:none"
       transform="matrix(1.3333333,0,0,-1.3333333,2047.9088,102.26053)"
       clip-path="url(#clipPath40)" />
    <path
       id="path41"
       d="M 0,0 C -1.318,-0.599 -3.919,-0.524 -5.158,0.1 -7.62,1.363 -8.894,4.47 -8.195,7.12 -6.684,12.897 2.443,14.424 4.212,7.953 4.796,5.852 4.796,2.166 0,0 m 17.446,16.49 c 0,1.922 -16.97,1.11 -25.933,0.961 -12.754,-0.212 -19.002,1.973 -21.445,1.76 -1.243,-0.109 -1.64,-4.476 -1.665,-7.314 0,-0.392 -0.495,-0.555 -0.653,-0.862 -0.521,-0.378 -1.042,-0.764 -1.566,-1.18 -0.219,-0.058 -0.447,-0.093 -0.65,-0.177 -5.435,-2.335 -12.857,-7.834 -18.099,-13.969 -3.677,-2.67 -6.64,-6.505 -8.606,-10.604 3.126,0.635 6.678,-0.014 9.542,-1.049 3.915,-1.417 7.537,-3.394 10.008,-6.848 1.17,-1.62 1.339,-3.572 0.818,-5.257 7.794,3.166 15.237,8.002 21.767,12.085 C -8.413,-9.31 2.661,-1.1 11.961,7.309 l 0.361,0.014 c 3.474,0.145 5.124,5.724 5.124,9.167"
       style="fill:#231f20;fill-opacity:1;fill-rule:nonzero;stroke:none"
       transform="matrix(1.3333333,0,0,-1.3333333,1728.7649,1052.8387)"
       clip-path="url(#clipPath42)" />
    <path
       id="path43"
       d="M 0,0 C 2.671,0.006 5.549,-0.376 7.819,-1.867 7.011,-6.391 5.301,-11.152 4.117,-14.408 v -0.094 c -0.01,-0.243 -0.069,-0.496 -0.104,-0.754 -1.763,2.063 -6.247,0.897 -8.11,-0.377 -0.372,-0.247 -0.803,-0.643 -1.224,-1.119 -0.02,0.427 -0.025,0.828 0,1.249 -0.031,0.382 -0.06,0.769 -0.075,1.149 C -6.298,-4.216 -4.009,6.12 3.295,10.555 6.545,9.801 7.908,7.329 8.215,4.152 7.344,4.832 6.387,5.232 5.277,5.496 4.276,5.729 2.75,5.986 1.778,5.54 1.61,5.461 1.591,5.203 1.72,5.104 2.364,4.564 3.266,4.529 4.059,4.371 5.465,4.078 6.759,3.563 8.027,2.879 8.106,2.83 8.19,2.85 8.274,2.84 8.285,1.859 8.19,0.818 8.057,-0.242 5.743,1.422 2.592,1.863 -0.173,1.259 -0.882,1.105 -0.709,0 0,0 m 2.592,-19.283 c -0.982,-3.266 -3.94,-7.983 -5.431,-6.962 -0.348,0.966 -0.664,1.991 -0.957,3.022 -0.301,0.318 -0.549,0.7 -0.638,1.248 -0.154,0.922 -0.297,1.839 -0.436,2.746 -0.045,0.08 -0.06,0.172 -0.1,0.252 0.317,0.442 0.679,0.868 1.001,1.235 1.115,1.287 6.219,3.463 6.977,0.748 0.075,-0.248 0.208,-0.402 0.376,-0.491 -0.247,-0.64 -0.525,-1.244 -0.792,-1.798 M -38.331,-37.85 c -0.861,-3.111 8.859,-2.347 8.508,-4.96 -18.709,-61.85 -62.5,-178.095 -62.5,-178.095 l -21.727,17.575 c 0,0 28.52,85.118 44.35,129.851 2.344,6.624 5.169,14.081 7.978,21.469 2.591,6.813 7.288,15.023 7.982,20.86 1.829,15.731 -9.593,28.272 -11.049,41.705 -0.723,6.654 1.05,11.336 6.05,12.734 -2.017,-2.151 -2.785,-5.584 -1.759,-8.28 0.258,-0.655 1.144,-0.54 1.214,0.168 0.262,2.805 0.47,6.356 2.626,8.473 1.383,0.134 2.957,0.075 4.747,-0.218 9.156,-1.477 14.18,-11.792 15.958,-17.818 -3.066,-1.843 -5.346,-4.459 -4.755,-8.552 0.104,-0.659 0.292,-1.263 0.525,-1.823 -4.088,3.166 -7.503,9.816 -9.89,12.863 -2.503,-9.211 11.515,-24.933 21.473,-15.95 0.898,-10.326 15.425,-8.21 19.018,-3.681 -0.209,-8.176 1.204,-14.742 4.905,-19.017 -5.272,-6.579 -22.381,-6.724 -33.654,-7.304 m -104.353,-329.425 c -4.216,5.087 0.292,16.123 -1.224,24.526 -14.855,-50.772 -13.774,-117.488 -16.564,-180.321 -94.231,1.976 -193.936,2.493 -289.51,1.223 -2.591,48.489 -6.149,98.676 -9.196,147.818 -0.768,12.283 -6.754,45.391 -6.754,45.391 l -2.402,-14.145 c 0,0 -50.307,63.098 -60.152,114.737 15.271,14.489 25.492,29.829 29.328,50.584 1.551,-2.125 2.874,-3.987 3.785,-5.197 -0.743,-14.696 0.233,-30.111 2.453,-43.543 -5.669,1.963 -7.349,5.139 -12.61,0.144 -6.456,-6.154 -8.324,-16.733 -1.497,-28.362 7.522,-12.808 72.891,-102.332 88.939,-118.386 16.059,-16.048 31.013,-30.842 49.067,-43.543 18.572,-13.075 38.976,-22.479 60.727,-31.898 23.154,-10.019 53.518,-25.592 87.096,-15.945 12.367,3.557 22.93,13.922 30.67,23.917 8.047,10.41 16.886,24.155 20.855,35.576 1.61,4.668 10.802,32.325 15.693,62.405 6.247,38.44 8.432,81.047 10.682,87.265 3.349,9.231 15.032,42.175 19.621,49.673 13.031,-9.455 25.244,-19.736 34.961,-32.505 -6.169,-20.602 -48.656,-119.772 -53.968,-129.414 m -441.624,323.238 c 0,0 8.647,2.333 8.484,4.74 -10.995,0.867 -28.799,0.506 -33.634,7.531 3.682,4.291 4.97,10.966 4.296,19.622 5.059,-6.565 18.581,-6.307 19.631,3.682 2.017,-2.22 7.799,-3.905 10.019,-3.19 2.815,0.886 7.472,3.675 9.27,6.866 2.983,5.311 2.18,11.653 2.18,11.653 0,0 -5.856,-16.127 -15.954,-14.096 -1.606,0.312 -1.338,2.518 -1.205,4.569 2.469,0.609 4.936,2.269 6.106,3.904 1.208,1.705 1.164,4.182 0.381,6.03 -0.536,1.294 -1.447,1.943 -2.517,2.388 3.186,6.016 9.895,13.061 16.677,13.895 0.026,-0.016 0.015,-0.045 0.035,-0.061 2.903,-2.711 1.298,-8.285 -0.267,-11.148 -0.154,-0.287 0.247,-0.624 0.471,-0.362 2.249,2.547 4.419,8.736 1.53,11.649 0.937,-0.044 1.863,-0.242 2.781,-0.555 0.128,-0.951 0.123,-1.928 0.227,-2.859 0.233,-2.13 -0.109,-4.325 -0.54,-6.402 -0.099,-0.514 0.654,-0.911 0.896,-0.386 0.922,1.962 1.393,4.092 1.086,6.258 -0.104,0.758 -0.203,1.883 -0.496,2.889 0.828,-0.406 1.645,-0.902 2.438,-1.596 5.713,-5.005 0.163,-21.593 -2.452,-28.832 -2.627,-7.259 -6.679,-15.507 -6.13,-22.698 0.312,-4.182 52.13,-136.386 52.745,-139.845 3.344,-18.888 -13.433,-29.907 -18.398,-31.275 -22.39,49.365 -57.66,157.629 -57.66,157.629 m -26.988,16.562 c -3.979,-0.603 -4.31,4.342 -5.584,7.285 0.307,0.554 0.594,1.075 0.852,1.357 1.66,1.858 4.4,1.888 6.862,1.462 -0.054,-5.594 -0.777,-9.895 -2.13,-10.104 m -6.005,10.471 c -0.031,-0.016 -0.089,-0.029 -0.129,-0.045 -1.006,4.162 -3.463,10.891 -4.053,16.569 1.69,0.629 3.504,0.941 5.233,1.511 0.644,0.213 0.52,1.125 -0.149,1.16 -1.819,0.104 -3.573,-0.323 -5.193,-1.051 -0.025,0.481 -0.054,0.966 -0.03,1.413 0.367,0.213 0.729,0.426 1.125,0.599 1.382,0.619 2.918,1.031 4.186,1.858 0.402,0.252 0.273,0.936 -0.247,0.922 -1.803,-0.045 -3.403,-0.7 -4.871,-1.596 0.447,2.368 1.616,4.207 3.999,4.994 5.346,1.759 8.032,-12.882 8.264,-24.233 -2.422,0.43 -5.048,-0.011 -7.055,-1.327 -0.312,-0.209 -0.684,-0.541 -1.041,-0.938 -0.019,0.049 -0.024,0.104 -0.039,0.164 m 9.687,49.023 h 1.838 c 1.055,-0.476 2.031,-1.369 2.913,-2.533 -2.477,-0.124 -5.118,-1.53 -6.734,-3.224 -0.044,-0.05 -0.029,-0.135 0.04,-0.15 1.19,-0.253 2.338,0.56 3.444,0.942 1.357,0.461 2.78,0.688 4.133,1.134 0.435,-0.723 0.847,-1.52 1.223,-2.377 -0.084,0.069 -0.179,0.128 -0.317,0.128 -1.403,0.025 -2.656,-0.347 -3.969,-0.823 -1.412,-0.514 -2.492,-1.571 -3.854,-2.095 -0.011,-0.005 -0.011,-0.025 0.004,-0.025 1.121,0.025 1.982,0.357 3.072,0.639 1.635,0.412 3.27,0.838 4.896,1.249 0.267,0.064 0.366,0.277 0.366,0.501 1.263,-2.984 2.22,-6.66 2.755,-10.539 0.852,-6.071 3.667,-11.223 5.559,-14.969 -1.664,0.154 -3.409,-0.119 -4.836,-0.69 -2.739,-1.089 -4.494,-3.279 -5.801,-5.781 -1.007,1.258 -1.735,2.883 -2.076,4.375 -2.285,7.095 -9.078,30.086 -2.656,34.238 m 17.178,-36.805 c 0.475,-7.978 -7.263,-8.091 -11.114,-3.532 1.169,1.952 2.572,3.736 4.633,4.821 2.17,1.143 4.068,0.466 6.104,0.237 0.204,-0.569 0.342,-1.09 0.377,-1.526 m -0.149,10.395 c -0.075,0.08 -0.104,0.188 -0.163,0.278 0.431,1.962 2.571,4.004 4.053,4.613 1.972,0.803 3.785,-0.049 5.653,-0.57 -1.338,-3.657 -3.498,-6.481 -4.306,-10.659 -0.129,-0.029 -0.272,-0.053 -0.396,-0.079 -0.183,-0.038 -0.307,-0.177 -0.386,-0.336 -1.695,1.591 -3.211,3.939 -4.455,6.753 m 14.092,0.56 c 0.505,-1.646 0.01,-3.239 -1.125,-4.474 -0.818,-0.877 -1.923,-1.342 -3.107,-1.645 0.09,0.233 0.163,0.471 0.248,0.704 0.238,1.03 0.649,2.037 1.205,2.978 0.009,0.024 0.029,0.035 0.043,0.055 0.011,0.029 0.035,0.053 0.05,0.084 0.045,1.197 0.471,2.685 1.189,4.295 0.664,-0.461 1.21,-1.056 1.497,-1.997 m -15.177,31.989 c 1.546,1.051 3.29,0.208 5.014,-1.631 -2.744,-0.213 -6.396,-1.431 -7.124,-3.993 -0.12,-0.401 0.312,-0.546 0.579,-0.427 v -0.023 c 2.443,1.51 4.999,2.17 7.65,3.11 0.471,-0.614 0.927,-1.317 1.372,-2.061 -3.071,-0.246 -6.352,-1.828 -7.679,-4.34 -0.03,-0.055 0.015,-0.129 0.079,-0.104 1.412,0.48 2.666,1.383 4.093,1.868 1.436,0.495 2.908,0.808 4.4,1.06 1.936,-3.543 3.592,-7.808 4.503,-11.253 0.248,-0.421 1.363,-3.111 1.363,-3.111 0,0 -1.571,-3.146 -1.977,-4.245 -0.06,0.038 -0.119,0.073 -0.173,0.118 -0.07,-0.134 -0.099,-0.263 -0.203,-0.396 -0.075,-0.094 -0.134,-0.213 -0.208,-0.308 -2.552,1.774 -6.387,1.666 -8.905,0 -1.109,-0.734 -2.254,-2.086 -2.982,-3.557 -3.642,10.533 -4.232,24.744 0.198,29.293 m 331.15,-437.164 c -3.482,11.149 -5.757,17.56 -23.237,12.713 -1.908,20.132 -1.481,46.973 11.039,58.27 7.016,6.336 20.483,11.965 29.441,2.452 7.046,-14.007 8.88,-33.237 9.206,-53.978 -9.32,4.148 -25.467,3.519 -28.366,-4.438 2.388,-4.822 4.316,-11.665 1.917,-15.019 m 110.478,215.123 c 0.179,-22.901 -2.76,-44.89 -11.658,-59.503 -6.319,-10.359 -18.675,-23.475 -35.576,-18.391 -27.926,8.392 -35.472,39.916 -30.671,78.509 25.414,-0.378 53.874,2.442 77.905,-0.615 m -313.427,55.817 c 18.085,23.163 54.329,42.7 93.835,45.39 19.214,1.309 42.006,-0.445 58.883,-4.91 15.806,-4.172 29.342,-11.451 44.781,-17.174 15.701,-5.826 32.687,-9.859 48.449,-13.492 17.316,-3.998 34.49,-6.99 55.821,-6.133 1.872,0.073 10.276,0.599 10.276,0.599 l 0.639,-4.306 c 0,0 -8.236,-0.203 -11.525,-0.584 -5.891,-0.699 -16.003,-3.761 -17.788,-6.138 10.916,-0.948 21.048,-2.663 30.056,-5.52 0.897,-6.457 2.086,-12.625 1.843,-20.246 -33.761,0.545 -74.922,-1.328 -111.028,-2.447 -0.292,-4.47 0.214,-13.23 0,-19.632 2.468,-1.417 7.558,-0.208 11.045,-0.609 -3.36,-53.284 8.423,-106.693 60.717,-101.822 17.475,1.635 27.003,12.15 34.356,25.15 -3.121,-62.306 -12.912,-123.265 -39.87,-163.771 -15.109,-5.568 -38.352,-3.438 -47.23,6.13 15.582,17.945 13.625,62.251 4.905,86.491 5.118,0.202 21.187,-6.729 28.456,-6.418 -4.029,12.883 -15.614,25.047 -30.552,30.701 -5.709,1.566 -13.542,3.324 -29.462,2.348 -21.622,-3.592 -40.926,-14.844 -45.256,-34.325 7.744,-2.861 23.098,4.706 30.198,6.47 -13.233,-27.475 -11.543,-84.217 16.559,-93.85 -7.426,-19.527 -74.653,-1.085 -128.854,42.974 -37.553,30.537 -108.581,133.443 -109.744,139.196 -0.62,3.06 -1.111,6.48 1.837,9.809 6.952,9.614 16.128,-9.21 24.542,-12.878 -13.492,40.045 -6.69,92.364 14.111,118.997 m 133.706,126.352 c 38.518,4.058 72.667,-8.235 101.816,-17.788 -15.27,0.273 -30.868,4.831 -47.839,6.135 -53.249,4.056 -105.735,-5.248 -139.844,-22.698 19.695,16.45 50.663,30.645 85.867,34.351 m 130.649,-79.737 c 17.347,-7.27 33.118,-15.147 52.749,-6.744 -9.94,-10.618 -29.477,-8.899 -46.005,-7.368 -13.577,1.274 -27.737,8.547 -41.096,13.501 -39.465,14.623 -77.95,31.458 -133.101,28.828 47.115,10.103 101.895,2.691 135.554,-14.721 9.676,-5.004 20.691,-8.799 31.899,-13.496 M -32.33,32.41 c 1.213,-0.401 2.581,-0.519 3.79,-0.828 2.136,-0.519 4.112,-1.541 6.09,-2.451 0.391,-0.179 1.001,0.231 0.669,0.668 -1.274,1.699 -2.908,2.586 -4.916,3.245 -0.936,0.312 -1.967,0.55 -2.953,0.664 -0.594,0.069 -1.204,0 -1.803,-0.04 0.218,0.308 0.431,0.654 0.654,0.951 0.253,0.11 0.406,0.303 0.521,0.526 1.382,-0.12 2.759,-0.238 4.117,-0.6 1.516,-0.405 2.605,-1.635 3.686,-2.705 0.322,-0.313 0.788,0.085 0.6,0.456 -0.64,1.298 -1.457,2.606 -2.879,3.157 -1.507,0.578 -3.081,0.733 -4.672,0.817 1.937,2.05 3.979,3.3 5.732,3.117 4.49,-0.487 4.345,-15.737 1.13,-27.441 -1.244,1.279 -2.82,2.32 -3.978,2.829 -1.819,0.799 -6.62,1.432 -9.019,0.016 -2.497,4.325 -0.288,11.98 3.231,17.619 m 7.407,-38.157 c 0.318,1.57 1.165,3.567 2.18,5.797 2.662,0.966 5.426,1.234 8.236,0.351 1.862,-0.594 3.031,-1.797 3.74,-3.467 -1.021,-2.478 -2.254,-4.836 -4.201,-6.719 -0.57,-0.55 -1.184,-0.828 -1.804,-0.903 -2.369,-0.846 -4.469,0.393 -4.469,0.393 0,0 -4.414,0.807 -3.682,4.548 m -8.582,-0.258 c -0.178,-0.084 -0.356,-0.113 -0.535,-0.173 -1.619,0.668 -3.057,1.303 -3.711,3.315 -0.812,2.531 0.421,5.129 2.23,6.927 0.08,-0.164 0.159,-0.322 0.238,-0.476 0.638,-1.293 1.897,-3.24 2.482,-5.099 1.051,-1.491 2.587,-2.982 -0.704,-4.494 m -0.341,17.595 c -0.277,0.545 -0.51,1.099 -0.734,1.675 0.684,0.049 1.433,0.059 1.675,0.089 1.888,0.238 4.212,-0.204 5.93,-1.031 1.582,-0.748 2.731,-2.032 3.415,-3.607 -1.477,-4.222 -3.384,-7.659 -5.654,-9.206 -0.644,4.925 -3.215,7.928 -4.632,12.08 m 16.895,5.098 c 0.397,4.593 3.137,17.224 8.592,16.554 4.044,-0.48 4.435,-8.453 4.301,-12.878 -0.243,-7.892 -2.63,-14.988 -5.088,-20.566 -1.036,1.169 -2.324,2.11 -3.484,2.616 -3.225,1.402 -6.391,0.981 -9.241,-0.457 2.087,4.515 4.504,9.752 4.92,14.731 M 6.362,13.008 C 2.235,15.816 0,14.543 0,14.543 c 0,0 0.758,13.586 -3.037,19.328 -3.31,5 -10.941,2.805 -14.527,-3.695 1.748,24.62 -25.31,4.365 -21.46,-9.812 -4.712,7.31 -21.737,10.54 -27.603,3.683 -11.832,-13.815 9.329,-42.027 9.201,-55.197 -22.044,-54.216 -42.121,-110.404 -61.336,-167.458 -2.983,1.922 -9.979,7.1 -9.979,7.1 0,0 -11.208,-40.872 -14.557,-47.581 0.257,2.046 2.225,10.499 3.051,19.948 1.414,16.158 1.853,35.873 1.853,35.873 h 11.655 l -1.229,21.469 -12.754,1.115 c 0,0 -0.362,11.524 -0.738,16.668 10.9,-4.638 28.069,-18.155 30.67,-15.945 2.597,2.205 -14.869,26.275 -32.508,31.285 -0.462,3.608 -1.239,4.117 -1.1,7.125 17.04,13.274 36.591,30.031 32.999,62.182 -2.592,23.104 -16.579,36.572 -31.285,48.454 -22.053,17.817 -50.281,30.606 -80.962,38.028 -43.246,10.465 -101.613,7.934 -141.693,-4.905 -19.839,-6.356 -39.029,-13.784 -56.425,-22.698 -26.083,-13.344 -42.458,-37.845 -55.816,-62.565 -14.652,-27.088 -16.544,-65.398 -17.743,-106.097 -0.961,1.289 -1.601,7.511 -5.431,7.987 -3.83,0.481 -4.792,-3.513 -4.792,-3.513 0,0 -51.009,129.83 -51.158,133.528 -0.223,5.474 4.226,14.408 6.744,22.074 2.635,8.056 5.52,17.153 4.904,23.922 -1.495,16.642 -22.35,15.127 -29.5,6.084 -1.363,11.709 -8.14,24.917 -18.338,20.9 -3.602,-2.533 -4.662,-7.598 -4.91,-13.488 -6.585,15.117 -22.049,2.706 -17.169,-14.721 -8.383,0 -11.669,-8.745 -10.856,-17.614 1.853,-20.047 15.192,-41.962 37.841,-40.659 15.136,-54.528 53.849,-155.166 53.849,-155.166 0,0 -8.632,-9.102 -4.777,-22.088 14.037,-41.328 29.53,-74.832 51.258,-105.697 6.649,-9.438 16.767,-19.319 19.274,-29.253 1.833,-7.253 1.367,-19.022 1.838,-29.437 2.562,-56.306 6.144,-171.134 6.144,-171.134 0,0 55.945,0.239 81.522,-1.784 10.554,9.692 20.939,17.704 31.334,27.555 9.811,-4.813 19.73,-9.103 30.665,-14.727 8.245,-4.241 30.671,-15.334 30.671,-15.334 l 134.786,-2.284 c 0,0 3.616,100.23 6.287,147.038 0.977,17.263 6.239,25.83 11.655,38.028 8.685,19.558 16.726,40.329 24.535,60.107 11.005,27.936 32.915,83.231 32.915,83.231 0,0 -4.796,3.831 -12.07,10.618 23.289,58.091 44.53,118.223 62.57,181.555 C 3.083,-44.211 20.93,3.84 6.362,13.008"
       style="fill:#231f20;fill-opacity:1;fill-rule:evenodd;stroke:none"
       transform="matrix(1.3333333,0,0,-1.3333333,2267.2155,271.1928)"
       clip-path="url(#clipPath44)" />
    <path
       id="path45"
       d="m 0,0 c 2.557,-1.591 12.397,-2.15 18.725,-2.479 4.588,0.615 16.906,-0.266 17.218,0.724 -6.814,18.883 -16.024,41.725 -20.444,65.092 -4.489,23.724 -3.617,51.01 2.447,74.223 -7.754,2.2 -7.639,-7.877 -8.581,-12.883 C 0.901,79.871 14.914,33.439 28.382,2.621 22.138,0.887 7.344,2.243 0,0"
       style="fill:#231f20;fill-opacity:1;fill-rule:evenodd;stroke:none"
       transform="matrix(1.3333333,0,0,-1.3333333,1891.1048,671.1576)"
       clip-path="url(#clipPath46)" />
    <path
       id="path47"
       d="m 0,0 c -0.788,-1.213 -27.188,-5.801 -48.315,-13.517 -17.744,-6.49 -30.031,-19.174 -31.428,-15.315 -0.501,1.394 8.572,15.559 23.976,24.467 C -39.313,5.148 -16.124,9.067 0,0"
       style="fill:#231f20;fill-opacity:1;fill-rule:evenodd;stroke:none"
       transform="matrix(1.3333333,0,0,-1.3333333,1798.9135,428.86213)"
       clip-path="url(#clipPath48)" />
    <path
       id="path49"
       d="m 0,0 c -4.885,-38.544 3.122,-69.551 30.666,-77.905 21.657,-6.56 34.966,14.051 40.486,28.822 5.454,14.642 7.917,31.627 6.139,49.687 C 49.682,1.05 28.877,0.719 0,0 m 117.767,18.393 c 0,0 -0.224,-11.957 -0.61,-18.393 H 88.939 C 90.42,-34.035 85.044,-64.16 71.152,-83.426 65.354,-91.457 54.711,-99.801 43.543,-101.207 25.151,-103.542 10.624,-97.729 1.219,-88.944 -18.368,-70.641 -20.24,0 -20.24,0 c 0,0 -9.35,0.253 -11.045,0.604 -0.322,6.431 0.7,14.196 -0.614,19.626 45.352,0.743 149.666,-1.837 149.666,-1.837"
       style="fill:#231f20;fill-opacity:1;fill-rule:evenodd;stroke:none"
       transform="matrix(1.3333333,0,0,-1.3333333,1731.8503,519.63293)"
       clip-path="url(#clipPath50)" />
    <path
       id="path51"
       d="m 0,0 c -13.637,2.318 -22.584,-4.623 -26.995,-13.496 2.711,0.753 11.193,2.947 16.817,2.517 6.798,-0.506 10.757,-3.915 12.62,-6.224 -5.445,0.387 -9.583,2.373 -13.269,2.398 -17.302,0.105 -17.886,-4.87 -22.916,-3.597 2.517,10.737 14.488,25.84 28.837,22.698 C -3.331,3.949 -0.229,2.979 0,0"
       style="fill:#231f20;fill-opacity:1;fill-rule:evenodd;stroke:none"
       transform="matrix(1.3333333,0,0,-1.3333333,2036.084,546.62773)"
       clip-path="url(#clipPath52)" />
    <path
       id="path53"
       d="m 0,0 c -11.589,15.78 -24.367,11.47 -23.302,13.496 6.763,4.043 14.414,-0.232 19.007,-3.682 5.183,-3.888 12.834,-16.39 12.834,-16.39 0,0 -6.065,5.773 -22.52,5.103 -7.834,-0.316 -14.375,-7.025 -14.697,-4.473 -0.317,2.561 7.482,8.572 14.532,8.784 C -9.032,3.002 -3.185,1.63 0,0"
       style="fill:#231f20;fill-opacity:1;fill-rule:evenodd;stroke:none"
       transform="matrix(1.3333333,0,0,-1.3333333,1796.4472,564.62253)"
       clip-path="url(#clipPath54)" />
    <path
       id="path55"
       d="M 0,0 C -1.67,-5.254 -9.236,1.382 -8.587,4.29 -7.541,8.928 0.981,6.748 0,0"
       style="fill:#231f20;fill-opacity:1;fill-rule:evenodd;stroke:none"
       transform="matrix(1.3333333,0,0,-1.3333333,1618.1673,603.87773)"
       clip-path="url(#clipPath56)" />
    <path
       id="path57"
       d="m 0,0 c -1.932,0.982 -4.321,1.006 -6.422,0.854 -0.292,-0.031 -0.287,-0.416 0,-0.442 2.076,-0.213 4.063,-0.818 6.124,-1.109 C 0.099,-0.752 0.411,-0.217 0,0"
       style="fill:#231f20;fill-opacity:1;fill-rule:evenodd;stroke:none"
       transform="matrix(1.3333333,0,0,-1.3333333,2260.0215,235.60427)"
       clip-path="url(#clipPath58)" />
    <path
       id="path59"
       d="m 0,0 c -1.55,0.822 -3.686,1.472 -5.525,1.393 -0.327,0.227 -0.906,0.123 -1.011,-0.342 0.015,0.004 0.021,0.01 0.04,0.01 -0.203,-0.387 -0.04,-0.858 0.397,-0.992 1.863,-0.549 3.81,-1.239 5.772,-1.263 C 0.303,-1.199 0.555,-0.308 0,0"
       style="fill:#231f20;fill-opacity:1;fill-rule:evenodd;stroke:none"
       transform="matrix(1.3333333,0,0,-1.3333333,2259.1289,240.41933)"
       clip-path="url(#clipPath60)" />
    <path
       id="path61"
       d="m 0,0 c -0.798,2.557 -5.138,2.2 -4.841,-0.654 0.441,-4.316 1.021,-12.362 1.179,-13.769 0.481,-4.326 -9.191,-15.455 -24.016,-25.938 -13.031,-9.222 -20.171,-14.251 -37.938,-19.211 -5.763,-1.763 -11.426,1.007 -12.646,2.557 -1.119,1.447 -0.663,7.101 5.119,14.731 1.887,-0.188 5.525,-1.041 5.525,-1.041 l 3.756,3.926 c 0,0 -3.157,0.851 -4.876,0.96 1.515,1.546 4.965,4.762 5.643,5.42 1.65,-0.475 3.3,-0.956 4.945,-1.437 0.06,0.074 0.104,0.139 0.169,0.208 0.941,1.181 1.962,2.493 3.117,3.628 -1.468,0.361 -2.939,0.713 -4.406,1.085 2.22,1.931 4.564,3.875 6.669,5.574 1.958,-0.609 5.832,-2.047 5.832,-2.047 l 2.468,3.777 c 0,0 -3.453,1.144 -4.375,1.421 1.531,1.219 3.314,3.37 3.314,3.37 0,0 -0.767,14.427 -0.971,17.747 -0.217,3.568 -5.529,3.629 -5.594,0 -0.044,-3.309 0.664,-15.216 0.664,-15.216 0,0 -2.398,-2.928 -4.033,-4.246 -2.839,0.594 -5.193,1.531 -5.193,1.531 l -3.206,-2.805 c 0,0 3.236,-0.782 5.025,-1.502 -2.175,-1.793 -4.578,-3.813 -7.051,-6.019 -1.51,0.346 -4.771,0.987 -4.771,0.987 0,0 -2.448,-2.216 -3.369,-3.072 2.081,-0.403 4.553,-1.194 4.553,-1.194 0,0 -3.409,-2.963 -5.832,-5.774 -1.575,0.125 -4.727,0.809 -4.727,0.809 0,0 -1.487,-1.516 -2.398,-2.726 -0.144,-0.188 -1.06,-1.164 -1.199,-1.357 1.244,-0.292 3.067,-0.605 4.32,-0.803 -6.004,-8.576 -9.245,-19.8 2.454,-23.595 10.28,-3.335 32.652,8.041 41.486,12.946 12.367,6.869 28.698,19.423 36.007,31.553 0.49,0.823 1.362,3.78 1.298,4.475 C 1.61,-10.464 1.561,-5.108 0,0"
       style="fill:#231f20;fill-opacity:1;fill-rule:nonzero;stroke:none"
       transform="matrix(1.3333333,0,0,-1.3333333,1752.2181,1011.6212)"
       clip-path="url(#clipPath62)" />
    <path
       id="path63"
       d="M 0,0 C 1.689,6.09 10.287,4.653 11.704,-0.782 12.353,-3.29 11.173,-6.208 8.84,-7.396 7.675,-7.987 5.228,-8.066 3.984,-7.496 -0.53,-5.455 -0.545,-1.977 0,0 m -7.625,-0.599 0.327,-0.005 c 8.77,-7.928 19.21,-15.667 29.224,-21.935 6.143,-3.84 13.165,-8.408 20.517,-11.397 -0.5,1.591 -0.346,3.429 0.768,4.964 2.319,3.251 5.733,5.12 9.429,6.452 2.7,0.976 6.05,1.585 8.998,0.991 -1.863,3.855 -4.662,7.477 -8.12,9.989 C 48.572,-5.757 41.581,-0.574 36.463,1.62 36.28,1.704 36.052,1.739 35.844,1.794 35.353,2.19 34.868,2.548 34.372,2.903 34.228,3.196 33.757,3.335 33.757,3.717 33.733,6.383 33.361,10.505 32.192,10.609 29.893,10.812 24.001,8.745 11.976,8.949 3.534,9.088 -12.461,9.86 -12.461,8.037 c 0,-3.24 1.561,-8.503 4.836,-8.636"
       style="fill:#231f20;fill-opacity:1;fill-rule:nonzero;stroke:none"
       transform="matrix(1.3333333,0,0,-1.3333333,1942.4564,1045.4857)"
       clip-path="url(#clipPath64)" />
    <path
       id="path65"
       d="m 0,0 c 0.733,2.413 4.821,2.081 4.554,-0.609 -0.427,-4.068 -0.977,-11.649 -1.11,-12.987 -0.456,-4.067 8.646,-14.557 22.624,-24.432 12.282,-8.691 19.016,-13.428 35.754,-18.1 5.434,-1.665 10.771,0.942 11.921,2.408 1.055,1.363 0.619,6.684 -4.836,13.879 -1.774,-0.183 -5.198,-0.981 -5.198,-0.981 l -3.547,3.696 c 0,0 2.977,0.798 4.608,0.906 -1.437,1.457 -4.683,4.49 -5.327,5.109 -1.546,-0.452 -3.106,-0.902 -4.657,-1.353 -0.059,0.069 -0.1,0.134 -0.159,0.193 -0.892,1.111 -1.853,2.348 -2.939,3.416 1.383,0.35 2.775,0.672 4.147,1.029 -2.08,1.818 -4.3,3.641 -6.282,5.247 -1.848,-0.568 -5.49,-1.928 -5.49,-1.928 l -2.334,3.559 c 0,0 3.251,1.085 4.123,1.337 -1.437,1.145 -3.122,3.186 -3.122,3.186 0,0 0.729,13.586 0.927,16.722 0.203,3.355 5.208,3.415 5.257,0 0.055,-3.126 -0.614,-14.333 -0.614,-14.333 0,0 2.249,-2.766 3.796,-4.019 2.675,0.57 4.9,1.447 4.9,1.447 l 3.012,-2.646 c 0,0 -3.047,-0.727 -4.732,-1.407 2.046,-1.695 4.315,-3.608 6.65,-5.668 1.427,0.321 4.493,0.921 4.493,0.921 0,0 2.294,-2.085 3.166,-2.894 -1.957,-0.366 -4.28,-1.119 -4.28,-1.119 0,0 3.21,-2.795 5.495,-5.445 1.481,0.119 4.449,0.758 4.449,0.758 0,0 1.402,-1.433 2.264,-2.568 0.13,-0.178 0.996,-1.094 1.13,-1.278 -1.174,-0.267 -2.883,-0.569 -4.073,-0.752 5.654,-8.082 8.706,-18.66 -2.314,-22.238 -9.686,-3.146 -30.759,7.576 -39.098,12.204 -11.649,6.461 -27.034,18.293 -33.921,29.734 -0.466,0.773 -1.293,3.563 -1.234,4.216 C -1.536,-9.86 -1.486,-4.811 0,0"
       style="fill:#231f20;fill-opacity:1;fill-rule:nonzero;stroke:none"
       transform="matrix(1.3333333,0,0,-1.3333333,1925.6829,1016.642)"
       clip-path="url(#clipPath66)" />
    <path
       id="path67"
       d="m 0,0 c -0.029,0.837 -1.269,0.837 -1.298,0 -0.139,-3.295 -0.461,-6.591 -0.461,-9.875 -0.267,-1.041 1.829,-1.66 1.843,-0.174 C 0.129,-6.704 0.104,-3.35 0,0"
       style="fill:#231f20;fill-opacity:1;fill-rule:nonzero;stroke:none"
       transform="matrix(1.3333333,0,0,-1.3333333,1700.2188,1010.4116)"
       clip-path="url(#clipPath68)" />
    <path
       id="path69"
       d="m 0,0 c -0.045,0.511 -0.798,0.531 -0.808,0 -0.084,-2.968 0.05,-5.94 -0.069,-8.908 -0.045,-1.096 1.744,-1.096 1.704,0 C 0.704,-5.911 0.248,-2.982 0,0"
       style="fill:#231f20;fill-opacity:1;fill-rule:nonzero;stroke:none"
       transform="matrix(1.3333333,0,0,-1.3333333,1711.5163,1011.172)"
       clip-path="url(#clipPath70)" />
    <path
       id="path71"
       d="m 0,0 c 0.555,-0.287 0.05,1.655 0.064,1.61 -0.088,0.798 -0.118,1.606 -0.163,2.404 -0.045,0.876 -0.149,1.733 -0.297,2.595 1.129,0.67 0.882,2.786 -0.753,2.786 -1.74,0 -1.903,-2.399 -0.525,-2.899 0.138,-2.522 -0.303,-5.068 0.138,-7.581 0.114,-0.669 0.937,-0.867 1.462,-0.6 0.02,0.02 0.05,0.03 0.074,0.04 0.62,0.328 0.62,1.318 0,1.645"
       style="fill:#231f20;fill-opacity:1;fill-rule:nonzero;stroke:none"
       transform="matrix(1.3333333,0,0,-1.3333333,1724.6296,1021.9532)"
       clip-path="url(#clipPath72)" />
    <path
       id="path73"
       d="M 0,0 C -0.431,1.096 -0.51,2.142 -0.535,3.325 -0.575,4.696 -0.46,6.947 -1.685,7.898 -2.245,8.334 -3.191,7.784 -2.74,7.081 -1.561,5.213 -4.459,-0.569 -1.467,-1.461 -0.66,-1.698 0.332,-0.857 0,0"
       style="fill:#231f20;fill-opacity:1;fill-rule:nonzero;stroke:none"
       transform="matrix(1.3333333,0,0,-1.3333333,1738.3645,1023.09)"
       clip-path="url(#clipPath74)" />
    <path
       id="path75"
       d="m 0,0 c -0.05,0.946 -0.179,1.897 -0.268,2.844 -0.039,0.338 -0.386,1.561 -0.119,1.769 0.64,0.495 -0.197,1.571 -0.862,1.115 -1.084,-0.753 -0.594,-1.774 -0.614,-2.884 0,-1.056 0.228,-2.136 -0.01,-3.172 -0.174,-0.773 -0.263,-1.739 -0.168,-2.522 0.06,-0.509 0.376,-0.921 0.946,-0.936 0.064,0 0.134,0 0.213,-0.004 0.183,-0.006 0.397,0.113 0.49,0.282 C 0.08,-2.621 0.055,-0.938 0,0"
       style="fill:#231f20;fill-opacity:1;fill-rule:nonzero;stroke:none"
       transform="matrix(1.3333333,0,0,-1.3333333,1940.7988,1024.3113)"
       clip-path="url(#clipPath76)" />
    <path
       id="path77"
       d="m 0,0 c 0.099,0.668 -0.862,0.966 -1.026,0.287 -0.376,-1.473 -0.336,-2.998 -0.401,-4.504 -0.05,-1.105 -0.703,-2.607 0.332,-3.414 0.317,-0.248 0.793,-0.193 0.911,0.233 C 0.475,-5.02 -0.392,-2.398 0,0"
       style="fill:#231f20;fill-opacity:1;fill-rule:nonzero;stroke:none"
       transform="matrix(1.3333333,0,0,-1.3333333,1950.6621,1018.4376)"
       clip-path="url(#clipPath78)" />
    <path
       id="path79"
       d="M 0,0 C -0.054,0.976 -0.193,2.368 -0.892,3.11 -1.159,3.384 -1.66,3.096 -1.541,2.725 -1.402,2.269 -1.6,1.601 -1.62,1.124 c -0.029,-0.862 0.015,-1.773 0.03,-2.645 0.019,-1.209 0.084,-2.399 0.842,-3.38 0.431,-0.55 1.253,-0.055 1.279,0.525 C 0.585,-2.924 0.095,-1.448 0,0"
       style="fill:#231f20;fill-opacity:1;fill-rule:nonzero;stroke:none"
       transform="matrix(1.3333333,0,0,-1.3333333,1959.6133,1021.7671)"
       clip-path="url(#clipPath80)" />
    <path
       id="path81"
       d="m 0,0 c -0.064,0.843 -1.248,0.843 -1.303,0 -0.098,-1.441 0,-2.859 -0.054,-4.285 -0.055,-1.2 -0.333,-2.284 0.173,-3.414 0.188,-0.417 0.868,-0.387 1.065,0 C 1.026,-5.415 0.174,-2.413 0,0"
       style="fill:#231f20;fill-opacity:1;fill-rule:nonzero;stroke:none"
       transform="matrix(1.3333333,0,0,-1.3333333,1972.0664,1019.2579)"
       clip-path="url(#clipPath82)" />
    <path
       id="path83"
       d="m 0,0 c -34.154,2.896 -97.742,-1.083 -120.917,-19.161 -5.753,76.58 -14.564,167.879 -23.098,241.609 -5.886,50.741 -10.469,101.774 -14.377,155.306 -32.711,-1.133 -65.471,-2.022 -97.943,-5.841 0.958,-4.069 1.11,-8.527 1.567,-12.458 8.146,-71.767 13.992,-144.123 20.006,-218.944 6.801,-84.502 48.802,-399.134 57.19,-466.687 29.101,0.351 58.059,1.731 58.059,1.731 0,0 -7.37,192.769 55.967,206.663 22.018,4.822 51.004,0.812 61.638,-1.91 70.265,-18.032 49.926,-205.291 49.926,-205.291 l 83.596,3.328 c 0,0 29.823,307.844 -131.614,321.655"
       style="fill:#231f20;fill-opacity:1;fill-rule:evenodd;stroke:none"
       transform="matrix(1.3333333,0,0,-1.3333333,2733.4961,646.29573)"
       clip-path="url(#clipPath84)" />
    <path
       id="path85"
       d="m 0,0 c 17.347,-33.054 -8.575,-64.624 -42.339,-63.328 -22.842,0.888 -38.086,28.841 -28.237,52.583 C -62.362,9.084 -17.61,23.191 0,0"
       style="fill:#bf1b2c;fill-opacity:1;fill-rule:evenodd;stroke:none"
       transform="matrix(1.3333333,0,0,-1.3333333,5239.3333,415.95587)"
       clip-path="url(#clipPath86)" />
    <path
       id="path87"
       d="M 0,0 C -8.023,10.703 -13.677,21.622 -6.706,45.769 0.806,71.714 41.003,66.561 60.711,50.86 86.463,9.246 25.962,-34.4 0,0"
       style="fill:#bf1b2c;fill-opacity:1;fill-rule:evenodd;stroke:none"
       transform="matrix(1.3333333,0,0,-1.3333333,2941.3509,510.2892)"
       clip-path="url(#clipPath88)" />
    <path
       id="path89"
       d="M 0,0 C 16.659,-8.541 32.397,1.82 40.689,10.207 62.328,32.229 70.134,78.044 69.447,117.055 68.462,117.091 -56.399,29.462 0,0 m 257.347,9.264 c 0,0 10.998,-62.32 11.228,-70.733 C 250.563,-75.146 213.42,-80.915 188.87,-77.667 148.906,-72.4 139.827,-22.887 127.325,8.985 108.572,-58.396 38.638,-91.543 -36.891,-80.72 c -46.261,6.608 -84.966,36.189 -81.039,84.361 4.473,55.032 49.557,84.676 81.278,113.838 14.963,13.723 32.681,23.596 47.459,35.875 22.719,18.911 45.339,44.266 53.097,73.032 18.669,69.293 -63.813,83.493 -105.785,57.852 -35.088,-21.428 -43.835,-70.188 -55.854,-113.175 -18.229,1.193 -42.182,3.842 -61.203,2.848 -5.16,49.925 5.098,111.471 15.761,168.049 11.238,59.734 50.245,94.495 110.825,102.851 35.342,4.891 88.935,-4.967 120.231,-25.249 76.912,-49.824 71.273,-238.313 72.795,-252.184 5.5,-50.065 1.943,-135.242 58.328,-158.971 18.096,-7.601 38.345,0.857 38.345,0.857"
       style="fill:#231f20;fill-opacity:1;fill-rule:evenodd;stroke:none"
       transform="matrix(1.3333333,0,0,-1.3333333,5562.2305,920.03267)"
       clip-path="url(#clipPath90)" />
    <path
       id="path91"
       d="m 0,0 -49.44,-4.219 -51.828,491.404 88.082,-2.733 z"
       style="fill:#231f20;fill-opacity:1;fill-rule:evenodd;stroke:none"
       transform="matrix(1.3333333,0,0,-1.3333333,6054.4544,854.83733)"
       clip-path="url(#clipPath92)" />
    <path
       id="path93"
       d="m 0,0 c 0,0 -4.262,-95.702 -10.158,-137.328 51.318,47.24 136.647,81.549 216.817,56.24 -2.182,-22.434 -12.366,-61.385 -12.366,-61.385 0,0 -40.833,16.122 -76.378,-0.764 -45.305,-21.546 -89.333,-52.768 -107.704,-102.687 -22.285,-60.592 -18.562,-136.377 -14.073,-210.719 -22.155,2.088 -80.836,7.377 -80.836,7.377 0,0 -3.501,301.206 2.635,453.236 C -47.295,2.736 0,0 0,0"
       style="fill:#231f20;fill-opacity:1;fill-rule:evenodd;stroke:none"
       transform="matrix(1.3333333,0,0,-1.3333333,4784.4415,422.93507)"
       clip-path="url(#clipPath94)" />
    <path
       id="path95"
       d="m 0,0 c -54.832,14.404 -79.868,-27.382 -78.776,-48.261 30.207,-2.866 68.43,-0.959 103.937,-7.095 C 24.519,-29.934 21.869,-13.425 0,0 m 110.466,-109.492 c 0,0 -187.846,9.773 -194.265,5.037 -0.73,-59.509 21.25,-204.942 84.613,-202.963 7.999,0.271 33.101,8.264 47.183,30.211 12.88,20.067 14.999,52.82 18.529,63.991 16.163,-1.194 31.212,-3.41 44.62,-7.107 -2.657,-36.852 -5.754,-109.924 -36.005,-152.416 -6.658,-9.341 -51.603,-61.423 -125.991,-44.252 -52.273,12.07 -98.415,86.567 -121.261,170.964 -11.309,41.793 -20.618,91.423 -22.68,134.264 -0.885,18.186 1.957,38.2 6.191,54.401 6.235,23.872 22.262,59.314 39.841,79.216 24.626,27.834 61.074,46.857 104.54,45.592 154.623,-4.554 154.685,-176.938 154.685,-176.938"
       style="fill:#231f20;fill-opacity:1;fill-rule:evenodd;stroke:none"
       transform="matrix(1.3333333,0,0,-1.3333333,4440.9921,509.452)"
       clip-path="url(#clipPath96)" />
    <path
       id="path97"
       d="m 0,0 c -31.375,-1.029 -77.567,2.407 -88.074,2.919 6.535,-120.089 26.478,-228.076 34.995,-346.388 5.552,-2.158 70.71,-2.693 70.71,-2.693 0,0 -15.006,315.075 -17.631,346.162"
       style="fill:#231f20;fill-opacity:1;fill-rule:evenodd;stroke:none"
       transform="matrix(1.3333333,0,0,-1.3333333,5233.4571,570.72147)"
       clip-path="url(#clipPath98)" />
    <path
       id="path99"
       d="m 0,0 c 32.289,-1.631 23.604,38.037 23.604,38.037 0,0 24.888,-0.766 37.328,-1.155 1.657,-37.823 9.197,-76.594 -17.813,-91.362 -17.341,-9.504 -73.936,-30.746 -118.937,19.485 -26.533,29.614 -34.566,215.308 -41.985,281.383 -4.579,40.861 -3.754,119.24 -3.754,119.24 l -73.943,0.94 c -6.123,73.341 -5.689,108.66 -5.689,108.66 l 79.061,-1.573 3.505,127.538 c 0,0 45.238,-1.929 65.597,-4.905 2.459,-45.976 6.666,-120.859 6.666,-120.859 l 99.805,-10.265 2.834,-95.933 -103.032,-1.523 c 0,0 4.121,-208.822 14.451,-302.072 C -32.318,65.398 -29.555,1.475 0,0"
       style="fill:#231f20;fill-opacity:1;fill-rule:evenodd;stroke:none"
       transform="matrix(1.3333333,0,0,-1.3333333,4065.9336,960.65507)"
       clip-path="url(#clipPath100)" />
    <path
       id="path101"
       d="M 0,0 C 24.896,4.288 49.906,15.336 38.428,56.63 33.487,74.395 -7.965,79.26 -7.965,79.26 -7.965,79.26 -4.4,24.827 0,0 M 3.211,-87.72 25.52,-282.321 c 0,0 -43.151,0.532 -65.835,-2.257 C -63.369,-138.646 -83.078,9.537 -94.992,163.813 -38.683,184.085 46.452,174.51 82.187,142.52 109.268,118.285 146.782,32.658 124.914,-19.661 118.625,-34.707 102.291,-48.254 89.357,-57.343 66.607,-73.33 3.211,-87.72 3.211,-87.72"
       style="fill:#231f20;fill-opacity:1;fill-rule:evenodd;stroke:none"
       transform="matrix(1.3333333,0,0,-1.3333333,3271.5892,704.0392)"
       clip-path="url(#clipPath102)" />
    <path
       id="path103"
       d="m 0,0 c 0.646,46.14 -5.341,93.204 -7.835,139.422 -2.591,48.182 -23.148,214.732 -23.148,214.732 0,0 -56.318,10.59 -70.353,-3.576 C -84.515,241.988 -52.87,6.136 -52.87,6.136 -52.87,6.136 -19.376,3.33 0,0"
       style="fill:#231f20;fill-opacity:1;fill-rule:evenodd;stroke:none"
       transform="matrix(1.3333333,0,0,-1.3333333,3076.2793,1059.7475)"
       clip-path="url(#clipPath104)" />
    <path
       id="path105"
       d="M 0,0 C 42.347,10.228 63.271,-19.562 53.614,-53.359 50.519,-64.263 35.035,-76.616 21.536,-75.624 -0.81,-73.949 -19.563,-55.374 -17.317,-28.188 -16.313,-16.083 -13.045,-3.323 0,0"
       style="fill:#bf1b2c;fill-opacity:1;fill-rule:evenodd;stroke:none"
       transform="matrix(1.3333333,0,0,-1.3333333,6009.4375,898.4728)"
       clip-path="url(#clipPath106)" />
    <path
       id="path107"
       d="m 0,0 c 0,0 -4.29,-73.265 -4.19,-101.803 -34.205,-5.113 -68.336,-16.356 -65.859,-51.12 1.87,-26.383 36.694,-57.49 52.948,-74.895 23.538,-25.212 43.279,-46.82 56.019,-72.114 38.762,-76.4 13.74,-156.516 -10.62,-190.22 -29.116,-41.66 -56.816,-56.5 -96.476,-79.366 -25.203,-14.535 -51.404,-32.437 -81.945,-39.108 -8.71,27.905 -18.112,55.208 -25.757,84.089 29.888,6.041 55.186,19.224 81.851,36.261 28.971,18.488 61.064,41.384 62.465,85.686 1.492,47.592 -17.032,92.738 -39.592,118.983 -35.122,40.895 -92.773,86.866 -96.346,152.018 -1.52,27.769 13.816,55.563 25.686,72.809 C -116.101,-21.346 0,0 0,0"
       style="fill:#231f20;fill-opacity:1;fill-rule:evenodd;stroke:none"
       transform="matrix(1.3333333,0,0,-1.3333333,3722.4485,284.7892)"
       clip-path="url(#clipPath108)" />
  </g>
</svg>
