<?xml version="1.0" encoding="UTF-8" standalone="no"?>
<!-- Created with Inkscape (http://www.inkscape.org/) -->

<svg
   width="50.000252mm"
   height="49.999897mm"
   viewBox="0 0 50.000252 49.999897"
   version="1.1"
   id="svg1"
   inkscape:version="1.3 (0e150ed6c4, 2023-07-21)"
   sodipodi:docname="vas-hotels.svg"
   xmlns:inkscape="http://www.inkscape.org/namespaces/inkscape"
   xmlns:sodipodi="http://sodipodi.sourceforge.net/DTD/sodipodi-0.dtd"
   xmlns="http://www.w3.org/2000/svg"
   xmlns:svg="http://www.w3.org/2000/svg">
  <sodipodi:namedview
     id="namedview1"
     pagecolor="#ffffff"
     bordercolor="#999999"
     borderopacity="1"
     inkscape:showpageshadow="0"
     inkscape:pageopacity="0"
     inkscape:pagecheckerboard="0"
     inkscape:deskcolor="#d1d1d1"
     inkscape:document-units="mm"
     inkscape:zoom="2.9825758"
     inkscape:cx="93.040386"
     inkscape:cy="109.46914"
     inkscape:window-width="1842"
     inkscape:window-height="1051"
     inkscape:window-x="69"
     inkscape:window-y="-9"
     inkscape:window-maximized="1"
     inkscape:current-layer="layer1" />
  <defs
     id="defs1">
    <clipPath
       clipPathUnits="userSpaceOnUse"
       id="clipPath4">
      <path
         d="M 0,283.465 H 283.465 V 0 H 0 Z"
         transform="translate(-124.52511,-156.6911)"
         id="path4" />
    </clipPath>
    <clipPath
       clipPathUnits="userSpaceOnUse"
       id="clipPath6">
      <path
         d="M 0,283.465 H 283.465 V 0 H 0 Z"
         transform="translate(-131.88741,-153.1633)"
         id="path6" />
    </clipPath>
    <clipPath
       clipPathUnits="userSpaceOnUse"
       id="clipPath8">
      <path
         d="M 0,283.465 H 283.465 V 0 H 0 Z"
         transform="translate(-107.24001,-125.0378)"
         id="path8" />
    </clipPath>
    <clipPath
       clipPathUnits="userSpaceOnUse"
       id="clipPath10">
      <path
         d="M 0,283.465 H 283.465 V 0 H 0 Z"
         transform="translate(-127.0383,-121.77511)"
         id="path10" />
    </clipPath>
    <clipPath
       clipPathUnits="userSpaceOnUse"
       id="clipPath12">
      <path
         d="M 0,283.465 H 283.465 V 0 H 0 Z"
         transform="translate(-136.42851,-115.8659)"
         id="path12" />
    </clipPath>
    <clipPath
       clipPathUnits="userSpaceOnUse"
       id="clipPath14">
      <path
         d="M 0,283.465 H 283.465 V 0 H 0 Z"
         transform="translate(-158.30001,-129.09541)"
         id="path14" />
    </clipPath>
    <clipPath
       clipPathUnits="userSpaceOnUse"
       id="clipPath16">
      <path
         d="M 0,283.465 H 283.465 V 0 H 0 Z"
         id="path16" />
    </clipPath>
    <clipPath
       clipPathUnits="userSpaceOnUse"
       id="clipPath18">
      <path
         d="M 0,283.465 H 283.465 V 0 H 0 Z"
         transform="translate(-179.3313,-113.7937)"
         id="path18" />
    </clipPath>
  </defs>
  <g
     inkscape:label="Capa 1"
     inkscape:groupmode="layer"
     id="layer1"
     transform="translate(59.795833,-75.141664)">
    <path
       id="path1"
       d="m -9.795583,125.14156 h -50.00025 V 75.141664 h 50.00025 z"
       style="fill:#69ccba;fill-opacity:1;fill-rule:nonzero;stroke:none;stroke-width:0.352778" />
    <path
       id="path2"
       d="m -54.291089,89.295039 h 1.8669 l 2.084564,5.7404 2.084563,-5.7404 h 1.835503 l -3.018014,7.996413 h -1.851024 z"
       style="fill:#231f20;fill-opacity:1;fill-rule:nonzero;stroke:none;stroke-width:0.352778" />
    <path
       id="path3"
       d="m 0,0 v 9.04 c -0.882,1.456 -2.469,2.47 -4.895,2.47 -2.866,0 -6.129,-2.426 -6.129,-7.1 0,-4.234 2.866,-7.056 6.173,-7.056 2.161,0 3.969,0.882 4.851,2.646 m -15.963,4.41 c 0,7.188 5.38,11.774 10.715,11.774 2.382,0 4.19,-0.662 5.248,-2.029 v 1.632 H 4.851 V -6.879 H 0 v 1.72 c -0.926,-1.279 -2.69,-2.161 -5.38,-2.161 -5.6,0 -10.583,4.63 -10.583,11.73"
       style="fill:#231f20;fill-opacity:1;fill-rule:nonzero;stroke:none"
       transform="matrix(0.35277776,0,0,-0.35277776,-40.866094,94.864378)"
       clip-path="url(#clipPath4)" />
    <path
       id="path5"
       d="m 0,0 2.822,3.572 c 1.72,-1.72 4.366,-2.999 7.1,-2.999 2.469,0 3.836,0.882 3.836,2.249 0,1.147 -0.882,1.72 -2.028,2.117 L 6.085,6.835 C 2.866,7.894 0.97,9.966 0.97,12.833 c 0,4.321 3.837,6.967 8.732,6.967 3.306,0 6.57,-1.014 9.04,-3.528 l -2.911,-3.439 c -1.587,1.631 -3.924,2.557 -6.394,2.557 -2.161,0 -3.704,-0.926 -3.704,-2.249 0,-1.014 0.749,-1.499 1.852,-1.852 l 5.512,-1.852 c 3.396,-1.146 5.512,-3.043 5.512,-6.35 0,-4.277 -3.396,-6.923 -8.775,-6.923 C 6.306,-3.836 2.558,-2.558 0,0"
       style="fill:#231f20;fill-opacity:1;fill-rule:nonzero;stroke:none"
       transform="matrix(0.35277776,0,0,-0.35277776,-38.268838,96.108907)"
       clip-path="url(#clipPath6)" />
    <path
       id="path7"
       d="m 0,0 v -14.596 h -4.851 v 13.67 c 0,2.911 -1.852,4.586 -4.057,4.586 -2.778,0 -4.498,-2.028 -4.498,-4.497 v -13.759 h -4.85 v 30.868 h 4.85 V 5.998 c 1.147,1.632 2.911,2.514 5.336,2.514 C -3.439,8.512 0,5.336 0,0"
       style="fill:#231f20;fill-opacity:1;fill-rule:nonzero;stroke:none"
       transform="matrix(0.35277776,0,0,-0.35277776,-46.963893,106.03096)"
       clip-path="url(#clipPath8)" />
    <path
       id="path9"
       d="m 0,0 c 0,3.881 -2.514,7.012 -6.042,7.012 -3.483,0 -5.953,-3.131 -5.953,-7.012 0,-3.925 2.47,-7.012 5.953,-7.012 C -2.514,-7.012 0,-3.925 0,0 m -16.934,0 c 0,6.659 4.586,11.818 10.892,11.818 6.395,0 10.981,-5.159 10.981,-11.818 0,-6.659 -4.586,-11.818 -10.981,-11.818 -6.306,0 -10.892,5.159 -10.892,11.818"
       style="fill:#231f20;fill-opacity:1;fill-rule:nonzero;stroke:none"
       transform="matrix(0.35277776,0,0,-0.35277776,-39.979493,107.18197)"
       clip-path="url(#clipPath10)" />
    <path
       id="path11"
       d="m 0,0 v 12.436 h -4.674 v 4.806 H 0 v 6.218 l 4.851,2.117 v -8.335 h 5.512 V 12.436 H 4.851 V 1.543 c 0,-1.631 0.97,-2.16 2.204,-2.16 h 2.47 V -5.424 H 5.601 C 2.425,-5.424 0,-3.837 0,0"
       style="fill:#231f20;fill-opacity:1;fill-rule:nonzero;stroke:none"
       transform="matrix(0.35277776,0,0,-0.35277776,-36.666839,109.2666)"
       clip-path="url(#clipPath12)" />
    <path
       id="path13"
       d="M 0,0 C -2.69,0 -5.027,-1.853 -5.557,-4.675 H 5.601 C 5.247,-2.117 3.439,0 0,0 m -10.54,-7.188 c 0,6.747 4.852,11.642 10.584,11.642 6.614,0 10.495,-5.248 10.495,-11.157 V -8.952 H -5.557 c 0.398,-3.043 3.22,-5.38 6.306,-5.38 2.294,0 3.97,0.882 4.983,2.028 l 3.131,-3.483 c -1.807,-1.984 -4.674,-3.219 -8.025,-3.219 -6.351,0 -11.378,4.718 -11.378,11.818"
       style="fill:#231f20;fill-opacity:1;fill-rule:nonzero;stroke:none"
       transform="matrix(0.35277776,0,0,-0.35277776,-28.95106,104.59953)"
       clip-path="url(#clipPath14)" />
    <path
       id="path15"
       d="m 171.88,141.31 h 4.938 v -30.868 h -4.938 z"
       style="fill:#231f20;fill-opacity:1;fill-rule:nonzero;stroke:none"
       transform="matrix(0.35277776,0,0,-0.35277776,-84.795782,150.14151)"
       clip-path="url(#clipPath16)" />
    <path
       id="path17"
       d="m 0,0 2.822,3.571 c 1.72,-1.719 4.366,-2.998 7.1,-2.998 2.47,0 3.837,0.882 3.837,2.249 0,1.147 -0.882,1.72 -2.029,2.116 L 6.086,6.835 c -3.22,1.058 -5.115,3.131 -5.115,5.997 0,4.322 3.836,6.968 8.731,6.968 3.307,0 6.57,-1.015 9.04,-3.529 l -2.911,-3.439 c -1.587,1.632 -3.925,2.558 -6.393,2.558 -2.162,0 -3.705,-0.926 -3.705,-2.249 0,-1.015 0.749,-1.499 1.852,-1.852 l 5.513,-1.852 c 3.395,-1.147 5.511,-3.043 5.511,-6.35 0,-4.277 -3.395,-6.924 -8.775,-6.924 C 6.307,-3.837 2.558,-2.558 0,0"
       style="fill:#231f20;fill-opacity:1;fill-rule:nonzero;stroke:none"
       transform="matrix(0.35277776,0,0,-0.35277776,-21.531685,109.99763)"
       clip-path="url(#clipPath18)" />
  </g>
</svg>
