<?xml version="1.0" encoding="UTF-8" standalone="no"?>
<svg
   viewBox="45.998497 15.997534 100 100.00313"
   version="1.1"
   id="svg2"
   sodipodi:docname="ibisbudget.svg"
   inkscape:version="1.3 (0e150ed6c4, 2023-07-21)"
   width="100"
   height="100.00313"
   xmlns:inkscape="http://www.inkscape.org/namespaces/inkscape"
   xmlns:sodipodi="http://sodipodi.sourceforge.net/DTD/sodipodi-0.dtd"
   xmlns="http://www.w3.org/2000/svg"
   xmlns:svg="http://www.w3.org/2000/svg">
  <defs
     id="defs2" />
  <sodipodi:namedview
     id="namedview2"
     pagecolor="#ffffff"
     bordercolor="#999999"
     borderopacity="1"
     inkscape:showpageshadow="0"
     inkscape:pageopacity="0"
     inkscape:pagecheckerboard="0"
     inkscape:deskcolor="#d1d1d1"
     inkscape:zoom="4"
     inkscape:cx="55.125"
     inkscape:cy="54.625"
     inkscape:window-width="1842"
     inkscape:window-height="1051"
     inkscape:window-x="69"
     inkscape:window-y="-9"
     inkscape:window-maximized="1"
     inkscape:current-layer="g2" />
  <g
     fill="none"
     id="g2"
     transform="translate(-22.940245,-14.911164)">
    <path
       fill="#0065A6"
       d="m 168.18675,31.642969 c 0.68747,0.708296 0.91662,1.749908 0.62497,2.666528 a 121.38952,121.38952 0 0 0 -3.79147,16.207491 c -1.3541,7.270456 -2.54154,16.499142 -2.54154,30.373421 0,13.874279 1.18744,23.123791 2.54154,30.394261 1.35409,7.24962 2.5207,12.70767 3.7498,16.18665 a 2.5623668,2.5623668 0 0 1 -3.27066,3.27067 120.6604,120.6604 0 0 0 -16.16583,-3.77064 159.11673,159.11673 0 0 0 -30.41509,-2.54153 c -13.87428,0 -23.123803,1.18743 -30.373426,2.54153 a 120.63957,120.63957 0 0 0 -16.207491,3.79147 2.6040314,2.6040314 0 0 1 -2.666528,-0.5833 2.5831991,2.5831991 0 0 1 -0.583304,-2.66653 117.91054,117.91054 0 0 0 3.791471,-16.20749 c 1.354095,-7.24963 2.541534,-16.499148 2.541534,-30.373426 0,-13.874279 -1.187439,-23.123799 -2.541534,-30.394254 a 121.01455,121.01455 0 0 0 -3.770638,-16.165826 2.5623668,2.5623668 0 0 1 3.270663,-3.291496 120.82705,120.82705 0 0 0 16.186659,3.770637 158.95007,158.95007 0 0 0 30.415094,2.541535 c 13.87427,0 23.1238,-1.187439 30.37343,-2.541535 a 121.45202,121.45202 0 0 0 16.18665,-3.79147 c 0.91662,-0.333315 1.95823,-0.10416 2.6457,0.583304 z"
       id="path1"
       style="fill:#0065a6;fill-opacity:1;stroke-width:2.08323" />
    <path
       fill="#ffffff"
       d="m 98.294537,81.161229 h -3.749805 c -0.83329,0 -1.187438,-0.437478 -1.187438,-1.2916 V 61.328926 h 3.728973 c 0.854122,0 1.20827,0.479142 1.20827,1.312432 v 18.540703 z m 0,-22.707154 h -3.749805 c -0.83329,0 -1.187438,-0.458309 -1.187438,-1.291599 v -3.333161 h 3.728973 c 0.854122,0 1.20827,0.45831 1.20827,1.2916 z m 8.770383,8.3329 v 10.54112 c 0.79162,0.270818 1.60408,0.416645 2.43737,0.416645 3.12483,0 4.47893,-1.999897 4.47893,-6.291341 0,-4.437269 -1.1041,-6.541326 -3.24983,-6.541326 -1.41659,0 -2.49987,0.729129 -3.66647,1.874902 z m -4.93725,12.49935 v -25.45701 h 3.74981 c 0.83329,0 1.18744,0.45831 1.18744,1.2916 v 7.874591 a 7.2912877,7.2912877 0 0 1 5.02057,-2.166555 c 5.45805,0 7.12463,4.374774 7.12463,9.811991 0,6.582991 -2.72903,10.811938 -9.95782,10.811938 -1.97906,0 -3.95813,-0.270819 -5.8747,-0.812458 -0.89578,-0.270819 -1.24993,-0.479142 -1.24993,-1.354097 z m 24.85288,1.874904 h -3.72898 c -0.85412,0 -1.20827,-0.45831 -1.20827,-1.2916 V 61.328926 h 3.74981 c 0.83329,0 1.18744,0.479142 1.18744,1.312432 v 18.540703 z m 0,-22.707154 h -3.72898 c -0.85412,0 -1.20827,-0.458309 -1.20827,-1.312431 v -3.312329 h 3.74981 c 0.83329,0 1.18744,0.45831 1.18744,1.2916 z m 16.18666,17.019949 c 0,3.708141 -2.97901,5.978856 -7.16629,5.978856 a 16.457478,16.457478 0 0 1 -5.04141,-0.708296 1.3957608,1.3957608 0 0 1 -0.83329,-1.333265 V 76.91145 c 1.58325,0.416645 3.66648,0.770793 4.99974,0.770793 2.27072,0 3.16651,-0.666633 3.16651,-1.9374 0,-3.187334 -8.37458,-2.41654 -8.37458,-8.957868 0,-3.104005 2.08323,-5.687204 6.70799,-5.687204 a 15.27004,15.27004 0 0 1 4.6456,0.708297 c 0.54164,0.208322 0.89579,0.729128 0.83329,1.312432 v 2.520702 a 16.811626,16.811626 0 0 0 -4.58309,-0.770794 c -2.29155,0 -2.74987,0.708297 -2.74987,1.66658 0,2.645696 8.3954,2.083226 8.3954,8.937036 z m -56.309578,6.333005 h 1.083277 c 0.437477,0 0.583303,0.166657 0.499973,0.604135 l -1.041612,5.728869 a 6.2913397,6.2913397 0 0 1 3.770638,-1.499923 c 3.374824,0 4.437269,2.416542 3.645643,6.791314 -0.854122,4.62476 -3.020676,7.478776 -7.812094,7.478776 a 11.457738,11.457738 0 0 1 -2.854018,-0.35415 C 83.6078,100.4519 83.441143,100.36857 83.566136,99.764428 Z M 85.35771,99.243622 c 0.645799,0.187491 1.333264,0.270819 1.999896,0.249987 3.083173,0 4.791417,-1.66658 5.583043,-5.874695 0.749961,-4.103953 -0.312484,-5.520546 -2.354045,-5.520546 -1.333263,0 -2.333212,0.583303 -3.458153,1.458257 z m 18.91569,1.458258 c -0.45832,0 -0.58331,-0.16666 -0.49998,-0.60413 l 0.0833,-0.520812 h -0.0417 c -1.24993,0.916612 -2.60403,1.499922 -3.895628,1.499922 -1.458257,0 -2.479037,-0.47914 -3.06234,-1.562419 -0.499974,-0.83329 -0.479142,-1.958231 -0.208322,-3.374825 l 1.666579,-9.145358 h 1.083278 c 0.458309,0 0.583302,0.166658 0.499974,0.624968 l -1.562419,8.52039 c -0.437477,2.39571 0.37498,3.499819 2.208218,3.499819 1.24993,0 2.37488,-0.666632 3.54148,-1.499922 l 2.04157,-11.145255 h 1.08327 c 0.43748,0 0.58331,0.187491 0.49998,0.624968 l -2.39572,13.082654 z m 12.33269,0 c -0.43748,0 -0.58331,-0.16666 -0.49997,-0.60413 l 0.10415,-0.520812 a 6.4579977,6.4579977 0 0 1 -3.79147,1.499922 c -3.37482,0 -4.43727,-2.416541 -3.64565,-6.791314 0.85413,-4.624759 3.02069,-7.478778 7.8121,-7.478778 0.6458,0 1.2916,0.0625 1.9374,0.166658 l 0.93745,-5.166397 h 1.08328 c 0.45831,0 0.58331,0.166657 0.49997,0.604135 l -3.35398,18.290716 z m 1.64575,-12.228532 A 6.978804,6.978804 0 0 0 116.2311,88.20253 c -3.08317,0 -4.79141,1.66658 -5.5622,5.874694 -0.7708,4.124786 0.29165,5.562211 2.3332,5.562211 1.31244,0 2.33322,-0.604135 3.45816,-1.499922 l 1.77074,-9.666165 z m 2.99983,17.019952 c -0.35414,-0.125 -0.54163,-0.29165 -0.4583,-0.68747 l 0.14582,-0.85412 c 0.99995,0.33332 2.04156,0.52081 3.08318,0.52081 2.70819,0 3.8748,-1.14577 4.4581,-4.29145 l 0.16665,-0.979112 c -1.20826,0.958282 -2.5832,1.499922 -3.83313,1.499922 -3.37482,0 -4.43727,-2.395709 -3.64564,-6.645488 0.79162,-4.395605 2.97901,-7.249624 7.74959,-7.249624 0.95828,0 1.91657,0.104162 2.85403,0.333317 0.54163,0.124993 0.70829,0.208322 0.60413,0.812457 l -2.24988,12.249358 c -0.72913,3.95813 -2.62487,5.70804 -6.12468,5.70804 a 8.0204165,8.0204165 0 0 1 -2.74987,-0.41664 z m 9.33285,-17.019952 A 6.978804,6.978804 0 0 0 128.5638,88.20253 c -3.08318,0 -4.79142,1.66658 -5.52055,5.666371 -0.74996,3.97896 0.31249,5.416385 2.37487,5.416385 1.31244,0 2.33322,-0.624967 3.43733,-1.499922 l 1.70824,-9.312016 z m 11.31193,11.311912 a 0.83329003,0.83329003 0 0 1 -0.7083,0.70829 11.395241,11.395241 0 0 1 -3.20817,0.41665 c -3.7498,0 -5.35389,-2.104055 -4.45811,-7.041299 0.87496,-4.687256 3.22901,-7.228791 6.56217,-7.228791 3.29149,0 4.43727,2.541535 3.70814,6.520495 -0.125,0.749961 -0.43748,1.02078 -1.20827,1.02078 h -7.27046 c -0.6458,3.79147 0.31248,5.291392 3.20817,5.291392 a 12.666008,12.666008 0 0 0 3.52065,-0.520806 z m -6.333,-6.957971 h 6.60382 c 0.56246,-3.041509 -0.20832,-4.853914 -2.31239,-4.853914 -1.99989,0 -3.45815,1.39576 -4.29143,4.853914 z m 14.43675,7.166294 a 0.83329003,0.83329003 0 0 1 -0.72914,0.749967 8.2912358,8.2912358 0 0 1 -1.58325,0.14582 c -2.35404,0 -3.02068,-1.249935 -2.5207,-3.958128 l 2.41654,-13.124318 h 1.06245 c 0.4583,0 0.5833,0.145826 0.5208,0.583303 l -0.47914,2.604031 h 3.08317 c 0.41665,0 0.56247,0.166658 0.47915,0.624968 l -0.16666,0.854122 h -3.66648 l -1.54159,8.41623 c -0.33332,1.791573 0.10417,2.562367 1.4791,2.562367 0.62496,0 1.20827,-0.08333 1.79157,-0.249987 l -0.14582,0.770793 z"
       id="path2"
       style="stroke-width:2.08323" />
  </g>
</svg>
