<?xml version="1.0" encoding="UTF-8" standalone="no"?>
<svg
   id="Capa_1"
   data-name="Capa 1"
   viewBox="0 0 507.39999 259.14998"
   version="1.1"
   sodipodi:docname="koragreencity.svg"
   width="507.39999"
   height="259.14999"
   inkscape:version="1.3 (0e150ed6c4, 2023-07-21)"
   xmlns:inkscape="http://www.inkscape.org/namespaces/inkscape"
   xmlns:sodipodi="http://sodipodi.sourceforge.net/DTD/sodipodi-0.dtd"
   xmlns="http://www.w3.org/2000/svg"
   xmlns:svg="http://www.w3.org/2000/svg">
  <defs
     id="defs18" />
  <sodipodi:namedview
     id="namedview18"
     pagecolor="#ffffff"
     bordercolor="#999999"
     borderopacity="1"
     inkscape:showpageshadow="0"
     inkscape:pageopacity="0"
     inkscape:pagecheckerboard="0"
     inkscape:deskcolor="#d1d1d1"
     inkscape:zoom="1.3837912"
     inkscape:cx="226.55152"
     inkscape:cy="147.05976"
     inkscape:window-width="1842"
     inkscape:window-height="1051"
     inkscape:window-x="69"
     inkscape:window-y="-9"
     inkscape:window-maximized="1"
     inkscape:current-layer="Capa_1" />
  <path
     d="m 73.8,239.4 v 5.52 h 7.71 l -0.05,0.59 c -0.19,4.1 -3.37,6.84 -8.1,6.84 -5.82,0 -9.48,-4.45 -9.48,-11.53 0,-7.08 3.47,-11.14 9.09,-11.14 3.8,0 6.78,2 7.71,5.18 h 8.11 c -1.12,-6.84 -7.62,-11.48 -16.07,-11.48 -10.35,0 -17,6.84 -17,17.68 0,10.84 6.64,17.59 17.34,17.59 10.21,0 16.17,-5.77 16.17,-15.88 0,-1 -0.05,-2.39 -0.15,-3.37 z"
     style="fill:#617f72;stroke:#607f72;stroke-miterlimit:10"
     id="path1" />
  <path
     d="m 133.42,235.54 c 0,-6.93 -4.83,-11.62 -12,-11.62 h -14.55 v 34.19 h 8.11 v -11.09 h 5.18 l 5.61,11.14 h 8.65 l -6.94,-12.6 a 10.69,10.69 0 0 0 5.94,-10.02 z m -13.58,5 h -5 v -10.22 h 5 c 3.23,0 5.38,2 5.38,5.13 0,3.13 -2.13,5.12 -5.36,5.12 z"
     style="fill:#617f72;stroke:#607f72;stroke-miterlimit:10"
     id="path2" />
  <polygon
     points="346.16,414.69 330.72,414.69 330.72,406.83 344.2,406.83 344.2,400.77 330.72,400.77 330.72,393.3 346.16,393.3 346.16,386.9 322.62,386.9 322.62,421.09 346.16,421.09 "
     style="fill:#617f72;stroke:#607f72;stroke-miterlimit:10"
     id="polygon2"
     transform="translate(-171.58,-162.98)" />
  <polygon
     points="387.78,414.69 372.34,414.69 372.34,406.83 385.83,406.83 385.83,400.77 372.34,400.77 372.34,393.3 387.78,393.3 387.78,386.9 364.24,386.9 364.24,421.09 387.78,421.09 "
     style="fill:#617f72;stroke:#607f72;stroke-miterlimit:10"
     id="polygon3"
     transform="translate(-171.58,-162.98)" />
  <polygon
     points="405.86,386.9 405.86,421.09 413.67,421.09 413.67,399.4 426.81,421.09 435.46,421.09 435.46,386.9 427.69,386.9 427.69,408.59 414.55,386.9 "
     style="fill:#617f72;stroke:#607f72;stroke-miterlimit:10"
     id="polygon4"
     transform="translate(-171.58,-162.98)" />
  <path
     d="m 320.79,252.15 c -5.17,0 -8.5,-4.39 -8.5,-11.14 0,-6.75 3.33,-11.13 8.45,-11.13 a 7.53,7.53 0 0 1 7.72,6.35 h 8.26 c -0.69,-7.62 -7.23,-12.85 -15.93,-12.85 -10.06,0 -16.75,7 -16.75,17.59 0,10.59 6.69,17.68 16.7,17.68 8.7,0 15,-5 16.22,-12.85 h -8.35 c -0.69,3.91 -3.67,6.35 -7.82,6.35 z"
     style="fill:#617f72;stroke:#607f72;stroke-miterlimit:10"
     id="path4" />
  <rect
     x="354.31003"
     y="223.92"
     width="8.1099997"
     height="34.189999"
     style="fill:#617f72;stroke:#607f72;stroke-miterlimit:10"
     id="rect4" />
  <polygon
     points="560.91,421.09 569.02,421.09 569.02,393.3 579.08,393.3 579.08,386.9 550.85,386.9 550.85,393.3 560.91,393.3 "
     style="fill:#617f72;stroke:#607f72;stroke-miterlimit:10"
     id="polygon5"
     transform="translate(-171.58,-162.98)" />
  <polygon
     points="593.84,386.9 605.66,406.44 605.66,421.09 613.77,421.09 613.77,406.44 625.59,386.9 617.14,386.9 609.72,400.53 602.29,386.9 "
     style="fill:#617f72;stroke:#607f72;stroke-miterlimit:10"
     id="polygon6"
     transform="translate(-171.58,-162.98)" />
  <path
     d="m 341.81,53.49 c -7.33,0 -15.77,3.44 -20.73,8.4 v -9.68 h -34.06 v 137.23 h 34.06 v -81.15 a 20.74,20.74 0 0 1 32.16,-17.27 l 18.81,-28.39 a 54.57,54.57 0 0 0 -30.24,-9.14 z"
     style="fill:#617f72;stroke:#607f72;stroke-miterlimit:10"
     id="path6" />
  <path
     d="m 76.03,145.84 v 43.67 h 34.06 V 145.84 A 54.65,54.65 0 0 0 93.83,106.92 58.27,58.27 0 0 0 110.09,66.51 V 52.29 H 76.03 v 14.22 a 24.48,24.48 0 0 1 -24.45,24.45 50.8,50.8 0 0 0 -17,2.93 V 0.5 H 0.5 v 189 h 34.06 v -43.66 a 20.74,20.74 0 1 1 41.47,0 z"
     style="fill:#617f72;stroke:#607f72;stroke-miterlimit:10"
     id="path7" />
  <path
     d="m 197.47,52.14 a 68.73,68.73 0 1 0 68.72,68.73 68.8,68.8 0 0 0 -68.72,-68.73 z m 0,103.39 a 34.67,34.67 0 1 1 34.66,-34.66 34.7,34.7 0 0 1 -34.66,34.66 z"
     style="fill:#617f72;stroke:#607f72;stroke-miterlimit:10"
     id="path8" />
  <path
     d="m 472.84,52.02 v 9.28 a 68.73,68.73 0 1 0 0,119.09 v 9 H 506.9 V 52.02 Z m 0,74.23 a 34.67,34.67 0 1 1 0,-10.8 z"
     style="fill:#617f72;stroke:#607f72;stroke-miterlimit:10"
     id="path9" />
  <path
     d="m 73.8,239.4 v 5.52 h 7.71 l -0.05,0.59 c -0.19,4.1 -3.37,6.84 -8.1,6.84 -5.82,0 -9.48,-4.45 -9.48,-11.53 0,-7.08 3.47,-11.14 9.09,-11.14 3.8,0 6.78,2 7.71,5.18 h 8.11 c -1.12,-6.84 -7.62,-11.48 -16.07,-11.48 -10.35,0 -17,6.84 -17,17.68 0,10.84 6.64,17.59 17.34,17.59 10.21,0 16.17,-5.77 16.17,-15.88 0,-1 -0.05,-2.39 -0.15,-3.37 z"
     style="fill:#617f72;stroke:#607f72;stroke-miterlimit:10"
     id="path10" />
  <path
     d="m 133.42,235.54 c 0,-6.93 -4.83,-11.62 -12,-11.62 h -14.55 v 34.19 h 8.11 v -11.09 h 5.18 l 5.61,11.14 h 8.65 l -6.94,-12.6 a 10.69,10.69 0 0 0 5.94,-10.02 z m -13.58,5 h -5 v -10.22 h 5 c 3.23,0 5.38,2 5.38,5.13 0,3.13 -2.13,5.12 -5.36,5.12 z"
     style="fill:#617f72;stroke:#607f72;stroke-miterlimit:10"
     id="path11" />
  <polygon
     points="346.16,414.69 330.72,414.69 330.72,406.83 344.2,406.83 344.2,400.77 330.72,400.77 330.72,393.3 346.16,393.3 346.16,386.9 322.62,386.9 322.62,421.09 346.16,421.09 "
     style="fill:#617f72;stroke:#607f72;stroke-miterlimit:10"
     id="polygon11"
     transform="translate(-171.58,-162.98)" />
  <polygon
     points="387.78,414.69 372.34,414.69 372.34,406.83 385.83,406.83 385.83,400.77 372.34,400.77 372.34,393.3 387.78,393.3 387.78,386.9 364.24,386.9 364.24,421.09 387.78,421.09 "
     style="fill:#617f72;stroke:#607f72;stroke-miterlimit:10"
     id="polygon12"
     transform="translate(-171.58,-162.98)" />
  <polygon
     points="405.86,386.9 405.86,421.09 413.67,421.09 413.67,399.4 426.81,421.09 435.46,421.09 435.46,386.9 427.69,386.9 427.69,408.59 414.55,386.9 "
     style="fill:#617f72;stroke:#607f72;stroke-miterlimit:10"
     id="polygon13"
     transform="translate(-171.58,-162.98)" />
  <path
     d="m 320.79,252.15 c -5.17,0 -8.5,-4.39 -8.5,-11.14 0,-6.75 3.33,-11.13 8.45,-11.13 a 7.53,7.53 0 0 1 7.72,6.35 h 8.26 c -0.69,-7.62 -7.23,-12.85 -15.93,-12.85 -10.06,0 -16.75,7 -16.75,17.59 0,10.59 6.69,17.68 16.7,17.68 8.7,0 15,-5 16.22,-12.85 h -8.35 c -0.69,3.91 -3.67,6.35 -7.82,6.35 z"
     style="fill:#617f72;stroke:#607f72;stroke-miterlimit:10"
     id="path13" />
  <rect
     x="354.31003"
     y="223.92"
     width="8.1099997"
     height="34.189999"
     style="fill:#617f72;stroke:#607f72;stroke-miterlimit:10"
     id="rect13" />
  <polygon
     points="560.91,421.09 569.02,421.09 569.02,393.3 579.08,393.3 579.08,386.9 550.85,386.9 550.85,393.3 560.91,393.3 "
     style="fill:#617f72;stroke:#607f72;stroke-miterlimit:10"
     id="polygon14"
     transform="translate(-171.58,-162.98)" />
  <polygon
     points="593.84,386.9 605.66,406.44 605.66,421.09 613.77,421.09 613.77,406.44 625.59,386.9 617.14,386.9 609.72,400.53 602.29,386.9 "
     style="fill:#617f72;stroke:#607f72;stroke-miterlimit:10"
     id="polygon15"
     transform="translate(-171.58,-162.98)" />
  <path
     d="m 341.81,53.49 c -7.33,0 -15.77,3.44 -20.73,8.4 v -9.68 h -34.06 v 137.23 h 34.06 v -81.15 a 20.74,20.74 0 0 1 32.16,-17.27 l 18.81,-28.39 a 54.57,54.57 0 0 0 -30.24,-9.14 z"
     style="fill:#617f72;stroke:#607f72;stroke-miterlimit:10"
     id="path15" />
  <path
     d="m 76.03,145.84 v 43.67 h 34.06 V 145.84 A 54.65,54.65 0 0 0 93.83,106.92 58.27,58.27 0 0 0 110.09,66.51 V 52.29 H 76.03 v 14.22 a 24.48,24.48 0 0 1 -24.45,24.45 50.8,50.8 0 0 0 -17,2.93 V 0.5 H 0.5 v 189 h 34.06 v -43.66 a 20.74,20.74 0 1 1 41.47,0 z"
     style="fill:#617f72;stroke:#607f72;stroke-miterlimit:10"
     id="path16" />
  <path
     d="m 197.47,52.14 a 68.73,68.73 0 1 0 68.72,68.73 68.8,68.8 0 0 0 -68.72,-68.73 z m 0,103.39 a 34.67,34.67 0 1 1 34.66,-34.66 34.7,34.7 0 0 1 -34.66,34.66 z"
     style="fill:#617f72;stroke:#607f72;stroke-miterlimit:10"
     id="path17" />
  <path
     d="m 472.84,52.02 v 9.28 a 68.73,68.73 0 1 0 0,119.09 v 9 H 506.9 V 52.02 Z m 0,74.23 a 34.67,34.67 0 1 1 0,-10.8 z"
     style="fill:#617f72;stroke:#607f72;stroke-miterlimit:10"
     id="path18" />
</svg>
