<?xml version="1.0" encoding="UTF-8" standalone="no"?>
<svg
   version="1.0"
   width="259.75406pt"
   height="315.85001pt"
   viewBox="0 0 259.75406 315.85001"
   preserveAspectRatio="xMidYMid meet"
   id="svg108"
   sodipodi:docname="logo_base (1).svg"
   inkscape:version="1.1 (c68e22c387, 2021-05-23)"
   xmlns:inkscape="http://www.inkscape.org/namespaces/inkscape"
   xmlns:sodipodi="http://sodipodi.sourceforge.net/DTD/sodipodi-0.dtd"
   xmlns="http://www.w3.org/2000/svg"
   xmlns:svg="http://www.w3.org/2000/svg">
  <defs
     id="defs112" />
  <sodipodi:namedview
     id="namedview110"
     pagecolor="#ffffff"
     bordercolor="#999999"
     borderopacity="1"
     inkscape:pageshadow="0"
     inkscape:pageopacity="0"
     inkscape:pagecheckerboard="0"
     inkscape:document-units="pt"
     showgrid="false"
     inkscape:zoom="0.91056338"
     inkscape:cx="372.84609"
     inkscape:cy="277.30085"
     inkscape:window-width="1842"
     inkscape:window-height="1051"
     inkscape:window-x="69"
     inkscape:window-y="-9"
     inkscape:window-maximized="1"
     inkscape:current-layer="svg108" />
  <g
     transform="matrix(0.1,0,0,-0.1,-19.245944,329.85)"
     fill="#000000"
     stroke="none"
     id="g106">
    <path
       d="m 214,3270 c -3,-14 -10,-36 -15,-49 -17,-41 0,-37 41,9 52,61 64,48 69,-71 2,-68 -1,-95 -12,-113 l -16,-24 76,1 c 65,0 73,2 58,14 -15,10 -19,30 -23,95 -4,89 8,138 33,138 9,0 34,-19 57,-42 22,-24 38,-35 35,-26 -3,9 -11,34 -16,55 l -10,38 H 355 219 Z"
       id="path2" />
    <path
       d="m 1276,3285 c -22,-8 -56,-30 -75,-50 -30,-30 -36,-42 -36,-79 0,-79 59,-135 151,-142 71,-6 117,14 151,65 30,44 29,76 -2,106 -25,26 -77,33 -105,15 -12,-8 -10,-10 11,-10 62,0 85,-70 42,-127 -63,-86 -156,-31 -157,92 -1,63 19,112 53,130 33,18 17,18 -33,0 z"
       id="path4" />
    <path
       d="m 1373,3283 c 26,-11 37,-21 37,-37 1,-21 1,-21 16,-1 37,48 36,50 -30,51 l -61,2 z"
       id="path6" />
    <path
       d="m 1020,3265 c -8,-9 -22,-13 -39,-10 -26,5 -26,5 -3,-7 13,-6 22,-18 20,-26 -5,-24 -52,-53 -96,-59 -35,-5 -42,-3 -42,11 0,27 18,54 48,70 l 27,15 -28,1 c -104,1 -174,-110 -116,-184 24,-31 69,-56 100,-56 21,0 21,0 1,18 -19,16 -42,70 -42,98 0,20 58,18 99,-4 21,-10 38,-28 44,-45 11,-33 10,-35 -40,-53 l -38,-15 50,7 c 28,3 51,7 53,8 1,2 -3,17 -9,35 -15,43 -5,124 21,168 11,19 20,36 20,39 0,9 -18,3 -30,-11 z"
       id="path8" />
    <path
       d="m 2480,3265 c -8,-9 -22,-13 -39,-10 -26,5 -26,5 -3,-7 13,-6 22,-18 20,-26 -5,-24 -52,-53 -96,-59 -35,-5 -42,-3 -42,11 0,27 18,54 48,70 l 27,15 -28,1 c -104,1 -174,-110 -116,-184 24,-31 69,-56 100,-56 21,0 21,0 1,18 -19,16 -42,70 -42,98 0,20 58,18 99,-4 21,-10 38,-28 44,-45 11,-33 10,-35 -40,-53 l -38,-15 50,7 c 28,3 51,7 53,8 1,2 -3,17 -9,35 -13,38 -6,118 14,156 12,25 14,25 28,9 20,-24 25,-155 7,-191 l -14,-28 h 62 c 55,0 61,2 49,15 -16,19 -29,92 -20,120 4,14 15,20 34,20 47,0 55,-20 47,-116 -7,-89 0,-114 32,-114 13,0 12,3 -4,14 -19,14 -18,15 8,68 42,83 43,100 13,136 -15,18 -22,32 -17,32 6,0 14,10 18,22 8,26 -17,48 -55,48 -23,-1 -24,-2 -8,-11 39,-23 13,-69 -40,-69 -37,0 -42,13 -17,48 15,22 15,22 -36,22 -36,0 -52,4 -56,15 -8,19 -18,19 -34,0 z"
       id="path10" />
    <path
       d="m 610,3260 c -14,-4 -39,-8 -56,-9 l -31,-1 10,-50 c 6,-32 6,-75 1,-118 l -9,-67 h 46 c 41,0 46,2 38,17 -13,24 -11,122 3,136 8,8 9,12 1,12 -20,0 2,54 28,67 34,18 69,16 69,-3 0,-8 5,-12 10,-9 8,5 7,11 -1,21 -12,15 -68,17 -109,4 z"
       id="path12" />
    <path
       d="m 1765,3259 c -16,-5 -47,-10 -67,-11 -36,-1 -36,-1 -21,-25 12,-19 15,-40 10,-99 -3,-41 -11,-81 -17,-89 -9,-10 -1,-14 42,-17 52,-4 76,0 51,9 -16,6 -18,158 -4,196 6,14 20,28 32,32 53,17 74,-69 47,-199 -10,-53 -10,-59 10,-78 l 21,-21 -6,22 c -4,16 5,44 28,87 19,35 36,64 39,64 3,0 10,-15 15,-32 13,-42 66,-78 114,-77 20,0 29,3 21,6 -51,19 -78,87 -60,153 6,21 17,46 26,55 21,21 1,19 -46,-5 -22,-11 -45,-30 -51,-42 -11,-21 -12,-21 -24,10 -21,49 -100,80 -160,61 z"
       id="path14" />
    <path
       d="m 1505,3248 c 35,-20 43,-153 11,-203 -13,-19 -11,-20 49,-20 60,0 62,1 49,20 -22,30 -19,170 4,193 16,16 14,17 -56,17 -43,1 -66,-3 -57,-7 z"
       id="path16" />
    <path
       d="m 2123,3244 c 11,-7 24,-19 27,-28 5,-14 9,-12 26,11 l 21,28 h -48 c -41,0 -45,-1 -26,-11 z"
       id="path18" />
    <path
       d="m 646,3193 c -17,-4 -15,-7 12,-19 42,-17 52,-47 45,-131 -5,-61 -3,-70 16,-87 16,-15 24,-17 33,-8 9,9 8,12 -4,12 -25,0 -26,18 -4,103 18,71 18,82 5,106 -15,26 -57,36 -103,24 z"
       id="path20" />
    <path
       d="m 2136,3165 c 17,-8 34,-24 37,-37 8,-28 -20,-78 -54,-96 -23,-13 -23,-13 11,-8 44,7 90,56 90,95 0,39 -28,61 -76,60 l -39,-1 z"
       id="path22" />
    <path
       d="m 1322,3138 c 2,-12 11,-24 21,-26 24,-5 21,20 -4,36 -19,12 -20,11 -17,-10 z"
       id="path24" />
    <path
       d="m 2073,3125 c 4,-9 7,-19 7,-21 0,-2 7,-4 15,-4 22,0 18,18 -7,31 -18,10 -20,9 -15,-6 z"
       id="path26" />
    <path
       d="m 834,2771 c -72,-44 -91,-112 -93,-329 0,-67 -6,-164 -12,-215 -6,-50 -15,-137 -20,-192 -22,-245 -16,-223 -69,-276 l -48,-47 -38,13 c -61,22 -75,16 -16,-6 42,-17 52,-24 46,-37 -37,-90 -38,-207 -3,-283 26,-58 60,-69 123,-40 66,30 116,51 122,51 2,0 0,-9 -6,-20 -6,-11 -11,-38 -13,-60 -1,-22 -5,-40 -8,-40 -4,0 -14,17 -22,38 -9,21 -16,29 -16,19 -1,-21 35,-77 50,-77 5,0 9,16 9,36 0,20 5,54 12,75 l 11,39 h 65 c 57,0 63,-2 57,-17 -4,-10 -10,-28 -12,-40 -7,-31 -18,-29 -33,7 -7,17 -14,29 -16,27 -5,-5 28,-87 35,-87 3,0 15,23 26,52 11,28 25,53 30,55 15,4 45,-54 45,-88 0,-16 4,-29 8,-29 13,0 82,74 82,88 0,22 29,12 59,-20 42,-45 47,-73 18,-111 -71,-97 -100,-140 -89,-133 14,8 178,210 184,225 2,8 94,-5 107,-15 6,-5 -51,-77 -78,-98 -13,-11 -39,-52 -57,-92 -38,-82 -38,-82 -149,-48 -33,10 -83,17 -111,16 -32,-1 -55,3 -61,10 -5,7 -17,48 -28,91 -10,42 -22,77 -26,77 -15,0 -29,-66 -28,-134 l 2,-71 8,84 c 4,46 10,85 12,87 4,4 57,-176 57,-192 0,-3 -17,-3 -37,0 -52,8 -67,-4 -60,-46 3,-20 -1,-44 -9,-58 -7,-14 -13,-35 -14,-48 0,-35 36,-97 65,-110 31,-15 125,-16 125,-2 0,6 -19,10 -42,10 -68,0 -87,10 -108,51 -23,45 -25,68 -7,94 13,17 16,17 43,3 33,-17 113,-38 147,-38 18,0 25,-8 34,-41 10,-38 9,-40 -10,-37 -12,2 -32,18 -44,37 -13,19 -23,28 -23,20 0,-8 7,-25 16,-37 9,-13 13,-26 10,-29 -8,-8 -56,24 -84,56 l -23,26 17,-28 c 36,-59 62,-68 197,-69 123,0 184,10 238,38 28,14 29,14 29,-10 0,-33 25,-56 61,-56 16,0 38,-9 50,-21 12,-12 31,-19 47,-18 15,2 41,-5 58,-14 25,-13 63,-17 171,-18 77,-1 145,1 152,5 6,4 27,2 46,-5 32,-12 39,-10 116,29 81,40 82,41 113,24 22,-11 57,-16 118,-17 75,0 90,3 117,23 25,18 31,19 31,7 0,-20 18,-19 58,5 l 32,20 1,117 c 0,65 3,210 6,323 6,245 5,479 -3,538 -4,32 -11,45 -27,51 -22,9 -41,26 -103,93 -49,52 -92,137 -92,183 -1,79 -23,296 -43,417 -29,183 -60,233 -149,245 -79,11 -129,-21 -236,-148 -22,-25 -7,-13 31,27 76,80 120,104 189,104 61,0 108,-46 124,-122 38,-180 74,-551 45,-472 -2,6 -22,39 -45,74 -60,94 -188,222 -256,257 -81,43 -232,74 -377,78 l -120,3 115,-8 c 162,-11 322,-51 396,-100 66,-43 169,-154 224,-239 36,-57 99,-195 120,-265 10,-31 10,-40 -1,-47 -11,-7 -11,-9 2,-9 36,0 39,-97 5,-137 -13,-15 -26,-26 -28,-23 -1,3 -16,32 -33,65 -20,40 -41,66 -64,79 l -34,19 -132,-33 c -128,-32 -137,-33 -225,-23 -79,9 -106,17 -183,57 -81,41 -109,47 -45,10 87,-51 137,-67 233,-77 94,-10 106,-8 203,16 164,43 191,36 239,-56 24,-46 27,-62 26,-145 -2,-99 -27,-201 -63,-257 -11,-16 -59,-65 -107,-108 -77,-69 -110,-90 -268,-167 -118,-58 -240,-108 -355,-147 l -175,-58 h -130 c -185,1 -313,21 -355,55 -25,21 -31,31 -26,48 10,30 56,29 143,-3 80,-30 196,-41 273,-26 l 55,10 -72,-4 c -66,-3 -74,-2 -88,18 -21,30 -19,38 8,33 12,-3 57,-10 100,-17 53,-8 74,-15 65,-21 -19,-14 0,-6 62,23 202,98 274,130 335,154 139,52 321,175 381,257 78,106 76,229 -4,259 -34,13 -123,-30 -231,-112 -174,-132 -218,-162 -291,-197 -68,-34 -82,-37 -160,-37 -56,0 -99,6 -125,17 -64,26 -249,51 -375,51 -103,0 -121,-3 -173,-26 -32,-15 -76,-31 -97,-36 -38,-8 -41,-7 -62,22 -24,33 -39,114 -31,160 6,28 30,36 50,16 6,-6 17,-8 23,-4 9,6 9,9 -1,15 -10,7 -10,11 0,24 10,11 10,16 2,16 -6,0 -14,-7 -17,-15 -8,-20 -54,-20 -54,0 0,22 29,75 41,75 5,0 14,-12 20,-27 7,-17 13,-23 16,-15 4,10 9,9 24,-4 21,-19 24,-18 33,14 7,22 -7,31 -19,12 -4,-6 -11,-8 -16,-4 -5,3 -7,9 -4,13 2,5 -9,11 -25,15 -38,7 -38,14 3,56 43,44 74,56 239,91 226,48 333,94 379,164 59,90 93,254 67,329 -15,46 -11,45 -189,53 -101,4 -132,2 -164,-11 -21,-9 -40,-15 -42,-12 -8,7 91,87 144,116 30,16 87,37 127,46 39,9 105,25 148,35 72,18 128,24 128,15 0,-3 -9,-20 -20,-38 -29,-50 -59,-190 -66,-308 -6,-120 -25,-209 -54,-255 -22,-35 -99,-81 -195,-115 -33,-12 -69,-25 -80,-30 -11,-5 -55,-11 -98,-13 -98,-7 -158,-34 -195,-90 -52,-78 -25,-153 73,-198 43,-20 115,-25 115,-9 0,6 9,19 20,30 14,14 20,33 20,63 0,23 5,49 10,57 8,13 12,12 25,-7 18,-26 57,-30 75,-8 10,12 9,20 -4,40 -38,57 -126,15 -126,-61 0,-18 -5,-45 -10,-59 -9,-23 -13,-25 -25,-15 -8,7 -15,26 -15,42 0,16 -6,44 -14,63 -24,56 -73,71 -120,34 -35,-28 -33,-11 4,29 39,43 80,59 172,68 70,6 78,5 122,-21 65,-38 82,-66 66,-106 -7,-17 -27,-44 -44,-61 l -30,-31 31,16 c 35,18 73,73 73,105 0,25 -53,88 -81,97 -30,10 -23,21 24,35 69,20 169,73 203,107 46,46 63,109 79,287 14,155 40,278 70,337 l 16,29 -58,-1 c -32,0 -106,-10 -165,-23 l -107,-22 -33,50 c -74,116 -187,206 -258,206 -14,0 -39,-9 -56,-19 z m 141,-32 c 51,-27 96,-69 151,-143 l 43,-59 -61,-32 -62,-31 -19,55 c -33,97 -102,172 -157,170 -22,0 -21,-2 9,-13 57,-20 116,-106 131,-189 7,-36 6,-38 -82,-124 -61,-60 -105,-114 -139,-173 l -50,-85 5,50 c 17,149 26,270 24,355 -1,116 7,155 39,198 43,57 88,62 168,21 z m 335,-394 c 9,-6 11,-34 8,-109 -5,-104 -27,-178 -68,-236 -21,-29 -108,-79 -180,-103 -46,-15 -286,-67 -311,-67 -40,0 130,89 226,118 55,17 78,30 108,63 35,37 38,43 27,67 -19,46 -48,74 -92,87 -40,13 -41,14 -13,14 41,1 92,-32 110,-71 8,-18 21,-59 30,-90 8,-32 19,-58 23,-58 15,1 44,54 49,90 6,42 -28,128 -65,167 -48,49 -168,55 -265,14 -68,-29 -58,-31 21,-5 151,52 243,14 288,-119 14,-40 14,-49 0,-82 -19,-44 -33,-39 -41,18 -16,100 -72,157 -154,157 -58,-1 -84,-15 -127,-70 -57,-72 -58,-126 -2,-160 l 31,-18 -70,-36 c -39,-19 -85,-47 -103,-63 l -33,-28 6,45 c 21,144 54,250 102,331 49,82 77,104 195,153 21,8 284,1 300,-9 z m -255,-219 c 11,-7 27,-25 34,-40 13,-24 13,-29 -5,-54 -22,-29 -73,-58 -119,-68 -24,-4 -37,1 -69,28 -33,29 -38,38 -33,60 7,28 61,88 79,88 5,0 -2,-14 -16,-31 -31,-36 -33,-59 -8,-90 27,-33 78,-30 109,5 12,15 23,34 23,43 0,20 -38,63 -56,63 -7,0 -16,5 -20,12 -9,15 52,3 81,-16 z m -51,-12 c 22,-8 37,-39 30,-59 -4,-8 -20,-23 -36,-31 -27,-14 -32,-14 -54,1 -55,36 -3,113 60,89 z m 1426,-184 c 0,-17 101,-110 120,-110 15,0 20,-11 26,-67 7,-71 0,-371 -10,-380 -3,-3 -11,-1 -18,5 -7,6 -35,16 -60,22 l -48,12 20,28 c 23,32 26,70 8,88 -9,9 -9,15 0,24 9,9 16,8 29,-4 22,-20 73,-34 73,-21 0,6 -17,15 -38,21 -38,12 -38,12 -38,62 1,33 -4,55 -15,65 -12,12 -15,28 -12,60 4,34 1,47 -15,63 -12,12 -22,38 -24,63 -3,24 -8,52 -12,62 -5,10 -4,17 3,17 6,0 11,-4 11,-10 z m 14,-146 c 15,-38 5,-66 -39,-112 l -45,-47 v 44 c 0,34 6,51 30,78 17,18 30,38 30,43 0,16 17,11 24,-6 z M 895,1680 c 21,-23 14,-46 -20,-62 -56,-25 -102,32 -53,66 30,21 51,20 73,-4 z m 189,4 c 9,-3 16,-13 16,-21 0,-10 -6,-13 -16,-9 -9,3 -18,6 -20,6 -2,0 -4,7 -4,15 0,17 2,18 24,9 z m 1052,-8 c 15,-12 19,-27 19,-80 0,-60 -4,-70 -41,-123 -26,-36 -68,-77 -114,-110 l -73,-52 -29,31 -28,30 41,37 c 38,33 42,42 46,93 2,33 0,59 -6,63 -6,3 -11,0 -11,-7 0,-8 -13,-19 -30,-25 -23,-9 -30,-18 -30,-38 0,-16 -4,-24 -11,-20 -12,8 -59,-33 -59,-52 0,-7 -8,-13 -19,-13 -10,0 -30,-9 -44,-20 -14,-11 -31,-20 -39,-20 -8,0 -29,-11 -48,-25 -19,-14 -43,-25 -55,-25 -12,0 -25,-4 -31,-9 -5,-5 -19,-12 -31,-16 -20,-6 -23,-3 -23,24 0,21 5,31 15,31 42,0 186,90 357,222 85,66 174,118 204,118 11,0 29,-6 40,-14 z m 338,-32 c 9,-45 -6,-70 -77,-125 -28,-23 -53,-45 -55,-50 -7,-18 16,-8 61,26 25,19 48,35 50,35 3,0 7,-10 10,-22 12,-44 -46,-95 -122,-107 -53,-9 -51,-30 3,-24 38,5 45,3 51,-15 8,-28 -10,-61 -43,-73 -15,-6 -53,-7 -89,-3 -74,8 -89,-11 -17,-22 49,-7 64,-25 43,-50 -10,-12 -26,-15 -69,-11 -30,2 -63,8 -74,12 -14,6 -18,5 -14,-6 2,-8 26,-18 51,-23 59,-12 64,-36 8,-36 -23,0 -48,8 -64,20 -14,11 -30,20 -36,20 -18,0 -12,-19 9,-30 26,-14 26,-37 0,-45 -22,-7 -45,7 -61,36 -7,15 -1,24 38,50 72,49 201,169 224,208 24,40 45,101 52,152 4,26 18,48 49,78 24,22 48,41 54,41 7,0 15,-16 18,-36 z M 845,1598 c 17,-1 40,1 53,6 19,6 22,4 22,-20 0,-15 7,-36 17,-46 15,-17 15,-18 -8,-18 -59,1 -139,58 -154,110 l -7,25 24,-28 c 15,-18 34,-28 53,-29 z m 1099,-100 c -9,-33 -12,-34 -32,-15 -15,16 -15,19 -2,27 27,17 42,12 34,-12 z m -29,-49 c 8,-12 -22,-49 -40,-49 -6,0 -20,7 -31,15 -19,15 -19,15 0,30 23,17 62,20 71,4 z m -810,-49 c 7,-11 -31,-70 -46,-70 -5,0 -9,8 -9,18 0,10 -7,28 -16,40 -15,22 -14,22 25,22 22,0 43,-5 46,-10 z m 745,-10 c 8,-5 12,-10 10,-12 -3,-2 -18,-11 -35,-20 -19,-10 -32,-27 -35,-45 -3,-16 -13,-29 -23,-31 -21,-4 -22,11 -2,28 20,17 19,37 -2,49 -10,5 -15,13 -11,16 6,6 48,19 78,24 3,0 12,-3 20,-9 z m 615,-4 c 88,-23 95,-31 95,-108 0,-38 -1,-68 -2,-68 -2,0 -25,11 -52,25 -27,14 -61,25 -75,25 -14,0 -33,4 -41,10 -12,7 -12,12 4,29 15,16 17,29 12,61 -7,45 -9,44 59,26 z m -1198,-18 c 9,-7 9,-16 1,-34 -6,-13 -14,-24 -17,-24 -5,0 -38,49 -49,73 -5,10 49,-3 65,-15 z m 483,-26 c 0,-11 -66,-42 -90,-42 -28,0 -25,12 8,32 28,18 82,24 82,10 z m -247,-34 c -8,-46 -12,-47 -40,-13 l -25,30 16,-32 c 21,-43 33,-48 58,-26 16,14 38,18 104,20 46,1 84,-2 84,-7 0,-15 -53,-39 -101,-46 -46,-7 -112,-36 -141,-61 -15,-13 -17,-11 -23,31 -4,25 -5,53 -1,61 3,9 0,15 -10,15 -27,0 -56,-84 -53,-158 l 2,-67 -49,3 c -27,2 -53,8 -58,12 -14,14 31,97 80,148 24,26 55,61 67,79 20,30 36,38 79,42 14,1 16,-5 11,-31 z m 391,13 c 16,-18 15,-20 -20,-40 -28,-17 -39,-19 -50,-10 -15,12 -19,51 -7,62 13,14 60,6 77,-12 z m -100,-57 c 25,-9 19,-21 -15,-33 -41,-14 -49,-14 -49,2 0,29 31,44 64,31 z m 633,-20 c 109,-34 143,-70 143,-152 0,-46 -12,-59 -31,-36 -24,29 -90,66 -162,90 -39,13 -73,22 -75,19 -3,-2 4,-8 14,-11 71,-25 167,-77 202,-109 l 42,-37 v -94 c 0,-82 -2,-95 -19,-104 -28,-14 -41,-13 -41,5 0,33 -51,114 -101,159 -47,43 -194,126 -221,126 -12,0 79,-57 122,-76 45,-20 131,-106 156,-156 24,-48 24,-50 7,-63 -72,-53 -206,-41 -308,28 l -30,20 29,-30 28,-31 -22,-12 c -12,-6 -47,-20 -78,-31 -75,-26 -99,-16 -136,56 -25,49 -26,58 -15,97 20,75 65,147 102,161 9,3 17,11 17,17 0,5 9,10 21,10 27,0 59,18 59,33 0,9 15,13 48,13 39,-1 49,3 57,21 5,12 21,24 36,27 34,7 56,41 39,61 -9,11 -6,14 17,18 15,2 35,2 43,-1 8,-2 34,-10 57,-18 z m -714,-15 c -3,-18 -15,-29 -40,-38 -19,-7 -37,-10 -40,-8 -11,11 9,27 33,27 16,0 23,4 18,12 -4,6 1,17 11,24 23,17 24,15 18,-17 z m -273,-120 c 7,-11 10,-22 8,-23 -2,-1 -15,-7 -30,-13 -23,-10 -27,-9 -32,10 -10,39 -6,87 11,125 l 16,37 8,-57 c 5,-32 13,-67 19,-79 z m 170,83 c 0,-21 -7,-32 -25,-40 -33,-15 -34,4 -2,41 28,32 27,32 27,-1 z m -40,14 c 0,-16 -14,-36 -25,-36 -20,0 -30,21 -14,31 15,9 39,12 39,5 z m -83,-66 c 2,-45 -8,-51 -31,-18 -14,20 -14,24 1,40 24,26 29,23 30,-22 z m 53,15 c 11,-13 10,-18 -6,-30 -25,-19 -31,-18 -36,3 -10,39 17,57 42,27 z m 480,-9 c 0,-8 7,-22 16,-30 18,-19 10,-36 -16,-36 -18,0 -60,35 -60,50 0,7 38,28 53,29 4,1 7,-5 7,-13 z m -66,-51 c 9,-13 16,-26 16,-28 0,-5 -92,11 -98,17 -4,4 47,35 59,36 4,0 14,-11 23,-25 z m -970,-11 c 9,-3 16,-14 16,-23 1,-14 2,-14 14,2 18,23 23,22 42,-14 15,-30 15,-32 -3,-26 -79,26 -93,33 -93,49 0,20 1,21 24,12 z m 116,-40 c 0,-43 -13,-44 -28,-1 -16,44 -15,46 8,40 15,-4 20,-14 20,-39 z m 712,-28 c -60,-61 -79,-96 -88,-164 -5,-37 -2,-59 10,-83 9,-17 16,-34 16,-37 0,-10 -86,10 -108,24 -13,9 -30,31 -38,50 -18,43 -10,79 35,149 28,46 39,53 119,86 48,20 91,34 95,31 5,-2 -14,-27 -41,-56 z m -664,22 c 14,-37 13,-39 -17,-31 -14,4 -20,11 -17,20 3,8 6,21 6,29 0,25 15,15 28,-18 z m 816,-26 c -59,-76 -69,-158 -29,-226 l 25,-44 -22,-6 c -72,-19 -179,11 -193,53 -10,31 12,129 36,164 12,18 37,48 55,67 31,33 37,35 97,35 h 63 z m -356,-67 c -25,-35 -32,-55 -32,-92 0,-27 2,-55 5,-63 7,-26 -32,-17 -54,12 -30,40 -11,94 51,147 26,23 50,41 54,41 4,0 -7,-20 -24,-45 z m -124,-13 c -22,-9 -64,-32 -92,-51 -30,-19 -68,-34 -89,-36 -21,-2 -47,-6 -58,-9 -25,-8 -37,1 -59,39 l -17,30 4,-32 c 3,-30 1,-33 -25,-33 -24,0 -32,6 -44,36 -8,20 -14,38 -12,39 2,2 38,0 81,-4 91,-8 215,2 272,23 56,21 90,19 39,-2 z m 21,-34 c -4,-13 -9,-38 -12,-55 -6,-36 -31,-44 -53,-17 -18,21 -2,65 30,81 36,18 43,16 35,-9 z"
       id="path28" />
    <path
       d="m 2106,2687 c -16,-12 -14,-13 16,-9 42,5 93,-34 115,-87 12,-29 42,-224 43,-283 0,-10 5,-18 11,-18 14,0 3,158 -18,253 -16,73 -55,131 -96,142 -12,4 -29,9 -38,11 -8,2 -23,-2 -33,-9 z"
       id="path30" />
    <path
       d="m 1583,2358 c -49,-25 -46,-16 -64,-211 -13,-152 -9,-168 64,-243 36,-39 47,-57 43,-71 -12,-36 -46,-42 -208,-36 -147,5 -154,5 -181,-17 -24,-19 -27,-27 -21,-56 10,-52 -3,-97 -42,-155 -20,-28 -30,-49 -22,-47 7,2 28,26 46,52 28,42 32,57 32,112 0,95 9,98 203,90 142,-6 154,-5 185,13 22,15 32,28 32,46 0,14 2,25 5,25 3,0 41,-20 86,-45 45,-25 85,-45 90,-45 5,0 9,-5 9,-11 0,-6 8,-9 18,-7 11,3 36,-3 57,-13 21,-11 41,-16 44,-13 10,10 -43,44 -70,44 -36,0 -214,89 -275,138 -72,57 -90,105 -75,200 6,39 11,104 11,144 v 73 l 43,19 c 70,31 209,21 332,-25 74,-27 150,-100 227,-220 55,-84 107,-139 134,-139 21,0 17,18 -5,25 -23,7 -73,67 -125,148 -107,169 -222,234 -426,243 -94,4 -109,2 -147,-18 z"
       id="path32" />
    <path
       d="m 1754,2239 c -51,-12 -111,-72 -153,-153 -30,-56 -42,-114 -21,-101 6,3 10,14 10,23 0,29 50,115 93,160 91,93 228,76 339,-43 28,-31 69,-65 89,-77 21,-12 36,-24 34,-28 -3,-4 -24,-10 -47,-14 -24,-4 -75,-23 -114,-42 -94,-47 -175,-55 -251,-25 -66,26 -70,18 -5,-10 76,-33 178,-24 273,24 41,20 88,37 104,37 31,0 75,24 75,40 0,6 -17,17 -37,25 -20,9 -67,45 -104,80 -96,93 -189,127 -285,104 z"
       id="path34" />
    <path
       d="m 1763,2164 c -17,-9 -40,-25 -50,-37 -12,-14 -6,-12 20,7 58,44 108,45 186,4 75,-39 111,-80 95,-106 -6,-9 -26,-26 -45,-37 -47,-28 -183,-28 -252,-1 -57,23 -75,14 -21,-10 22,-9 76,-19 122,-22 94,-5 152,11 196,55 25,25 25,26 9,54 -30,51 -139,109 -202,109 -14,0 -40,-8 -58,-16 z"
       id="path36" />
    <path
       d="m 1795,2126 c -65,-28 -71,-81 -12,-116 68,-42 157,-10 157,55 0,61 -74,92 -145,61 z m 111,-31 c 41,-62 -52,-121 -114,-72 -31,25 -34,46 -8,72 36,35 99,35 122,0 z"
       id="path38" />
    <path
       d="m 2316,1901 c -4,-5 3,-7 14,-4 23,6 26,13 6,13 -8,0 -17,-4 -20,-9 z"
       id="path40" />
    <path
       d="m 1798,1743 c 7,-3 16,-2 19,1 4,3 -2,6 -13,5 -11,0 -14,-3 -6,-6 z"
       id="path42" />
    <path
       d="m 1758,1733 c 7,-3 16,-2 19,1 4,3 -2,6 -13,5 -11,0 -14,-3 -6,-6 z"
       id="path44" />
    <path
       d="m 1620,1690 c -8,-5 -10,-10 -5,-10 6,0 17,5 25,10 8,5 11,10 5,10 -5,0 -17,-5 -25,-10 z"
       id="path46" />
    <path
       d="m 1293,1665 c -8,-9 -9,-16 -3,-20 14,-8 30,3 30,21 0,18 -11,17 -27,-1 z"
       id="path48" />
    <path
       d="m 1570,1670 c -8,-5 -10,-10 -5,-10 6,0 17,5 25,10 8,5 11,10 5,10 -5,0 -17,-5 -25,-10 z"
       id="path50" />
    <path
       d="m 1380,1645 c -18,-21 -5,-31 15,-12 8,9 11,18 6,21 -5,3 -14,-1 -21,-9 z"
       id="path52" />
    <path
       d="m 1459,1629 c -13,-25 -12,-29 11,-29 11,0 20,6 20,13 0,8 10,18 22,24 20,9 19,10 -10,10 -21,0 -36,-7 -43,-18 z"
       id="path54" />
    <path
       d="m 1296,1615 c 4,-10 0,-15 -12,-15 -13,0 -15,-3 -7,-11 6,-6 16,-8 22,-5 14,9 15,46 1,46 -5,0 -7,-7 -4,-15 z"
       id="path56" />
    <path
       d="m 1580,1605 c -12,-14 -5,-55 9,-55 5,0 14,7 21,15 10,12 9,15 -5,15 -14,0 -15,3 -6,14 7,8 8,17 3,20 -6,3 -15,-1 -22,-9 z"
       id="path58" />
    <path
       d="m 685,1580 c -7,-11 2,-30 13,-30 4,0 8,9 8,20 0,21 -11,26 -21,10 z"
       id="path60" />
    <path
       d="m 1356,1573 c -9,-22 8,-38 31,-28 17,8 17,8 0,12 -11,3 -16,11 -13,19 3,8 1,14 -3,14 -5,0 -12,-8 -15,-17 z"
       id="path62" />
    <path
       d="m 508,1573 c 7,-3 16,-2 19,1 4,3 -2,6 -13,5 -11,0 -14,-3 -6,-6 z"
       id="path64" />
    <path
       d="m 468,1563 c 7,-3 16,-2 19,1 4,3 -2,6 -13,5 -11,0 -14,-3 -6,-6 z"
       id="path66" />
    <path
       d="m 1263,1557 c 4,-12 1,-17 -9,-17 -12,0 -15,-6 -10,-27 5,-17 3,-29 -6,-34 -7,-4 -9,-11 -6,-14 13,-13 30,8 25,31 -3,16 0,24 9,24 17,0 19,36 2,46 -8,5 -9,2 -5,-9 z"
       id="path68" />
    <path
       d="m 1464,1555 c -3,-8 -3,-19 1,-25 4,-6 1,-17 -5,-25 -14,-16 -5,-35 15,-35 9,0 12,6 9,15 -4,10 0,15 10,15 12,0 15,6 10,25 -4,16 -2,25 6,25 6,0 8,5 5,10 -9,15 -45,12 -51,-5 z"
       id="path70" />
    <path
       d="m 1361,1517 c -16,-16 -14,-44 4,-51 8,-3 15,-1 15,4 0,19 2,25 11,36 13,16 -15,26 -30,11 z"
       id="path72" />
    <path
       d="m 647,1513 c -11,-11 -8,-40 6,-52 11,-8 13,-4 13,24 -1,34 -6,42 -19,28 z"
       id="path74" />
    <path
       d="m 707,1506 c -3,-8 2,-20 10,-28 14,-11 16,-11 11,3 -4,9 -1,22 5,28 8,8 7,11 -5,11 -9,0 -18,-6 -21,-14 z"
       id="path76" />
    <path
       d="m 1567,1513 c -4,-3 -7,-16 -7,-28 0,-13 -6,-28 -14,-35 -18,-14 -10,-40 11,-40 10,0 13,6 9,16 -4,11 1,18 14,21 20,5 28,23 10,23 -16,0 -12,22 8,36 16,12 16,13 -4,14 -11,0 -24,-3 -27,-7 z"
       id="path78" />
    <path
       d="m 1320,1445 c -6,-8 -9,-19 -5,-25 8,-13 45,-13 45,0 0,6 -7,10 -16,10 -14,0 -14,3 -4,15 7,8 8,15 2,15 -5,0 -15,-7 -22,-15 z"
       id="path80" />
    <path
       d="m 1430,1426 c 0,-25 15,-37 38,-28 18,6 15,22 -4,22 -14,0 -14,3 -4,15 10,13 9,15 -9,15 -16,0 -21,-6 -21,-24 z"
       id="path82" />
    <path
       d="m 1119,1293 c -19,-37 -47,-83 -64,-102 -25,-29 -26,-32 -8,-23 24,13 68,73 102,139 23,47 25,53 12,53 -4,0 -23,-30 -42,-67 z"
       id="path84" />
    <path
       d="m 606,1109 c -39,-11 -84,-56 -95,-96 -19,-69 13,-109 100,-120 29,-4 45,-14 60,-35 39,-54 141,-87 168,-55 8,11 1,13 -37,13 -158,-3 -168,213 -12,243 33,6 40,10 27,16 -56,24 -137,-37 -158,-119 -12,-46 -13,-48 -43,-43 -17,3 -43,10 -58,16 -25,9 -28,16 -28,55 0,38 5,48 37,76 36,32 38,32 106,27 39,-3 66,-2 61,2 -16,15 -98,28 -128,20 z"
       id="path86" />
    <path
       d="m 630,496 c -13,-12 -28,-13 -90,-4 -61,9 -81,9 -105,-3 -47,-22 -75,-73 -75,-135 0,-46 4,-57 33,-87 46,-49 94,-60 175,-42 52,12 67,13 80,3 13,-11 14,-10 9,2 -43,108 -47,203 -8,243 11,13 21,26 21,30 0,12 -25,8 -40,-7 z m -54,-28 c 22,-10 21,-9 37,-178 3,-35 -59,-69 -99,-55 -43,15 -74,69 -74,127 0,59 11,83 52,108 30,18 43,18 84,-2 z"
       id="path88" />
    <path
       d="m 2760,465 c -8,-9 -22,-13 -39,-10 -26,5 -26,5 -3,-7 13,-6 22,-18 20,-26 -5,-24 -52,-53 -96,-59 -35,-5 -42,-3 -42,11 0,27 18,54 48,70 l 27,15 -28,1 c -104,1 -174,-110 -116,-184 24,-31 69,-56 100,-56 21,0 21,0 1,17 -19,17 -42,71 -42,99 0,20 58,18 99,-4 21,-10 38,-28 44,-45 11,-33 10,-35 -40,-53 l -38,-15 50,7 c 28,3 51,7 53,8 1,2 -3,17 -9,35 -15,43 -5,124 21,168 11,19 20,36 20,39 0,9 -18,3 -30,-11 z"
       id="path90" />
    <path
       d="m 1861,453 c -19,-8 -43,-12 -54,-9 -15,4 -17,2 -8,-7 14,-14 15,-199 1,-212 -6,-7 14,-8 53,-6 34,2 54,6 45,8 -32,8 -37,183 -6,220 18,22 50,11 75,-26 32,-47 31,-116 -2,-165 -28,-41 -17,-46 32,-16 93,56 87,162 -11,210 -49,23 -78,24 -125,3 z"
       id="path92" />
    <path
       d="m 685,426 c 18,-44 19,-152 2,-186 l -13,-25 h 62 c 55,0 61,2 49,15 -16,19 -29,92 -20,120 4,14 15,20 34,20 47,0 55,-20 47,-116 -7,-89 0,-114 32,-114 13,0 12,3 -4,14 -19,14 -18,15 8,68 42,83 43,100 13,136 -15,18 -22,32 -17,32 6,0 14,10 18,22 8,26 -17,48 -55,48 -23,-1 -24,-2 -8,-11 39,-23 13,-69 -40,-69 -37,0 -42,13 -17,48 15,22 15,22 -30,22 -24,0 -51,3 -60,6 -14,5 -14,3 -1,-30 z"
       id="path94" />
    <path
       d="m 993,444 c -33,-17 -55,-43 -67,-82 -10,-31 26,-103 63,-125 28,-16 79,-25 55,-9 -22,15 -34,52 -34,109 0,72 17,107 52,111 36,4 58,-30 64,-100 6,-61 -9,-96 -46,-115 l -25,-13 h 28 c 63,0 117,50 117,108 0,96 -116,161 -207,116 z"
       id="path96" />
    <path
       d="m 1460,445 c -8,-9 -22,-12 -43,-8 -32,5 -32,5 -9,-11 17,-13 22,-27 22,-59 0,-23 4,-56 9,-74 8,-28 6,-34 -17,-49 -66,-44 -132,0 -132,87 0,52 17,79 65,104 l 30,15 h -48 c -42,0 -54,-5 -83,-34 -28,-28 -34,-42 -34,-75 0,-90 61,-140 154,-126 28,4 63,8 79,9 31,1 31,2 12,36 -22,39 -19,132 5,163 11,14 20,28 20,31 0,11 -18,6 -30,-9 z"
       id="path98" />
    <path
       d="m 1573,444 c -33,-17 -55,-43 -67,-82 -10,-31 26,-103 63,-125 28,-16 79,-25 55,-9 -22,15 -34,52 -34,109 0,72 17,107 52,111 36,4 58,-30 64,-100 6,-61 -9,-96 -46,-115 l -25,-13 h 28 c 63,0 117,50 117,108 0,96 -116,161 -207,116 z"
       id="path100" />
    <path
       d="m 2085,448 c 35,-20 43,-153 11,-203 -13,-19 -11,-20 49,-20 60,0 62,1 49,20 -22,30 -19,170 4,193 16,16 14,17 -56,17 -43,1 -66,-3 -57,-7 z"
       id="path102" />
    <path
       d="m 2247,430 c 15,-29 17,-130 4,-176 l -9,-31 112,-6 c 61,-3 114,-2 117,1 4,4 10,25 14,46 l 7,39 -24,-16 c -84,-62 -97,-66 -123,-40 -24,24 -17,177 8,196 15,10 6,12 -51,12 h -68 z"
       id="path104" />
  </g>
</svg>
