<?xml version="1.0" encoding="UTF-8" standalone="no"?>
<svg
   width="564.65198"
   height="221.77155"
   viewBox="0 0 564.65198 221.77155"
   fill="none"
   version="1.1"
   id="svg368"
   sodipodi:docname="logo_freak_festival_22.svg"
   inkscape:version="1.1 (c68e22c387, 2021-05-23)"
   xmlns:inkscape="http://www.inkscape.org/namespaces/inkscape"
   xmlns:sodipodi="http://sodipodi.sourceforge.net/DTD/sodipodi-0.dtd"
   xmlns="http://www.w3.org/2000/svg"
   xmlns:svg="http://www.w3.org/2000/svg">
  <sodipodi:namedview
     id="namedview370"
     pagecolor="#ffffff"
     bordercolor="#999999"
     borderopacity="1"
     inkscape:pageshadow="0"
     inkscape:pageopacity="0"
     inkscape:pagecheckerboard="0"
     showgrid="false"
     inkscape:zoom="1.4569575"
     inkscape:cx="275.57427"
     inkscape:cy="149.97006"
     inkscape:window-width="1842"
     inkscape:window-height="1051"
     inkscape:window-x="69"
     inkscape:window-y="-9"
     inkscape:window-maximized="1"
     inkscape:current-layer="svg368" />
  <path
     d="m 556.0846,125.3683 c 2.819,-17.991 5.616,-35.984997 8.488,-53.968297 0.297,-1.8609 -0.233,-3.0708 -1.695,-4.1669 -7.254,-5.4387 -14.468,-10.93 -21.693,-16.4082 -21.865,-16.5817 -43.734,-33.1587 -65.581,-49.7640999 -1.365,-1.03700004 -2.62,-1.36620004 -4.311,-0.75280004 -33.76,12.24119994 -67.534,24.44599994 -101.319,36.61709994 -1.787,0.644 -2.693,1.6229 -2.994,3.5574 -5.591,35.989 -11.229,71.970797 -16.909,107.946797 -0.302,1.914 0.225,3.145 1.713,4.336 28.234,22.579 56.443,45.188 84.626,67.831 1.602,1.287 3.04,1.477 4.951,0.765 34.435,-12.843 68.886,-25.641 103.349,-38.41 1.788,-0.663 2.661,-1.687 2.956,-3.604 2.763,-18 5.603,-35.988 8.419,-53.979 z M 483.8386,14.180203 c 24.031,18.2223 48.061,36.4445 72.389,54.8919 -10.917,3.7717 -21.533,7.4397 -32.39,11.1905 -13.445,-21.9682 -26.879,-43.9166 -40.312,-65.8651 0.104,-0.0723 0.209,-0.1447 0.313,-0.2173 z m -11.389,-7.3727999 c 14.882,24.3205999 29.696,48.5295999 44.708,73.0625999 -36.085,-5.6529 -71.737,-11.2379 -107.791,-16.886 21.128,-18.8155 42.009,-37.4105 63.083,-56.1765999 z m -12.647,3.4831999 c 0.048,0.1007 0.097,0.2018 0.146,0.3029 -18.956,16.8788 -37.913,33.7576 -56.958,50.716 -9.1,-6.8188 -18.115,-13.5734 -27.442,-20.5617 28.258,-10.215 56.256,-20.3361 84.254,-30.4572 z M 357.7406,135.2223 c 4.7,-30.002 9.399,-60.003697 14.153,-90.349297 9.282,6.9527 18.379,13.7677 27.625,20.6936 -13.852,23.3157 -27.656,46.552697 -41.46,69.789697 -0.106,-0.044 -0.212,-0.09 -0.318,-0.134 z m 44.804,-64.014997 c 12.798,34.888997 25.457,69.398997 38.251,104.273997 -28.19,-9.092 -55.986,-18.057 -84.09,-27.122 15.288,-25.732 30.458,-51.264997 45.839,-77.151997 z m 34.569,142.907997 c -23.568,-18.885 -46.946,-37.617 -70.324,-56.348 0.055,-0.116 0.11,-0.232 0.165,-0.348 25.022,8.071 50.043,16.142 75.239,24.27 -1.696,10.827 -3.358,21.434 -5.08,32.426 z m 9.102,-39.8 c -12.996,-35.426 -25.874,-70.533 -38.837,-105.869197 36.715,5.7516 73.219,11.4701 110.044,17.2392 -23.715,29.516997 -47.342,58.925997 -71.207,88.629997 z m -3.495,40.68 c 1.705,-10.881 3.371,-21.513 5.081,-32.431 26.852,0.052 53.814,0.103 80.777,0.155 0.023,0.117 0.046,0.233 0.069,0.35 -28.559,10.611 -57.117,21.222 -85.927,31.926 z m 8.302,-37.903 c 23.491,-29.238 46.733,-58.165 70.211,-87.387997 6.728,29.354997 13.375,58.352997 20.07,87.563997 -30.06,-0.058 -59.933,-0.117 -90.281,-0.176 z m 93.252,-12.682 c -0.091,0.021 -0.183,0.042 -0.274,0.064 -6.031,-26.306 -12.062,-52.613 -18.137,-79.111997 10.939,-3.7741 21.638,-7.4652 32.553,-11.2306 -4.743,30.278597 -9.443,60.278597 -14.142,90.278597 z"
     fill="#55d5d7"
     fill-opacity="0.4"
     id="path343" />
  <path
     d="m 445.5506,163.4233 c 0,0.84 -0.35,1.61 -1.05,2.31 -0.7,0.7 -1.54,1.33 -2.52,1.89 -0.84,0.56 -1.82,1.05 -2.94,1.47 l -2.52,1.05 c -1.26,-0.56 -2.73,-1.05 -4.41,-1.47 -1.68,-0.28 -3.5,-0.49 -5.46,-0.63 -1.82,-0.14 -3.64,-0.28 -5.46,-0.42 -1.82,0 -3.43,0 -4.83,0 -6.58,0 -13.16,0.14 -19.74,0.42 -6.44,0.42 -12.95,0.77 -19.53,1.05 1.54,0.14 3.01,0.21 4.41,0.21 h 4.62 c 4.06,0 8.12,-0.07 12.18,-0.21 4.06,-0.14 8.12,-0.21 12.18,-0.21 3.64,0 7.21,0.14 10.71,0.42 3.64,0.28 7.28,0.77 10.92,1.47 -2.1,0.7 -5.39,1.19 -9.87,1.47 -4.34,0.42 -8.96,0.7 -13.86,0.84 -4.76,0.28 -9.38,0.42 -13.86,0.42 -4.48,0.14 -7.98,0.21 -10.5,0.21 l -1.68,-2.31 c -0.28,0 -0.56,0 -0.84,0 -0.14,0.14 -0.35,0.21 -0.63,0.21 -0.56,0 -1.12,-0.07 -1.68,-0.21 -0.56,0 -1.19,0 -1.89,0 h -1.47 c -0.42,0 -0.84,0.14 -1.26,0.42 -1.26,0 -2.52,-0.07 -3.78,-0.21 -1.12,-0.14 -2.31,-0.21 -3.57,-0.21 l -4.2,-20.79 4.83,-2.52 c 5.46,-3.64 10.78,-7.35 15.96,-11.13 5.32,-3.92 10.22,-8.12 14.7,-12.6 4.62,-4.62 8.75,-9.52 12.39,-14.7 3.78,-5.32 6.86,-11.199997 9.24,-17.639997 l -0.63,-1.26 c 1.68,-3.36 2.87,-6.44 3.57,-9.24 0.7,-2.94 1.05,-5.88 1.05,-8.82 0,-4.9 -1.12,-8.19 -3.36,-9.87 -2.24,-1.68 -5.11,-2.52 -8.61,-2.52 -4.76,0 -8.89,1.33 -12.39,3.99 -3.5,2.52 -6.44,5.53 -8.82,9.03 -0.7,-1.12 -1.75,-1.82 -3.15,-2.1 -1.26,-0.42 -1.89,-1.19 -1.89,-2.31 0,-1.54 0.77,-3.08 2.31,-4.62 1.68,-1.54 3.01,-2.73 3.99,-3.57 l -1.26,-1.89 c -0.56,0.42 -1.68,1.19 -3.36,2.31 -1.68,0.98 -3.43,2.1 -5.25,3.36 -1.82,1.12 -3.57,2.17 -5.25,3.15 -1.54,0.84 -2.59,1.26 -3.15,1.26 -1.68,0 -2.52,-0.91 -2.52,-2.73 0,-3.78 1.33,-7.42 3.99,-10.92 2.66,-3.64 5.88,-6.79 9.66,-9.45 3.92,-2.8 8.12,-5.04 12.6,-6.72 4.48,-1.68 8.61,-2.52 12.39,-2.52 5.6,0 10.78,0.63 15.54,1.89 4.9,1.26 9.17,3.29 12.81,6.09 3.64,2.8 6.51,6.44 8.61,10.92 2.1,4.34 3.15,9.59 3.15,15.75 0,7.7 -1.54,15.4 -4.62,23.1 -2.94,7.699997 -6.86,14.979997 -11.76,21.839997 -4.9,6.86 -10.5,13.23 -16.8,19.11 -6.16,5.74 -12.46,10.57 -18.9,14.49 1.4,-0.14 3.08,-0.28 5.04,-0.42 2.1,-0.14 4.27,-0.28 6.51,-0.42 2.24,-0.14 4.34,-0.21 6.3,-0.21 2.1,-0.14 3.85,-0.21 5.25,-0.21 1.96,0 4.06,0.28 6.3,0.84 2.24,0.42 4.13,1.26 5.67,2.52 l -0.42,1.26 c -4.06,-0.42 -8.05,-0.63 -11.97,-0.63 -1.82,0 -3.99,0.07 -6.51,0.21 -2.38,0 -4.83,0.07 -7.35,0.21 -2.52,0.14 -5.04,0.28 -7.56,0.42 -2.38,0.14 -4.48,0.28 -6.3,0.42 v 0.21 c 1.4,0 3.15,0 5.25,0 2.24,-0.14 4.48,-0.21 6.72,-0.21 2.38,-0.14 4.62,-0.21 6.72,-0.21 2.1,-0.14 3.92,-0.21 5.46,-0.21 2.52,0 4.97,0.14 7.35,0.42 2.52,0.14 5.04,0.35 7.56,0.63 -0.42,0.7 -0.63,1.26 -0.63,1.68 0,1.12 0.7,1.82 2.1,2.1 1.54,0.28 3.15,0.63 4.83,1.05 1.82,0.28 3.43,0.7 4.83,1.26 1.54,0.56 2.31,1.54 2.31,2.94 z m -76.65,-17.43 c 3.64,-2.24 7.7,-5.25 12.18,-9.03 4.62,-3.92 9.17,-8.19 13.65,-12.81 4.62,-4.76 8.96,-9.8 13.02,-15.12 4.06,-5.32 7.49,-10.639997 10.29,-15.959997 -2.1,4.62 -5.04,9.589997 -8.82,14.909997 -3.64,5.32 -7.77,10.5 -12.39,15.54 -4.48,4.9 -9.17,9.38 -14.07,13.44 -4.9,4.06 -9.52,7.07 -13.86,9.03 z m 34.86,-23.1 c -4.9,4.9 -9.94,9.59 -15.12,14.07 -5.18,4.48 -10.71,8.61 -16.59,12.39 l 1.05,0.21 c 5.88,-3.64 11.27,-7.77 16.17,-12.39 5.04,-4.62 9.87,-9.38 14.49,-14.28 z m -7.35,24.15 c 2.66,-1.26 5.32,-3.43 7.98,-6.51 l -12.39,8.61 c 1.12,-0.56 2.59,-1.26 4.41,-2.1 z m -29.19,25.62 c 0.28,0 1.05,0 2.31,0 1.26,0.14 2.59,0.28 3.99,0.42 1.4,0.14 2.66,0.28 3.78,0.42 1.26,0.28 2.03,0.49 2.31,0.63 l -12.18,-0.84 z m -1.89,-18.9 5.04,-2.52 -0.21,-0.63 c -0.84,0.7 -1.75,1.19 -2.73,1.47 -0.98,0.28 -1.89,0.63 -2.73,1.05 v 0.63 z m 175.786,9.66 c 0,0.84 -0.35,1.61 -1.05,2.31 -0.7,0.7 -1.54,1.33 -2.52,1.89 -0.84,0.56 -1.82,1.05 -2.94,1.47 l -2.52,1.05 c -1.26,-0.56 -2.73,-1.05 -4.41,-1.47 -1.68,-0.28 -3.5,-0.49 -5.46,-0.63 -1.82,-0.14 -3.64,-0.28 -5.46,-0.42 -1.82,0 -3.43,0 -4.83,0 -6.58,0 -13.16,0.14 -19.74,0.42 -6.44,0.42 -12.95,0.77 -19.53,1.05 1.54,0.14 3.01,0.21 4.41,0.21 h 4.62 c 4.06,0 8.12,-0.07 12.18,-0.21 4.06,-0.14 8.12,-0.21 12.18,-0.21 3.64,0 7.21,0.14 10.71,0.42 3.64,0.28 7.28,0.77 10.92,1.47 -2.1,0.7 -5.39,1.19 -9.87,1.47 -4.34,0.42 -8.96,0.7 -13.86,0.84 -4.76,0.28 -9.38,0.42 -13.86,0.42 -4.48,0.14 -7.98,0.21 -10.5,0.21 l -1.68,-2.31 c -0.28,0 -0.56,0 -0.84,0 -0.14,0.14 -0.35,0.21 -0.63,0.21 -0.56,0 -1.12,-0.07 -1.68,-0.21 -0.56,0 -1.19,0 -1.89,0 h -1.47 c -0.42,0 -0.84,0.14 -1.26,0.42 -1.26,0 -2.52,-0.07 -3.78,-0.21 -1.12,-0.14 -2.31,-0.21 -3.57,-0.21 l -4.2,-20.79 4.83,-2.52 c 5.46,-3.64 10.78,-7.35 15.96,-11.13 5.32,-3.92 10.22,-8.12 14.7,-12.6 4.62,-4.62 8.75,-9.52 12.39,-14.7 3.78,-5.32 6.86,-11.199997 9.24,-17.639997 l -0.63,-1.26 c 1.68,-3.36 2.87,-6.44 3.57,-9.24 0.7,-2.94 1.05,-5.88 1.05,-8.82 0,-4.9 -1.12,-8.19 -3.36,-9.87 -2.24,-1.68 -5.11,-2.52 -8.61,-2.52 -4.76,0 -8.89,1.33 -12.39,3.99 -3.5,2.52 -6.44,5.53 -8.82,9.03 -0.7,-1.12 -1.75,-1.82 -3.15,-2.1 -1.26,-0.42 -1.89,-1.19 -1.89,-2.31 0,-1.54 0.77,-3.08 2.31,-4.62 1.68,-1.54 3.01,-2.73 3.99,-3.57 l -1.26,-1.89 c -0.56,0.42 -1.68,1.19 -3.36,2.31 -1.68,0.98 -3.43,2.1 -5.25,3.36 -1.82,1.12 -3.57,2.17 -5.25,3.15 -1.54,0.84 -2.59,1.26 -3.15,1.26 -1.68,0 -2.52,-0.91 -2.52,-2.73 0,-3.78 1.33,-7.42 3.99,-10.92 2.66,-3.64 5.88,-6.79 9.66,-9.45 3.92,-2.8 8.12,-5.04 12.6,-6.72 4.48,-1.68 8.61,-2.52 12.39,-2.52 5.6,0 10.78,0.63 15.54,1.89 4.9,1.26 9.17,3.29 12.81,6.09 3.64,2.8 6.51,6.44 8.61,10.92 2.1,4.34 3.15,9.59 3.15,15.75 0,7.7 -1.54,15.4 -4.62,23.1 -2.94,7.699997 -6.86,14.979997 -11.76,21.839997 -4.9,6.86 -10.5,13.23 -16.8,19.11 -6.16,5.74 -12.46,10.57 -18.9,14.49 1.4,-0.14 3.08,-0.28 5.04,-0.42 2.1,-0.14 4.27,-0.28 6.51,-0.42 2.24,-0.14 4.34,-0.21 6.3,-0.21 2.1,-0.14 3.85,-0.21 5.25,-0.21 1.96,0 4.06,0.28 6.3,0.84 2.24,0.42 4.13,1.26 5.67,2.52 l -0.42,1.26 c -4.06,-0.42 -8.05,-0.63 -11.97,-0.63 -1.82,0 -3.99,0.07 -6.51,0.21 -2.38,0 -4.83,0.07 -7.35,0.21 -2.52,0.14 -5.04,0.28 -7.56,0.42 -2.38,0.14 -4.48,0.28 -6.3,0.42 v 0.21 c 1.4,0 3.15,0 5.25,0 2.24,-0.14 4.48,-0.21 6.72,-0.21 2.38,-0.14 4.62,-0.21 6.72,-0.21 2.1,-0.14 3.92,-0.21 5.46,-0.21 2.52,0 4.97,0.14 7.35,0.42 2.52,0.14 5.04,0.35 7.56,0.63 -0.42,0.7 -0.63,1.26 -0.63,1.68 0,1.12 0.7,1.82 2.1,2.1 1.54,0.28 3.15,0.63 4.83,1.05 1.82,0.28 3.43,0.7 4.83,1.26 1.54,0.56 2.31,1.54 2.31,2.94 z m -76.65,-17.43 c 3.64,-2.24 7.7,-5.25 12.18,-9.03 4.62,-3.92 9.17,-8.19 13.65,-12.81 4.62,-4.76 8.96,-9.8 13.02,-15.12 4.06,-5.32 7.49,-10.639997 10.29,-15.959997 -2.1,4.62 -5.04,9.589997 -8.82,14.909997 -3.64,5.32 -7.77,10.5 -12.39,15.54 -4.48,4.9 -9.17,9.38 -14.07,13.44 -4.9,4.06 -9.52,7.07 -13.86,9.03 z m 34.86,-23.1 c -4.9,4.9 -9.94,9.59 -15.12,14.07 -5.18,4.48 -10.71,8.61 -16.59,12.39 l 1.05,0.21 c 5.88,-3.64 11.27,-7.77 16.17,-12.39 5.04,-4.62 9.87,-9.38 14.49,-14.28 z m -7.35,24.15 c 2.66,-1.26 5.32,-3.43 7.98,-6.51 l -12.39,8.61 c 1.12,-0.56 2.59,-1.26 4.41,-2.1 z m -29.19,25.62 c 0.28,0 1.05,0 2.31,0 1.26,0.14 2.59,0.28 3.99,0.42 1.4,0.14 2.66,0.28 3.78,0.42 1.26,0.28 2.03,0.49 2.31,0.63 l -12.18,-0.84 z m -1.89,-18.9 5.04,-2.52 -0.21,-0.63 c -0.84,0.7 -1.75,1.19 -2.73,1.47 -0.98,0.28 -1.89,0.63 -2.73,1.05 v 0.63 z"
     fill="url(#paint0_linear_23_2)"
     id="path345"
     style="fill:url(#paint0_linear_23_2)" />
  <path
     d="m 165.3936,145.5263 h 22.272 c -0.235,0.469 -0.416,0.973 -0.545,1.512 -0.117,0.527 -0.205,1.019 -0.264,1.476 -0.058,0.457 -0.094,0.844 -0.105,1.16 -0.012,0.317 -0.018,0.498 -0.018,0.545 l -0.615,0.106 c -0.164,-0.785 -0.463,-1.424 -0.897,-1.916 -0.433,-0.492 -0.943,-0.873 -1.529,-1.143 -0.586,-0.281 -1.213,-0.469 -1.881,-0.562 -0.668,-0.106 -1.318,-0.159 -1.951,-0.159 h -5.801 v 12.815 h 11.338 c -0.246,0.492 -0.433,1.008 -0.562,1.547 -0.129,0.539 -0.223,1.043 -0.281,1.512 -0.071,0.55 -0.112,1.089 -0.124,1.617 l -0.58,0.105 c -0.129,-0.633 -0.281,-1.16 -0.457,-1.582 -0.175,-0.433 -0.416,-0.791 -0.72,-1.072 -0.293,-0.281 -0.668,-0.498 -1.125,-0.65 -0.446,-0.153 -1.008,-0.264 -1.688,-0.334 -0.68,-0.071 -1.494,-0.112 -2.443,-0.124 -0.949,-0.011 -2.069,-0.017 -3.358,-0.017 v 12.357 c 0,0.258 -0.099,0.545 -0.298,0.862 -0.2,0.328 -0.457,0.685 -0.774,1.072 -0.316,0.387 -0.68,0.797 -1.09,1.23 -0.398,0.446 -0.802,0.909 -1.213,1.389 -0.41,0.492 -0.808,1.002 -1.195,1.529 -0.387,0.539 -0.721,1.09 -1.002,1.653 v -31.975 c 0,-0.234 -0.047,-0.486 -0.141,-0.756 -0.082,-0.269 -0.24,-0.515 -0.474,-0.738 -0.223,-0.234 -0.533,-0.428 -0.932,-0.58 -0.398,-0.152 -0.914,-0.229 -1.547,-0.229 z m 46.864,5.625 c -0.34,-0.738 -0.786,-1.395 -1.336,-1.969 -0.539,-0.574 -1.149,-1.06 -1.828,-1.459 -0.668,-0.398 -1.377,-0.697 -2.127,-0.896 -0.75,-0.211 -1.495,-0.317 -2.233,-0.317 -0.808,0 -1.57,0.147 -2.285,0.44 -0.715,0.281 -1.383,0.674 -2.004,1.178 -0.609,0.492 -1.166,1.084 -1.67,1.775 -0.504,0.68 -0.949,1.418 -1.336,2.215 -0.375,0.785 -0.685,1.611 -0.931,2.478 -0.246,0.867 -0.422,1.735 -0.528,2.602 h 14.977 c -0.246,0.492 -0.434,1.014 -0.563,1.564 -0.129,0.539 -0.222,1.043 -0.281,1.512 -0.07,0.551 -0.111,1.084 -0.123,1.6 l -0.58,0.105 c -0.152,-0.75 -0.34,-1.371 -0.563,-1.863 -0.222,-0.492 -0.556,-0.879 -1.001,-1.16 -0.446,-0.282 -1.043,-0.475 -1.793,-0.58 -0.739,-0.118 -1.706,-0.176 -2.901,-0.176 h -7.277 v 0.756 c 0,0.949 0.111,1.881 0.334,2.795 0.222,0.914 0.539,1.787 0.949,2.619 0.41,0.82 0.914,1.576 1.512,2.267 0.597,0.692 1.265,1.295 2.004,1.811 0.738,0.504 1.547,0.896 2.425,1.178 0.879,0.281 1.811,0.421 2.795,0.421 0.891,0 1.676,-0.082 2.356,-0.246 0.68,-0.175 1.265,-0.392 1.758,-0.65 0.504,-0.258 0.925,-0.539 1.265,-0.844 0.34,-0.316 0.621,-0.615 0.844,-0.896 0.223,-0.282 0.387,-0.528 0.492,-0.739 0.117,-0.222 0.205,-0.369 0.264,-0.439 l -0.281,2.479 c -0.27,0.375 -0.662,0.738 -1.178,1.089 -0.516,0.34 -1.131,0.651 -1.846,0.932 -0.703,0.27 -1.494,0.486 -2.373,0.65 -0.879,0.164 -1.828,0.246 -2.848,0.246 -1.957,0 -3.808,-0.287 -5.554,-0.861 -1.735,-0.574 -3.264,-1.389 -4.588,-2.443 -1.313,-1.055 -2.361,-2.326 -3.147,-3.815 -0.773,-1.5 -1.171,-3.17 -1.195,-5.009 0.035,-1.899 0.363,-3.604 0.984,-5.116 0.633,-1.523 1.471,-2.847 2.514,-3.972 1.055,-1.137 2.279,-2.075 3.674,-2.813 1.395,-0.75 2.883,-1.306 4.465,-1.67 0.832,-0.199 1.787,-0.328 2.865,-0.386 1.078,-0.059 2.162,-0.088 3.252,-0.088 1.055,0 2.045,0.011 2.971,0.035 0.937,0.023 1.722,0.035 2.355,0.035 -0.129,0.551 -0.222,1.043 -0.281,1.477 -0.047,0.421 -0.07,0.82 -0.07,1.195 0,0.527 0.041,1.019 0.123,1.476 0.082,0.446 0.193,0.926 0.334,1.442 z m 11.144,20.057 c -1.09,0 -1.974,-0.024 -2.654,-0.071 -0.68,-0.047 -1.242,-0.105 -1.688,-0.175 -0.445,-0.059 -0.814,-0.112 -1.107,-0.159 -0.281,-0.047 -0.568,-0.07 -0.861,-0.07 0.129,-0.527 0.222,-1.008 0.281,-1.441 0.058,-0.446 0.088,-0.856 0.088,-1.231 0,-0.527 -0.047,-1.014 -0.141,-1.459 -0.094,-0.457 -0.205,-0.937 -0.334,-1.441 l 0.791,-0.035 c 0.328,0.738 0.82,1.418 1.477,2.039 0.656,0.609 1.388,1.142 2.197,1.599 0.809,0.446 1.652,0.797 2.531,1.055 0.879,0.246 1.717,0.369 2.514,0.369 0.949,0 1.822,-0.164 2.619,-0.492 0.797,-0.328 1.482,-0.762 2.057,-1.301 0.574,-0.551 1.019,-1.172 1.336,-1.863 0.328,-0.703 0.492,-1.424 0.492,-2.162 0,-0.809 -0.188,-1.465 -0.563,-1.969 -0.363,-0.516 -0.855,-0.926 -1.476,-1.23 -0.61,-0.305 -1.313,-0.534 -2.11,-0.686 -0.785,-0.152 -1.593,-0.275 -2.425,-0.369 -0.621,-0.071 -1.301,-0.153 -2.039,-0.246 -0.727,-0.094 -1.459,-0.235 -2.198,-0.422 -0.738,-0.188 -1.447,-0.434 -2.127,-0.738 -0.679,-0.317 -1.283,-0.715 -1.81,-1.196 -0.528,-0.48 -0.949,-1.066 -1.266,-1.758 -0.316,-0.691 -0.474,-1.517 -0.474,-2.478 0,-1.137 0.222,-2.127 0.668,-2.971 0.445,-0.844 1.031,-1.564 1.757,-2.162 0.739,-0.609 1.582,-1.107 2.532,-1.494 0.949,-0.398 1.921,-0.709 2.918,-0.932 1.007,-0.234 2.003,-0.392 2.988,-0.474 0.996,-0.094 1.904,-0.141 2.724,-0.141 0.715,0 1.383,0.024 2.004,0.07 0.633,0.047 1.213,0.1 1.741,0.159 0.539,0.046 1.031,0.093 1.476,0.14 0.457,0.035 0.873,0.053 1.248,0.053 -0.129,0.551 -0.222,1.043 -0.281,1.477 -0.047,0.421 -0.07,0.832 -0.07,1.23 0,0.504 0.041,0.984 0.123,1.441 0.082,0.446 0.193,0.926 0.334,1.442 l -0.791,0.035 c -0.188,-0.434 -0.364,-0.861 -0.528,-1.283 -0.164,-0.422 -0.363,-0.815 -0.597,-1.178 -0.223,-0.375 -0.504,-0.715 -0.844,-1.019 -0.328,-0.317 -0.756,-0.586 -1.283,-0.809 -0.516,-0.234 -1.155,-0.41 -1.916,-0.527 -0.75,-0.129 -1.664,-0.194 -2.743,-0.194 -0.726,0 -1.435,0.129 -2.126,0.387 -0.68,0.258 -1.29,0.615 -1.829,1.072 -0.527,0.445 -0.955,0.985 -1.283,1.617 -0.328,0.621 -0.492,1.301 -0.492,2.039 0,0.645 0.117,1.196 0.352,1.653 0.246,0.457 0.562,0.844 0.949,1.16 0.387,0.316 0.82,0.574 1.301,0.773 0.492,0.2 0.978,0.358 1.459,0.475 0.492,0.105 0.955,0.182 1.388,0.228 0.446,0.047 0.815,0.083 1.108,0.106 0.55,0.047 1.177,0.117 1.881,0.211 0.703,0.094 1.417,0.24 2.144,0.439 0.727,0.188 1.436,0.44 2.127,0.756 0.703,0.317 1.324,0.727 1.863,1.231 0.551,0.504 0.991,1.113 1.319,1.828 0.328,0.703 0.492,1.541 0.492,2.513 0,1.278 -0.223,2.379 -0.668,3.305 -0.434,0.914 -1.026,1.694 -1.776,2.338 -0.75,0.633 -1.628,1.143 -2.636,1.529 -0.996,0.375 -2.063,0.668 -3.199,0.879 -1.125,0.211 -2.286,0.352 -3.481,0.422 -1.184,0.07 -2.338,0.106 -3.463,0.106 z m 35.895,-0.475 h -11.778 v -0.65 c 0.645,0 1.166,-0.065 1.565,-0.194 0.398,-0.14 0.709,-0.322 0.931,-0.545 0.235,-0.222 0.393,-0.48 0.475,-0.773 0.082,-0.293 0.123,-0.604 0.123,-0.932 v -20.742 h -2.232 c -0.621,0 -1.278,0.053 -1.969,0.158 -0.68,0.094 -1.359,0.287 -2.039,0.58 -0.68,0.282 -1.336,0.674 -1.969,1.178 -0.633,0.504 -1.207,1.16 -1.723,1.969 l -0.72,-0.106 c 0.316,-0.492 0.556,-1.031 0.72,-1.617 0.176,-0.597 0.311,-1.16 0.405,-1.687 0.094,-0.61 0.152,-1.225 0.176,-1.846 h 24.503 c -0.164,0.328 -0.293,0.668 -0.386,1.019 -0.094,0.352 -0.17,0.704 -0.229,1.055 -0.058,0.34 -0.099,0.668 -0.123,0.985 -0.012,0.304 -0.017,0.574 -0.017,0.808 0,0.129 0,0.246 0,0.352 0,0.093 0.005,0.176 0.017,0.246 0.012,0.082 0.024,0.158 0.035,0.228 l -0.65,0.106 c -0.047,-0.528 -0.199,-0.979 -0.457,-1.354 -0.246,-0.375 -0.557,-0.685 -0.932,-0.931 -0.363,-0.258 -0.767,-0.463 -1.213,-0.616 -0.445,-0.152 -0.884,-0.263 -1.318,-0.334 -0.422,-0.082 -0.82,-0.134 -1.195,-0.158 -0.375,-0.023 -0.674,-0.035 -0.897,-0.035 h -2.197 v 20.742 c 0,0.235 0.035,0.492 0.105,0.774 0.071,0.281 0.217,0.545 0.44,0.791 0.223,0.246 0.533,0.457 0.932,0.633 0.41,0.164 0.949,0.246 1.617,0.246 z m 19.582,0 h -11.778 v -0.65 c 0.633,0 1.149,-0.065 1.547,-0.194 0.41,-0.14 0.727,-0.322 0.949,-0.545 0.235,-0.222 0.393,-0.48 0.475,-0.773 0.082,-0.293 0.123,-0.604 0.123,-0.932 v -19.16 c 0,-0.234 -0.047,-0.486 -0.14,-0.756 -0.083,-0.269 -0.241,-0.515 -0.475,-0.738 -0.223,-0.234 -0.533,-0.428 -0.932,-0.58 -0.398,-0.152 -0.914,-0.229 -1.547,-0.229 v -0.65 h 11.778 v 0.65 c -0.645,0 -1.172,0.071 -1.582,0.211 -0.399,0.129 -0.715,0.311 -0.95,0.545 -0.222,0.223 -0.375,0.481 -0.457,0.774 -0.082,0.293 -0.123,0.603 -0.123,0.931 v 19.002 c 0,0.235 0.036,0.492 0.106,0.774 0.082,0.281 0.228,0.545 0.439,0.791 0.223,0.246 0.539,0.457 0.95,0.633 0.41,0.164 0.949,0.246 1.617,0.246 z m 0.211,-25.207 h 12.146 v 0.65 c -0.445,0 -0.808,0.03 -1.09,0.088 -0.281,0.059 -0.504,0.147 -0.668,0.264 -0.164,0.117 -0.281,0.258 -0.351,0.422 -0.059,0.152 -0.088,0.328 -0.088,0.527 0,0.164 0.006,0.34 0.017,0.527 0.024,0.176 0.065,0.37 0.124,0.581 0.843,3.41 1.875,6.755 3.093,10.037 1.231,3.269 2.637,6.515 4.219,9.738 0.785,-1.535 1.559,-3.117 2.32,-4.746 0.762,-1.641 1.477,-3.305 2.145,-4.992 0.668,-1.688 1.265,-3.393 1.793,-5.116 0.527,-1.734 0.961,-3.468 1.301,-5.203 v -0.175 c 0,-0.282 -0.053,-0.54 -0.159,-0.774 -0.105,-0.246 -0.281,-0.451 -0.527,-0.615 -0.234,-0.176 -0.545,-0.311 -0.932,-0.404 -0.375,-0.106 -0.843,-0.159 -1.406,-0.159 v -0.65 h 7.77 c -0.41,1.289 -0.885,2.637 -1.424,4.043 -0.539,1.406 -1.125,2.83 -1.758,4.271 -0.621,1.43 -1.271,2.866 -1.951,4.307 -0.68,1.441 -1.365,2.842 -2.057,4.201 -0.679,1.348 -1.347,2.643 -2.004,3.885 -0.656,1.242 -1.277,2.385 -1.863,3.428 l -6.223,1.072 c -1.781,-3.645 -3.357,-7.312 -4.728,-11.004 -1.359,-3.691 -2.531,-7.43 -3.516,-11.215 -0.105,-0.246 -0.263,-0.504 -0.474,-0.773 -0.2,-0.27 -0.469,-0.522 -0.809,-0.756 -0.34,-0.234 -0.75,-0.428 -1.23,-0.58 -0.469,-0.152 -1.026,-0.229 -1.67,-0.229 z m 59.22,24.275 c -1.066,0.434 -2.039,0.727 -2.918,0.879 -0.879,0.153 -1.67,0.229 -2.373,0.229 -0.562,0 -1.048,-0.035 -1.459,-0.106 -0.41,-0.058 -0.761,-0.134 -1.054,-0.228 -0.34,-0.106 -0.633,-0.223 -0.879,-0.352 -0.516,-0.293 -0.967,-0.674 -1.354,-1.142 -0.386,-0.469 -0.738,-0.973 -1.054,-1.512 -0.305,-0.539 -0.581,-1.096 -0.827,-1.67 -0.246,-0.574 -0.486,-1.113 -0.72,-1.617 l -0.44,-0.932 c -1.183,0.34 -2.291,0.733 -3.322,1.178 -1.02,0.434 -1.928,0.867 -2.725,1.301 -0.797,0.422 -1.47,0.814 -2.021,1.177 -0.539,0.352 -0.92,0.61 -1.143,0.774 -0.433,0.48 -0.92,0.908 -1.459,1.283 -0.539,0.375 -1.142,0.697 -1.81,0.967 -0.668,0.258 -1.412,0.457 -2.233,0.598 -0.82,0.14 -1.722,0.21 -2.707,0.21 l -0.175,-0.755 c 1.136,-0.188 2.115,-0.551 2.935,-1.09 0.832,-0.539 1.547,-1.201 2.145,-1.987 0.597,-0.796 1.107,-1.687 1.529,-2.671 0.422,-0.997 0.797,-2.045 1.125,-3.147 0.187,-0.633 0.434,-1.301 0.738,-2.004 0.317,-0.703 0.692,-1.383 1.125,-2.039 0.446,-0.668 0.949,-1.289 1.512,-1.863 0.574,-0.586 1.225,-1.078 1.951,-1.477 -0.199,-0.375 -0.398,-0.756 -0.598,-1.142 -0.187,-0.399 -0.369,-0.797 -0.544,-1.196 -0.247,-0.468 -0.493,-0.984 -0.739,-1.546 -0.246,-0.575 -0.539,-1.102 -0.879,-1.583 -0.328,-0.492 -0.72,-0.902 -1.177,-1.23 -0.446,-0.328 -1.002,-0.492 -1.67,-0.492 -0.469,0 -0.932,0.053 -1.389,0.158 -0.445,0.105 -0.873,0.234 -1.283,0.387 l -0.246,-0.721 c 1.019,-0.34 2.05,-0.627 3.093,-0.861 1.055,-0.246 2.098,-0.369 3.129,-0.369 0.493,0 0.979,0.035 1.459,0.105 0.481,0.059 0.944,0.17 1.389,0.334 0.387,0.141 0.762,0.375 1.125,0.703 0.363,0.317 0.709,0.697 1.037,1.143 0.328,0.433 0.633,0.902 0.914,1.406 0.293,0.504 0.563,1.008 0.809,1.512 0.258,0.504 0.486,0.984 0.685,1.441 0.211,0.445 0.393,0.832 0.545,1.16 1.031,2.215 2.057,4.436 3.076,6.662 1.02,2.215 2.116,4.401 3.288,6.557 0.21,0.387 0.433,0.768 0.667,1.143 0.247,0.375 0.516,0.709 0.809,1.002 0.305,0.293 0.639,0.527 1.002,0.703 0.363,0.175 0.773,0.257 1.231,0.246 0.164,0 0.386,-0.018 0.667,-0.053 0.293,-0.035 0.61,-0.123 0.95,-0.264 z m -16.629,-13.974 c -0.304,0.492 -0.585,1.002 -0.843,1.529 -0.246,0.527 -0.475,1.066 -0.686,1.617 -0.211,0.539 -0.404,1.078 -0.58,1.617 -0.176,0.539 -0.351,1.055 -0.527,1.547 -0.176,0.539 -0.369,1.067 -0.58,1.582 -0.2,0.504 -0.428,0.996 -0.686,1.477 0.879,-0.516 1.91,-1.055 3.094,-1.617 1.183,-0.563 2.449,-1.043 3.797,-1.442 z m 15.838,-17.455 h 8.666 v 30.99 h 12.78 c -0.446,0.433 -0.821,0.937 -1.125,1.512 -0.305,0.574 -0.551,1.125 -0.739,1.652 -0.211,0.621 -0.38,1.248 -0.509,1.881 l -0.827,0.176 c 0.059,-0.211 0.094,-0.422 0.106,-0.633 0.023,-0.211 0.035,-0.405 0.035,-0.58 0,-0.774 -0.246,-1.348 -0.738,-1.723 -0.481,-0.375 -1.172,-0.633 -2.074,-0.773 -0.903,-0.129 -2.004,-0.182 -3.305,-0.159 -1.301,0.012 -2.766,0.018 -4.395,0.018 h -7.875 v -0.65 c 0.621,0 1.131,-0.059 1.53,-0.176 0.398,-0.129 0.714,-0.299 0.949,-0.51 0.234,-0.223 0.392,-0.475 0.474,-0.756 0.094,-0.281 0.141,-0.58 0.141,-0.896 v -26.42 c 0,-0.235 -0.047,-0.487 -0.141,-0.756 -0.082,-0.27 -0.24,-0.516 -0.474,-0.738 -0.223,-0.235 -0.533,-0.428 -0.932,-0.58 -0.398,-0.153 -0.914,-0.229 -1.547,-0.229 z"
     fill="url(#paint1_linear_23_2)"
     id="path347"
     style="fill:url(#paint1_linear_23_2)" />
  <path
     d="m 0,61.514503 h 59.3906 c -0.625,1.25 -1.1094,2.5938 -1.4531,4.0313 -0.3125,1.4063 -0.5469,2.7187 -0.7031,3.9375 -0.1563,1.2188 -0.25,2.25 -0.2813,3.0938 -0.0312,0.8437 -0.0469,1.3281 -0.0469,1.4531 l -1.6406,0.2812 c -0.4375,-2.0937 -1.2344,-3.7969 -2.3906,-5.1093 -1.1563,-1.3126 -2.5156,-2.3282 -4.0781,-3.0469 -1.5625,-0.75 -3.2344,-1.25 -5.0157,-1.5 -1.7812,-0.2813 -3.5156,-0.4219 -5.2031,-0.4219 H 23.1094 v 34.172 h 30.2343 c -0.6562,1.312 -1.1562,2.686997 -1.5,4.124997 -0.3437,1.437 -0.5937,2.781 -0.75,4.031 -0.1875,1.469 -0.2968,2.906 -0.3281,4.313 l -1.5469,0.281 c -0.3437,-1.688 -0.75,-3.094 -1.2187,-4.219 -0.4688,-1.156 -1.1094,-2.109 -1.9219,-2.859 -0.7812,-0.75 -1.7812,-1.328 -3,-1.735 -1.1875,-0.406 -2.6875,-0.703 -4.5,-0.89 -1.8125,-0.188 -3.9844,-0.297 -6.5156,-0.328 -2.5313,-0.032 -5.5156,-0.047 -8.9531,-0.047 v 32.953 c 0,0.687 -0.2657,1.453 -0.7969,2.297 -0.5313,0.875 -1.2188,1.828 -2.0625,2.859 -0.8438,1.031 -1.8125,2.125 -2.9063,3.281 -1.0625,1.188 -2.1406,2.422 -3.2343,3.704 -1.0938,1.312 -2.1563,2.671 -3.1875,4.078 -1.0313,1.437 -1.9219,2.906 -2.6719,4.406 V 69.389503 c 0,-0.625 -0.125,-1.2968 -0.375,-2.0156 -0.2188,-0.7187 -0.6406,-1.375 -1.2656,-1.9687 -0.5938,-0.625 -1.4219,-1.1407 -2.4844,-1.5469 -1.0625,-0.4062 -2.4375,-0.6094 -4.125,-0.6094 z M 134.3906,128.1713 c -2.844,1.156 -5.406,1.937 -7.687,2.343 -2.282,0.407 -4.297,0.61 -6.047,0.61 -2.188,0 -4.375,-0.579 -6.563,-1.735 -2.156,-1.156 -4.25,-2.625 -6.281,-4.406 -2,-1.812 -3.891,-3.812 -5.672,-6 -1.781,-2.188 -3.391,-4.328 -4.828,-6.422 -1.406,-2.094 -2.6095,-4 -3.6095,-5.719 -0.9687,-1.718 -1.6562,-3 -2.0625,-3.843 3.969,-0.657 7.516,-1.844 10.641,-3.562997 1.343,-0.75 2.656,-1.641 3.937,-2.672 1.281,-1.031 2.422,-2.25 3.422,-3.656 1,-1.406 1.797,-3.016 2.391,-4.828 0.625,-1.813 0.937,-3.8751 0.937,-6.1876 0,-2.0938 -0.265,-3.9844 -0.797,-5.6719 -0.531,-1.7187 -1.234,-3.2344 -2.109,-4.5469 -0.875,-1.3437 -1.891,-2.4844 -3.047,-3.4218 -1.156,-0.9688 -2.359,-1.7657 -3.609,-2.3907 -1.25,-0.625 -2.516,-1.0781 -3.797,-1.3593 -1.25,-0.3126 -2.422,-0.4688 -3.516,-0.4688 -1.6561,0 -3.0311,0.1719 -4.1249,0.5156 -1.0625,0.3438 -1.9062,0.8125 -2.5312,1.4063 -0.625,0.5625 -1.0625,1.2343 -1.3125,2.0156 -0.2188,0.75 -0.3281,1.5469 -0.3281,2.3906 V 120.4833 c 0,0.625 0.0937,1.312 0.2812,2.062 0.2188,0.75 0.6094,1.454 1.1719,2.11 0.5937,0.656 1.4375,1.219 2.5312,1.687 1.0938,0.438 2.5313,0.657 4.3124,0.657 v 1.734 H 64.6875 v -1.734 c 1.6562,0 3.0156,-0.157 4.0781,-0.469 1.0625,-0.344 1.9063,-0.797 2.5313,-1.359 0.625,-0.594 1.0468,-1.266 1.2656,-2.016 0.25,-0.75 0.375,-1.547 0.375,-2.391 V 69.389503 c 0,-0.625 -0.125,-1.2968 -0.375,-2.0156 -0.2188,-0.7187 -0.6406,-1.375 -1.2656,-1.9687 -0.5938,-0.625 -1.4219,-1.1407 -2.4844,-1.5469 -1.0625,-0.4062 -2.4375,-0.6094 -4.125,-0.6094 v -1.7344 h 31.4061 c 4.438,0 8.625,0.3907 12.563,1.1719 3.937,0.7813 7.375,2.0157 10.312,3.7031 2.969,1.6563 5.313,3.7969 7.031,6.4219 1.75,2.5938 2.625,5.7188 2.625,9.375 0,3.0939 -0.64,5.7969 -1.921,8.1089 -1.25,2.313 -2.922,4.297 -5.016,5.954 -2.063,1.656 -4.422,3.031 -7.078,4.124997 -2.625,1.062 -5.313,1.906 -8.063,2.531 1.063,1.937 2.235,3.875 3.516,5.812 1.281,1.938 2.625,3.797 4.031,5.578 1.406,1.782 2.813,3.438 4.219,4.969 1.437,1.531 2.828,2.875 4.172,4.031 1.344,1.126 2.594,2.016 3.75,2.672 1.187,0.625 2.234,0.938 3.14,0.938 0.438,0 1.032,-0.047 1.782,-0.141 0.781,-0.093 1.625,-0.328 2.531,-0.703 z m 64.266,-51.656797 c -0.907,-1.9687 -2.094,-3.7187 -3.563,-5.25 -1.437,-1.5312 -3.062,-2.8281 -4.875,-3.8906 -1.781,-1.0625 -3.672,-1.8594 -5.672,-2.3906 -2,-0.5625 -3.984,-0.8438 -5.953,-0.8438 -2.156,0 -4.187,0.3907 -6.094,1.1719 -1.906,0.75 -3.687,1.7969 -5.343,3.1407 -1.625,1.3124 -3.11,2.8906 -4.453,4.7343 -1.344,1.8125 -2.532,3.7813 -3.563,5.9063 -1,2.0937 -1.828,4.2968 -2.484,6.6096 -0.657,2.312 -1.125,4.625 -1.407,6.937 h 39.938 c -0.656,1.313 -1.156,2.703 -1.5,4.172 -0.344,1.438 -0.594,2.781 -0.75,4.030997 -0.188,1.469 -0.297,2.891 -0.328,4.266 l -1.547,0.281 c -0.406,-2 -0.906,-3.656 -1.5,-4.968 -0.594,-1.312997 -1.484,-2.343997 -2.672,-3.093997 -1.187,-0.75 -2.781,-1.266 -4.781,-1.547 -1.969,-0.313 -4.547,-0.469 -7.735,-0.469 h -19.406 v 2.016 c 0,2.531 0.297,5.014997 0.891,7.452997 0.594,2.437 1.437,4.765 2.531,6.984 1.094,2.188 2.438,4.203 4.031,6.047 1.594,1.844 3.375,3.453 5.344,4.828 1.969,1.344 4.125,2.391 6.469,3.141 2.344,0.75 4.828,1.125 7.453,1.125 2.375,0 4.469,-0.219 6.281,-0.656 1.813,-0.469 3.375,-1.047 4.688,-1.735 1.343,-0.687 2.468,-1.437 3.375,-2.25 0.906,-0.843 1.656,-1.64 2.25,-2.39 0.593,-0.75 1.031,-1.407 1.312,-1.969 0.313,-0.594 0.547,-0.984 0.703,-1.172 l -0.75,6.609 c -0.718,1 -1.765,1.969 -3.14,2.907 -1.375,0.906 -3.016,1.734 -4.922,2.484 -1.875,0.719 -3.985,1.297 -6.328,1.734 -2.344,0.438 -4.875,0.657 -7.594,0.657 -5.219,0 -10.156,-0.766 -14.813,-2.297 -4.625,-1.532 -8.703,-3.703 -12.234,-6.516 -3.5,-2.812 -6.297,-6.203 -8.391,-10.172 -2.062,-4 -3.125,-8.453 -3.187,-13.358997 0.094,-5.063 0.969,-9.609 2.625,-13.641 1.687,-4.0622 3.922,-7.5935 6.703,-10.5935 2.813,-3.0313 6.078,-5.5313 9.797,-7.5 3.719,-2 7.687,-3.4844 11.906,-4.4531 2.219,-0.5313 4.766,-0.875 7.641,-1.0313 2.875,-0.1562 5.765,-0.2343 8.672,-0.2343 2.812,0 5.453,0.0312 7.922,0.0937 2.5,0.0625 4.593,0.0937 6.281,0.0937 -0.344,1.4688 -0.594,2.7813 -0.75,3.9376 -0.125,1.125 -0.188,2.1874 -0.188,3.1874 0,1.4063 0.11,2.7188 0.328,3.9376 0.219,1.1874 0.516,2.4687 0.891,3.8437 z m 88.078,49.734797 c -2.844,1.156 -5.438,1.937 -7.781,2.343 -2.344,0.407 -4.454,0.61 -6.329,0.61 -1.5,0 -2.796,-0.094 -3.89,-0.281 -1.094,-0.157 -2.031,-0.36 -2.813,-0.61 -0.906,-0.281 -1.687,-0.594 -2.343,-0.937 -1.375,-0.782 -2.579,-1.797 -3.61,-3.047 -1.031,-1.25 -1.969,-2.594 -2.812,-4.032 -0.813,-1.437 -1.547,-2.921 -2.203,-4.453 -0.657,-1.531 -1.297,-2.968 -1.922,-4.312 l -1.172,-2.485 c -3.156,0.907 -6.11,1.954 -8.86,3.141 -2.718,1.156 -5.14,2.313 -7.265,3.469 -2.125,1.125 -3.922,2.172 -5.391,3.14 -1.437,0.938 -2.453,1.626 -3.047,2.063 -1.156,1.281 -2.453,2.422 -3.89,3.422 -1.438,1 -3.047,1.859 -4.828,2.578 -1.782,0.687 -3.766,1.219 -5.954,1.594 -2.187,0.375 -4.593,0.562 -7.218,0.562 l -0.469,-2.015 c 3.031,-0.5 5.641,-1.469 7.828,-2.907 2.219,-1.437 4.125,-3.203 5.719,-5.297 1.594,-2.124 2.953,-4.5 4.078,-7.124 1.125,-2.657 2.125,-5.454 3,-8.391 0.5,-1.688 1.156,-3.468997 1.969,-5.343997 0.843,-1.875 1.843,-3.687 3,-5.437 1.187,-1.782 2.531,-3.438 4.031,-4.969 1.531,-1.563 3.266,-2.8751 5.203,-3.9376 -0.531,-1 -1.062,-2.0156 -1.594,-3.0469 -0.5,-1.0625 -0.984,-2.125 -1.453,-3.1875 -0.656,-1.25 -1.312,-2.625 -1.969,-4.125 -0.656,-1.5312 -1.437,-2.9375 -2.343,-4.2188 -0.875,-1.3124 -1.922,-2.4062 -3.141,-3.2812 -1.187,-0.875 -2.672,-1.3125 -4.453,-1.3125 -1.25,0 -2.484,0.1406 -3.703,0.4219 -1.188,0.2812 -2.328,0.625 -3.422,1.0312 l -0.656,-1.9218 c 2.718,-0.9063 5.468,-1.6719 8.25,-2.2969 2.812,-0.6563 5.593,-0.9844 8.343,-0.9844 1.313,0 2.61,0.0937 3.891,0.2813 1.281,0.1562 2.516,0.4531 3.703,0.8906 1.031,0.375 2.031,1 3,1.875 0.969,0.8437 1.891,1.8594 2.766,3.0468 0.875,1.1563 1.687,2.4063 2.437,3.75 0.782,1.3438 1.5,2.6876 2.157,4.0313 0.687,1.3437 1.296,2.625 1.828,3.8437 0.562,1.1876 1.047,2.2188 1.453,3.0938 2.75,5.906 5.484,11.828 8.203,17.766 2.719,5.905997 5.641,11.733997 8.766,17.483997 0.562,1.031 1.156,2.047 1.781,3.047 0.656,1 1.375,1.891 2.156,2.672 0.813,0.781 1.703,1.406 2.672,1.875 0.969,0.468 2.062,0.687 3.281,0.656 0.438,0 1.031,-0.047 1.781,-0.141 0.782,-0.093 1.625,-0.328 2.532,-0.703 z m -44.344,-37.265997 c -0.812,1.312 -1.562,2.672 -2.25,4.078 -0.656,1.406 -1.266,2.844 -1.828,4.313 -0.563,1.437 -1.078,2.874997 -1.547,4.311997 -0.469,1.438 -0.937,2.813 -1.406,4.125 -0.469,1.438 -0.985,2.844 -1.547,4.219 -0.531,1.344 -1.141,2.656 -1.828,3.937 2.344,-1.375 5.094,-2.812 8.25,-4.312 3.156,-1.5 6.531,-2.781 10.125,-3.844 z m 73.594,39.749997 h -31.36 v -1.734 c 1.657,0 3.016,-0.157 4.079,-0.469 1.062,-0.344 1.906,-0.797 2.531,-1.359 0.625,-0.594 1.047,-1.266 1.265,-2.016 0.25,-0.75 0.375,-1.547 0.375,-2.391 V 50.311403 c 0,-0.625 -0.125,-1.2969 -0.375,-2.0156 -0.218,-0.7187 -0.64,-1.375 -1.265,-1.9687 -0.594,-0.625 -1.422,-1.1407 -2.485,-1.5469 -1.062,-0.4063 -2.437,-0.6094 -4.125,-0.6094 v -1.7344 h 23.11 V 120.4833 c 0,0.625 0.094,1.312 0.281,2.062 0.219,0.75 0.609,1.454 1.172,2.11 0.594,0.656 1.422,1.219 2.484,1.687 1.094,0.438 2.532,0.657 4.313,0.657 z m 45.14,-0.562 c -2.843,1.156 -5.5,1.937 -7.968,2.343 -2.438,0.407 -4.641,0.61 -6.61,0.61 -2.781,0 -5.437,-0.532 -7.968,-1.594 -2.532,-1.063 -4.938,-2.469 -7.219,-4.219 -2.25,-1.75 -4.391,-3.75 -6.422,-6 -2,-2.25 -3.906,-4.547 -5.719,-6.89 -1.781,-2.376 -3.469,-4.719 -5.062,-7.032 -1.563,-2.312 -3.032,-4.39 -4.407,-6.233997 3.563,-2.781 6.922,-5.766 10.079,-8.953 1.343,-1.344 2.703,-2.797 4.078,-4.36 1.406,-1.5934 2.734,-3.2496 3.984,-4.9684 1.281,-1.75 2.453,-3.5468 3.516,-5.3906 1.062,-1.875 1.937,-3.7656 2.625,-5.6719 0.062,-0.1562 0.109,-0.3125 0.14,-0.4687 0.032,-0.1563 0.047,-0.3282 0.047,-0.5156 0,-0.5626 -0.156,-1.1719 -0.469,-1.8282 -0.281,-0.6562 -0.765,-1.2656 -1.453,-1.8281 -0.656,-0.5625 -1.531,-1.0156 -2.625,-1.3594 -1.062,-0.375 -2.359,-0.5625 -3.89,-0.5625 v -1.7344 h 25.734 c -1.031,4.125 -2.484,7.9219 -4.359,11.3907 -1.844,3.4375 -3.969,6.5625 -6.375,9.375 -2.375,2.8121 -4.953,5.2971 -7.735,7.4531 -2.75,2.156 -5.547,4.016 -8.39,5.578 3.656,4.156 7.031,8.140997 10.125,11.952997 3.125,3.813 5.984,7.172 8.578,10.078 2.625,2.907 4.984,5.235 7.078,6.985 2.125,1.718 4.016,2.578 5.672,2.578 0.437,0 1.047,-0.047 1.828,-0.141 0.781,-0.093 1.625,-0.328 2.531,-0.703 z"
     fill="url(#paint2_linear_23_2)"
     id="path349"
     style="fill:url(#paint2_linear_23_2)" />
  <defs
     id="defs366">
    <linearGradient
       id="paint0_linear_23_2"
       x1="462"
       y1="13"
       x2="462"
       y2="263"
       gradientUnits="userSpaceOnUse"
       gradientTransform="translate(-5.0134,-15.266697)">
      <stop
         offset="0.302083"
         stop-color="#55D5D7"
         id="stop351" />
      <stop
         offset="1"
         stop-color="#FFDB52"
         id="stop353" />
    </linearGradient>
    <linearGradient
       id="paint1_linear_23_2"
       x1="266.19101"
       y1="149"
       x2="266"
       y2="213"
       gradientUnits="userSpaceOnUse"
       gradientTransform="translate(-5.0134,-15.266697)">
      <stop
         offset="0.270833"
         stop-color="#55D5D7"
         id="stop356" />
      <stop
         offset="1"
         stop-color="#FFDB52"
         id="stop358" />
    </linearGradient>
    <linearGradient
       id="paint2_linear_23_2"
       x1="183"
       y1="25.5"
       x2="183"
       y2="191"
       gradientUnits="userSpaceOnUse"
       gradientTransform="translate(-5.0134,-15.266697)">
      <stop
         offset="0.270833"
         stop-color="#55D5D7"
         id="stop361" />
      <stop
         offset="1"
         stop-color="#FFDB52"
         id="stop363" />
    </linearGradient>
  </defs>
</svg>
