<?xml version="1.0" encoding="UTF-8" standalone="no"?>
<svg
   width="214.66313"
   height="221.77153"
   viewBox="0 0 214.66313 221.77153"
   fill="none"
   version="1.1"
   id="svg368"
   sodipodi:docname="logo_freak_festival_22_xs.svg"
   inkscape:version="1.1 (c68e22c387, 2021-05-23)"
   xmlns:inkscape="http://www.inkscape.org/namespaces/inkscape"
   xmlns:sodipodi="http://sodipodi.sourceforge.net/DTD/sodipodi-0.dtd"
   xmlns="http://www.w3.org/2000/svg"
   xmlns:svg="http://www.w3.org/2000/svg">
  <sodipodi:namedview
     id="namedview370"
     pagecolor="#ffffff"
     bordercolor="#999999"
     borderopacity="1"
     inkscape:pageshadow="0"
     inkscape:pageopacity="0"
     inkscape:pagecheckerboard="0"
     showgrid="false"
     inkscape:zoom="2.913915"
     inkscape:cx="100.38042"
     inkscape:cy="124.0599"
     inkscape:window-width="1842"
     inkscape:window-height="1051"
     inkscape:window-x="69"
     inkscape:window-y="-9"
     inkscape:window-maximized="1"
     inkscape:current-layer="svg368" />
  <path
     d="m 206.09573,125.3683 c 2.819,-17.991 5.616,-35.984997 8.488,-53.968297 0.297,-1.8609 -0.233,-3.0708 -1.695,-4.1669 -7.254,-5.4387 -14.468,-10.93 -21.693,-16.4082 -21.865,-16.5817 -43.734,-33.1587 -65.581,-49.7640999 -1.365,-1.03700005 -2.62,-1.36620005 -4.311,-0.75280005 C 87.543732,12.549203 53.769732,24.754003 19.984732,36.925103 c -1.787,0.644 -2.693,1.6229 -2.994,3.5574 -5.591,35.989 -11.2290002,71.970797 -16.90900017,107.946797 -0.302,1.914 0.225,3.145 1.71299997,4.336 28.2340002,22.579 56.4430002,45.188 84.6260002,67.831 1.602,1.287 3.04,1.477 4.951,0.765 34.434998,-12.843 68.885998,-25.641 103.348998,-38.41 1.788,-0.663 2.661,-1.687 2.956,-3.604 2.763,-18 5.603,-35.988 8.419,-53.979 z m -72.246,-111.188097 c 24.031,18.2223 48.061,36.4445 72.389,54.8919 -10.917,3.7717 -21.533,7.4397 -32.39,11.1905 -13.445,-21.9682 -26.879,-43.9166 -40.312,-65.8651 0.104,-0.0723 0.209,-0.1447 0.313,-0.2173 z m -11.389,-7.3727999 c 14.882,24.3205999 29.696,48.5295999 44.708,73.0625999 -36.085,-5.6529 -71.736998,-11.2379 -107.790998,-16.886 21.128,-18.8155 42.008998,-37.4105 63.082998,-56.1765999 z m -12.647,3.4831999 c 0.048,0.1007 0.097,0.2018 0.146,0.3029 -18.955998,16.8788 -37.912998,33.7576 -56.957998,50.716 -9.1,-6.8188 -18.115,-13.5734 -27.442,-20.5617 28.258,-10.215 56.256,-20.3361 84.253998,-30.4572 z M 7.7517318,135.2223 c 4.7000002,-30.002 9.3990002,-60.003697 14.1530002,-90.349297 9.282,6.9527 18.379,13.7677 27.625,20.6936 -13.852,23.3157 -27.656,46.552697 -41.4600002,69.789697 -0.106,-0.044 -0.212,-0.09 -0.318,-0.134 z M 52.555732,71.207303 c 12.798,34.888997 25.457,69.398997 38.251,104.273997 -28.19,-9.092 -55.986,-18.057 -84.0900002,-27.122 C 22.004732,122.6273 37.174732,97.094303 52.555732,71.207303 Z m 34.569,142.907997 c -23.568,-18.885 -46.946,-37.617 -70.324,-56.348 0.055,-0.116 0.11,-0.232 0.165,-0.348 25.022,8.071 50.043,16.142 75.239,24.27 -1.696,10.827 -3.358,21.434 -5.08,32.426 z m 9.102,-39.8 c -12.996,-35.426 -25.874,-70.533 -38.837,-105.869197 36.715,5.7516 73.218998,11.4701 110.043998,17.2392 -23.715,29.516997 -47.342,58.925997 -71.206998,88.629997 z m -3.495,40.68 c 1.705,-10.881 3.371,-21.513 5.081,-32.431 26.851998,0.052 53.813998,0.103 80.776998,0.155 0.023,0.117 0.046,0.233 0.069,0.35 -28.559,10.611 -57.117,21.222 -85.926998,31.926 z m 8.301998,-37.903 c 23.491,-29.238 46.733,-58.165 70.211,-87.387997 6.728,29.354997 13.375,58.352997 20.07,87.563997 -30.06,-0.058 -59.933,-0.117 -90.281,-0.176 z m 93.252,-12.682 c -0.091,0.021 -0.183,0.042 -0.274,0.064 -6.031,-26.306 -12.062,-52.613 -18.137,-79.111997 10.939,-3.7741 21.638,-7.4652 32.553,-11.2306 -4.743,30.278597 -9.443,60.278597 -14.142,90.278597 z"
     fill="#55d5d7"
     fill-opacity="0.4"
     id="path343" />
  <path
     d="m 95.561732,163.4233 c 0,0.84 -0.35,1.61 -1.05,2.31 -0.7,0.7 -1.54,1.33 -2.52,1.89 -0.84,0.56 -1.82,1.05 -2.94,1.47 l -2.52,1.05 c -1.26,-0.56 -2.73,-1.05 -4.41,-1.47 -1.68,-0.28 -3.5,-0.49 -5.46,-0.63 -1.82,-0.14 -3.64,-0.28 -5.46,-0.42 -1.82,0 -3.43,0 -4.83,0 -6.58,0 -13.16,0.14 -19.74,0.42 -6.44,0.42 -12.95,0.77 -19.53,1.05 1.54,0.14 3.01,0.21 4.41,0.21 h 4.62 c 4.06,0 8.12,-0.07 12.18,-0.21 4.06,-0.14 8.12,-0.21 12.18,-0.21 3.64,0 7.21,0.14 10.71,0.42 3.64,0.28 7.28,0.77 10.92,1.47 -2.1,0.7 -5.39,1.19 -9.87,1.47 -4.34,0.42 -8.96,0.7 -13.86,0.84 -4.76,0.28 -9.38,0.42 -13.86,0.42 -4.48,0.14 -7.98,0.21 -10.5,0.21 l -1.68,-2.31 c -0.28,0 -0.56,0 -0.84,0 -0.14,0.14 -0.35,0.21 -0.63,0.21 -0.56,0 -1.12,-0.07 -1.68,-0.21 -0.56,0 -1.19,0 -1.89,0 h -1.47 c -0.42,0 -0.84,0.14 -1.26,0.42 -1.26,0 -2.52,-0.07 -3.78,-0.21 -1.12,-0.14 -2.31,-0.21 -3.57,-0.21 l -4.2,-20.79 4.83,-2.52 c 5.46,-3.64 10.78,-7.35 15.96,-11.13 5.32,-3.92 10.22,-8.12 14.7,-12.6 4.62,-4.62 8.75,-9.52 12.39,-14.7 3.78,-5.32 6.86,-11.199997 9.24,-17.639997 l -0.63,-1.26 c 1.68,-3.36 2.87,-6.44 3.57,-9.24 0.7,-2.94 1.05,-5.88 1.05,-8.82 0,-4.9 -1.12,-8.19 -3.36,-9.87 -2.24,-1.68 -5.11,-2.52 -8.61,-2.52 -4.76,0 -8.89,1.33 -12.39,3.99 -3.5,2.52 -6.44,5.53 -8.82,9.03 -0.7,-1.12 -1.75,-1.82 -3.15,-2.1 -1.26,-0.42 -1.89,-1.19 -1.89,-2.31 0,-1.54 0.77,-3.08 2.31,-4.62 1.68,-1.54 3.01,-2.73 3.99,-3.57 l -1.26,-1.89 c -0.56,0.42 -1.68,1.19 -3.36,2.31 -1.68,0.98 -3.43,2.1 -5.25,3.36 -1.82,1.12 -3.57,2.17 -5.25,3.15 -1.54,0.84 -2.59,1.26 -3.15,1.26 -1.68,0 -2.52,-0.91 -2.52,-2.73 0,-3.78 1.33,-7.42 3.99,-10.92 2.66,-3.64 5.88,-6.79 9.66,-9.45 3.92,-2.8 8.12,-5.04 12.6,-6.72 4.48,-1.68 8.61,-2.52 12.39,-2.52 5.6,0 10.78,0.63 15.54,1.89 4.9,1.26 9.17,3.29 12.81,6.09 3.64,2.8 6.51,6.44 8.61,10.92 2.1,4.34 3.149998,9.59 3.149998,15.75 0,7.7 -1.539998,15.4 -4.619998,23.1 -2.94,7.699997 -6.86,14.979997 -11.76,21.839997 -4.9,6.86 -10.5,13.23 -16.8,19.11 -6.16,5.74 -12.46,10.57 -18.9,14.49 1.4,-0.14 3.08,-0.28 5.04,-0.42 2.1,-0.14 4.27,-0.28 6.51,-0.42 2.24,-0.14 4.34,-0.21 6.3,-0.21 2.1,-0.14 3.85,-0.21 5.25,-0.21 1.96,0 4.06,0.28 6.3,0.84 2.24,0.42 4.13,1.26 5.67,2.52 l -0.42,1.26 c -4.06,-0.42 -8.05,-0.63 -11.97,-0.63 -1.82,0 -3.99,0.07 -6.51,0.21 -2.38,0 -4.83,0.07 -7.35,0.21 -2.52,0.14 -5.04,0.28 -7.56,0.42 -2.38,0.14 -4.48,0.28 -6.3,0.42 v 0.21 c 1.4,0 3.15,0 5.25,0 2.24,-0.14 4.48,-0.21 6.72,-0.21 2.38,-0.14 4.62,-0.21 6.72,-0.21 2.1,-0.14 3.92,-0.21 5.46,-0.21 2.52,0 4.97,0.14 7.35,0.42 2.52,0.14 5.04,0.35 7.56,0.63 -0.42,0.7 -0.63,1.26 -0.63,1.68 0,1.12 0.7,1.82 2.1,2.1 1.54,0.28 3.15,0.63 4.83,1.05 1.82,0.28 3.43,0.7 4.83,1.26 1.54,0.56 2.31,1.54 2.31,2.94 z m -76.65,-17.43 c 3.64,-2.24 7.7,-5.25 12.18,-9.03 4.62,-3.92 9.17,-8.19 13.65,-12.81 4.62,-4.76 8.96,-9.8 13.02,-15.12 4.06,-5.32 7.49,-10.639997 10.29,-15.959997 -2.1,4.62 -5.04,9.589997 -8.82,14.909997 -3.64,5.32 -7.77,10.5 -12.39,15.54 -4.48,4.9 -9.17,9.38 -14.07,13.44 -4.9,4.06 -9.52,7.07 -13.86,9.03 z m 34.86,-23.1 c -4.9,4.9 -9.94,9.59 -15.12,14.07 -5.18,4.48 -10.71,8.61 -16.59,12.39 l 1.05,0.21 c 5.88,-3.64 11.27,-7.77 16.17,-12.39 5.04,-4.62 9.87,-9.38 14.49,-14.28 z m -7.35,24.15 c 2.66,-1.26 5.32,-3.43 7.98,-6.51 l -12.39,8.61 c 1.12,-0.56 2.59,-1.26 4.41,-2.1 z m -29.19,25.62 c 0.28,0 1.05,0 2.31,0 1.26,0.14 2.59,0.28 3.99,0.42 1.4,0.14 2.66,0.28 3.78,0.42 1.26,0.28 2.03,0.49 2.31,0.63 l -12.18,-0.84 z m -1.89,-18.9 5.04,-2.52 -0.21,-0.63 c -0.84,0.7 -1.75,1.19 -2.73,1.47 -0.98,0.28 -1.89,0.63 -2.73,1.05 v 0.63 z m 175.785998,9.66 c 0,0.84 -0.35,1.61 -1.05,2.31 -0.7,0.7 -1.54,1.33 -2.52,1.89 -0.84,0.56 -1.82,1.05 -2.94,1.47 l -2.52,1.05 c -1.26,-0.56 -2.73,-1.05 -4.41,-1.47 -1.68,-0.28 -3.5,-0.49 -5.46,-0.63 -1.82,-0.14 -3.64,-0.28 -5.46,-0.42 -1.82,0 -3.43,0 -4.83,0 -6.58,0 -13.16,0.14 -19.74,0.42 -6.44,0.42 -12.95,0.77 -19.53,1.05 1.54,0.14 3.01,0.21 4.41,0.21 h 4.62 c 4.06,0 8.12,-0.07 12.18,-0.21 4.06,-0.14 8.12,-0.21 12.18,-0.21 3.64,0 7.21,0.14 10.71,0.42 3.64,0.28 7.28,0.77 10.92,1.47 -2.1,0.7 -5.39,1.19 -9.87,1.47 -4.34,0.42 -8.96,0.7 -13.86,0.84 -4.76,0.28 -9.38,0.42 -13.86,0.42 -4.48,0.14 -7.98,0.21 -10.5,0.21 l -1.68,-2.31 c -0.28,0 -0.56,0 -0.84,0 -0.14,0.14 -0.35,0.21 -0.63,0.21 -0.56,0 -1.12,-0.07 -1.68,-0.21 -0.56,0 -1.19,0 -1.89,0 h -1.47 c -0.42,0 -0.84,0.14 -1.26,0.42 -1.26,0 -2.52,-0.07 -3.78,-0.21 -1.12,-0.14 -2.31,-0.21 -3.57,-0.21 l -4.2,-20.79 4.83,-2.52 c 5.46,-3.64 10.78,-7.35 15.96,-11.13 5.32,-3.92 10.22,-8.12 14.7,-12.6 4.62,-4.62 8.75,-9.52 12.39,-14.7 3.78,-5.32 6.86,-11.199997 9.24,-17.639997 l -0.63,-1.26 c 1.68,-3.36 2.87,-6.44 3.57,-9.24 0.7,-2.94 1.05,-5.88 1.05,-8.82 0,-4.9 -1.12,-8.19 -3.36,-9.87 -2.24,-1.68 -5.11,-2.52 -8.61,-2.52 -4.76,0 -8.89,1.33 -12.39,3.99 -3.5,2.52 -6.44,5.53 -8.82,9.03 -0.7,-1.12 -1.75,-1.82 -3.15,-2.1 -1.26,-0.42 -1.89,-1.19 -1.89,-2.31 0,-1.54 0.77,-3.08 2.31,-4.62 1.68,-1.54 3.01,-2.73 3.99,-3.57 l -1.26,-1.89 c -0.56,0.42 -1.68,1.19 -3.36,2.31 -1.68,0.98 -3.43,2.1 -5.25,3.36 -1.82,1.12 -3.57,2.17 -5.25,3.15 -1.54,0.84 -2.59,1.26 -3.15,1.26 -1.68,0 -2.52,-0.91 -2.52,-2.73 0,-3.78 1.33,-7.42 3.99,-10.92 2.66,-3.64 5.88,-6.79 9.66,-9.45 3.92,-2.8 8.12,-5.04 12.6,-6.72 4.48,-1.68 8.61,-2.52 12.39,-2.52 5.6,0 10.78,0.63 15.54,1.89 4.9,1.26 9.17,3.29 12.81,6.09 3.64,2.8 6.51,6.44 8.61,10.92 2.1,4.34 3.15,9.59 3.15,15.75 0,7.7 -1.54,15.4 -4.62,23.1 -2.94,7.699997 -6.86,14.979997 -11.76,21.839997 -4.9,6.86 -10.5,13.23 -16.8,19.11 -6.16,5.74 -12.46,10.57 -18.9,14.49 1.4,-0.14 3.08,-0.28 5.04,-0.42 2.1,-0.14 4.27,-0.28 6.51,-0.42 2.24,-0.14 4.34,-0.21 6.3,-0.21 2.1,-0.14 3.85,-0.21 5.25,-0.21 1.96,0 4.06,0.28 6.3,0.84 2.24,0.42 4.13,1.26 5.67,2.52 l -0.42,1.26 c -4.06,-0.42 -8.05,-0.63 -11.97,-0.63 -1.82,0 -3.99,0.07 -6.51,0.21 -2.38,0 -4.83,0.07 -7.35,0.21 -2.52,0.14 -5.04,0.28 -7.56,0.42 -2.38,0.14 -4.48,0.28 -6.3,0.42 v 0.21 c 1.4,0 3.15,0 5.25,0 2.24,-0.14 4.48,-0.21 6.72,-0.21 2.38,-0.14 4.62,-0.21 6.72,-0.21 2.1,-0.14 3.92,-0.21 5.46,-0.21 2.52,0 4.97,0.14 7.35,0.42 2.52,0.14 5.04,0.35 7.56,0.63 -0.42,0.7 -0.63,1.26 -0.63,1.68 0,1.12 0.7,1.82 2.1,2.1 1.54,0.28 3.15,0.63 4.83,1.05 1.82,0.28 3.43,0.7 4.83,1.26 1.54,0.56 2.31,1.54 2.31,2.94 z m -76.65,-17.43 c 3.64,-2.24 7.7,-5.25 12.18,-9.03 4.62,-3.92 9.17,-8.19 13.65,-12.81 4.62,-4.76 8.96,-9.8 13.02,-15.12 4.06,-5.32 7.49,-10.639997 10.29,-15.959997 -2.1,4.62 -5.04,9.589997 -8.82,14.909997 -3.64,5.32 -7.77,10.5 -12.39,15.54 -4.48,4.9 -9.17,9.38 -14.07,13.44 -4.9,4.06 -9.52,7.07 -13.86,9.03 z m 34.86,-23.1 c -4.9,4.9 -9.94,9.59 -15.12,14.07 -5.18,4.48 -10.71,8.61 -16.59,12.39 l 1.05,0.21 c 5.88,-3.64 11.27,-7.77 16.17,-12.39 5.04,-4.62 9.87,-9.38 14.49,-14.28 z m -7.35,24.15 c 2.66,-1.26 5.32,-3.43 7.98,-6.51 l -12.39,8.61 c 1.12,-0.56 2.59,-1.26 4.41,-2.1 z m -29.19,25.62 c 0.28,0 1.05,0 2.31,0 1.26,0.14 2.59,0.28 3.99,0.42 1.4,0.14 2.66,0.28 3.78,0.42 1.26,0.28 2.03,0.49 2.31,0.63 l -12.18,-0.84 z m -1.89,-18.9 5.04,-2.52 -0.21,-0.63 c -0.84,0.7 -1.75,1.19 -2.73,1.47 -0.98,0.28 -1.89,0.63 -2.73,1.05 v 0.63 z"
     fill="url(#paint0_linear_23_2)"
     id="path345"
     style="fill:url(#paint0_linear_23_2)" />
  <defs
     id="defs366">
    <linearGradient
       id="paint0_linear_23_2"
       x1="462"
       y1="13"
       x2="462"
       y2="263"
       gradientUnits="userSpaceOnUse"
       gradientTransform="translate(-355.00227,-15.266697)">
      <stop
         offset="0.302083"
         stop-color="#55D5D7"
         id="stop351" />
      <stop
         offset="1"
         stop-color="#FFDB52"
         id="stop353" />
    </linearGradient>
    <linearGradient
       id="paint1_linear_23_2"
       x1="266.19101"
       y1="149"
       x2="266"
       y2="213"
       gradientUnits="userSpaceOnUse"
       gradientTransform="translate(-5.0134,-15.266697)">
      <stop
         offset="0.270833"
         stop-color="#55D5D7"
         id="stop356" />
      <stop
         offset="1"
         stop-color="#FFDB52"
         id="stop358" />
    </linearGradient>
    <linearGradient
       id="paint2_linear_23_2"
       x1="183"
       y1="25.5"
       x2="183"
       y2="191"
       gradientUnits="userSpaceOnUse"
       gradientTransform="translate(-5.0134,-15.266697)">
      <stop
         offset="0.270833"
         stop-color="#55D5D7"
         id="stop361" />
      <stop
         offset="1"
         stop-color="#FFDB52"
         id="stop363" />
    </linearGradient>
  </defs>
</svg>
