<?xml version="1.0" encoding="UTF-8" standalone="no"?>
<svg
   id="Capa_1"
   data-name="Capa 1"
   viewBox="0 0 653.03708 276.2576"
   version="1.1"
   sodipodi:docname="Logo ALTER.svg"
   width="653.03705"
   height="276.2576"
   inkscape:version="1.1 (c68e22c387, 2021-05-23)"
   xmlns:inkscape="http://www.inkscape.org/namespaces/inkscape"
   xmlns:sodipodi="http://sodipodi.sourceforge.net/DTD/sodipodi-0.dtd"
   xmlns="http://www.w3.org/2000/svg"
   xmlns:svg="http://www.w3.org/2000/svg">
  <sodipodi:namedview
     id="namedview57"
     pagecolor="#ffffff"
     bordercolor="#999999"
     borderopacity="1"
     inkscape:pageshadow="0"
     inkscape:pageopacity="0"
     inkscape:pagecheckerboard="0"
     showgrid="false"
     inkscape:zoom="1.0375669"
     inkscape:cx="341.66473"
     inkscape:cy="173.96469"
     inkscape:window-width="1842"
     inkscape:window-height="1051"
     inkscape:window-x="69"
     inkscape:window-y="-9"
     inkscape:window-maximized="1"
     inkscape:current-layer="Capa_1" />
  <defs
     id="defs4">
    <style
       id="style2">.cls-1{fill:#40b4e5;}.cls-2{fill:#95d600;}.cls-3{fill:#ffce00;}.cls-4{fill:#7764a0;}.cls-5{fill:#dd0031;}.cls-6{fill:#f38b00;}.cls-7{fill:#fff;}.cls-8{fill:#3e3935;}</style>
  </defs>
  <title
     id="title6">Logo ALTER</title>
  <path
     class="cls-1"
     d="M 0.08596549,39.787587 4.3359655,218.31759 a 20.39,20.39 0 0 0 13.2199995,18.59 c -0.07,-0.57 -0.12,-1.14 -0.14,-1.72 l -5.2,-166.380003 a 20.4,20.4 0 0 1 14.67,-20.22 v -9.23 a 20.69,20.69 0 0 1 6.58,-15 v -2.81 a 20.41,20.41 0 0 1 0.41,-3.67 c -5,0.38 -10.07,0.73 -15.09,1.12 a 20.39,20.39 0 0 0 -18.77999951,20.82"
     id="path8" />
  <path
     class="cls-1"
     d="m 587.77597,0.97758726 c -74.36,-1 -151.66,-0.6 -230.31,1.22000004 42.08,1.08 83.67,2.55 124.29,4.38 41.49,0.17 82.41,1 122.05,2.55 a 20.37,20.37 0 0 0 -16,-8.15000004"
     id="path10" />
  <path
     class="cls-1"
     d="m 57.005965,255.02759 v 16.41 l 22.78,-16.41 q -11.28,0 -22.78,0"
     id="path12" />
  <path
     class="cls-2"
     d="m 631.56597,219.86759 -2.29,0.06 a 20.9,20.9 0 0 1 -19.1,15.65 q -77.27,4.12 -154.86,6.49 l -3.53,10.72 -10.87,-10.29 q -58.52,1.67 -117.12,2.35 l -3.79,5.47 14.15,0.54 c 73,2.58 146.11,3.94 218.74,3.58 l 30,21.82 v -22.06 q 17.53,-0.21 35,-0.56 a 20.37,20.37 0 0 0 19.93,-20 l 0.26,-15 a 20.31,20.31 0 0 1 -6.52,1.28"
     id="path14" />
  <path
     class="cls-3"
     d="m 294.08597,249.28759 -2.89,-4.15 q -43.55,0.27 -87.09,0 -54.11,-0.39 -108.140005,-1.71 -19.49,-0.47 -39,-1.06 l -4.21,-0.12 a 20.91,20.91 0 0 1 -20.14,-20.82 v -1.71 a 20.71,20.71 0 0 1 -6.21,-14.86 l 0.54,-156.260003 a 20.41,20.41 0 0 0 -14.67,20.22 l 5.2,166.380003 c 0,0.58 0.07,1.15 0.14,1.72 a 20.36,20.36 0 0 0 20.07,18 c 6.53,0 13,0.06 19.38,0.08 q 11.51,0 22.78,0 c 15.9,0 31.500005,-0.14 46.930005,-0.33 l 7.25,21.45 23,-21.92 c 44.88,-0.86 89.33,-2.4 137.34,-4.66 z"
     id="path16" />
  <path
     class="cls-4"
     d="m 53.435965,1.4975873 a 20.45,20.45 0 0 0 -19.89,19.9999997 v 2.81 a 20.66,20.66 0 0 1 13.52,-5.63 q 51.8,-1.64 103.090005,-2.71 c 105.54,-5.85 220.62,-9.8799997 331.64,-9.4099997 -40.62,-1.83 -82.2,-3.3 -124.29,-4.38 -100.71,-2.58000004 -204.24,-2.94000004 -304.000005,-0.69"
     id="path18" />
  <path
     class="cls-4"
     d="m 636.36597,15.787587 a 20.34,20.34 0 0 1 6.1,14.85 l -2.6,164.540003 a 20.42,20.42 0 0 1 -9.92,17.18 v 2.08 a 21,21 0 0 1 -0.68,5.48 l 2.29,-0.06 a 20.45,20.45 0 0 0 19.82,-20.18 l 1.66,-163.650003 a 20.38,20.38 0 0 0 -16.68,-20.25"
     id="path20" />
  <path
     class="cls-5"
     d="m 428.61597,230.82759 q -19.1,0.28 -38.2,0.44 -155.22,1.44 -310.520005,-4.29 c -6.37,-0.15 -12.76,-0.28 -19.12,-0.46 l -0.27,-0.29 c -4.75,-0.19 -9.5,-0.35 -14.24,-0.55 -0.5,0 -1,-0.08 -1.47,-0.13 a 20.63,20.63 0 0 1 -12.19,-5.83 v 1.71 a 20.91,20.91 0 0 0 20.23,20.76 l 4.21,0.12 q 19.47,0.6 39,1.06 54.000005,1.32 108.140005,1.71 43.53,0.31 87.09,0 l 2.89,4.15 0.19,0.28 13.08,18.99 12.58,-18.16 3.79,-5.47 q 58.58,-0.65 117.12,-2.35 l -1.85,-1.75 z"
     id="path22" />
  <path
     class="cls-5"
     d="m 629.93597,212.36759 a 20.4,20.4 0 0 1 -2.05,1.07 20.79,20.79 0 0 1 -16.27,12.06 c -0.59,0.08 -1.18,0.14 -1.79,0.16 q -75.32,3.16 -150.66,4.61 l -3.34,10.15 -0.54,1.63 q 77.56,-2.38 154.86,-6.49 a 21,21 0 0 0 19.78,-21.14 z"
     id="path24" />
  <path
     class="cls-6"
     d="m 636.36597,15.787587 a 20.25,20.25 0 0 0 -13.32,-5.8499997 q -9.56,-0.45 -19.25,-0.82 c -39.64,-1.57 -80.56,-2.38 -122.05,-2.55 -111,-0.47 -226.11,3.5599997 -331.64,9.4099997 q 234.51,-4.94 457.6,2.52 l 2,0.07 a 20.74,20.74 0 0 1 20,20.74 V 204.93759 a 20.67,20.67 0 0 1 -1.84,8.5 20.28,20.28 0 0 0 10.5,-10.94 20.35,20.35 0 0 0 1.5,-7.35 l 2.6,-164.540003 a 20.34,20.34 0 0 0 -6.1,-14.85"
     id="path26" />
  <path
     class="cls-6"
     d="m 60.725965,226.49759 c 6.36,0.18 12.74,0.31 19.12,0.46 q -9.7,-0.36 -19.39,-0.74 l 0.27,0.29"
     id="path28" />
  <path
     class="cls-7"
     d="m 609.74597,18.607587 -2,-0.07 q -222.83,-7.83 -457.6,-2.56 -51.290005,1.08 -103.090005,2.71 a 20.83,20.83 0 0 0 -20.1,20.68 v 9.23 l -0.54,156.260003 a 20.78,20.78 0 0 0 18.4,20.69 c 0.49,0.05 1,0.11 1.47,0.13 4.75,0.2 9.5,0.36 14.24,0.55 l 19.39,0.74 q 155.300005,5.73 310.520005,4.29 19.1,-0.18 38.2,-0.44 l 10.5,9.93 1.78,1.75 10.88,10.29 3.53,-10.72 0.54,-1.63 3.34,-10.15 q 75.34,-1.47 150.66,-4.61 c 0.6,0 1.2,-0.09 1.79,-0.16 a 20.82,20.82 0 0 0 18.08,-20.58 V 39.357587 a 20.74,20.74 0 0 0 -20,-20.74"
     id="path30" />
  <path
     class="cls-8"
     d="m 182.85597,158.49759 a 10.09,10.09 0 0 0 -3.24,-2.56 18,18 0 0 0 -4,-1.42 21.58,21.58 0 0 0 -4.84,-0.51 h -16 a 2.5,2.5 0 0 0 -1.11,0.24 2,2 0 0 0 -1,1.16 3.62,3.62 0 0 0 -0.15,1.14 v 30.33 a 6.08,6.08 0 0 0 0.35,2.14 2.51,2.51 0 0 0 2.5,1.62 2.36,2.36 0 0 0 2.34,-1.73 6.66,6.66 0 0 0 0.3,-2 v -6.86 h 12.45 a 28.87,28.87 0 0 0 4.66,-0.36 19.36,19.36 0 0 0 4.09,-1.11 9.9,9.9 0 0 0 3.43,-2.29 10.16,10.16 0 0 0 2.22,-3.7 15.58,15.58 0 0 0 0.77,-5.2 16.91,16.91 0 0 0 -0.67,-5 11,11 0 0 0 -2,-3.8 m -3.58,13.28 a 4.72,4.72 0 0 1 -2.25,2.16 12.63,12.63 0 0 1 -4.47,1.07 c -2,0.17 -4.34,0.26 -7,0.26 h -7.6 v -16.58 h 7.6 a 56.74,56.74 0 0 1 7,0.37 12.33,12.33 0 0 1 4.44,1.31 5.43,5.43 0 0 1 2.32,2.44 10.5,10.5 0 0 1 0.81,4.51 10,10 0 0 1 -0.79,4.39"
     id="path32" />
  <path
     class="cls-8"
     d="m 219.61597,156.19759 v 0 a 7.28,7.28 0 0 0 -1.07,-1.54 2.58,2.58 0 0 0 -3.72,0.13 10.94,10.94 0 0 0 -0.9,1.42 l -16.81,30.29 c -0.11,0.23 -0.21,0.44 -0.29,0.62 a 2.67,2.67 0 0 0 -0.23,1.07 3.16,3.16 0 0 0 0.49,1.79 2.6,2.6 0 0 0 3.61,0.47 3.72,3.72 0 0 0 1.26,-1.44 l 4.81,-8.73 h 19.92 l 4.76,8.62 a 4.44,4.44 0 0 0 1.27,1.52 2.89,2.89 0 0 0 1.67,0.55 2.44,2.44 0 0 0 1.76,-0.73 2.57,2.57 0 0 0 0.73,-1.88 3.91,3.91 0 0 0 -0.52,-1.89 z m -10.33,19.36 7.48,-13.66 7.48,13.66 z"
     id="path34" />
  <path
     class="cls-8"
     d="m 286.37597,157.49759 v 0 a 10.44,10.44 0 0 0 -3.54,-2.13 21.94,21.94 0 0 0 -4.29,-1.05 34.79,34.79 0 0 0 -5,-0.33 h -14.87 a 1.8,1.8 0 0 0 -1.32,0.49 1.88,1.88 0 0 0 -0.55,1.29 c 0,0.17 0,0.42 0,0.76 v 30.38 a 5.88,5.88 0 0 0 0.38,2.17 2.55,2.55 0 0 0 2.5,1.59 2.28,2.28 0 0 0 1.53,-0.55 2.65,2.65 0 0 0 0.76,-1.1 4.5,4.5 0 0 0 0.25,-1.09 8.89,8.89 0 0 0 0.06,-1 v -10 h 9.28 l 11.71,12.5 a 3.37,3.37 0 0 0 1.3,1 3.33,3.33 0 0 0 1.25,0.26 2.44,2.44 0 0 0 1.76,-0.71 2.47,2.47 0 0 0 0.71,-1.92 3.72,3.72 0 0 0 -0.21,-0.86 3,3 0 0 0 -0.69,-1.06 l -9.07,-9.64 v 0 a 19.89,19.89 0 0 0 3.19,-0.71 15.53,15.53 0 0 0 3,-1.27 9.85,9.85 0 0 0 2.56,-2 9.41,9.41 0 0 0 1.74,-2.88 10.42,10.42 0 0 0 0.65,-3.79 13.64,13.64 0 0 0 -0.78,-4.89 9.25,9.25 0 0 0 -2.31,-3.48 m -3.2,11.51 a 5.56,5.56 0 0 1 -2.3,1.84 12.23,12.23 0 0 1 -3.76,0.94 c -1.55,0.16 -3.2,0.24 -4.9,0.24 h -9.94 v -13 h 13.34 a 13.72,13.72 0 0 1 4.89,0.75 5.12,5.12 0 0 1 2.59,2 7.51,7.51 0 0 1 0.88,4 5.52,5.52 0 0 1 -0.81,3.21"
     id="path36" />
  <path
     class="cls-8"
     d="m 329.52597,156.19759 v 0 a 7.32,7.32 0 0 0 -1.07,-1.54 2.58,2.58 0 0 0 -3.72,0.13 11,11 0 0 0 -0.9,1.42 l -16.78,30.29 c -0.11,0.23 -0.21,0.44 -0.29,0.62 a 2.65,2.65 0 0 0 -0.23,1.07 3.17,3.17 0 0 0 0.49,1.79 2.6,2.6 0 0 0 3.61,0.47 3.72,3.72 0 0 0 1.26,-1.44 l 4.81,-8.73 h 19.91 l 4.76,8.62 a 4.45,4.45 0 0 0 1.24,1.5 2.89,2.89 0 0 0 1.67,0.55 2.44,2.44 0 0 0 1.76,-0.73 2.57,2.57 0 0 0 0.73,-1.88 3.9,3.9 0 0 0 -0.52,-1.89 z m -10.33,19.36 7.48,-13.66 7.48,13.66 z"
     id="path38" />
  <path
     class="cls-8"
     d="m 400.11597,157.92759 a 17,17 0 0 0 -6.85,-3.11 41.38,41.38 0 0 0 -9,-0.89 h -21.58 a 2,2 0 0 0 -1.23,0.37 1.79,1.79 0 0 0 -0.74,1.39 c 0,0.18 0,0.44 0,0.79 v 31.69 c 0,0.31 0,0.55 0,0.69 a 1.87,1.87 0 0 0 0.62,1.32 1.92,1.92 0 0 0 1.32,0.47 h 21.59 a 42.08,42.08 0 0 0 9,-0.87 17,17 0 0 0 6.85,-3.08 13.56,13.56 0 0 0 4.26,-5.84 23.74,23.74 0 0 0 1.38,-8.64 23.24,23.24 0 0 0 -1.38,-8.49 13.7,13.7 0 0 0 -4.25,-5.81 m -0.68,20.68 a 8.56,8.56 0 0 1 -2.49,4 11.39,11.39 0 0 1 -4.78,2.34 33,33 0 0 1 -7.93,0.8 h -18.04 v -26.9 h 18.05 a 33,33 0 0 1 7.93,0.8 11.36,11.36 0 0 1 4.77,2.33 8.65,8.65 0 0 1 2.49,4 21.21,21.21 0 0 1 0.81,6.29 21.88,21.88 0 0 1 -0.81,6.38"
     id="path40" />
  <path
     class="cls-8"
     d="m 460.61597,157.91759 a 19.89,19.89 0 0 0 -7.5,-3.54 48.14,48.14 0 0 0 -20.68,0 19.8,19.8 0 0 0 -7.49,3.54 14.68,14.68 0 0 0 -4.49,6.07 24.72,24.72 0 0 0 0,16.55 14.69,14.69 0 0 0 4.49,6.08 19.75,19.75 0 0 0 7.49,3.54 48.14,48.14 0 0 0 20.68,0 19.92,19.92 0 0 0 7.5,-3.53 14.62,14.62 0 0 0 4.51,-6.08 24.73,24.73 0 0 0 0,-16.55 14.62,14.62 0 0 0 -4.51,-6.08 m -0.65,21 a 9.86,9.86 0 0 1 -3.21,4.21 14.43,14.43 0 0 1 -5.61,2.44 44.22,44.22 0 0 1 -16.74,0 14.36,14.36 0 0 1 -5.59,-2.44 9.85,9.85 0 0 1 -3.2,-4.22 20.46,20.46 0 0 1 0,-13.28 9.86,9.86 0 0 1 3.2,-4.23 14.34,14.34 0 0 1 5.59,-2.44 44.27,44.27 0 0 1 16.74,0 14.53,14.53 0 0 1 5.61,2.44 9.89,9.89 0 0 1 3.21,4.23 20.5,20.5 0 0 1 0,13.28"
     id="path42" />
  <path
     class="cls-8"
     d="m 514.98597,187.07759 v 0 a 3.86,3.86 0 0 0 -0.9,-1.21 l -14.3,-13.37 14.06,-14 a 3.11,3.11 0 0 0 0.72,-1.06 2.92,2.92 0 0 0 0.23,-1.09 2.51,2.51 0 0 0 -0.6,-1.67 c -0.95,-1.13 -2.75,-1.08 -4,0.21 l -14,14.07 -14,-14.07 a 2.73,2.73 0 0 0 -4,-0.25 2.5,2.5 0 0 0 -0.65,1.7 3,3 0 0 0 1,2.15 l 14.06,14 -14.49,13.41 a 3.42,3.42 0 0 0 -1.21,2.48 2.26,2.26 0 0 0 0.66,1.63 2.75,2.75 0 0 0 2.83,0.4 4.16,4.16 0 0 0 1.23,-0.84 l 14.48,-13.51 14.51,13.44 a 3.55,3.55 0 0 0 2.43,1.13 2.21,2.21 0 0 0 1.65,-0.7 2.3,2.3 0 0 0 0.63,-1.61 3.15,3.15 0 0 0 -0.29,-1.26 m -2.62,1.26 a 0.55,0.55 0 0 1 0,-0.11 l 1.27,-0.57 z"
     id="path44" />
  <path
     class="cls-8"
     d="M 110.84597,134.13759 H 89.175965 a 2.42,2.42 0 0 1 -1.78,-0.75 2.09,2.09 0 0 1 -0.75,-1.43 3.47,3.47 0 0 1 0.11,-1 L 111.75597,57.677587 q 1,-3.79 5.16,-3.79 h 31.88 q 4.13,0 5.16,3.79 l 25,73.280003 a 3.5,3.5 0 0 1 0.12,1 2.1,2.1 0 0 1 -0.75,1.43 2.42,2.42 0 0 1 -1.78,0.75 h -21.66 q -3.67,0 -5.16,-3.9 l -2.87,-8 h -28 l -2.87,8 q -1.49,3.9 -5.16,3.9 m 30.16,-34.290003 -8.14,-23.85 -8.14,23.85 z"
     id="path46" />
  <path
     class="cls-8"
     d="m 228.27597,110.62759 h 39.11 a 3.13,3.13 0 0 1 3.1,3.1 v 17.32 a 3.14,3.14 0 0 1 -3.1,3.09 h -67 a 3.14,3.14 0 0 1 -3.1,-3.09 V 56.957587 a 3.14,3.14 0 0 1 3.1,-3.1 h 24.77 a 3.13,3.13 0 0 1 3.1,3.1 z"
     id="path48" />
  <path
     class="cls-8"
     d="m 287.91597,53.857587 h 79.13 a 3.13,3.13 0 0 1 3.1,3.09 v 18.46 a 3.13,3.13 0 0 1 -3.1,3.09 h -24.66 v 52.520003 a 3.14,3.14 0 0 1 -3.1,3.1 h -23.67 a 3.14,3.14 0 0 1 -3.1,-3.1 V 78.497587 h -24.6 a 3.13,3.13 0 0 1 -3.1,-3.09 v -18.45 a 3.13,3.13 0 0 1 3.1,-3.09"
     id="path50" />
  <path
     class="cls-8"
     d="m 416.35597,111.77759 h 45.76 a 3.13,3.13 0 0 1 3.1,3.1 v 16.17 a 3.13,3.13 0 0 1 -3.1,3.09 h -72.5 a 3.14,3.14 0 0 1 -3.09,-3.09 V 56.957587 a 3.14,3.14 0 0 1 3.09,-3.1 h 71.33 a 3.14,3.14 0 0 1 3.1,3.1 v 16.17 a 3.13,3.13 0 0 1 -3.1,3.1 h -44.59 v 7.27 h 38.26 a 3.13,3.13 0 0 1 3.1,3.1 v 14.900003 a 3.13,3.13 0 0 1 -3.1,3.1 h -38.3 z"
     id="path52" />
  <path
     class="cls-8"
     d="m 567.95597,130.57759 a 2.89,2.89 0 0 1 0.23,1.26 2.19,2.19 0 0 1 -0.75,1.55 2.42,2.42 0 0 1 -1.78,0.75 h -26.04 a 4.9,4.9 0 0 1 -4.82,-2.87 l -10.09,-22.71 h -9.63 v 22.48 a 3.14,3.14 0 0 1 -3.1,3.1 h -24.75 a 3.13,3.13 0 0 1 -3.1,-3.1 V 56.957587 a 3.13,3.13 0 0 1 3.1,-3.09 h 44.61 q 15.71,0 24.88,7.45 9.17,7.45 9.17,20.3 0,15.6 -12,22.590003 z m -52.87,-55.390003 v 12.16 h 14.33 a 4.77,4.77 0 0 0 3.9,-1.66 6.34,6.34 0 0 0 1.38,-4.18 7.54,7.54 0 0 0 -1.32,-4.42 4.51,4.51 0 0 0 -4,-1.89 z"
     id="path54" />
</svg>
