<svg xmlns="http://www.w3.org/2000/svg" viewBox="45.998497009277344 15.997533798217773 48.00098419189453 48.00248718261719"><g fill="none"><path fill="#0065A6" d="M93.64 16.35c.33.34.44.84.3 1.28a58.27 58.27 0 0 0-1.82 7.78c-.65 3.49-1.22 7.92-1.22 14.58s.57 11.1 1.22 14.59c.65 3.48 1.21 6.1 1.8 7.77a1.23 1.23 0 0 1-1.57 1.57 57.92 57.92 0 0 0-7.76-1.81 76.38 76.38 0 0 0-14.6-1.22c-6.66 0-11.1.57-14.58 1.22a57.91 57.91 0 0 0-7.78 1.82 1.25 1.25 0 0 1-1.28-.28 1.24 1.24 0 0 1-.28-1.28 56.6 56.6 0 0 0 1.82-7.78c.65-3.48 1.22-7.92 1.22-14.58s-.57-11.1-1.22-14.59a58.09 58.09 0 0 0-1.81-7.76 1.23 1.23 0 0 1 1.57-1.58 58 58 0 0 0 7.77 1.81 76.3 76.3 0 0 0 14.6 1.22c6.66 0 11.1-.57 14.58-1.22a58.3 58.3 0 0 0 7.77-1.82c.44-.16.94-.05 1.27.28z"/><path fill="#FFF" d="M60.09 40.12h-1.8c-.4 0-.57-.21-.57-.62v-8.9h1.79c.41 0 .58.23.58.63v8.9zm0-10.9h-1.8c-.4 0-.57-.22-.57-.62V27h1.79c.41 0 .58.22.58.62v1.6zm4.21 4v5.06c.38.13.77.2 1.17.2 1.5 0 2.15-.96 2.15-3.02 0-2.13-.53-3.14-1.56-3.14-.68 0-1.2.35-1.76.9zm-2.37 6V27h1.8c.4 0 .57.22.57.62v3.78a3.5 3.5 0 0 1 2.41-1.04c2.62 0 3.42 2.1 3.42 4.71 0 3.16-1.31 5.19-4.78 5.19-.95 0-1.9-.13-2.82-.39-.43-.13-.6-.23-.6-.65zm11.93.9h-1.79c-.41 0-.58-.22-.58-.62v-8.9h1.8c.4 0 .57.23.57.63v8.9zm0-10.9h-1.79c-.41 0-.58-.22-.58-.63V27h1.8c.4 0 .57.22.57.62v1.6zm7.77 8.17c0 1.78-1.43 2.87-3.44 2.87a7.9 7.9 0 0 1-2.42-.34.67.67 0 0 1-.4-.64v-1.2c.76.2 1.76.37 2.4.37 1.09 0 1.52-.32 1.52-.93 0-1.53-4.02-1.16-4.02-4.3 0-1.49 1-2.73 3.22-2.73a7.33 7.33 0 0 1 2.23.34c.26.1.43.35.4.63v1.21a8.07 8.07 0 0 0-2.2-.37c-1.1 0-1.32.34-1.32.8 0 1.27 4.03 1 4.03 4.29zM54.6 40.43h.52c.21 0 .28.08.24.29l-.5 2.75a3.02 3.02 0 0 1 1.81-.72c1.62 0 2.13 1.16 1.75 3.26-.41 2.22-1.45 3.59-3.75 3.59a5.5 5.5 0 0 1-1.37-.17c-.26-.05-.34-.09-.28-.38l1.58-8.62zm-.72 8.37c.31.09.64.13.96.12 1.48 0 2.3-.8 2.68-2.82.36-1.97-.15-2.65-1.13-2.65-.64 0-1.12.28-1.66.7l-.85 4.65zm9.08.7c-.22 0-.28-.08-.24-.29l.04-.25h-.02c-.6.44-1.25.72-1.87.72-.7 0-1.19-.23-1.47-.75-.24-.4-.23-.94-.1-1.62l.8-4.39h.52c.22 0 .28.08.24.3l-.75 4.09c-.21 1.15.18 1.68 1.06 1.68.6 0 1.14-.32 1.7-.72l.98-5.35h.52c.21 0 .28.09.24.3l-1.15 6.28h-.5zm5.92 0c-.21 0-.28-.08-.24-.29l.05-.25a3.1 3.1 0 0 1-1.82.72c-1.62 0-2.13-1.16-1.75-3.26.41-2.22 1.45-3.59 3.75-3.59.31 0 .62.03.93.08l.45-2.48h.52c.22 0 .28.08.24.29L69.4 49.5h-.52zm.79-5.87a3.35 3.35 0 0 0-.97-.13c-1.48 0-2.3.8-2.67 2.82-.37 1.98.14 2.67 1.12 2.67.63 0 1.12-.29 1.66-.72l.85-4.64zm1.44 8.17c-.17-.06-.26-.14-.22-.33l.07-.41c.48.16.98.25 1.48.25 1.3 0 1.86-.55 2.14-2.06l.08-.47c-.58.46-1.24.72-1.84.72-1.62 0-2.13-1.15-1.75-3.19.38-2.11 1.43-3.48 3.72-3.48.46 0 .92.05 1.37.16.26.06.34.1.29.39l-1.08 5.88c-.35 1.9-1.26 2.74-2.94 2.74a3.85 3.85 0 0 1-1.32-.2zm4.48-8.17a3.35 3.35 0 0 0-.97-.13c-1.48 0-2.3.8-2.65 2.72-.36 1.91.15 2.6 1.14 2.6.63 0 1.12-.3 1.65-.72l.82-4.47zm5.43 5.43a.4.4 0 0 1-.34.34 5.47 5.47 0 0 1-1.54.2c-1.8 0-2.57-1.01-2.14-3.38.42-2.25 1.55-3.47 3.15-3.47 1.58 0 2.13 1.22 1.78 3.13-.06.36-.21.49-.58.49h-3.49c-.31 1.82.15 2.54 1.54 2.54a6.08 6.08 0 0 0 1.69-.25l-.07.4zm-3.04-3.34h3.17c.27-1.46-.1-2.33-1.11-2.33-.96 0-1.66.67-2.06 2.33zm6.93 3.44a.4.4 0 0 1-.35.36 3.98 3.98 0 0 1-.76.07c-1.13 0-1.45-.6-1.21-1.9l1.16-6.3h.51c.22 0 .28.07.25.28l-.23 1.25h1.48c.2 0 .27.08.23.3l-.08.41h-1.76l-.74 4.04c-.16.86.05 1.23.71 1.23.3 0 .58-.04.86-.12l-.07.37z"/></g></svg>