<svg id="Capa_1" data-name="Capa 1" xmlns="http://www.w3.org/2000/svg" viewBox="0 0 841.89 595.28"><path d="M245.38,402.38v5.52h7.71l-.05.59c-.19,4.1-3.37,6.84-8.1,6.84-5.82,0-9.48-4.45-9.48-11.53s3.47-11.14,9.09-11.14c3.8,0,6.78,2,7.71,5.18h8.11c-1.12-6.84-7.62-11.48-16.07-11.48-10.35,0-17,6.84-17,17.68s6.64,17.59,17.34,17.59c10.21,0,16.17-5.77,16.17-15.88,0-1-.05-2.39-.15-3.37Z" style="fill:#617f72;stroke:#607f72;stroke-miterlimit:10"/><path d="M305,398.52c0-6.93-4.83-11.62-12-11.62H278.45v34.19h8.11V410h5.18l5.61,11.14H306l-6.94-12.6A10.69,10.69,0,0,0,305,398.52Zm-13.58,5h-5V393.3h5c3.23,0,5.38,2,5.38,5.13S294.67,403.55,291.44,403.55Z" style="fill:#617f72;stroke:#607f72;stroke-miterlimit:10"/><polygon points="322.62 421.09 346.16 421.09 346.16 414.69 330.72 414.69 330.72 406.83 344.2 406.83 344.2 400.77 330.72 400.77 330.72 393.3 346.16 393.3 346.16 386.9 322.62 386.9 322.62 421.09" style="fill:#617f72;stroke:#607f72;stroke-miterlimit:10"/><polygon points="364.24 421.09 387.78 421.09 387.78 414.69 372.34 414.69 372.34 406.83 385.83 406.83 385.83 400.77 372.34 400.77 372.34 393.3 387.78 393.3 387.78 386.9 364.24 386.9 364.24 421.09" style="fill:#617f72;stroke:#607f72;stroke-miterlimit:10"/><polygon points="427.69 408.59 414.55 386.9 405.86 386.9 405.86 421.09 413.67 421.09 413.67 399.4 426.81 421.09 435.46 421.09 435.46 386.9 427.69 386.9 427.69 408.59" style="fill:#617f72;stroke:#607f72;stroke-miterlimit:10"/><path d="M492.37,415.13c-5.17,0-8.5-4.39-8.5-11.14s3.33-11.13,8.45-11.13a7.53,7.53,0,0,1,7.72,6.35h8.26c-.69-7.62-7.23-12.85-15.93-12.85-10.06,0-16.75,7-16.75,17.59s6.69,17.68,16.7,17.68c8.7,0,15-5,16.22-12.85h-8.35C499.5,412.69,496.52,415.13,492.37,415.13Z" style="fill:#617f72;stroke:#607f72;stroke-miterlimit:10"/><rect x="525.89" y="386.9" width="8.11" height="34.19" style="fill:#617f72;stroke:#607f72;stroke-miterlimit:10"/><polygon points="550.85 393.3 560.91 393.3 560.91 421.09 569.02 421.09 569.02 393.3 579.08 393.3 579.08 386.9 550.85 386.9 550.85 393.3" style="fill:#617f72;stroke:#607f72;stroke-miterlimit:10"/><polygon points="609.72 400.53 602.29 386.9 593.84 386.9 605.66 406.44 605.66 421.09 613.77 421.09 613.77 406.44 625.59 386.9 617.14 386.9 609.72 400.53" style="fill:#617f72;stroke:#607f72;stroke-miterlimit:10"/><path d="M513.39,216.47c-7.33,0-15.77,3.44-20.73,8.4v-9.68H458.6V352.42h34.06V271.27A20.74,20.74,0,0,1,524.82,254l18.81-28.39A54.57,54.57,0,0,0,513.39,216.47Z" style="fill:#617f72;stroke:#607f72;stroke-miterlimit:10"/><path d="M247.61,308.82v43.67h34.06V308.82a54.65,54.65,0,0,0-16.26-38.92,58.27,58.27,0,0,0,16.26-40.41V215.27H247.61v14.22a24.48,24.48,0,0,1-24.45,24.45,50.8,50.8,0,0,0-17,2.93V163.48H172.08v189h34.06V308.82a20.74,20.74,0,1,1,41.47,0Z" style="fill:#617f72;stroke:#607f72;stroke-miterlimit:10"/><path d="M369.05,215.12a68.73,68.73,0,1,0,68.72,68.73A68.8,68.8,0,0,0,369.05,215.12Zm0,103.39a34.67,34.67,0,1,1,34.66-34.66A34.7,34.7,0,0,1,369.05,318.51Z" style="fill:#617f72;stroke:#607f72;stroke-miterlimit:10"/><path d="M644.42,215v9.28a68.73,68.73,0,1,0,0,119.09v9h34.06V215Zm0,74.23a34.67,34.67,0,1,1,0-10.8Z" style="fill:#617f72;stroke:#607f72;stroke-miterlimit:10"/><path d="M245.38,402.38v5.52h7.71l-.05.59c-.19,4.1-3.37,6.84-8.1,6.84-5.82,0-9.48-4.45-9.48-11.53s3.47-11.14,9.09-11.14c3.8,0,6.78,2,7.71,5.18h8.11c-1.12-6.84-7.62-11.48-16.07-11.48-10.35,0-17,6.84-17,17.68s6.64,17.59,17.34,17.59c10.21,0,16.17-5.77,16.17-15.88,0-1-.05-2.39-.15-3.37Z" style="fill:#617f72;stroke:#607f72;stroke-miterlimit:10"/><path d="M305,398.52c0-6.93-4.83-11.62-12-11.62H278.45v34.19h8.11V410h5.18l5.61,11.14H306l-6.94-12.6A10.69,10.69,0,0,0,305,398.52Zm-13.58,5h-5V393.3h5c3.23,0,5.38,2,5.38,5.13S294.67,403.55,291.44,403.55Z" style="fill:#617f72;stroke:#607f72;stroke-miterlimit:10"/><polygon points="322.62 421.09 346.16 421.09 346.16 414.69 330.72 414.69 330.72 406.83 344.2 406.83 344.2 400.77 330.72 400.77 330.72 393.3 346.16 393.3 346.16 386.9 322.62 386.9 322.62 421.09" style="fill:#617f72;stroke:#607f72;stroke-miterlimit:10"/><polygon points="364.24 421.09 387.78 421.09 387.78 414.69 372.34 414.69 372.34 406.83 385.83 406.83 385.83 400.77 372.34 400.77 372.34 393.3 387.78 393.3 387.78 386.9 364.24 386.9 364.24 421.09" style="fill:#617f72;stroke:#607f72;stroke-miterlimit:10"/><polygon points="427.69 408.59 414.55 386.9 405.86 386.9 405.86 421.09 413.67 421.09 413.67 399.4 426.81 421.09 435.46 421.09 435.46 386.9 427.69 386.9 427.69 408.59" style="fill:#617f72;stroke:#607f72;stroke-miterlimit:10"/><path d="M492.37,415.13c-5.17,0-8.5-4.39-8.5-11.14s3.33-11.13,8.45-11.13a7.53,7.53,0,0,1,7.72,6.35h8.26c-.69-7.62-7.23-12.85-15.93-12.85-10.06,0-16.75,7-16.75,17.59s6.69,17.68,16.7,17.68c8.7,0,15-5,16.22-12.85h-8.35C499.5,412.69,496.52,415.13,492.37,415.13Z" style="fill:#617f72;stroke:#607f72;stroke-miterlimit:10"/><rect x="525.89" y="386.9" width="8.11" height="34.19" style="fill:#617f72;stroke:#607f72;stroke-miterlimit:10"/><polygon points="550.85 393.3 560.91 393.3 560.91 421.09 569.02 421.09 569.02 393.3 579.08 393.3 579.08 386.9 550.85 386.9 550.85 393.3" style="fill:#617f72;stroke:#607f72;stroke-miterlimit:10"/><polygon points="609.72 400.53 602.29 386.9 593.84 386.9 605.66 406.44 605.66 421.09 613.77 421.09 613.77 406.44 625.59 386.9 617.14 386.9 609.72 400.53" style="fill:#617f72;stroke:#607f72;stroke-miterlimit:10"/><path d="M513.39,216.47c-7.33,0-15.77,3.44-20.73,8.4v-9.68H458.6V352.42h34.06V271.27A20.74,20.74,0,0,1,524.82,254l18.81-28.39A54.57,54.57,0,0,0,513.39,216.47Z" style="fill:#617f72;stroke:#607f72;stroke-miterlimit:10"/><path d="M247.61,308.82v43.67h34.06V308.82a54.65,54.65,0,0,0-16.26-38.92,58.27,58.27,0,0,0,16.26-40.41V215.27H247.61v14.22a24.48,24.48,0,0,1-24.45,24.45,50.8,50.8,0,0,0-17,2.93V163.48H172.08v189h34.06V308.82a20.74,20.74,0,1,1,41.47,0Z" style="fill:#617f72;stroke:#607f72;stroke-miterlimit:10"/><path d="M369.05,215.12a68.73,68.73,0,1,0,68.72,68.73A68.8,68.8,0,0,0,369.05,215.12Zm0,103.39a34.67,34.67,0,1,1,34.66-34.66A34.7,34.7,0,0,1,369.05,318.51Z" style="fill:#617f72;stroke:#607f72;stroke-miterlimit:10"/><path d="M644.42,215v9.28a68.73,68.73,0,1,0,0,119.09v9h34.06V215Zm0,74.23a34.67,34.67,0,1,1,0-10.8Z" style="fill:#617f72;stroke:#607f72;stroke-miterlimit:10"/></svg>