<svg id="Capa_1" data-name="Capa 1" xmlns="http://www.w3.org/2000/svg" viewBox="0 0 109 49"><path d="M20.737 5.325l-6.092 6.96h-3.263l4.655-6.96h4.7zM14.6 17.948h3.913v21.403H14.6V17.948zM31.469 38.74c-1.337-.726-2.35-1.724-3.046-3v3.61h-3.697V8.035h3.913v13.525c.636-1.276 1.604-2.274 2.895-3 1.291-.727 2.789-1.09 4.504-1.09 2.002 0 3.812.484 5.436 1.457 1.624.974 2.9 2.315 3.828 4.025.928 1.71 1.392 3.61 1.392 5.698 0 2.088-.465 3.99-1.392 5.7-.928 1.709-2.204 3.05-3.828 4.024-1.624.973-3.434 1.457-5.436 1.457-1.71 0-3.233-.363-4.57-1.09zm7.766-3.237c1.09-.68 1.941-1.614 2.567-2.804.625-1.19.933-2.537.933-4.044 0-1.508-.313-2.855-.933-4.045-.626-1.19-1.478-2.123-2.567-2.804-1.09-.68-2.315-1.024-3.676-1.024-1.362 0-2.598.343-3.697 1.024-1.104.68-1.967 1.619-2.587 2.804-.625 1.19-.933 2.537-.933 4.044 0 1.508.313 2.855.933 4.045.625 1.19 1.488 2.123 2.587 2.804 1.1.68 2.335 1.024 3.697 1.024 1.361-.005 2.587-.343 3.676-1.024zM71.324 26.305l-15.977 5.708c.833 1.982 2.063 3.384 3.697 4.201 1.634.817 3.389.893 5.275.217 1.473-.525 2.607-1.347 3.394-2.461.787-1.115 1.104-2.365.943-3.757l3.49-.323c.308 1.982-.162 3.853-1.412 5.608-1.25 1.755-3.036 3.046-5.361 3.878-2.022.721-3.969.908-5.85.565-1.876-.343-3.54-1.175-4.977-2.491-1.443-1.317-2.537-3.026-3.288-5.13-.732-2.047-.954-4.049-.666-5.995.287-1.952 1.039-3.657 2.26-5.124 1.215-1.468 2.793-2.547 4.73-3.238 1.855-.665 3.676-.827 5.456-.494a9.63 9.63 0 014.74 2.35c1.377 1.23 2.411 2.804 3.092 4.715.227.62.378 1.216.454 1.77zm-4.499-1.347c-.665-1.856-1.75-3.157-3.262-3.893-1.513-.737-3.183-.782-5.013-.126-1.72.615-2.945 1.684-3.682 3.207-.73 1.523-.872 3.268-.418 5.23l12.375-4.418zM76.604 17.948h3.873l-.046 6.48h.086c.378-2.057 1.332-3.696 2.87-4.916 1.538-1.22 3.333-1.826 5.396-1.826L89 21.73h-.48c-2.728 0-4.74.828-6.046 2.482-1.306 1.654-1.957 3.913-1.957 6.788v8.35h-3.913V17.949zM1.654 29.794C.55 28.518 0 26.547 0 23.88V0h3.913v23.53c0 1.625.248 2.815.742 3.566.494.757 1.361 1.13 2.612 1.13.812 0 1.594-.162 2.35-.48l.262 3.264c-.867.464-2.017.696-3.434.696-2.093 0-3.686-.636-4.79-1.912zM108.758 38.014H91.793c.116 2.149.807 3.878 2.068 5.2 1.26 1.321 2.895 1.977 4.892 1.977 1.563 0 2.905-.394 4.024-1.175 1.115-.782 1.836-1.856 2.154-3.218l3.394.868c-.379 1.971-1.453 3.575-3.218 4.806-1.77 1.23-3.888 1.85-6.35 1.85-2.147 0-4.044-.479-5.698-1.437-1.654-.958-2.935-2.3-3.848-4.024-.912-1.725-1.371-3.707-1.371-5.936 0-2.173.464-4.13 1.392-5.87.927-1.74 2.209-3.096 3.847-4.065 1.64-.973 3.485-1.457 5.548-1.457 1.972 0 3.742.459 5.305 1.372 1.563.912 2.789 2.183 3.676 3.807.883 1.624 1.327 3.45 1.327 5.482a9.208 9.208 0 01-.177 1.82zm-3.782-2.783c0-1.972-.585-3.56-1.76-4.766-1.175-1.2-2.733-1.805-4.675-1.805-1.825 0-3.343.595-4.544 1.785-1.205 1.19-1.921 2.784-2.153 4.786h13.132z"></path></svg>